<?xml version="1.0" encoding="UTF-8" standalone="no"?>
<!DOCTYPE svg PUBLIC "-//W3C//DTD SVG 1.1//EN"
 "http://www.w3.org/Graphics/SVG/1.1/DTD/svg11.dtd">
<!-- Generated by graphviz version 2.40.1 (20161225.0304)
 -->
<!-- Title: classes Pages: 1 -->
<svg width="611pt" height="682pt"
 viewBox="0.00 0.00 610.50 682.00" xmlns="http://www.w3.org/2000/svg" xmlns:xlink="http://www.w3.org/1999/xlink">
<g id="graph0" class="graph" transform="scale(1 1) rotate(0) translate(4 678)">
<title>classes</title>
<polygon fill="#ffffff" stroke="transparent" points="-4,4 -4,-678 606.5,-678 606.5,4 -4,4"/>
<!-- classes -->
<g id="node1" class="node">
<title>classes</title>
<polygon fill="#efefef" stroke="transparent" points="195.5,-195.5 195.5,-230.5 396.5,-230.5 396.5,-195.5 195.5,-195.5"/>
<polygon fill="none" stroke="#000000" points="195.5,-195.5 195.5,-230.5 396.5,-230.5 396.5,-195.5 195.5,-195.5"/>
<text text-anchor="start" x="202.2127" y="-208.3" font-family="Arial Bold" font-size="18.00" fill="#000000">classes</text>
<text text-anchor="start" x="262.2193" y="-208.3" font-family="Arial" font-size="14.00" fill="#000000">    </text>
<text text-anchor="start" x="296.4241" y="-208.3" font-family="Arial" font-size="14.00" fill="#666666">[BASE TABLE]</text>
<polygon fill="none" stroke="#000000" points="195.5,-165.5 195.5,-195.5 396.5,-195.5 396.5,-165.5 195.5,-165.5"/>
<text text-anchor="start" x="202.5" y="-176.9" font-family="Arial" font-size="14.00" fill="#000000">id </text>
<text text-anchor="start" x="217.2798" y="-176.9" font-family="Arial" font-size="14.00" fill="#666666">[int]</text>
<polygon fill="none" stroke="#000000" points="195.5,-135.5 195.5,-165.5 396.5,-165.5 396.5,-135.5 195.5,-135.5"/>
<text text-anchor="start" x="202.5" y="-146.9" font-family="Arial" font-size="14.00" fill="#000000">name </text>
<text text-anchor="start" x="241.399" y="-146.9" font-family="Arial" font-size="14.00" fill="#666666">[varchar(64)]</text>
<polygon fill="none" stroke="#000000" points="195.5,-105.5 195.5,-135.5 396.5,-135.5 396.5,-105.5 195.5,-105.5"/>
<text text-anchor="start" x="202.5" y="-116.9" font-family="Arial" font-size="14.00" fill="#000000">description </text>
<text text-anchor="start" x="274.068" y="-116.9" font-family="Arial" font-size="14.00" fill="#666666">[varchar(128)]</text>
<polygon fill="none" stroke="#000000" points="195.5,-75.5 195.5,-105.5 396.5,-105.5 396.5,-75.5 195.5,-75.5"/>
<text text-anchor="start" x="202.5" y="-86.9" font-family="Arial" font-size="14.00" fill="#000000">created_at </text>
<text text-anchor="start" x="272.528" y="-86.9" font-family="Arial" font-size="14.00" fill="#666666">[datetime(6)]</text>
<polygon fill="none" stroke="#000000" points="195.5,-45.5 195.5,-75.5 396.5,-75.5 396.5,-45.5 195.5,-45.5"/>
<text text-anchor="start" x="202.5" y="-56.9" font-family="Arial" font-size="14.00" fill="#000000">updated_at </text>
<text text-anchor="start" x="276.4326" y="-56.9" font-family="Arial" font-size="14.00" fill="#666666">[datetime(6)]</text>
<polygon fill="none" stroke="#000000" stroke-width="3" points="193.5,-44.5 193.5,-232.5 397.5,-232.5 397.5,-44.5 193.5,-44.5"/>
</g>
<!-- teams -->
<g id="node2" class="node">
<title>teams</title>
<polygon fill="#efefef" stroke="transparent" points="43.5,-580.5 43.5,-615.5 246.5,-615.5 246.5,-580.5 43.5,-580.5"/>
<polygon fill="none" stroke="#000000" points="43.5,-580.5 43.5,-615.5 246.5,-615.5 246.5,-580.5 43.5,-580.5"/>
<text text-anchor="start" x="56.7126" y="-593.3" font-family="Arial Bold" font-size="18.00" fill="#000000">teams</text>
<text text-anchor="start" x="105.7194" y="-593.3" font-family="Arial" font-size="14.00" fill="#000000">    </text>
<text text-anchor="start" x="139.9242" y="-593.3" font-family="Arial" font-size="14.00" fill="#666666">[BASE TABLE]</text>
<polygon fill="none" stroke="#000000" points="43.5,-550.5 43.5,-580.5 246.5,-580.5 246.5,-550.5 43.5,-550.5"/>
<text text-anchor="start" x="50.5" y="-561.9" font-family="Arial" font-size="14.00" fill="#000000">id    </text>
<text text-anchor="start" x="95.594" y="-561.9" font-family="Arial" font-size="14.00" fill="#666666">[int]</text>
<polygon fill="none" stroke="#000000" points="43.5,-520.5 43.5,-550.5 246.5,-550.5 246.5,-520.5 43.5,-520.5"/>
<text text-anchor="start" x="50.5" y="-531.9" font-family="Arial" font-size="14.00" fill="#000000">name    </text>
<text text-anchor="start" x="119.7132" y="-531.9" font-family="Arial" font-size="14.00" fill="#666666">[varchar(64)]</text>
<polygon fill="none" stroke="#000000" points="43.5,-490.5 43.5,-520.5 246.5,-520.5 246.5,-490.5 43.5,-490.5"/>
<text text-anchor="start" x="50.4993" y="-501.9" font-family="Arial" font-size="14.00" fill="#000000">description    </text>
<text text-anchor="start" x="152.3815" y="-501.9" font-family="Arial" font-size="14.00" fill="#666666">[varchar(128)]</text>
<polygon fill="none" stroke="#000000" points="43.5,-460.5 43.5,-490.5 246.5,-490.5 246.5,-460.5 43.5,-460.5"/>
<text text-anchor="start" x="50.5" y="-471.9" font-family="Arial" font-size="14.00" fill="#000000">class    </text>
<text text-anchor="start" x="116.594" y="-471.9" font-family="Arial" font-size="14.00" fill="#666666">[int]</text>
<polygon fill="none" stroke="#000000" points="43.5,-430.5 43.5,-460.5 246.5,-460.5 246.5,-430.5 43.5,-430.5"/>
<text text-anchor="start" x="50.5" y="-441.9" font-family="Arial" font-size="14.00" fill="#000000">team_tag    </text>
<text text-anchor="start" x="143.0596" y="-441.9" font-family="Arial" font-size="14.00" fill="#666666">[int]</text>
<polygon fill="none" stroke="#000000" points="43.5,-400.5 43.5,-430.5 246.5,-430.5 246.5,-400.5 43.5,-400.5"/>
<text text-anchor="start" x="50.5" y="-411.9" font-family="Arial" font-size="14.00" fill="#000000">created_at    </text>
<text text-anchor="start" x="150.8422" y="-411.9" font-family="Arial" font-size="14.00" fill="#666666">[datetime(6)]</text>
<polygon fill="none" stroke="#000000" points="43.5,-370.5 43.5,-400.5 246.5,-400.5 246.5,-370.5 43.5,-370.5"/>
<text text-anchor="start" x="50.5" y="-381.9" font-family="Arial" font-size="14.00" fill="#000000">updated_at    </text>
<text text-anchor="start" x="154.7468" y="-381.9" font-family="Arial" font-size="14.00" fill="#666666">[datetime(6)]</text>
</g>
<!-- teams&#45;&gt;classes -->
<g id="edge1" class="edge">
<title>teams:class&#45;&gt;classes:id</title>
<path fill="none" stroke="#000000" d="M256.641,-474.6839C307.5206,-465.7365 270.1661,-385.135 246.5,-328 234.2329,-298.3846 207.7671,-306.6154 195.5,-277 179.0871,-237.3758 152.6111,-180.5 195.5,-180.5"/>
<polygon fill="#000000" stroke="#000000" points="256.4678,-474.6977 246.139,-471.0145 251.4839,-475.0989 246.5,-475.5 246.5,-475.5 246.5,-475.5 251.4839,-475.0989 246.861,-479.9855 256.4678,-474.6977 256.4678,-474.6977"/>
<text text-anchor="start" x="253.003" y="-485.5" font-family="Arial" font-size="10.00" fill="#000000">FOREIGN KEY (class) REFERENCES classes (id)</text>
</g>
<!-- users -->
<g id="node3" class="node">
<title>users</title>
<polygon fill="#efefef" stroke="transparent" points="350.5,-595.5 350.5,-630.5 546.5,-630.5 546.5,-595.5 350.5,-595.5"/>
<polygon fill="none" stroke="#000000" points="350.5,-595.5 350.5,-630.5 546.5,-630.5 546.5,-595.5 350.5,-595.5"/>
<text text-anchor="start" x="362.7137" y="-608.3" font-family="Arial Bold" font-size="18.00" fill="#000000">users</text>
<text text-anchor="start" x="406.7183" y="-608.3" font-family="Arial" font-size="14.00" fill="#000000">    </text>
<text text-anchor="start" x="440.9231" y="-608.3" font-family="Arial" font-size="14.00" fill="#666666">[BASE TABLE]</text>
<polygon fill="none" stroke="#000000" points="350.5,-565.5 350.5,-595.5 546.5,-595.5 546.5,-565.5 350.5,-565.5"/>
<text text-anchor="start" x="357.5" y="-576.9" font-family="Arial" font-size="14.00" fill="#000000">id    </text>
<text text-anchor="start" x="402.594" y="-576.9" font-family="Arial" font-size="14.00" fill="#666666">[int]</text>
<polygon fill="none" stroke="#000000" points="350.5,-535.5 350.5,-565.5 546.5,-565.5 546.5,-535.5 350.5,-535.5"/>
<text text-anchor="start" x="357.5" y="-546.9" font-family="Arial" font-size="14.00" fill="#000000">name    </text>
<text text-anchor="start" x="426.7132" y="-546.9" font-family="Arial" font-size="14.00" fill="#666666">[varchar(128)]</text>
<polygon fill="none" stroke="#000000" points="350.5,-505.5 350.5,-535.5 546.5,-535.5 546.5,-505.5 350.5,-505.5"/>
<text text-anchor="start" x="357.5" y="-516.9" font-family="Arial" font-size="14.00" fill="#000000">email    </text>
<text text-anchor="start" x="425.1438" y="-516.9" font-family="Arial" font-size="14.00" fill="#666666">[varchar(320)]</text>
<polygon fill="none" stroke="#000000" points="350.5,-475.5 350.5,-505.5 546.5,-505.5 546.5,-475.5 350.5,-475.5"/>
<text text-anchor="start" x="357.5" y="-486.9" font-family="Arial" font-size="14.00" fill="#000000">gender    </text>
<text text-anchor="start" x="435.2784" y="-486.9" font-family="Arial" font-size="14.00" fill="#666666">[varchar(10)]</text>
<polygon fill="none" stroke="#000000" points="350.5,-445.5 350.5,-475.5 546.5,-475.5 546.5,-445.5 350.5,-445.5"/>
<text text-anchor="start" x="357.5" y="-456.9" font-family="Arial" font-size="14.00" fill="#000000">class_id    </text>
<text text-anchor="start" x="442.2658" y="-456.9" font-family="Arial" font-size="14.00" fill="#666666">[int]</text>
<polygon fill="none" stroke="#000000" points="350.5,-415.5 350.5,-445.5 546.5,-445.5 546.5,-415.5 350.5,-415.5"/>
<text text-anchor="start" x="357.5" y="-426.9" font-family="Arial" font-size="14.00" fill="#000000">role_id    </text>
<text text-anchor="start" x="433.709" y="-426.9" font-family="Arial" font-size="14.00" fill="#666666">[int]</text>
<polygon fill="none" stroke="#000000" points="350.5,-385.5 350.5,-415.5 546.5,-415.5 546.5,-385.5 350.5,-385.5"/>
<text text-anchor="start" x="357.5" y="-396.9" font-family="Arial" font-size="14.00" fill="#000000">created_at    </text>
<text text-anchor="start" x="457.8422" y="-396.9" font-family="Arial" font-size="14.00" fill="#666666">[datetime(6)]</text>
<polygon fill="none" stroke="#000000" points="350.5,-355.5 350.5,-385.5 546.5,-385.5 546.5,-355.5 350.5,-355.5"/>
<text text-anchor="start" x="357.0947" y="-366.9" font-family="Arial" font-size="14.00" fill="#000000">updated_at    </text>
<text text-anchor="start" x="461.3415" y="-366.9" font-family="Arial" font-size="14.00" fill="#666666">[datetime(6)]</text>
</g>
<!-- users&#45;&gt;classes -->
<g id="edge2" class="edge">
<title>users:class_id&#45;&gt;classes:id</title>
<path fill="none" stroke="#000000" d="M340.3261,-459.6691C289.0919,-450.5621 323.4129,-368.5947 350.5,-313 361.871,-289.6617 385.129,-300.3383 396.5,-277 415.2854,-238.444 439.3889,-180.5 396.5,-180.5"/>
<polygon fill="#000000" stroke="#000000" points="340.5332,-459.6859 350.1336,-464.9851 345.5166,-460.0929 350.5,-460.5 350.5,-460.5 350.5,-460.5 345.5166,-460.0929 350.8664,-456.0149 340.5332,-459.6859 340.5332,-459.6859"/>
<text text-anchor="start" x="357.3345" y="-444.5" font-family="Arial" font-size="10.00" fill="#000000">FOREIGN KEY (class_id) REFERENCES classes (id)</text>
</g>
</g>
</svg>
