<?xml version="1.0" encoding="UTF-8" standalone="no"?>
<!DOCTYPE svg PUBLIC "-//W3C//DTD SVG 1.1//EN"
 "http://www.w3.org/Graphics/SVG/1.1/DTD/svg11.dtd">
<!-- Generated by graphviz version 2.40.1 (20161225.0304)
 -->
<!-- Title: classes Pages: 1 -->
<svg width="654pt" height="1019pt"
 viewBox="0.00 0.00 654.00 1019.00" xmlns="http://www.w3.org/2000/svg" xmlns:xlink="http://www.w3.org/1999/xlink">
<g id="graph0" class="graph" transform="scale(1 1) rotate(0) translate(4 1015)">
<title>classes</title>
<polygon fill="#ffffff" stroke="transparent" points="-4,4 -4,-1015 650,-1015 650,4 -4,4"/>
<!-- classes -->
<g id="node1" class="node">
<title>classes</title>
<polygon fill="#efefef" stroke="transparent" points="239,-532.5 239,-567.5 440,-567.5 440,-532.5 239,-532.5"/>
<polygon fill="none" stroke="#000000" points="239,-532.5 239,-567.5 440,-567.5 440,-532.5 239,-532.5"/>
<text text-anchor="start" x="245.7127" y="-545.3" font-family="Arial Bold" font-size="18.00" fill="#000000">classes</text>
<text text-anchor="start" x="305.7193" y="-545.3" font-family="Arial" font-size="14.00" fill="#000000">    </text>
<text text-anchor="start" x="339.9241" y="-545.3" font-family="Arial" font-size="14.00" fill="#666666">[BASE TABLE]</text>
<polygon fill="none" stroke="#000000" points="239,-502.5 239,-532.5 440,-532.5 440,-502.5 239,-502.5"/>
<text text-anchor="start" x="246" y="-513.9" font-family="Arial" font-size="14.00" fill="#000000">id </text>
<text text-anchor="start" x="260.7798" y="-513.9" font-family="Arial" font-size="14.00" fill="#666666">[int]</text>
<polygon fill="none" stroke="#000000" points="239,-472.5 239,-502.5 440,-502.5 440,-472.5 239,-472.5"/>
<text text-anchor="start" x="246" y="-483.9" font-family="Arial" font-size="14.00" fill="#000000">name </text>
<text text-anchor="start" x="284.899" y="-483.9" font-family="Arial" font-size="14.00" fill="#666666">[varchar(64)]</text>
<polygon fill="none" stroke="#000000" points="239,-442.5 239,-472.5 440,-472.5 440,-442.5 239,-442.5"/>
<text text-anchor="start" x="246" y="-453.9" font-family="Arial" font-size="14.00" fill="#000000">description </text>
<text text-anchor="start" x="317.568" y="-453.9" font-family="Arial" font-size="14.00" fill="#666666">[varchar(128)]</text>
<polygon fill="none" stroke="#000000" points="239,-412.5 239,-442.5 440,-442.5 440,-412.5 239,-412.5"/>
<text text-anchor="start" x="246" y="-423.9" font-family="Arial" font-size="14.00" fill="#000000">group </text>
<text text-anchor="start" x="285.6816" y="-423.9" font-family="Arial" font-size="14.00" fill="#666666">[int]</text>
<polygon fill="none" stroke="#000000" points="239,-382.5 239,-412.5 440,-412.5 440,-382.5 239,-382.5"/>
<text text-anchor="start" x="246" y="-393.9" font-family="Arial" font-size="14.00" fill="#000000">created_at </text>
<text text-anchor="start" x="316.028" y="-393.9" font-family="Arial" font-size="14.00" fill="#666666">[datetime(6)]</text>
<polygon fill="none" stroke="#000000" points="239,-352.5 239,-382.5 440,-382.5 440,-352.5 239,-352.5"/>
<text text-anchor="start" x="246" y="-363.9" font-family="Arial" font-size="14.00" fill="#000000">updated_at </text>
<text text-anchor="start" x="319.9326" y="-363.9" font-family="Arial" font-size="14.00" fill="#666666">[datetime(6)]</text>
<polygon fill="none" stroke="#000000" stroke-width="3" points="237,-351.5 237,-569.5 441,-569.5 441,-351.5 237,-351.5"/>
</g>
<!-- groups -->
<g id="node4" class="node">
<title>groups</title>
<polygon fill="#efefef" stroke="transparent" points="238,-192.5 238,-227.5 441,-227.5 441,-192.5 238,-192.5"/>
<polygon fill="none" stroke="#000000" points="238,-192.5 238,-227.5 441,-227.5 441,-192.5 238,-192.5"/>
<text text-anchor="start" x="248.2075" y="-205.3" font-family="Arial Bold" font-size="18.00" fill="#000000">groups</text>
<text text-anchor="start" x="303.2245" y="-205.3" font-family="Arial" font-size="14.00" fill="#000000">    </text>
<text text-anchor="start" x="337.4293" y="-205.3" font-family="Arial" font-size="14.00" fill="#666666">[BASE TABLE]</text>
<polygon fill="none" stroke="#000000" points="238,-162.5 238,-192.5 441,-192.5 441,-162.5 238,-162.5"/>
<text text-anchor="start" x="245" y="-173.9" font-family="Arial" font-size="14.00" fill="#000000">id    </text>
<text text-anchor="start" x="290.094" y="-173.9" font-family="Arial" font-size="14.00" fill="#666666">[int]</text>
<polygon fill="none" stroke="#000000" points="238,-132.5 238,-162.5 441,-162.5 441,-132.5 238,-132.5"/>
<text text-anchor="start" x="245" y="-143.9" font-family="Arial" font-size="14.00" fill="#000000">name    </text>
<text text-anchor="start" x="314.2132" y="-143.9" font-family="Arial" font-size="14.00" fill="#666666">[varchar(64)]</text>
<polygon fill="none" stroke="#000000" points="238,-102.5 238,-132.5 441,-132.5 441,-102.5 238,-102.5"/>
<text text-anchor="start" x="244.9993" y="-113.9" font-family="Arial" font-size="14.00" fill="#000000">description    </text>
<text text-anchor="start" x="346.8815" y="-113.9" font-family="Arial" font-size="14.00" fill="#666666">[varchar(128)]</text>
<polygon fill="none" stroke="#000000" points="238,-72.5 238,-102.5 441,-102.5 441,-72.5 238,-72.5"/>
<text text-anchor="start" x="245" y="-83.9" font-family="Arial" font-size="14.00" fill="#000000">created_at    </text>
<text text-anchor="start" x="345.3422" y="-83.9" font-family="Arial" font-size="14.00" fill="#666666">[datetime(6)]</text>
<polygon fill="none" stroke="#000000" points="238,-42.5 238,-72.5 441,-72.5 441,-42.5 238,-42.5"/>
<text text-anchor="start" x="245" y="-53.9" font-family="Arial" font-size="14.00" fill="#000000">updated_at    </text>
<text text-anchor="start" x="349.2468" y="-53.9" font-family="Arial" font-size="14.00" fill="#666666">[datetime(6)]</text>
</g>
<!-- classes&#45;&gt;groups -->
<g id="edge3" class="edge">
<title>classes:group&#45;&gt;groups:id</title>
<path fill="none" stroke="#000000" d="M228.9059,-426.7828C127.935,-412.1191 130.3603,-177.5 238,-177.5"/>
<polygon fill="#000000" stroke="#000000" points="229.0251,-426.7912 238.681,-431.9887 234.0126,-427.1456 239,-427.5 239,-427.5 239,-427.5 234.0126,-427.1456 239.319,-423.0113 229.0251,-426.7912 229.0251,-426.7912"/>
<text text-anchor="start" x="7.4955" y="-437.5" font-family="Arial" font-size="10.00" fill="#000000">FOREIGN KEY (group) REFERENCES groups (id)</text>
</g>
<!-- teams -->
<g id="node2" class="node">
<title>teams</title>
<polygon fill="#efefef" stroke="transparent" points="87,-902.5 87,-937.5 290,-937.5 290,-902.5 87,-902.5"/>
<polygon fill="none" stroke="#000000" points="87,-902.5 87,-937.5 290,-937.5 290,-902.5 87,-902.5"/>
<text text-anchor="start" x="100.2126" y="-915.3" font-family="Arial Bold" font-size="18.00" fill="#000000">teams</text>
<text text-anchor="start" x="149.2194" y="-915.3" font-family="Arial" font-size="14.00" fill="#000000">    </text>
<text text-anchor="start" x="183.4242" y="-915.3" font-family="Arial" font-size="14.00" fill="#666666">[BASE TABLE]</text>
<polygon fill="none" stroke="#000000" points="87,-872.5 87,-902.5 290,-902.5 290,-872.5 87,-872.5"/>
<text text-anchor="start" x="94" y="-883.9" font-family="Arial" font-size="14.00" fill="#000000">id    </text>
<text text-anchor="start" x="139.094" y="-883.9" font-family="Arial" font-size="14.00" fill="#666666">[int]</text>
<polygon fill="none" stroke="#000000" points="87,-842.5 87,-872.5 290,-872.5 290,-842.5 87,-842.5"/>
<text text-anchor="start" x="94" y="-853.9" font-family="Arial" font-size="14.00" fill="#000000">name    </text>
<text text-anchor="start" x="163.2132" y="-853.9" font-family="Arial" font-size="14.00" fill="#666666">[varchar(64)]</text>
<polygon fill="none" stroke="#000000" points="87,-812.5 87,-842.5 290,-842.5 290,-812.5 87,-812.5"/>
<text text-anchor="start" x="93.9993" y="-823.9" font-family="Arial" font-size="14.00" fill="#000000">description    </text>
<text text-anchor="start" x="195.8815" y="-823.9" font-family="Arial" font-size="14.00" fill="#666666">[varchar(128)]</text>
<polygon fill="none" stroke="#000000" points="87,-782.5 87,-812.5 290,-812.5 290,-782.5 87,-782.5"/>
<text text-anchor="start" x="94" y="-793.9" font-family="Arial" font-size="14.00" fill="#000000">class    </text>
<text text-anchor="start" x="160.094" y="-793.9" font-family="Arial" font-size="14.00" fill="#666666">[int]</text>
<polygon fill="none" stroke="#000000" points="87,-752.5 87,-782.5 290,-782.5 290,-752.5 87,-752.5"/>
<text text-anchor="start" x="94" y="-763.9" font-family="Arial" font-size="14.00" fill="#000000">created_at    </text>
<text text-anchor="start" x="194.3422" y="-763.9" font-family="Arial" font-size="14.00" fill="#666666">[datetime(6)]</text>
<polygon fill="none" stroke="#000000" points="87,-722.5 87,-752.5 290,-752.5 290,-722.5 87,-722.5"/>
<text text-anchor="start" x="94" y="-733.9" font-family="Arial" font-size="14.00" fill="#000000">updated_at    </text>
<text text-anchor="start" x="198.2468" y="-733.9" font-family="Arial" font-size="14.00" fill="#666666">[datetime(6)]</text>
</g>
<!-- teams&#45;&gt;classes -->
<g id="edge1" class="edge">
<title>teams:class&#45;&gt;classes:id</title>
<path fill="none" stroke="#000000" d="M300.2238,-796.4105C337.0764,-787.4975 305.618,-725.7542 290,-680 278.0246,-644.9171 250.9754,-649.0829 239,-614 225.145,-573.4106 196.1111,-517.5 239,-517.5"/>
<polygon fill="#000000" stroke="#000000" points="299.9437,-796.4402 289.5231,-793.0253 294.9718,-796.9701 290,-797.5 290,-797.5 290,-797.5 294.9718,-796.9701 290.4769,-801.9747 299.9437,-796.4402 299.9437,-796.4402"/>
<text text-anchor="start" x="296.503" y="-807.5" font-family="Arial" font-size="10.00" fill="#000000">FOREIGN KEY (class) REFERENCES classes (id)</text>
</g>
<!-- users -->
<g id="node3" class="node">
<title>users</title>
<polygon fill="#efefef" stroke="transparent" points="394,-932.5 394,-967.5 590,-967.5 590,-932.5 394,-932.5"/>
<polygon fill="none" stroke="#000000" points="394,-932.5 394,-967.5 590,-967.5 590,-932.5 394,-932.5"/>
<text text-anchor="start" x="406.2137" y="-945.3" font-family="Arial Bold" font-size="18.00" fill="#000000">users</text>
<text text-anchor="start" x="450.2183" y="-945.3" font-family="Arial" font-size="14.00" fill="#000000">    </text>
<text text-anchor="start" x="484.4231" y="-945.3" font-family="Arial" font-size="14.00" fill="#666666">[BASE TABLE]</text>
<polygon fill="none" stroke="#000000" points="394,-902.5 394,-932.5 590,-932.5 590,-902.5 394,-902.5"/>
<text text-anchor="start" x="401" y="-913.9" font-family="Arial" font-size="14.00" fill="#000000">id    </text>
<text text-anchor="start" x="446.094" y="-913.9" font-family="Arial" font-size="14.00" fill="#666666">[int]</text>
<polygon fill="none" stroke="#000000" points="394,-872.5 394,-902.5 590,-902.5 590,-872.5 394,-872.5"/>
<text text-anchor="start" x="401" y="-883.9" font-family="Arial" font-size="14.00" fill="#000000">name    </text>
<text text-anchor="start" x="470.2132" y="-883.9" font-family="Arial" font-size="14.00" fill="#666666">[varchar(128)]</text>
<polygon fill="none" stroke="#000000" points="394,-842.5 394,-872.5 590,-872.5 590,-842.5 394,-842.5"/>
<text text-anchor="start" x="401" y="-853.9" font-family="Arial" font-size="14.00" fill="#000000">email    </text>
<text text-anchor="start" x="468.6438" y="-853.9" font-family="Arial" font-size="14.00" fill="#666666">[varchar(320)]</text>
<polygon fill="none" stroke="#000000" points="394,-812.5 394,-842.5 590,-842.5 590,-812.5 394,-812.5"/>
<text text-anchor="start" x="401" y="-823.9" font-family="Arial" font-size="14.00" fill="#000000">gender    </text>
<text text-anchor="start" x="478.7784" y="-823.9" font-family="Arial" font-size="14.00" fill="#666666">[varchar(10)]</text>
<polygon fill="none" stroke="#000000" points="394,-782.5 394,-812.5 590,-812.5 590,-782.5 394,-782.5"/>
<text text-anchor="start" x="401" y="-793.9" font-family="Arial" font-size="14.00" fill="#000000">picture_id    </text>
<text text-anchor="start" x="495.8822" y="-793.9" font-family="Arial" font-size="14.00" fill="#666666">[int]</text>
<polygon fill="none" stroke="#000000" points="394,-752.5 394,-782.5 590,-782.5 590,-752.5 394,-752.5"/>
<text text-anchor="start" x="401" y="-763.9" font-family="Arial" font-size="14.00" fill="#000000">class_id    </text>
<text text-anchor="start" x="485.7658" y="-763.9" font-family="Arial" font-size="14.00" fill="#666666">[int]</text>
<polygon fill="none" stroke="#000000" points="394,-722.5 394,-752.5 590,-752.5 590,-722.5 394,-722.5"/>
<text text-anchor="start" x="401" y="-733.9" font-family="Arial" font-size="14.00" fill="#000000">created_at    </text>
<text text-anchor="start" x="501.3422" y="-733.9" font-family="Arial" font-size="14.00" fill="#666666">[datetime(6)]</text>
<polygon fill="none" stroke="#000000" points="394,-692.5 394,-722.5 590,-722.5 590,-692.5 394,-692.5"/>
<text text-anchor="start" x="400.5947" y="-703.9" font-family="Arial" font-size="14.00" fill="#000000">updated_at    </text>
<text text-anchor="start" x="504.8415" y="-703.9" font-family="Arial" font-size="14.00" fill="#666666">[datetime(6)]</text>
</g>
<!-- users&#45;&gt;classes -->
<g id="edge2" class="edge">
<title>users:class_id&#45;&gt;classes:id</title>
<path fill="none" stroke="#000000" d="M383.6844,-766.3726C346.0986,-757.1572 372.8242,-693.4621 394,-650 405.371,-626.6617 428.629,-637.3383 440,-614 458.7854,-575.444 482.8889,-517.5 440,-517.5"/>
<polygon fill="#000000" stroke="#000000" points="384.0592,-766.4135 393.5111,-771.9734 389.0296,-766.9567 394,-767.5 394,-767.5 394,-767.5 389.0296,-766.9567 394.4889,-763.0266 384.0592,-766.4135 384.0592,-766.4135"/>
<text text-anchor="start" x="400.8345" y="-777.5" font-family="Arial" font-size="10.00" fill="#000000">FOREIGN KEY (class_id) REFERENCES classes (id)</text>
</g>
</g>
</svg>
