<?xml version="1.0" encoding="UTF-8" standalone="no"?>
<!DOCTYPE svg PUBLIC "-//W3C//DTD SVG 1.1//EN"
 "http://www.w3.org/Graphics/SVG/1.1/DTD/svg11.dtd">
<!-- Generated by graphviz version 2.40.1 (20161225.0304)
 -->
<!-- Title: games Pages: 1 -->
<svg width="673pt" height="1409pt"
 viewBox="0.00 0.00 673.00 1409.00" xmlns="http://www.w3.org/2000/svg" xmlns:xlink="http://www.w3.org/1999/xlink">
<g id="graph0" class="graph" transform="scale(1 1) rotate(0) translate(4 1405)">
<title>games</title>
<polygon fill="#ffffff" stroke="transparent" points="-4,4 -4,-1405 669,-1405 669,4 -4,4"/>
<!-- games -->
<g id="node1" class="node">
<title>games</title>
<polygon fill="#efefef" stroke="transparent" points="236,-712.5 236,-747.5 433,-747.5 433,-712.5 236,-712.5"/>
<polygon fill="none" stroke="#000000" points="236,-712.5 236,-747.5 433,-747.5 433,-712.5 236,-712.5"/>
<text text-anchor="start" x="243.7106" y="-725.3" font-family="Arial Bold" font-size="18.00" fill="#000000">games</text>
<text text-anchor="start" x="297.7214" y="-725.3" font-family="Arial" font-size="14.00" fill="#000000">    </text>
<text text-anchor="start" x="331.9262" y="-725.3" font-family="Arial" font-size="14.00" fill="#666666">[BASE TABLE]</text>
<polygon fill="none" stroke="#000000" points="236,-682.5 236,-712.5 433,-712.5 433,-682.5 236,-682.5"/>
<text text-anchor="start" x="243" y="-693.9" font-family="Arial" font-size="14.00" fill="#000000">id </text>
<text text-anchor="start" x="257.7798" y="-693.9" font-family="Arial" font-size="14.00" fill="#666666">[int]</text>
<polygon fill="none" stroke="#000000" points="236,-652.5 236,-682.5 433,-682.5 433,-652.5 236,-652.5"/>
<text text-anchor="start" x="243" y="-663.9" font-family="Arial" font-size="14.00" fill="#000000">name </text>
<text text-anchor="start" x="281.899" y="-663.9" font-family="Arial" font-size="14.00" fill="#666666">[varchar(64)]</text>
<polygon fill="none" stroke="#000000" points="236,-622.5 236,-652.5 433,-652.5 433,-622.5 236,-622.5"/>
<text text-anchor="start" x="243" y="-633.9" font-family="Arial" font-size="14.00" fill="#000000">description </text>
<text text-anchor="start" x="314.568" y="-633.9" font-family="Arial" font-size="14.00" fill="#666666">[varchar(512)]</text>
<polygon fill="none" stroke="#000000" points="236,-592.5 236,-622.5 433,-622.5 433,-592.5 236,-592.5"/>
<text text-anchor="start" x="243" y="-603.9" font-family="Arial" font-size="14.00" fill="#000000">sport </text>
<text text-anchor="start" x="278.007" y="-603.9" font-family="Arial" font-size="14.00" fill="#666666">[int]</text>
<polygon fill="none" stroke="#000000" points="236,-562.5 236,-592.5 433,-592.5 433,-562.5 236,-562.5"/>
<text text-anchor="start" x="243" y="-573.9" font-family="Arial" font-size="14.00" fill="#000000">type </text>
<text text-anchor="start" x="273.3464" y="-573.9" font-family="Arial" font-size="14.00" fill="#666666">[varchar(32)]</text>
<polygon fill="none" stroke="#000000" points="236,-532.5 236,-562.5 433,-562.5 433,-532.5 236,-532.5"/>
<text text-anchor="start" x="242.7055" y="-543.9" font-family="Arial" font-size="14.00" fill="#000000">calculation_type </text>
<text text-anchor="start" x="346.9579" y="-543.9" font-family="Arial" font-size="14.00" fill="#666666">[varchar(32)]</text>
<polygon fill="none" stroke="#000000" points="236,-502.5 236,-532.5 433,-532.5 433,-502.5 236,-502.5"/>
<text text-anchor="start" x="243" y="-513.9" font-family="Arial" font-size="14.00" fill="#000000">weight </text>
<text text-anchor="start" x="287.3422" y="-513.9" font-family="Arial" font-size="14.00" fill="#666666">[int]</text>
<polygon fill="none" stroke="#000000" points="236,-472.5 236,-502.5 433,-502.5 433,-472.5 236,-472.5"/>
<text text-anchor="start" x="243" y="-483.9" font-family="Arial" font-size="14.00" fill="#000000">created_at </text>
<text text-anchor="start" x="313.028" y="-483.9" font-family="Arial" font-size="14.00" fill="#666666">[datetime(6)]</text>
<polygon fill="none" stroke="#000000" points="236,-442.5 236,-472.5 433,-472.5 433,-442.5 236,-442.5"/>
<text text-anchor="start" x="243" y="-453.9" font-family="Arial" font-size="14.00" fill="#000000">updated_at </text>
<text text-anchor="start" x="316.9326" y="-453.9" font-family="Arial" font-size="14.00" fill="#666666">[datetime(6)]</text>
<polygon fill="none" stroke="#000000" stroke-width="3" points="234,-441.5 234,-749.5 434,-749.5 434,-441.5 234,-441.5"/>
</g>
<!-- sports -->
<g id="node4" class="node">
<title>sports</title>
<polygon fill="#efefef" stroke="transparent" points="237,-282.5 237,-317.5 433,-317.5 433,-282.5 237,-282.5"/>
<polygon fill="none" stroke="#000000" points="237,-282.5 237,-317.5 433,-317.5 433,-282.5 237,-282.5"/>
<text text-anchor="start" x="246.7126" y="-295.3" font-family="Arial Bold" font-size="18.00" fill="#000000">sports</text>
<text text-anchor="start" x="295.7194" y="-295.3" font-family="Arial" font-size="14.00" fill="#000000">    </text>
<text text-anchor="start" x="329.9242" y="-295.3" font-family="Arial" font-size="14.00" fill="#666666">[BASE TABLE]</text>
<polygon fill="none" stroke="#000000" points="237,-252.5 237,-282.5 433,-282.5 433,-252.5 237,-252.5"/>
<text text-anchor="start" x="244" y="-263.9" font-family="Arial" font-size="14.00" fill="#000000">id    </text>
<text text-anchor="start" x="289.094" y="-263.9" font-family="Arial" font-size="14.00" fill="#666666">[int]</text>
<polygon fill="none" stroke="#000000" points="237,-222.5 237,-252.5 433,-252.5 433,-222.5 237,-222.5"/>
<text text-anchor="start" x="244" y="-233.9" font-family="Arial" font-size="14.00" fill="#000000">name    </text>
<text text-anchor="start" x="313.2132" y="-233.9" font-family="Arial" font-size="14.00" fill="#666666">[varchar(64)]</text>
<polygon fill="none" stroke="#000000" points="237,-192.5 237,-222.5 433,-222.5 433,-192.5 237,-192.5"/>
<text text-anchor="start" x="244" y="-203.9" font-family="Arial" font-size="14.00" fill="#000000">description    </text>
<text text-anchor="start" x="345.8822" y="-203.9" font-family="Arial" font-size="14.00" fill="#666666">[text]</text>
<polygon fill="none" stroke="#000000" points="237,-162.5 237,-192.5 433,-192.5 433,-162.5 237,-162.5"/>
<text text-anchor="start" x="244" y="-173.9" font-family="Arial" font-size="14.00" fill="#000000">icon_image    </text>
<text text-anchor="start" x="349.7742" y="-173.9" font-family="Arial" font-size="14.00" fill="#666666">[int]</text>
<polygon fill="none" stroke="#000000" points="237,-132.5 237,-162.5 433,-162.5 433,-132.5 237,-132.5"/>
<text text-anchor="start" x="244" y="-143.9" font-family="Arial" font-size="14.00" fill="#000000">weight    </text>
<text text-anchor="start" x="318.6564" y="-143.9" font-family="Arial" font-size="14.00" fill="#666666">[int]</text>
<polygon fill="none" stroke="#000000" points="237,-102.5 237,-132.5 433,-132.5 433,-102.5 237,-102.5"/>
<text text-anchor="start" x="244" y="-113.9" font-family="Arial" font-size="14.00" fill="#000000">rule_id    </text>
<text text-anchor="start" x="320.209" y="-113.9" font-family="Arial" font-size="14.00" fill="#666666">[int]</text>
<polygon fill="none" stroke="#000000" points="237,-72.5 237,-102.5 433,-102.5 433,-72.5 237,-72.5"/>
<text text-anchor="start" x="244" y="-83.9" font-family="Arial" font-size="14.00" fill="#000000">created_at    </text>
<text text-anchor="start" x="344.3422" y="-83.9" font-family="Arial" font-size="14.00" fill="#666666">[datetime(6)]</text>
<polygon fill="none" stroke="#000000" points="237,-42.5 237,-72.5 433,-72.5 433,-42.5 237,-42.5"/>
<text text-anchor="start" x="243.5947" y="-53.9" font-family="Arial" font-size="14.00" fill="#000000">updated_at    </text>
<text text-anchor="start" x="347.8415" y="-53.9" font-family="Arial" font-size="14.00" fill="#666666">[datetime(6)]</text>
</g>
<!-- games&#45;&gt;sports -->
<g id="edge3" class="edge">
<title>games:sport&#45;&gt;sports:id</title>
<path fill="none" stroke="#000000" d="M443.3871,-606.8777C523.8847,-596.7722 490.5419,-466.0734 433,-397 376.3111,-328.9506 293.6889,-429.0494 237,-361 210.402,-329.0718 195.4444,-267.5 237,-267.5"/>
<polygon fill="#000000" stroke="#000000" points="442.9821,-606.9019 432.7308,-603.0081 437.9911,-607.2009 433,-607.5 433,-607.5 433,-607.5 437.9911,-607.2009 433.2692,-611.9919 442.9821,-606.9019 442.9821,-606.9019"/>
<text text-anchor="start" x="439.8345" y="-617.5" font-family="Arial" font-size="10.00" fill="#000000">FOREIGN KEY (sport) REFERENCES sports (id)</text>
</g>
<!-- game_entries -->
<g id="node2" class="node">
<title>game_entries</title>
<polygon fill="#efefef" stroke="transparent" points="43,-1127.5 43,-1162.5 293,-1162.5 293,-1127.5 43,-1127.5"/>
<polygon fill="none" stroke="#000000" points="43,-1127.5 43,-1162.5 293,-1162.5 293,-1127.5 43,-1127.5"/>
<text text-anchor="start" x="49.7039" y="-1140.3" font-family="Arial Bold" font-size="18.00" fill="#000000">game_entries</text>
<text text-anchor="start" x="158.7281" y="-1140.3" font-family="Arial" font-size="14.00" fill="#000000">    </text>
<text text-anchor="start" x="192.9329" y="-1140.3" font-family="Arial" font-size="14.00" fill="#666666">[BASE TABLE]</text>
<polygon fill="none" stroke="#000000" points="43,-1097.5 43,-1127.5 293,-1127.5 293,-1097.5 43,-1097.5"/>
<text text-anchor="start" x="50" y="-1108.9" font-family="Arial" font-size="14.00" fill="#000000">game    </text>
<text text-anchor="start" x="119.2132" y="-1108.9" font-family="Arial" font-size="14.00" fill="#666666">[int]</text>
<polygon fill="none" stroke="#000000" points="43,-1067.5 43,-1097.5 293,-1097.5 293,-1067.5 43,-1067.5"/>
<text text-anchor="start" x="50" y="-1078.9" font-family="Arial" font-size="14.00" fill="#000000">team    </text>
<text text-anchor="start" x="115.3212" y="-1078.9" font-family="Arial" font-size="14.00" fill="#666666">[int]</text>
</g>
<!-- game_entries&#45;&gt;games -->
<g id="edge1" class="edge">
<title>game_entries:game&#45;&gt;games:id</title>
<path fill="none" stroke="#000000" d="M303.2135,-1112.0313C462.6393,-1096.4474 53.4602,-697.5 236,-697.5"/>
<polygon fill="#000000" stroke="#000000" points="302.9895,-1112.0414 292.7936,-1108.0047 297.9947,-1112.2707 293,-1112.5 293,-1112.5 293,-1112.5 297.9947,-1112.2707 293.2064,-1116.9953 302.9895,-1112.0414 302.9895,-1112.0414"/>
<text text-anchor="start" x="300.0545" y="-1122.5" font-family="Arial" font-size="10.00" fill="#000000">FOREIGN KEY (game) REFERENCES games (id)</text>
</g>
<!-- matches -->
<g id="node3" class="node">
<title>matches</title>
<polygon fill="#efefef" stroke="transparent" points="398,-1322.5 398,-1357.5 607,-1357.5 607,-1322.5 398,-1322.5"/>
<polygon fill="none" stroke="#000000" points="398,-1322.5 398,-1357.5 607,-1357.5 607,-1322.5 398,-1322.5"/>
<text text-anchor="start" x="404.7095" y="-1335.3" font-family="Arial Bold" font-size="18.00" fill="#000000">matches</text>
<text text-anchor="start" x="472.7225" y="-1335.3" font-family="Arial" font-size="14.00" fill="#000000">    </text>
<text text-anchor="start" x="506.9273" y="-1335.3" font-family="Arial" font-size="14.00" fill="#666666">[BASE TABLE]</text>
<polygon fill="none" stroke="#000000" points="398,-1292.5 398,-1322.5 607,-1322.5 607,-1292.5 398,-1292.5"/>
<text text-anchor="start" x="405" y="-1303.9" font-family="Arial" font-size="14.00" fill="#000000">id    </text>
<text text-anchor="start" x="450.094" y="-1303.9" font-family="Arial" font-size="14.00" fill="#666666">[int]</text>
<polygon fill="none" stroke="#000000" points="398,-1262.5 398,-1292.5 607,-1292.5 607,-1262.5 398,-1262.5"/>
<text text-anchor="start" x="405" y="-1273.9" font-family="Arial" font-size="14.00" fill="#000000">location    </text>
<text text-anchor="start" x="487.439" y="-1273.9" font-family="Arial" font-size="14.00" fill="#666666">[int]</text>
<polygon fill="none" stroke="#000000" points="398,-1232.5 398,-1262.5 607,-1262.5 607,-1232.5 398,-1232.5"/>
<text text-anchor="start" x="405" y="-1243.9" font-family="Arial" font-size="14.00" fill="#000000">game    </text>
<text text-anchor="start" x="474.2132" y="-1243.9" font-family="Arial" font-size="14.00" fill="#666666">[int]</text>
<polygon fill="none" stroke="#000000" points="398,-1202.5 398,-1232.5 607,-1232.5 607,-1202.5 398,-1202.5"/>
<text text-anchor="start" x="405" y="-1213.9" font-family="Arial" font-size="14.00" fill="#000000">sport    </text>
<text text-anchor="start" x="470.3212" y="-1213.9" font-family="Arial" font-size="14.00" fill="#666666">[int]</text>
<polygon fill="none" stroke="#000000" points="398,-1172.5 398,-1202.5 607,-1202.5 607,-1172.5 398,-1172.5"/>
<text text-anchor="start" x="405" y="-1183.9" font-family="Arial" font-size="14.00" fill="#000000">started_at    </text>
<text text-anchor="start" x="501.4502" y="-1183.9" font-family="Arial" font-size="14.00" fill="#666666">[datetime(6)]</text>
<polygon fill="none" stroke="#000000" points="398,-1142.5 398,-1172.5 607,-1172.5 607,-1142.5 398,-1142.5"/>
<text text-anchor="start" x="405" y="-1153.9" font-family="Arial" font-size="14.00" fill="#000000">left_team    </text>
<text text-anchor="start" x="496.7742" y="-1153.9" font-family="Arial" font-size="14.00" fill="#666666">[int]</text>
<polygon fill="none" stroke="#000000" points="398,-1112.5 398,-1142.5 607,-1142.5 607,-1112.5 398,-1112.5"/>
<text text-anchor="start" x="405" y="-1123.9" font-family="Arial" font-size="14.00" fill="#000000">right_team    </text>
<text text-anchor="start" x="505.3268" y="-1123.9" font-family="Arial" font-size="14.00" fill="#666666">[int]</text>
<polygon fill="none" stroke="#000000" points="398,-1082.5 398,-1112.5 607,-1112.5 607,-1082.5 398,-1082.5"/>
<text text-anchor="start" x="405" y="-1093.9" font-family="Arial" font-size="14.00" fill="#000000">left_score    </text>
<text text-anchor="start" x="499.8836" y="-1093.9" font-family="Arial" font-size="14.00" fill="#666666">[int]</text>
<polygon fill="none" stroke="#000000" points="398,-1052.5 398,-1082.5 607,-1082.5 607,-1052.5 398,-1052.5"/>
<text text-anchor="start" x="405" y="-1063.9" font-family="Arial" font-size="14.00" fill="#000000">right_score    </text>
<text text-anchor="start" x="508.4362" y="-1063.9" font-family="Arial" font-size="14.00" fill="#666666">[int]</text>
<polygon fill="none" stroke="#000000" points="398,-1022.5 398,-1052.5 607,-1052.5 607,-1022.5 398,-1022.5"/>
<text text-anchor="start" x="405" y="-1033.9" font-family="Arial" font-size="14.00" fill="#000000">result    </text>
<text text-anchor="start" x="473.4278" y="-1033.9" font-family="Arial" font-size="14.00" fill="#666666">[varchar(32)]</text>
<polygon fill="none" stroke="#000000" points="398,-992.5 398,-1022.5 607,-1022.5 607,-992.5 398,-992.5"/>
<text text-anchor="start" x="405" y="-1003.9" font-family="Arial" font-size="14.00" fill="#000000">status    </text>
<text text-anchor="start" x="476.5512" y="-1003.9" font-family="Arial" font-size="14.00" fill="#666666">[varchar(32)]</text>
<polygon fill="none" stroke="#000000" points="398,-962.5 398,-992.5 607,-992.5 607,-962.5 398,-962.5"/>
<text text-anchor="start" x="405" y="-973.9" font-family="Arial" font-size="14.00" fill="#000000">note    </text>
<text text-anchor="start" x="466.4432" y="-973.9" font-family="Arial" font-size="14.00" fill="#666666">[text]</text>
<polygon fill="none" stroke="#000000" points="398,-932.5 398,-962.5 607,-962.5 607,-932.5 398,-932.5"/>
<text text-anchor="start" x="405" y="-943.9" font-family="Arial" font-size="14.00" fill="#000000">judge    </text>
<text text-anchor="start" x="473.4418" y="-943.9" font-family="Arial" font-size="14.00" fill="#666666">[varchar(64)]</text>
<polygon fill="none" stroke="#000000" points="398,-902.5 398,-932.5 607,-932.5 607,-902.5 398,-902.5"/>
<text text-anchor="start" x="405" y="-913.9" font-family="Arial" font-size="14.00" fill="#000000">created_at    </text>
<text text-anchor="start" x="505.3422" y="-913.9" font-family="Arial" font-size="14.00" fill="#666666">[datetime(6)]</text>
<polygon fill="none" stroke="#000000" points="398,-872.5 398,-902.5 607,-902.5 607,-872.5 398,-872.5"/>
<text text-anchor="start" x="405" y="-883.9" font-family="Arial" font-size="14.00" fill="#000000">updated_at    </text>
<text text-anchor="start" x="509.2468" y="-883.9" font-family="Arial" font-size="14.00" fill="#666666">[datetime(6)]</text>
</g>
<!-- matches&#45;&gt;games -->
<g id="edge2" class="edge">
<title>matches:game&#45;&gt;games:id</title>
<path fill="none" stroke="#000000" d="M387.8069,-1246.0167C309.7089,-1221.9734 364.4632,-912.6054 398,-830 406.3943,-809.3237 424.6057,-814.6763 433,-794 449.1334,-754.2612 475.8889,-697.5 433,-697.5"/>
<polygon fill="#000000" stroke="#000000" points="388.1042,-1246.0599 397.352,-1251.9531 393.0521,-1246.78 398,-1247.5 398,-1247.5 398,-1247.5 393.0521,-1246.78 398.648,-1243.0469 388.1042,-1246.0599 388.1042,-1246.0599"/>
<text text-anchor="start" x="168.0545" y="-1257.5" font-family="Arial" font-size="10.00" fill="#000000">FOREIGN KEY (game) REFERENCES games (id)</text>
</g>
</g>
</svg>
