<?xml version="1.0" encoding="UTF-8" standalone="no"?>
<!DOCTYPE svg PUBLIC "-//W3C//DTD SVG 1.1//EN"
 "http://www.w3.org/Graphics/SVG/1.1/DTD/svg11.dtd">
<!-- Generated by graphviz version 2.40.1 (20161225.0304)
 -->
<!-- Title: games Pages: 1 -->
<svg width="658pt" height="1469pt"
 viewBox="0.00 0.00 657.50 1469.00" xmlns="http://www.w3.org/2000/svg" xmlns:xlink="http://www.w3.org/1999/xlink">
<g id="graph0" class="graph" transform="scale(1 1) rotate(0) translate(4 1465)">
<title>games</title>
<polygon fill="#ffffff" stroke="transparent" points="-4,4 -4,-1465 653.5,-1465 653.5,4 -4,4"/>
<!-- games -->
<g id="node1" class="node">
<title>games</title>
<polygon fill="#efefef" stroke="transparent" points="236,-772.5 236,-807.5 433,-807.5 433,-772.5 236,-772.5"/>
<polygon fill="none" stroke="#000000" points="236,-772.5 236,-807.5 433,-807.5 433,-772.5 236,-772.5"/>
<text text-anchor="start" x="243.7106" y="-785.3" font-family="Arial Bold" font-size="18.00" fill="#000000">games</text>
<text text-anchor="start" x="297.7214" y="-785.3" font-family="Arial" font-size="14.00" fill="#000000">    </text>
<text text-anchor="start" x="331.9262" y="-785.3" font-family="Arial" font-size="14.00" fill="#666666">[BASE TABLE]</text>
<polygon fill="none" stroke="#000000" points="236,-742.5 236,-772.5 433,-772.5 433,-742.5 236,-742.5"/>
<text text-anchor="start" x="243" y="-753.9" font-family="Arial" font-size="14.00" fill="#000000">id </text>
<text text-anchor="start" x="257.7798" y="-753.9" font-family="Arial" font-size="14.00" fill="#666666">[int]</text>
<polygon fill="none" stroke="#000000" points="236,-712.5 236,-742.5 433,-742.5 433,-712.5 236,-712.5"/>
<text text-anchor="start" x="243" y="-723.9" font-family="Arial" font-size="14.00" fill="#000000">name </text>
<text text-anchor="start" x="281.899" y="-723.9" font-family="Arial" font-size="14.00" fill="#666666">[varchar(64)]</text>
<polygon fill="none" stroke="#000000" points="236,-682.5 236,-712.5 433,-712.5 433,-682.5 236,-682.5"/>
<text text-anchor="start" x="243" y="-693.9" font-family="Arial" font-size="14.00" fill="#000000">description </text>
<text text-anchor="start" x="314.568" y="-693.9" font-family="Arial" font-size="14.00" fill="#666666">[varchar(512)]</text>
<polygon fill="none" stroke="#000000" points="236,-652.5 236,-682.5 433,-682.5 433,-652.5 236,-652.5"/>
<text text-anchor="start" x="243" y="-663.9" font-family="Arial" font-size="14.00" fill="#000000">sport </text>
<text text-anchor="start" x="278.007" y="-663.9" font-family="Arial" font-size="14.00" fill="#666666">[int]</text>
<polygon fill="none" stroke="#000000" points="236,-622.5 236,-652.5 433,-652.5 433,-622.5 236,-622.5"/>
<text text-anchor="start" x="243" y="-633.9" font-family="Arial" font-size="14.00" fill="#000000">type </text>
<text text-anchor="start" x="273.3464" y="-633.9" font-family="Arial" font-size="14.00" fill="#666666">[varchar(32)]</text>
<polygon fill="none" stroke="#000000" points="236,-592.5 236,-622.5 433,-622.5 433,-592.5 236,-592.5"/>
<text text-anchor="start" x="242.7055" y="-603.9" font-family="Arial" font-size="14.00" fill="#000000">calculation_type </text>
<text text-anchor="start" x="346.9579" y="-603.9" font-family="Arial" font-size="14.00" fill="#666666">[varchar(32)]</text>
<polygon fill="none" stroke="#000000" points="236,-562.5 236,-592.5 433,-592.5 433,-562.5 236,-562.5"/>
<text text-anchor="start" x="243" y="-573.9" font-family="Arial" font-size="14.00" fill="#000000">weight </text>
<text text-anchor="start" x="287.3422" y="-573.9" font-family="Arial" font-size="14.00" fill="#666666">[int]</text>
<polygon fill="none" stroke="#000000" points="236,-532.5 236,-562.5 433,-562.5 433,-532.5 236,-532.5"/>
<text text-anchor="start" x="243" y="-543.9" font-family="Arial" font-size="14.00" fill="#000000">tag </text>
<text text-anchor="start" x="266.3464" y="-543.9" font-family="Arial" font-size="14.00" fill="#666666">[int]</text>
<polygon fill="none" stroke="#000000" points="236,-502.5 236,-532.5 433,-532.5 433,-502.5 236,-502.5"/>
<text text-anchor="start" x="243" y="-513.9" font-family="Arial" font-size="14.00" fill="#000000">created_at </text>
<text text-anchor="start" x="313.028" y="-513.9" font-family="Arial" font-size="14.00" fill="#666666">[datetime(6)]</text>
<polygon fill="none" stroke="#000000" points="236,-472.5 236,-502.5 433,-502.5 433,-472.5 236,-472.5"/>
<text text-anchor="start" x="243" y="-483.9" font-family="Arial" font-size="14.00" fill="#000000">updated_at </text>
<text text-anchor="start" x="316.9326" y="-483.9" font-family="Arial" font-size="14.00" fill="#666666">[datetime(6)]</text>
<polygon fill="none" stroke="#000000" stroke-width="3" points="234,-471.5 234,-809.5 434,-809.5 434,-471.5 234,-471.5"/>
</g>
<!-- sports -->
<g id="node4" class="node">
<title>sports</title>
<polygon fill="#efefef" stroke="transparent" points="87,-312.5 87,-347.5 283,-347.5 283,-312.5 87,-312.5"/>
<polygon fill="none" stroke="#000000" points="87,-312.5 87,-347.5 283,-347.5 283,-312.5 87,-312.5"/>
<text text-anchor="start" x="96.7126" y="-325.3" font-family="Arial Bold" font-size="18.00" fill="#000000">sports</text>
<text text-anchor="start" x="145.7194" y="-325.3" font-family="Arial" font-size="14.00" fill="#000000">    </text>
<text text-anchor="start" x="179.9242" y="-325.3" font-family="Arial" font-size="14.00" fill="#666666">[BASE TABLE]</text>
<polygon fill="none" stroke="#000000" points="87,-282.5 87,-312.5 283,-312.5 283,-282.5 87,-282.5"/>
<text text-anchor="start" x="94" y="-293.9" font-family="Arial" font-size="14.00" fill="#000000">id    </text>
<text text-anchor="start" x="139.094" y="-293.9" font-family="Arial" font-size="14.00" fill="#666666">[int]</text>
<polygon fill="none" stroke="#000000" points="87,-252.5 87,-282.5 283,-282.5 283,-252.5 87,-252.5"/>
<text text-anchor="start" x="94" y="-263.9" font-family="Arial" font-size="14.00" fill="#000000">name    </text>
<text text-anchor="start" x="163.2132" y="-263.9" font-family="Arial" font-size="14.00" fill="#666666">[varchar(64)]</text>
<polygon fill="none" stroke="#000000" points="87,-222.5 87,-252.5 283,-252.5 283,-222.5 87,-222.5"/>
<text text-anchor="start" x="94" y="-233.9" font-family="Arial" font-size="14.00" fill="#000000">description    </text>
<text text-anchor="start" x="195.8822" y="-233.9" font-family="Arial" font-size="14.00" fill="#666666">[text]</text>
<polygon fill="none" stroke="#000000" points="87,-192.5 87,-222.5 283,-222.5 283,-192.5 87,-192.5"/>
<text text-anchor="start" x="94" y="-203.9" font-family="Arial" font-size="14.00" fill="#000000">icon_image    </text>
<text text-anchor="start" x="199.7742" y="-203.9" font-family="Arial" font-size="14.00" fill="#666666">[int]</text>
<polygon fill="none" stroke="#000000" points="87,-162.5 87,-192.5 283,-192.5 283,-162.5 87,-162.5"/>
<text text-anchor="start" x="94" y="-173.9" font-family="Arial" font-size="14.00" fill="#000000">weight    </text>
<text text-anchor="start" x="168.6564" y="-173.9" font-family="Arial" font-size="14.00" fill="#666666">[int]</text>
<polygon fill="none" stroke="#000000" points="87,-132.5 87,-162.5 283,-162.5 283,-132.5 87,-132.5"/>
<text text-anchor="start" x="94" y="-143.9" font-family="Arial" font-size="14.00" fill="#000000">rule_id    </text>
<text text-anchor="start" x="170.209" y="-143.9" font-family="Arial" font-size="14.00" fill="#666666">[int]</text>
<polygon fill="none" stroke="#000000" points="87,-102.5 87,-132.5 283,-132.5 283,-102.5 87,-102.5"/>
<text text-anchor="start" x="94" y="-113.9" font-family="Arial" font-size="14.00" fill="#000000">tag    </text>
<text text-anchor="start" x="147.6606" y="-113.9" font-family="Arial" font-size="14.00" fill="#666666">[int]</text>
<polygon fill="none" stroke="#000000" points="87,-72.5 87,-102.5 283,-102.5 283,-72.5 87,-72.5"/>
<text text-anchor="start" x="94" y="-83.9" font-family="Arial" font-size="14.00" fill="#000000">created_at    </text>
<text text-anchor="start" x="194.3422" y="-83.9" font-family="Arial" font-size="14.00" fill="#666666">[datetime(6)]</text>
<polygon fill="none" stroke="#000000" points="87,-42.5 87,-72.5 283,-72.5 283,-42.5 87,-42.5"/>
<text text-anchor="start" x="93.5947" y="-53.9" font-family="Arial" font-size="14.00" fill="#000000">updated_at    </text>
<text text-anchor="start" x="197.8415" y="-53.9" font-family="Arial" font-size="14.00" fill="#666666">[datetime(6)]</text>
</g>
<!-- games&#45;&gt;sports -->
<g id="edge3" class="edge">
<title>games:sport&#45;&gt;sports:id</title>
<path fill="none" stroke="#000000" d="M225.8969,-667.0287C133.0535,-657.9478 190.254,-519.663 236,-427 247.6479,-403.4061 271.3521,-414.5939 283,-391 301.3956,-353.7379 324.5556,-297.5 283,-297.5"/>
<polygon fill="#000000" stroke="#000000" points="226.0109,-667.0339 235.7902,-671.9951 231.0054,-667.2669 236,-667.5 236,-667.5 236,-667.5 231.0054,-667.2669 236.2098,-663.0049 226.0109,-667.0339 226.0109,-667.0339"/>
<text text-anchor="start" x="10.8345" y="-677.5" font-family="Arial" font-size="10.00" fill="#000000">FOREIGN KEY (sport) REFERENCES sports (id)</text>
</g>
<!-- tags -->
<g id="node5" class="node">
<title>tags</title>
<polygon fill="#efefef" stroke="transparent" points="387,-252.5 387,-287.5 583,-287.5 583,-252.5 387,-252.5"/>
<polygon fill="none" stroke="#000000" points="387,-252.5 387,-287.5 583,-287.5 583,-252.5 387,-252.5"/>
<text text-anchor="start" x="404.2087" y="-265.3" font-family="Arial Bold" font-size="18.00" fill="#000000">tags</text>
<text text-anchor="start" x="438.2233" y="-265.3" font-family="Arial" font-size="14.00" fill="#000000">    </text>
<text text-anchor="start" x="472.4281" y="-265.3" font-family="Arial" font-size="14.00" fill="#666666">[BASE TABLE]</text>
<polygon fill="none" stroke="#000000" points="387,-222.5 387,-252.5 583,-252.5 583,-222.5 387,-222.5"/>
<text text-anchor="start" x="394" y="-233.9" font-family="Arial" font-size="14.00" fill="#000000">id    </text>
<text text-anchor="start" x="439.094" y="-233.9" font-family="Arial" font-size="14.00" fill="#666666">[int]</text>
<polygon fill="none" stroke="#000000" points="387,-192.5 387,-222.5 583,-222.5 583,-192.5 387,-192.5"/>
<text text-anchor="start" x="394" y="-203.9" font-family="Arial" font-size="14.00" fill="#000000">name    </text>
<text text-anchor="start" x="463.2132" y="-203.9" font-family="Arial" font-size="14.00" fill="#666666">[varchar(64)]</text>
<polygon fill="none" stroke="#000000" points="387,-162.5 387,-192.5 583,-192.5 583,-162.5 387,-162.5"/>
<text text-anchor="start" x="394" y="-173.9" font-family="Arial" font-size="14.00" fill="#000000">enabled    </text>
<text text-anchor="start" x="478.007" y="-173.9" font-family="Arial" font-size="14.00" fill="#666666">[tinyint(1)]</text>
<polygon fill="none" stroke="#000000" points="387,-132.5 387,-162.5 583,-162.5 583,-132.5 387,-132.5"/>
<text text-anchor="start" x="394" y="-143.9" font-family="Arial" font-size="14.00" fill="#000000">created_at    </text>
<text text-anchor="start" x="494.3422" y="-143.9" font-family="Arial" font-size="14.00" fill="#666666">[datetime(6)]</text>
<polygon fill="none" stroke="#000000" points="387,-102.5 387,-132.5 583,-132.5 583,-102.5 387,-102.5"/>
<text text-anchor="start" x="393.5947" y="-113.9" font-family="Arial" font-size="14.00" fill="#000000">updated_at    </text>
<text text-anchor="start" x="497.8415" y="-113.9" font-family="Arial" font-size="14.00" fill="#666666">[datetime(6)]</text>
</g>
<!-- games&#45;&gt;tags -->
<g id="edge4" class="edge">
<title>games:tag&#45;&gt;tags:id</title>
<path fill="none" stroke="#000000" d="M443.3568,-546.5675C519.6681,-531.4744 388.6233,-338.1444 387,-331 377.7927,-290.4773 345.4444,-237.5 387,-237.5"/>
<polygon fill="#000000" stroke="#000000" points="442.9597,-546.6031 432.5964,-543.0181 437.9799,-547.0516 433,-547.5 433,-547.5 433,-547.5 437.9799,-547.0516 433.4036,-551.9819 442.9597,-546.6031 442.9597,-546.6031"/>
<text text-anchor="start" x="440.1635" y="-557.5" font-family="Arial" font-size="10.00" fill="#000000">FOREIGN KEY (tag) REFERENCES tags (id)</text>
</g>
<!-- game_entries -->
<g id="node2" class="node">
<title>game_entries</title>
<polygon fill="#efefef" stroke="transparent" points="43,-1187.5 43,-1222.5 293,-1222.5 293,-1187.5 43,-1187.5"/>
<polygon fill="none" stroke="#000000" points="43,-1187.5 43,-1222.5 293,-1222.5 293,-1187.5 43,-1187.5"/>
<text text-anchor="start" x="49.7039" y="-1200.3" font-family="Arial Bold" font-size="18.00" fill="#000000">game_entries</text>
<text text-anchor="start" x="158.7281" y="-1200.3" font-family="Arial" font-size="14.00" fill="#000000">    </text>
<text text-anchor="start" x="192.9329" y="-1200.3" font-family="Arial" font-size="14.00" fill="#666666">[BASE TABLE]</text>
<polygon fill="none" stroke="#000000" points="43,-1157.5 43,-1187.5 293,-1187.5 293,-1157.5 43,-1157.5"/>
<text text-anchor="start" x="50" y="-1168.9" font-family="Arial" font-size="14.00" fill="#000000">game    </text>
<text text-anchor="start" x="119.2132" y="-1168.9" font-family="Arial" font-size="14.00" fill="#666666">[int]</text>
<polygon fill="none" stroke="#000000" points="43,-1127.5 43,-1157.5 293,-1157.5 293,-1127.5 43,-1127.5"/>
<text text-anchor="start" x="50" y="-1138.9" font-family="Arial" font-size="14.00" fill="#000000">team    </text>
<text text-anchor="start" x="115.3212" y="-1138.9" font-family="Arial" font-size="14.00" fill="#666666">[int]</text>
</g>
<!-- game_entries&#45;&gt;games -->
<g id="edge1" class="edge">
<title>game_entries:game&#45;&gt;games:id</title>
<path fill="none" stroke="#000000" d="M303.2135,-1172.0313C462.6393,-1156.4474 53.4602,-757.5 236,-757.5"/>
<polygon fill="#000000" stroke="#000000" points="302.9895,-1172.0414 292.7936,-1168.0047 297.9947,-1172.2707 293,-1172.5 293,-1172.5 293,-1172.5 297.9947,-1172.2707 293.2064,-1176.9953 302.9895,-1172.0414 302.9895,-1172.0414"/>
<text text-anchor="start" x="300.0545" y="-1182.5" font-family="Arial" font-size="10.00" fill="#000000">FOREIGN KEY (game) REFERENCES games (id)</text>
</g>
<!-- matches -->
<g id="node3" class="node">
<title>matches</title>
<polygon fill="#efefef" stroke="transparent" points="398,-1382.5 398,-1417.5 607,-1417.5 607,-1382.5 398,-1382.5"/>
<polygon fill="none" stroke="#000000" points="398,-1382.5 398,-1417.5 607,-1417.5 607,-1382.5 398,-1382.5"/>
<text text-anchor="start" x="404.7095" y="-1395.3" font-family="Arial Bold" font-size="18.00" fill="#000000">matches</text>
<text text-anchor="start" x="472.7225" y="-1395.3" font-family="Arial" font-size="14.00" fill="#000000">    </text>
<text text-anchor="start" x="506.9273" y="-1395.3" font-family="Arial" font-size="14.00" fill="#666666">[BASE TABLE]</text>
<polygon fill="none" stroke="#000000" points="398,-1352.5 398,-1382.5 607,-1382.5 607,-1352.5 398,-1352.5"/>
<text text-anchor="start" x="405" y="-1363.9" font-family="Arial" font-size="14.00" fill="#000000">id    </text>
<text text-anchor="start" x="450.094" y="-1363.9" font-family="Arial" font-size="14.00" fill="#666666">[int]</text>
<polygon fill="none" stroke="#000000" points="398,-1322.5 398,-1352.5 607,-1352.5 607,-1322.5 398,-1322.5"/>
<text text-anchor="start" x="405" y="-1333.9" font-family="Arial" font-size="14.00" fill="#000000">location    </text>
<text text-anchor="start" x="487.439" y="-1333.9" font-family="Arial" font-size="14.00" fill="#666666">[int]</text>
<polygon fill="none" stroke="#000000" points="398,-1292.5 398,-1322.5 607,-1322.5 607,-1292.5 398,-1292.5"/>
<text text-anchor="start" x="405" y="-1303.9" font-family="Arial" font-size="14.00" fill="#000000">game    </text>
<text text-anchor="start" x="474.2132" y="-1303.9" font-family="Arial" font-size="14.00" fill="#666666">[int]</text>
<polygon fill="none" stroke="#000000" points="398,-1262.5 398,-1292.5 607,-1292.5 607,-1262.5 398,-1262.5"/>
<text text-anchor="start" x="405" y="-1273.9" font-family="Arial" font-size="14.00" fill="#000000">sport    </text>
<text text-anchor="start" x="470.3212" y="-1273.9" font-family="Arial" font-size="14.00" fill="#666666">[int]</text>
<polygon fill="none" stroke="#000000" points="398,-1232.5 398,-1262.5 607,-1262.5 607,-1232.5 398,-1232.5"/>
<text text-anchor="start" x="405" y="-1243.9" font-family="Arial" font-size="14.00" fill="#000000">started_at    </text>
<text text-anchor="start" x="501.4502" y="-1243.9" font-family="Arial" font-size="14.00" fill="#666666">[datetime(6)]</text>
<polygon fill="none" stroke="#000000" points="398,-1202.5 398,-1232.5 607,-1232.5 607,-1202.5 398,-1202.5"/>
<text text-anchor="start" x="405" y="-1213.9" font-family="Arial" font-size="14.00" fill="#000000">left_team    </text>
<text text-anchor="start" x="496.7742" y="-1213.9" font-family="Arial" font-size="14.00" fill="#666666">[int]</text>
<polygon fill="none" stroke="#000000" points="398,-1172.5 398,-1202.5 607,-1202.5 607,-1172.5 398,-1172.5"/>
<text text-anchor="start" x="405" y="-1183.9" font-family="Arial" font-size="14.00" fill="#000000">right_team    </text>
<text text-anchor="start" x="505.3268" y="-1183.9" font-family="Arial" font-size="14.00" fill="#666666">[int]</text>
<polygon fill="none" stroke="#000000" points="398,-1142.5 398,-1172.5 607,-1172.5 607,-1142.5 398,-1142.5"/>
<text text-anchor="start" x="405" y="-1153.9" font-family="Arial" font-size="14.00" fill="#000000">left_score    </text>
<text text-anchor="start" x="499.8836" y="-1153.9" font-family="Arial" font-size="14.00" fill="#666666">[int]</text>
<polygon fill="none" stroke="#000000" points="398,-1112.5 398,-1142.5 607,-1142.5 607,-1112.5 398,-1112.5"/>
<text text-anchor="start" x="405" y="-1123.9" font-family="Arial" font-size="14.00" fill="#000000">right_score    </text>
<text text-anchor="start" x="508.4362" y="-1123.9" font-family="Arial" font-size="14.00" fill="#666666">[int]</text>
<polygon fill="none" stroke="#000000" points="398,-1082.5 398,-1112.5 607,-1112.5 607,-1082.5 398,-1082.5"/>
<text text-anchor="start" x="405" y="-1093.9" font-family="Arial" font-size="14.00" fill="#000000">result    </text>
<text text-anchor="start" x="473.4278" y="-1093.9" font-family="Arial" font-size="14.00" fill="#666666">[varchar(32)]</text>
<polygon fill="none" stroke="#000000" points="398,-1052.5 398,-1082.5 607,-1082.5 607,-1052.5 398,-1052.5"/>
<text text-anchor="start" x="405" y="-1063.9" font-family="Arial" font-size="14.00" fill="#000000">status    </text>
<text text-anchor="start" x="476.5512" y="-1063.9" font-family="Arial" font-size="14.00" fill="#666666">[varchar(32)]</text>
<polygon fill="none" stroke="#000000" points="398,-1022.5 398,-1052.5 607,-1052.5 607,-1022.5 398,-1022.5"/>
<text text-anchor="start" x="405" y="-1033.9" font-family="Arial" font-size="14.00" fill="#000000">note    </text>
<text text-anchor="start" x="466.4432" y="-1033.9" font-family="Arial" font-size="14.00" fill="#666666">[text]</text>
<polygon fill="none" stroke="#000000" points="398,-992.5 398,-1022.5 607,-1022.5 607,-992.5 398,-992.5"/>
<text text-anchor="start" x="405" y="-1003.9" font-family="Arial" font-size="14.00" fill="#000000">judge_team_id    </text>
<text text-anchor="start" x="531.0126" y="-1003.9" font-family="Arial" font-size="14.00" fill="#666666">[int]</text>
<polygon fill="none" stroke="#000000" points="398,-962.5 398,-992.5 607,-992.5 607,-962.5 398,-962.5"/>
<text text-anchor="start" x="405" y="-973.9" font-family="Arial" font-size="14.00" fill="#000000">created_at    </text>
<text text-anchor="start" x="505.3422" y="-973.9" font-family="Arial" font-size="14.00" fill="#666666">[datetime(6)]</text>
<polygon fill="none" stroke="#000000" points="398,-932.5 398,-962.5 607,-962.5 607,-932.5 398,-932.5"/>
<text text-anchor="start" x="405" y="-943.9" font-family="Arial" font-size="14.00" fill="#000000">updated_at    </text>
<text text-anchor="start" x="509.2468" y="-943.9" font-family="Arial" font-size="14.00" fill="#666666">[datetime(6)]</text>
</g>
<!-- matches&#45;&gt;games -->
<g id="edge2" class="edge">
<title>matches:game&#45;&gt;games:id</title>
<path fill="none" stroke="#000000" d="M387.8069,-1306.0167C309.7089,-1281.9734 364.4632,-972.6054 398,-890 406.3943,-869.3237 424.6057,-874.6763 433,-854 449.1334,-814.2612 475.8889,-757.5 433,-757.5"/>
<polygon fill="#000000" stroke="#000000" points="388.1042,-1306.0599 397.352,-1311.9531 393.0521,-1306.78 398,-1307.5 398,-1307.5 398,-1307.5 393.0521,-1306.78 398.648,-1303.0469 388.1042,-1306.0599 388.1042,-1306.0599"/>
<text text-anchor="start" x="168.0545" y="-1317.5" font-family="Arial" font-size="10.00" fill="#000000">FOREIGN KEY (game) REFERENCES games (id)</text>
</g>
</g>
</svg>
