<?xml version="1.0" encoding="UTF-8" standalone="no"?>
<!DOCTYPE svg PUBLIC "-//W3C//DTD SVG 1.1//EN"
 "http://www.w3.org/Graphics/SVG/1.1/DTD/svg11.dtd">
<!-- Generated by graphviz version 2.40.1 (20161225.0304)
 -->
<!-- Title: game_entries Pages: 1 -->
<svg width="727pt" height="652pt"
 viewBox="0.00 0.00 727.00 652.00" xmlns="http://www.w3.org/2000/svg" xmlns:xlink="http://www.w3.org/1999/xlink">
<g id="graph0" class="graph" transform="scale(1 1) rotate(0) translate(4 648)">
<title>game_entries</title>
<polygon fill="#ffffff" stroke="transparent" points="-4,4 -4,-648 723,-648 723,4 -4,4"/>
<!-- game_entries -->
<g id="node1" class="node">
<title>game_entries</title>
<polygon fill="#efefef" stroke="transparent" points="237,-562.5 237,-597.5 487,-597.5 487,-562.5 237,-562.5"/>
<polygon fill="none" stroke="#000000" points="237,-562.5 237,-597.5 487,-597.5 487,-562.5 237,-562.5"/>
<text text-anchor="start" x="243.7039" y="-575.3" font-family="Arial Bold" font-size="18.00" fill="#000000">game_entries</text>
<text text-anchor="start" x="352.7281" y="-575.3" font-family="Arial" font-size="14.00" fill="#000000">    </text>
<text text-anchor="start" x="386.9329" y="-575.3" font-family="Arial" font-size="14.00" fill="#666666">[BASE TABLE]</text>
<polygon fill="none" stroke="#000000" points="237,-532.5 237,-562.5 487,-562.5 487,-532.5 237,-532.5"/>
<text text-anchor="start" x="244" y="-543.9" font-family="Arial" font-size="14.00" fill="#000000">game </text>
<text text-anchor="start" x="282.899" y="-543.9" font-family="Arial" font-size="14.00" fill="#666666">[int]</text>
<polygon fill="none" stroke="#000000" points="237,-502.5 237,-532.5 487,-532.5 487,-502.5 237,-502.5"/>
<text text-anchor="start" x="244" y="-513.9" font-family="Arial" font-size="14.00" fill="#000000">team </text>
<text text-anchor="start" x="279.007" y="-513.9" font-family="Arial" font-size="14.00" fill="#666666">[int]</text>
<polygon fill="none" stroke="#000000" stroke-width="3" points="235.5,-501.5 235.5,-599.5 488.5,-599.5 488.5,-501.5 235.5,-501.5"/>
</g>
<!-- games -->
<g id="node2" class="node">
<title>games</title>
<polygon fill="#efefef" stroke="transparent" points="89,-342.5 89,-377.5 316,-377.5 316,-342.5 89,-342.5"/>
<polygon fill="none" stroke="#000000" points="89,-342.5 89,-377.5 316,-377.5 316,-342.5 89,-342.5"/>
<text text-anchor="start" x="111.7106" y="-355.3" font-family="Arial Bold" font-size="18.00" fill="#000000">games</text>
<text text-anchor="start" x="165.7214" y="-355.3" font-family="Arial" font-size="14.00" fill="#000000">    </text>
<text text-anchor="start" x="199.9262" y="-355.3" font-family="Arial" font-size="14.00" fill="#666666">[BASE TABLE]</text>
<polygon fill="none" stroke="#000000" points="89,-312.5 89,-342.5 316,-342.5 316,-312.5 89,-312.5"/>
<text text-anchor="start" x="96" y="-323.9" font-family="Arial" font-size="14.00" fill="#000000">id    </text>
<text text-anchor="start" x="141.094" y="-323.9" font-family="Arial" font-size="14.00" fill="#666666">[int]</text>
<polygon fill="none" stroke="#000000" points="89,-282.5 89,-312.5 316,-312.5 316,-282.5 89,-282.5"/>
<text text-anchor="start" x="96" y="-293.9" font-family="Arial" font-size="14.00" fill="#000000">name    </text>
<text text-anchor="start" x="165.2132" y="-293.9" font-family="Arial" font-size="14.00" fill="#666666">[varchar(64)]</text>
<polygon fill="none" stroke="#000000" points="89,-252.5 89,-282.5 316,-282.5 316,-252.5 89,-252.5"/>
<text text-anchor="start" x="96" y="-263.9" font-family="Arial" font-size="14.00" fill="#000000">description    </text>
<text text-anchor="start" x="197.8822" y="-263.9" font-family="Arial" font-size="14.00" fill="#666666">[varchar(512)]</text>
<polygon fill="none" stroke="#000000" points="89,-222.5 89,-252.5 316,-252.5 316,-222.5 89,-222.5"/>
<text text-anchor="start" x="96" y="-233.9" font-family="Arial" font-size="14.00" fill="#000000">sport    </text>
<text text-anchor="start" x="161.3212" y="-233.9" font-family="Arial" font-size="14.00" fill="#666666">[int]</text>
<polygon fill="none" stroke="#000000" points="89,-192.5 89,-222.5 316,-222.5 316,-192.5 89,-192.5"/>
<text text-anchor="start" x="96" y="-203.9" font-family="Arial" font-size="14.00" fill="#000000">type    </text>
<text text-anchor="start" x="156.6606" y="-203.9" font-family="Arial" font-size="14.00" fill="#666666">[varchar(32)]</text>
<polygon fill="none" stroke="#000000" points="89,-162.5 89,-192.5 316,-192.5 316,-162.5 89,-162.5"/>
<text text-anchor="start" x="95.5484" y="-173.9" font-family="Arial" font-size="14.00" fill="#000000">calculation_type    </text>
<text text-anchor="start" x="230.115" y="-173.9" font-family="Arial" font-size="14.00" fill="#666666">[varchar(32)]</text>
<polygon fill="none" stroke="#000000" points="89,-132.5 89,-162.5 316,-162.5 316,-132.5 89,-132.5"/>
<text text-anchor="start" x="96" y="-143.9" font-family="Arial" font-size="14.00" fill="#000000">weight    </text>
<text text-anchor="start" x="170.6564" y="-143.9" font-family="Arial" font-size="14.00" fill="#666666">[int]</text>
<polygon fill="none" stroke="#000000" points="89,-102.5 89,-132.5 316,-132.5 316,-102.5 89,-102.5"/>
<text text-anchor="start" x="96" y="-113.9" font-family="Arial" font-size="14.00" fill="#000000">tag    </text>
<text text-anchor="start" x="149.6606" y="-113.9" font-family="Arial" font-size="14.00" fill="#666666">[int]</text>
<polygon fill="none" stroke="#000000" points="89,-72.5 89,-102.5 316,-102.5 316,-72.5 89,-72.5"/>
<text text-anchor="start" x="96" y="-83.9" font-family="Arial" font-size="14.00" fill="#000000">created_at    </text>
<text text-anchor="start" x="196.3422" y="-83.9" font-family="Arial" font-size="14.00" fill="#666666">[datetime(6)]</text>
<polygon fill="none" stroke="#000000" points="89,-42.5 89,-72.5 316,-72.5 316,-42.5 89,-42.5"/>
<text text-anchor="start" x="96" y="-53.9" font-family="Arial" font-size="14.00" fill="#000000">updated_at    </text>
<text text-anchor="start" x="200.2468" y="-53.9" font-family="Arial" font-size="14.00" fill="#666666">[datetime(6)]</text>
</g>
<!-- game_entries&#45;&gt;games -->
<g id="edge1" class="edge">
<title>game_entries:game&#45;&gt;games:id</title>
<path fill="none" stroke="#000000" d="M226.8435,-545.9527C200.4152,-536.6491 217.3653,-487.5247 237,-457 257.8738,-424.5489 295.1262,-453.4511 316,-421 338.4809,-386.0504 357.5556,-327.5 316,-327.5"/>
<polygon fill="#000000" stroke="#000000" points="227.1141,-545.9938 236.3222,-551.9487 232.057,-546.7469 237,-547.5 237,-547.5 237,-547.5 232.057,-546.7469 237.6778,-543.0513 227.1141,-545.9938 227.1141,-545.9938"/>
<text text-anchor="start" x="7.0545" y="-557.5" font-family="Arial" font-size="10.00" fill="#000000">FOREIGN KEY (game) REFERENCES games (id)</text>
</g>
<!-- teams -->
<g id="node3" class="node">
<title>teams</title>
<polygon fill="#efefef" stroke="transparent" points="420,-297.5 420,-332.5 623,-332.5 623,-297.5 420,-297.5"/>
<polygon fill="none" stroke="#000000" points="420,-297.5 420,-332.5 623,-332.5 623,-297.5 420,-297.5"/>
<text text-anchor="start" x="433.2126" y="-310.3" font-family="Arial Bold" font-size="18.00" fill="#000000">teams</text>
<text text-anchor="start" x="482.2194" y="-310.3" font-family="Arial" font-size="14.00" fill="#000000">    </text>
<text text-anchor="start" x="516.4242" y="-310.3" font-family="Arial" font-size="14.00" fill="#666666">[BASE TABLE]</text>
<polygon fill="none" stroke="#000000" points="420,-267.5 420,-297.5 623,-297.5 623,-267.5 420,-267.5"/>
<text text-anchor="start" x="427" y="-278.9" font-family="Arial" font-size="14.00" fill="#000000">id    </text>
<text text-anchor="start" x="472.094" y="-278.9" font-family="Arial" font-size="14.00" fill="#666666">[int]</text>
<polygon fill="none" stroke="#000000" points="420,-237.5 420,-267.5 623,-267.5 623,-237.5 420,-237.5"/>
<text text-anchor="start" x="427" y="-248.9" font-family="Arial" font-size="14.00" fill="#000000">name    </text>
<text text-anchor="start" x="496.2132" y="-248.9" font-family="Arial" font-size="14.00" fill="#666666">[varchar(64)]</text>
<polygon fill="none" stroke="#000000" points="420,-207.5 420,-237.5 623,-237.5 623,-207.5 420,-207.5"/>
<text text-anchor="start" x="426.9993" y="-218.9" font-family="Arial" font-size="14.00" fill="#000000">description    </text>
<text text-anchor="start" x="528.8815" y="-218.9" font-family="Arial" font-size="14.00" fill="#666666">[varchar(128)]</text>
<polygon fill="none" stroke="#000000" points="420,-177.5 420,-207.5 623,-207.5 623,-177.5 420,-177.5"/>
<text text-anchor="start" x="427" y="-188.9" font-family="Arial" font-size="14.00" fill="#000000">class    </text>
<text text-anchor="start" x="493.094" y="-188.9" font-family="Arial" font-size="14.00" fill="#666666">[int]</text>
<polygon fill="none" stroke="#000000" points="420,-147.5 420,-177.5 623,-177.5 623,-147.5 420,-147.5"/>
<text text-anchor="start" x="427" y="-158.9" font-family="Arial" font-size="14.00" fill="#000000">team_tag    </text>
<text text-anchor="start" x="519.5596" y="-158.9" font-family="Arial" font-size="14.00" fill="#666666">[int]</text>
<polygon fill="none" stroke="#000000" points="420,-117.5 420,-147.5 623,-147.5 623,-117.5 420,-117.5"/>
<text text-anchor="start" x="427" y="-128.9" font-family="Arial" font-size="14.00" fill="#000000">created_at    </text>
<text text-anchor="start" x="527.3422" y="-128.9" font-family="Arial" font-size="14.00" fill="#666666">[datetime(6)]</text>
<polygon fill="none" stroke="#000000" points="420,-87.5 420,-117.5 623,-117.5 623,-87.5 420,-87.5"/>
<text text-anchor="start" x="427" y="-98.9" font-family="Arial" font-size="14.00" fill="#000000">updated_at    </text>
<text text-anchor="start" x="531.2468" y="-98.9" font-family="Arial" font-size="14.00" fill="#666666">[datetime(6)]</text>
</g>
<!-- game_entries&#45;&gt;teams -->
<g id="edge2" class="edge">
<title>game_entries:team&#45;&gt;teams:id</title>
<path fill="none" stroke="#000000" d="M496.8628,-514.8567C508.2878,-506.2163 494.6133,-478.1488 487,-457 471.1758,-413.042 435.8242,-419.958 420,-376 405.9249,-336.9007 378.4444,-282.5 420,-282.5"/>
<polygon fill="#000000" stroke="#000000" points="496.6591,-514.9113 485.8351,-513.1534 491.8296,-516.2056 487,-517.5 487,-517.5 487,-517.5 491.8296,-516.2056 488.1649,-521.8466 496.6591,-514.9113 496.6591,-514.9113"/>
<text text-anchor="start" x="493.8345" y="-527.5" font-family="Arial" font-size="10.00" fill="#000000">FOREIGN KEY (team) REFERENCES teams (id)</text>
</g>
</g>
</svg>
