<?xml version="1.0" encoding="UTF-8" standalone="no"?>
<!DOCTYPE svg PUBLIC "-//W3C//DTD SVG 1.1//EN"
 "http://www.w3.org/Graphics/SVG/1.1/DTD/svg11.dtd">
<!-- Generated by graphviz version 2.40.1 (20161225.0304)
 -->
<!-- Title: groups Pages: 1 -->
<svg width="494pt" height="622pt"
 viewBox="0.00 0.00 493.50 622.00" xmlns="http://www.w3.org/2000/svg" xmlns:xlink="http://www.w3.org/1999/xlink">
<g id="graph0" class="graph" transform="scale(1 1) rotate(0) translate(4 618)">
<title>groups</title>
<polygon fill="#ffffff" stroke="transparent" points="-4,4 -4,-618 489.5,-618 489.5,4 -4,4"/>
<!-- groups -->
<g id="node1" class="node">
<title>groups</title>
<polygon fill="#efefef" stroke="transparent" points="47.5,-195.5 47.5,-230.5 243.5,-230.5 243.5,-195.5 47.5,-195.5"/>
<polygon fill="none" stroke="#000000" points="47.5,-195.5 47.5,-230.5 243.5,-230.5 243.5,-195.5 47.5,-195.5"/>
<text text-anchor="start" x="54.2075" y="-208.3" font-family="Arial Bold" font-size="18.00" fill="#000000">groups</text>
<text text-anchor="start" x="109.2245" y="-208.3" font-family="Arial" font-size="14.00" fill="#000000">    </text>
<text text-anchor="start" x="143.4293" y="-208.3" font-family="Arial" font-size="14.00" fill="#666666">[BASE TABLE]</text>
<polygon fill="none" stroke="#000000" points="47.5,-165.5 47.5,-195.5 243.5,-195.5 243.5,-165.5 47.5,-165.5"/>
<text text-anchor="start" x="54.5" y="-176.9" font-family="Arial" font-size="14.00" fill="#000000">id </text>
<text text-anchor="start" x="69.2798" y="-176.9" font-family="Arial" font-size="14.00" fill="#666666">[int]</text>
<polygon fill="none" stroke="#000000" points="47.5,-135.5 47.5,-165.5 243.5,-165.5 243.5,-135.5 47.5,-135.5"/>
<text text-anchor="start" x="54.5" y="-146.9" font-family="Arial" font-size="14.00" fill="#000000">name </text>
<text text-anchor="start" x="93.399" y="-146.9" font-family="Arial" font-size="14.00" fill="#666666">[varchar(64)]</text>
<polygon fill="none" stroke="#000000" points="47.5,-105.5 47.5,-135.5 243.5,-135.5 243.5,-105.5 47.5,-105.5"/>
<text text-anchor="start" x="54.5" y="-116.9" font-family="Arial" font-size="14.00" fill="#000000">description </text>
<text text-anchor="start" x="126.068" y="-116.9" font-family="Arial" font-size="14.00" fill="#666666">[varchar(128)]</text>
<polygon fill="none" stroke="#000000" points="47.5,-75.5 47.5,-105.5 243.5,-105.5 243.5,-75.5 47.5,-75.5"/>
<text text-anchor="start" x="54.5" y="-86.9" font-family="Arial" font-size="14.00" fill="#000000">created_at </text>
<text text-anchor="start" x="124.528" y="-86.9" font-family="Arial" font-size="14.00" fill="#666666">[datetime(6)]</text>
<polygon fill="none" stroke="#000000" points="47.5,-45.5 47.5,-75.5 243.5,-75.5 243.5,-45.5 47.5,-45.5"/>
<text text-anchor="start" x="54.5" y="-56.9" font-family="Arial" font-size="14.00" fill="#000000">updated_at </text>
<text text-anchor="start" x="128.4326" y="-56.9" font-family="Arial" font-size="14.00" fill="#666666">[datetime(6)]</text>
<polygon fill="none" stroke="#000000" stroke-width="3" points="46,-44.5 46,-232.5 245,-232.5 245,-44.5 46,-44.5"/>
</g>
<!-- classes -->
<g id="node2" class="node">
<title>classes</title>
<polygon fill="#efefef" stroke="transparent" points="43.5,-535.5 43.5,-570.5 246.5,-570.5 246.5,-535.5 43.5,-535.5"/>
<polygon fill="none" stroke="#000000" points="43.5,-535.5 43.5,-570.5 246.5,-570.5 246.5,-535.5 43.5,-535.5"/>
<text text-anchor="start" x="51.2127" y="-548.3" font-family="Arial Bold" font-size="18.00" fill="#000000">classes</text>
<text text-anchor="start" x="111.2193" y="-548.3" font-family="Arial" font-size="14.00" fill="#000000">    </text>
<text text-anchor="start" x="145.4241" y="-548.3" font-family="Arial" font-size="14.00" fill="#666666">[BASE TABLE]</text>
<polygon fill="none" stroke="#000000" points="43.5,-505.5 43.5,-535.5 246.5,-535.5 246.5,-505.5 43.5,-505.5"/>
<text text-anchor="start" x="50.5" y="-516.9" font-family="Arial" font-size="14.00" fill="#000000">id    </text>
<text text-anchor="start" x="95.594" y="-516.9" font-family="Arial" font-size="14.00" fill="#666666">[int]</text>
<polygon fill="none" stroke="#000000" points="43.5,-475.5 43.5,-505.5 246.5,-505.5 246.5,-475.5 43.5,-475.5"/>
<text text-anchor="start" x="50.5" y="-486.9" font-family="Arial" font-size="14.00" fill="#000000">name    </text>
<text text-anchor="start" x="119.7132" y="-486.9" font-family="Arial" font-size="14.00" fill="#666666">[varchar(64)]</text>
<polygon fill="none" stroke="#000000" points="43.5,-445.5 43.5,-475.5 246.5,-475.5 246.5,-445.5 43.5,-445.5"/>
<text text-anchor="start" x="50.4993" y="-456.9" font-family="Arial" font-size="14.00" fill="#000000">description    </text>
<text text-anchor="start" x="152.3815" y="-456.9" font-family="Arial" font-size="14.00" fill="#666666">[varchar(128)]</text>
<polygon fill="none" stroke="#000000" points="43.5,-415.5 43.5,-445.5 246.5,-445.5 246.5,-415.5 43.5,-415.5"/>
<text text-anchor="start" x="50.5" y="-426.9" font-family="Arial" font-size="14.00" fill="#000000">group    </text>
<text text-anchor="start" x="120.4958" y="-426.9" font-family="Arial" font-size="14.00" fill="#666666">[int]</text>
<polygon fill="none" stroke="#000000" points="43.5,-385.5 43.5,-415.5 246.5,-415.5 246.5,-385.5 43.5,-385.5"/>
<text text-anchor="start" x="50.5" y="-396.9" font-family="Arial" font-size="14.00" fill="#000000">created_at    </text>
<text text-anchor="start" x="150.8422" y="-396.9" font-family="Arial" font-size="14.00" fill="#666666">[datetime(6)]</text>
<polygon fill="none" stroke="#000000" points="43.5,-355.5 43.5,-385.5 246.5,-385.5 246.5,-355.5 43.5,-355.5"/>
<text text-anchor="start" x="50.5" y="-366.9" font-family="Arial" font-size="14.00" fill="#000000">updated_at    </text>
<text text-anchor="start" x="154.7468" y="-366.9" font-family="Arial" font-size="14.00" fill="#666666">[datetime(6)]</text>
</g>
<!-- classes&#45;&gt;groups -->
<g id="edge1" class="edge">
<title>classes:group&#45;&gt;groups:id</title>
<path fill="none" stroke="#000000" d="M256.4826,-429.3916C296.0136,-419.7973 277.625,-350.2609 246.5,-313 188.8791,-244.0199 105.1209,-345.9801 47.5,-277 20.0045,-244.0841 4.6111,-180.5 47.5,-180.5"/>
<polygon fill="#000000" stroke="#000000" points="256.4389,-429.3964 246.0034,-426.0275 251.4695,-429.9482 246.5,-430.5 246.5,-430.5 246.5,-430.5 251.4695,-429.9482 246.9966,-434.9725 256.4389,-429.3964 256.4389,-429.3964"/>
<text text-anchor="start" x="253.9955" y="-440.5" font-family="Arial" font-size="10.00" fill="#000000">FOREIGN KEY (group) REFERENCES groups (id)</text>
</g>
</g>
</svg>
