<?xml version="1.0" encoding="UTF-8" standalone="no"?>
<!DOCTYPE svg PUBLIC "-//W3C//DTD SVG 1.1//EN"
 "http://www.w3.org/Graphics/SVG/1.1/DTD/svg11.dtd">
<!-- Generated by graphviz version 2.40.1 (20161225.0304)
 -->
<!-- Title: images Pages: 1 -->
<svg width="690pt" height="1109pt"
 viewBox="0.00 0.00 690.00 1109.00" xmlns="http://www.w3.org/2000/svg" xmlns:xlink="http://www.w3.org/1999/xlink">
<g id="graph0" class="graph" transform="scale(1 1) rotate(0) translate(4 1105)">
<title>images</title>
<polygon fill="#ffffff" stroke="transparent" points="-4,4 -4,-1105 686,-1105 686,4 -4,4"/>
<!-- images -->
<g id="node1" class="node">
<title>images</title>
<polygon fill="#efefef" stroke="transparent" points="264,-622.5 264,-657.5 463,-657.5 463,-622.5 264,-622.5"/>
<polygon fill="none" stroke="#000000" points="264,-622.5 264,-657.5 463,-657.5 463,-622.5 264,-622.5"/>
<text text-anchor="start" x="270.7135" y="-635.3" font-family="Arial Bold" font-size="18.00" fill="#000000">images</text>
<text text-anchor="start" x="328.7185" y="-635.3" font-family="Arial" font-size="14.00" fill="#000000">    </text>
<text text-anchor="start" x="362.9233" y="-635.3" font-family="Arial" font-size="14.00" fill="#666666">[BASE TABLE]</text>
<polygon fill="none" stroke="#000000" points="264,-592.5 264,-622.5 463,-622.5 463,-592.5 264,-592.5"/>
<text text-anchor="start" x="271" y="-603.9" font-family="Arial" font-size="14.00" fill="#000000">id </text>
<text text-anchor="start" x="285.7798" y="-603.9" font-family="Arial" font-size="14.00" fill="#666666">[int]</text>
<polygon fill="none" stroke="#000000" points="264,-562.5 264,-592.5 463,-592.5 463,-562.5 264,-562.5"/>
<text text-anchor="start" x="271" y="-573.9" font-family="Arial" font-size="14.00" fill="#000000">name </text>
<text text-anchor="start" x="309.899" y="-573.9" font-family="Arial" font-size="14.00" fill="#666666">[varchar(64)]</text>
<polygon fill="none" stroke="#000000" points="264,-532.5 264,-562.5 463,-562.5 463,-532.5 264,-532.5"/>
<text text-anchor="start" x="271" y="-543.9" font-family="Arial" font-size="14.00" fill="#000000">attachment </text>
<text text-anchor="start" x="344.136" y="-543.9" font-family="Arial" font-size="14.00" fill="#666666">[text]</text>
<polygon fill="none" stroke="#000000" points="264,-502.5 264,-532.5 463,-532.5 463,-502.5 264,-502.5"/>
<text text-anchor="start" x="271" y="-513.9" font-family="Arial" font-size="14.00" fill="#000000">created_at </text>
<text text-anchor="start" x="341.028" y="-513.9" font-family="Arial" font-size="14.00" fill="#666666">[datetime(6)]</text>
<polygon fill="none" stroke="#000000" points="264,-472.5 264,-502.5 463,-502.5 463,-472.5 264,-472.5"/>
<text text-anchor="start" x="271" y="-483.9" font-family="Arial" font-size="14.00" fill="#000000">created_by </text>
<text text-anchor="start" x="344.1374" y="-483.9" font-family="Arial" font-size="14.00" fill="#666666">[int]</text>
<polygon fill="none" stroke="#000000" stroke-width="3" points="262,-471.5 262,-659.5 464,-659.5 464,-471.5 262,-471.5"/>
</g>
<!-- microsoft_accounts -->
<g id="node3" class="node">
<title>microsoft_accounts</title>
<polygon fill="#efefef" stroke="transparent" points="216,-312.5 216,-347.5 512,-347.5 512,-312.5 216,-312.5"/>
<polygon fill="none" stroke="#000000" points="216,-312.5 216,-347.5 512,-347.5 512,-312.5 216,-312.5"/>
<text text-anchor="start" x="222.7017" y="-325.3" font-family="Arial Bold" font-size="18.00" fill="#000000">microsoft_accounts</text>
<text text-anchor="start" x="377.7303" y="-325.3" font-family="Arial" font-size="14.00" fill="#000000">    </text>
<text text-anchor="start" x="411.9351" y="-325.3" font-family="Arial" font-size="14.00" fill="#666666">[BASE TABLE]</text>
<polygon fill="none" stroke="#000000" points="216,-282.5 216,-312.5 512,-312.5 512,-282.5 216,-282.5"/>
<text text-anchor="start" x="223" y="-293.9" font-family="Arial" font-size="14.00" fill="#000000">id    </text>
<text text-anchor="start" x="268.094" y="-293.9" font-family="Arial" font-size="14.00" fill="#666666">[int]</text>
<polygon fill="none" stroke="#000000" points="216,-252.5 216,-282.5 512,-282.5 512,-252.5 216,-252.5"/>
<text text-anchor="start" x="223" y="-263.9" font-family="Arial" font-size="14.00" fill="#000000">email    </text>
<text text-anchor="start" x="290.6438" y="-263.9" font-family="Arial" font-size="14.00" fill="#666666">[varchar(320)]</text>
<polygon fill="none" stroke="#000000" points="216,-222.5 216,-252.5 512,-252.5 512,-222.5 216,-222.5"/>
<text text-anchor="start" x="223" y="-233.9" font-family="Arial" font-size="14.00" fill="#000000">name    </text>
<text text-anchor="start" x="292.2132" y="-233.9" font-family="Arial" font-size="14.00" fill="#666666">[varchar(128)]</text>
<polygon fill="none" stroke="#000000" points="216,-192.5 216,-222.5 512,-222.5 512,-192.5 216,-192.5"/>
<text text-anchor="start" x="223" y="-203.9" font-family="Arial" font-size="14.00" fill="#000000">mail_account_name    </text>
<text text-anchor="start" x="382.4558" y="-203.9" font-family="Arial" font-size="14.00" fill="#666666">[varchar(128)]</text>
<polygon fill="none" stroke="#000000" points="216,-162.5 216,-192.5 512,-192.5 512,-162.5 216,-162.5"/>
<text text-anchor="start" x="223" y="-173.9" font-family="Arial" font-size="14.00" fill="#000000">role    </text>
<text text-anchor="start" x="280.5372" y="-173.9" font-family="Arial" font-size="14.00" fill="#666666">[varchar(32)]</text>
<polygon fill="none" stroke="#000000" points="216,-132.5 216,-162.5 512,-162.5 512,-132.5 216,-132.5"/>
<text text-anchor="start" x="223" y="-143.9" font-family="Arial" font-size="14.00" fill="#000000">user    </text>
<text text-anchor="start" x="284.4306" y="-143.9" font-family="Arial" font-size="14.00" fill="#666666">[int]</text>
<polygon fill="none" stroke="#000000" points="216,-102.5 216,-132.5 512,-132.5 512,-102.5 216,-102.5"/>
<text text-anchor="start" x="223" y="-113.9" font-family="Arial" font-size="14.00" fill="#000000">link_later    </text>
<text text-anchor="start" x="313.2062" y="-113.9" font-family="Arial" font-size="14.00" fill="#666666">[tinyint(1)]</text>
<polygon fill="none" stroke="#000000" points="216,-72.5 216,-102.5 512,-102.5 512,-72.5 216,-72.5"/>
<text text-anchor="start" x="223" y="-83.9" font-family="Arial" font-size="14.00" fill="#000000">first_login    </text>
<text text-anchor="start" x="317.0968" y="-83.9" font-family="Arial" font-size="14.00" fill="#666666">[datetime(6)]</text>
<polygon fill="none" stroke="#000000" points="216,-42.5 216,-72.5 512,-72.5 512,-42.5 216,-42.5"/>
<text text-anchor="start" x="223" y="-53.9" font-family="Arial" font-size="14.00" fill="#000000">last_login    </text>
<text text-anchor="start" x="316.3282" y="-53.9" font-family="Arial" font-size="14.00" fill="#666666">[datetime(6)]</text>
</g>
<!-- images&#45;&gt;microsoft_accounts -->
<g id="edge2" class="edge">
<title>images:created_by&#45;&gt;microsoft_accounts:id</title>
<path fill="none" stroke="#000000" d="M363.2358,-462.4241C353.4482,-402.8028 252.3366,-452.4915 216,-391 194.8591,-355.2239 174.4444,-297.5 216,-297.5"/>
<polygon fill="#000000" stroke="#000000" points="363.2436,-462.5286 359.5129,-472.8404 363.6218,-467.5143 364,-472.5 364,-472.5 364,-472.5 363.6218,-467.5143 368.4871,-472.1596 363.2436,-462.5286 363.2436,-462.5286"/>
<text text-anchor="start" x="370.766" y="-482.5" font-family="Arial" font-size="10.00" fill="#000000">FOREIGN KEY (created_by) REFERENCES microsoft_accounts (id)</text>
</g>
<!-- sports -->
<g id="node2" class="node">
<title>sports</title>
<polygon fill="#efefef" stroke="transparent" points="266,-1022.5 266,-1057.5 462,-1057.5 462,-1022.5 266,-1022.5"/>
<polygon fill="none" stroke="#000000" points="266,-1022.5 266,-1057.5 462,-1057.5 462,-1022.5 266,-1022.5"/>
<text text-anchor="start" x="275.7126" y="-1035.3" font-family="Arial Bold" font-size="18.00" fill="#000000">sports</text>
<text text-anchor="start" x="324.7194" y="-1035.3" font-family="Arial" font-size="14.00" fill="#000000">    </text>
<text text-anchor="start" x="358.9242" y="-1035.3" font-family="Arial" font-size="14.00" fill="#666666">[BASE TABLE]</text>
<polygon fill="none" stroke="#000000" points="266,-992.5 266,-1022.5 462,-1022.5 462,-992.5 266,-992.5"/>
<text text-anchor="start" x="273" y="-1003.9" font-family="Arial" font-size="14.00" fill="#000000">id    </text>
<text text-anchor="start" x="318.094" y="-1003.9" font-family="Arial" font-size="14.00" fill="#666666">[int]</text>
<polygon fill="none" stroke="#000000" points="266,-962.5 266,-992.5 462,-992.5 462,-962.5 266,-962.5"/>
<text text-anchor="start" x="273" y="-973.9" font-family="Arial" font-size="14.00" fill="#000000">name    </text>
<text text-anchor="start" x="342.2132" y="-973.9" font-family="Arial" font-size="14.00" fill="#666666">[varchar(64)]</text>
<polygon fill="none" stroke="#000000" points="266,-932.5 266,-962.5 462,-962.5 462,-932.5 266,-932.5"/>
<text text-anchor="start" x="273" y="-943.9" font-family="Arial" font-size="14.00" fill="#000000">description    </text>
<text text-anchor="start" x="374.8822" y="-943.9" font-family="Arial" font-size="14.00" fill="#666666">[text]</text>
<polygon fill="none" stroke="#000000" points="266,-902.5 266,-932.5 462,-932.5 462,-902.5 266,-902.5"/>
<text text-anchor="start" x="273" y="-913.9" font-family="Arial" font-size="14.00" fill="#000000">icon_image    </text>
<text text-anchor="start" x="378.7742" y="-913.9" font-family="Arial" font-size="14.00" fill="#666666">[int]</text>
<polygon fill="none" stroke="#000000" points="266,-872.5 266,-902.5 462,-902.5 462,-872.5 266,-872.5"/>
<text text-anchor="start" x="273" y="-883.9" font-family="Arial" font-size="14.00" fill="#000000">weight    </text>
<text text-anchor="start" x="347.6564" y="-883.9" font-family="Arial" font-size="14.00" fill="#666666">[int]</text>
<polygon fill="none" stroke="#000000" points="266,-842.5 266,-872.5 462,-872.5 462,-842.5 266,-842.5"/>
<text text-anchor="start" x="273" y="-853.9" font-family="Arial" font-size="14.00" fill="#000000">rule_id    </text>
<text text-anchor="start" x="349.209" y="-853.9" font-family="Arial" font-size="14.00" fill="#666666">[int]</text>
<polygon fill="none" stroke="#000000" points="266,-812.5 266,-842.5 462,-842.5 462,-812.5 266,-812.5"/>
<text text-anchor="start" x="273" y="-823.9" font-family="Arial" font-size="14.00" fill="#000000">created_at    </text>
<text text-anchor="start" x="373.3422" y="-823.9" font-family="Arial" font-size="14.00" fill="#666666">[datetime(6)]</text>
<polygon fill="none" stroke="#000000" points="266,-782.5 266,-812.5 462,-812.5 462,-782.5 266,-782.5"/>
<text text-anchor="start" x="272.5947" y="-793.9" font-family="Arial" font-size="14.00" fill="#000000">updated_at    </text>
<text text-anchor="start" x="376.8415" y="-793.9" font-family="Arial" font-size="14.00" fill="#666666">[datetime(6)]</text>
</g>
<!-- sports&#45;&gt;images -->
<g id="edge1" class="edge">
<title>sports:icon_image&#45;&gt;images:id</title>
<path fill="none" stroke="#000000" d="M256.0101,-916.8079C189.7045,-907.11 217.7487,-797.8679 266,-740 322.9995,-671.6404 406.0005,-772.3596 463,-704 490.4662,-671.0597 505.8889,-607.5 463,-607.5"/>
<polygon fill="#000000" stroke="#000000" points="256.0239,-916.8088 265.689,-921.9892 261.012,-917.1544 266,-917.5 266,-917.5 266,-917.5 261.012,-917.1544 266.311,-913.0108 256.0239,-916.8088 256.0239,-916.8088"/>
<text text-anchor="start" x="6.8875" y="-927.5" font-family="Arial" font-size="10.00" fill="#000000">FOREIGN KEY (icon_image) REFERENCES images (id)</text>
</g>
</g>
</svg>
