<?xml version="1.0" encoding="UTF-8" standalone="no"?>
<!DOCTYPE svg PUBLIC "-//W3C//DTD SVG 1.1//EN"
 "http://www.w3.org/Graphics/SVG/1.1/DTD/svg11.dtd">
<!-- Generated by graphviz version 2.40.1 (20161225.0304)
 -->
<!-- Title: images Pages: 1 -->
<svg width="636pt" height="652pt"
 viewBox="0.00 0.00 636.00 652.00" xmlns="http://www.w3.org/2000/svg" xmlns:xlink="http://www.w3.org/1999/xlink">
<g id="graph0" class="graph" transform="scale(1 1) rotate(0) translate(4 648)">
<title>images</title>
<polygon fill="#ffffff" stroke="transparent" points="-4,4 -4,-648 632,-648 632,4 -4,4"/>
<!-- images -->
<g id="node1" class="node">
<title>images</title>
<polygon fill="#efefef" stroke="transparent" points="218,-135.5 218,-170.5 417,-170.5 417,-135.5 218,-135.5"/>
<polygon fill="none" stroke="#000000" points="218,-135.5 218,-170.5 417,-170.5 417,-135.5 218,-135.5"/>
<text text-anchor="start" x="224.7135" y="-148.3" font-family="Arial Bold" font-size="18.00" fill="#000000">images</text>
<text text-anchor="start" x="282.7185" y="-148.3" font-family="Arial" font-size="14.00" fill="#000000">    </text>
<text text-anchor="start" x="316.9233" y="-148.3" font-family="Arial" font-size="14.00" fill="#666666">[BASE TABLE]</text>
<polygon fill="none" stroke="#000000" points="218,-105.5 218,-135.5 417,-135.5 417,-105.5 218,-105.5"/>
<text text-anchor="start" x="225" y="-116.9" font-family="Arial" font-size="14.00" fill="#000000">id </text>
<text text-anchor="start" x="239.7798" y="-116.9" font-family="Arial" font-size="14.00" fill="#666666">[int]</text>
<polygon fill="none" stroke="#000000" points="218,-75.5 218,-105.5 417,-105.5 417,-75.5 218,-75.5"/>
<text text-anchor="start" x="225" y="-86.9" font-family="Arial" font-size="14.00" fill="#000000">data </text>
<text text-anchor="start" x="256.129" y="-86.9" font-family="Arial" font-size="14.00" fill="#666666">[text]</text>
<polygon fill="none" stroke="#000000" points="218,-45.5 218,-75.5 417,-75.5 417,-45.5 218,-45.5"/>
<text text-anchor="start" x="225" y="-56.9" font-family="Arial" font-size="14.00" fill="#000000">created_at </text>
<text text-anchor="start" x="295.028" y="-56.9" font-family="Arial" font-size="14.00" fill="#666666">[datetime(6)]</text>
<polygon fill="none" stroke="#000000" stroke-width="3" points="216,-44.5 216,-172.5 418,-172.5 418,-44.5 216,-44.5"/>
</g>
<!-- sports -->
<g id="node2" class="node">
<title>sports</title>
<polygon fill="#efefef" stroke="transparent" points="70,-565.5 70,-600.5 266,-600.5 266,-565.5 70,-565.5"/>
<polygon fill="none" stroke="#000000" points="70,-565.5 70,-600.5 266,-600.5 266,-565.5 70,-565.5"/>
<text text-anchor="start" x="79.7126" y="-578.3" font-family="Arial Bold" font-size="18.00" fill="#000000">sports</text>
<text text-anchor="start" x="128.7194" y="-578.3" font-family="Arial" font-size="14.00" fill="#000000">    </text>
<text text-anchor="start" x="162.9242" y="-578.3" font-family="Arial" font-size="14.00" fill="#666666">[BASE TABLE]</text>
<polygon fill="none" stroke="#000000" points="70,-535.5 70,-565.5 266,-565.5 266,-535.5 70,-535.5"/>
<text text-anchor="start" x="77" y="-546.9" font-family="Arial" font-size="14.00" fill="#000000">id    </text>
<text text-anchor="start" x="122.094" y="-546.9" font-family="Arial" font-size="14.00" fill="#666666">[int]</text>
<polygon fill="none" stroke="#000000" points="70,-505.5 70,-535.5 266,-535.5 266,-505.5 70,-505.5"/>
<text text-anchor="start" x="77" y="-516.9" font-family="Arial" font-size="14.00" fill="#000000">name    </text>
<text text-anchor="start" x="146.2132" y="-516.9" font-family="Arial" font-size="14.00" fill="#666666">[varchar(64)]</text>
<polygon fill="none" stroke="#000000" points="70,-475.5 70,-505.5 266,-505.5 266,-475.5 70,-475.5"/>
<text text-anchor="start" x="77" y="-486.9" font-family="Arial" font-size="14.00" fill="#000000">description    </text>
<text text-anchor="start" x="178.8822" y="-486.9" font-family="Arial" font-size="14.00" fill="#666666">[text]</text>
<polygon fill="none" stroke="#000000" points="70,-445.5 70,-475.5 266,-475.5 266,-445.5 70,-445.5"/>
<text text-anchor="start" x="77" y="-456.9" font-family="Arial" font-size="14.00" fill="#000000">icon_image    </text>
<text text-anchor="start" x="182.7742" y="-456.9" font-family="Arial" font-size="14.00" fill="#666666">[int]</text>
<polygon fill="none" stroke="#000000" points="70,-415.5 70,-445.5 266,-445.5 266,-415.5 70,-415.5"/>
<text text-anchor="start" x="77" y="-426.9" font-family="Arial" font-size="14.00" fill="#000000">weight    </text>
<text text-anchor="start" x="151.6564" y="-426.9" font-family="Arial" font-size="14.00" fill="#666666">[int]</text>
<polygon fill="none" stroke="#000000" points="70,-385.5 70,-415.5 266,-415.5 266,-385.5 70,-385.5"/>
<text text-anchor="start" x="77" y="-396.9" font-family="Arial" font-size="14.00" fill="#000000">rule_id    </text>
<text text-anchor="start" x="153.209" y="-396.9" font-family="Arial" font-size="14.00" fill="#666666">[int]</text>
<polygon fill="none" stroke="#000000" points="70,-355.5 70,-385.5 266,-385.5 266,-355.5 70,-355.5"/>
<text text-anchor="start" x="77" y="-366.9" font-family="Arial" font-size="14.00" fill="#000000">tag    </text>
<text text-anchor="start" x="130.6606" y="-366.9" font-family="Arial" font-size="14.00" fill="#666666">[int]</text>
<polygon fill="none" stroke="#000000" points="70,-325.5 70,-355.5 266,-355.5 266,-325.5 70,-325.5"/>
<text text-anchor="start" x="77" y="-336.9" font-family="Arial" font-size="14.00" fill="#000000">created_at    </text>
<text text-anchor="start" x="177.3422" y="-336.9" font-family="Arial" font-size="14.00" fill="#666666">[datetime(6)]</text>
<polygon fill="none" stroke="#000000" points="70,-295.5 70,-325.5 266,-325.5 266,-295.5 70,-295.5"/>
<text text-anchor="start" x="76.5947" y="-306.9" font-family="Arial" font-size="14.00" fill="#000000">updated_at    </text>
<text text-anchor="start" x="180.8415" y="-306.9" font-family="Arial" font-size="14.00" fill="#666666">[datetime(6)]</text>
</g>
<!-- sports&#45;&gt;images -->
<g id="edge1" class="edge">
<title>sports:icon_image&#45;&gt;images:id</title>
<path fill="none" stroke="#000000" d="M276.1609,-459.9377C354.2543,-450.7982 305.632,-332.264 266,-253 254.0743,-229.1486 229.9257,-240.8514 218,-217 198.8195,-178.639 175.1111,-120.5 218,-120.5"/>
<polygon fill="#000000" stroke="#000000" points="275.9847,-459.9474 265.7513,-456.0069 270.9924,-460.2237 266,-460.5 266,-460.5 266,-460.5 270.9924,-460.2237 266.2487,-464.9931 275.9847,-459.9474 275.9847,-459.9474"/>
<text text-anchor="start" x="6.8875" y="-470.5" font-family="Arial" font-size="10.00" fill="#000000">FOREIGN KEY (icon_image) REFERENCES images (id)</text>
</g>
<!-- users -->
<g id="node3" class="node">
<title>users</title>
<polygon fill="#efefef" stroke="transparent" points="370,-565.5 370,-600.5 566,-600.5 566,-565.5 370,-565.5"/>
<polygon fill="none" stroke="#000000" points="370,-565.5 370,-600.5 566,-600.5 566,-565.5 370,-565.5"/>
<text text-anchor="start" x="382.2137" y="-578.3" font-family="Arial Bold" font-size="18.00" fill="#000000">users</text>
<text text-anchor="start" x="426.2183" y="-578.3" font-family="Arial" font-size="14.00" fill="#000000">    </text>
<text text-anchor="start" x="460.4231" y="-578.3" font-family="Arial" font-size="14.00" fill="#666666">[BASE TABLE]</text>
<polygon fill="none" stroke="#000000" points="370,-535.5 370,-565.5 566,-565.5 566,-535.5 370,-535.5"/>
<text text-anchor="start" x="377" y="-546.9" font-family="Arial" font-size="14.00" fill="#000000">id    </text>
<text text-anchor="start" x="422.094" y="-546.9" font-family="Arial" font-size="14.00" fill="#666666">[int]</text>
<polygon fill="none" stroke="#000000" points="370,-505.5 370,-535.5 566,-535.5 566,-505.5 370,-505.5"/>
<text text-anchor="start" x="377" y="-516.9" font-family="Arial" font-size="14.00" fill="#000000">name    </text>
<text text-anchor="start" x="446.2132" y="-516.9" font-family="Arial" font-size="14.00" fill="#666666">[varchar(128)]</text>
<polygon fill="none" stroke="#000000" points="370,-475.5 370,-505.5 566,-505.5 566,-475.5 370,-475.5"/>
<text text-anchor="start" x="377" y="-486.9" font-family="Arial" font-size="14.00" fill="#000000">email    </text>
<text text-anchor="start" x="444.6438" y="-486.9" font-family="Arial" font-size="14.00" fill="#666666">[varchar(320)]</text>
<polygon fill="none" stroke="#000000" points="370,-445.5 370,-475.5 566,-475.5 566,-445.5 370,-445.5"/>
<text text-anchor="start" x="377" y="-456.9" font-family="Arial" font-size="14.00" fill="#000000">gender    </text>
<text text-anchor="start" x="454.7784" y="-456.9" font-family="Arial" font-size="14.00" fill="#666666">[varchar(10)]</text>
<polygon fill="none" stroke="#000000" points="370,-415.5 370,-445.5 566,-445.5 566,-415.5 370,-415.5"/>
<text text-anchor="start" x="377" y="-426.9" font-family="Arial" font-size="14.00" fill="#000000">picture_id    </text>
<text text-anchor="start" x="471.8822" y="-426.9" font-family="Arial" font-size="14.00" fill="#666666">[int]</text>
<polygon fill="none" stroke="#000000" points="370,-385.5 370,-415.5 566,-415.5 566,-385.5 370,-385.5"/>
<text text-anchor="start" x="377" y="-396.9" font-family="Arial" font-size="14.00" fill="#000000">class_id    </text>
<text text-anchor="start" x="461.7658" y="-396.9" font-family="Arial" font-size="14.00" fill="#666666">[int]</text>
<polygon fill="none" stroke="#000000" points="370,-355.5 370,-385.5 566,-385.5 566,-355.5 370,-355.5"/>
<text text-anchor="start" x="377" y="-366.9" font-family="Arial" font-size="14.00" fill="#000000">role_id    </text>
<text text-anchor="start" x="453.209" y="-366.9" font-family="Arial" font-size="14.00" fill="#666666">[int]</text>
<polygon fill="none" stroke="#000000" points="370,-325.5 370,-355.5 566,-355.5 566,-325.5 370,-325.5"/>
<text text-anchor="start" x="377" y="-336.9" font-family="Arial" font-size="14.00" fill="#000000">created_at    </text>
<text text-anchor="start" x="477.3422" y="-336.9" font-family="Arial" font-size="14.00" fill="#666666">[datetime(6)]</text>
<polygon fill="none" stroke="#000000" points="370,-295.5 370,-325.5 566,-325.5 566,-295.5 370,-295.5"/>
<text text-anchor="start" x="376.5947" y="-306.9" font-family="Arial" font-size="14.00" fill="#000000">updated_at    </text>
<text text-anchor="start" x="480.8415" y="-306.9" font-family="Arial" font-size="14.00" fill="#666666">[datetime(6)]</text>
</g>
<!-- users&#45;&gt;images -->
<g id="edge2" class="edge">
<title>users:picture_id&#45;&gt;images:id</title>
<path fill="none" stroke="#000000" d="M359.7025,-429.811C295.2131,-420.5702 336.7148,-320.4224 370,-253 381.6479,-229.4061 405.3521,-240.5939 417,-217 435.9859,-178.5423 459.8889,-120.5 417,-120.5"/>
<polygon fill="#000000" stroke="#000000" points="360.0223,-429.8323 369.6995,-434.99 365.0112,-430.1661 370,-430.5 370,-430.5 370,-430.5 365.0112,-430.1661 370.3005,-426.01 360.0223,-429.8323 360.0223,-429.8323"/>
<text text-anchor="start" x="376.7775" y="-440.5" font-family="Arial" font-size="10.00" fill="#000000">FOREIGN KEY (picture_id) REFERENCES images (id)</text>
</g>
</g>
</svg>
