<?xml version="1.0" encoding="UTF-8" standalone="no"?>
<!DOCTYPE svg PUBLIC "-//W3C//DTD SVG 1.1//EN"
 "http://www.w3.org/Graphics/SVG/1.1/DTD/svg11.dtd">
<!-- Generated by graphviz version 2.40.1 (20161225.0304)
 -->
<!-- Title: images Pages: 1 -->
<svg width="517pt" height="652pt"
 viewBox="0.00 0.00 516.50 652.00" xmlns="http://www.w3.org/2000/svg" xmlns:xlink="http://www.w3.org/1999/xlink">
<g id="graph0" class="graph" transform="scale(1 1) rotate(0) translate(4 648)">
<title>images</title>
<polygon fill="#ffffff" stroke="transparent" points="-4,4 -4,-648 512.5,-648 512.5,4 -4,4"/>
<!-- images -->
<g id="node1" class="node">
<title>images</title>
<polygon fill="#efefef" stroke="transparent" points="264,-135.5 264,-170.5 463,-170.5 463,-135.5 264,-135.5"/>
<polygon fill="none" stroke="#000000" points="264,-135.5 264,-170.5 463,-170.5 463,-135.5 264,-135.5"/>
<text text-anchor="start" x="270.7135" y="-148.3" font-family="Arial Bold" font-size="18.00" fill="#000000">images</text>
<text text-anchor="start" x="328.7185" y="-148.3" font-family="Arial" font-size="14.00" fill="#000000">    </text>
<text text-anchor="start" x="362.9233" y="-148.3" font-family="Arial" font-size="14.00" fill="#666666">[BASE TABLE]</text>
<polygon fill="none" stroke="#000000" points="264,-105.5 264,-135.5 463,-135.5 463,-105.5 264,-105.5"/>
<text text-anchor="start" x="271" y="-116.9" font-family="Arial" font-size="14.00" fill="#000000">id </text>
<text text-anchor="start" x="285.7798" y="-116.9" font-family="Arial" font-size="14.00" fill="#666666">[int]</text>
<polygon fill="none" stroke="#000000" points="264,-75.5 264,-105.5 463,-105.5 463,-75.5 264,-75.5"/>
<text text-anchor="start" x="271" y="-86.9" font-family="Arial" font-size="14.00" fill="#000000">data </text>
<text text-anchor="start" x="302.129" y="-86.9" font-family="Arial" font-size="14.00" fill="#666666">[text]</text>
<polygon fill="none" stroke="#000000" points="264,-45.5 264,-75.5 463,-75.5 463,-45.5 264,-45.5"/>
<text text-anchor="start" x="271" y="-56.9" font-family="Arial" font-size="14.00" fill="#000000">created_at </text>
<text text-anchor="start" x="341.028" y="-56.9" font-family="Arial" font-size="14.00" fill="#666666">[datetime(6)]</text>
<polygon fill="none" stroke="#000000" stroke-width="3" points="262,-44.5 262,-172.5 464,-172.5 464,-44.5 262,-44.5"/>
</g>
<!-- sports -->
<g id="node2" class="node">
<title>sports</title>
<polygon fill="#efefef" stroke="transparent" points="266,-565.5 266,-600.5 462,-600.5 462,-565.5 266,-565.5"/>
<polygon fill="none" stroke="#000000" points="266,-565.5 266,-600.5 462,-600.5 462,-565.5 266,-565.5"/>
<text text-anchor="start" x="275.7126" y="-578.3" font-family="Arial Bold" font-size="18.00" fill="#000000">sports</text>
<text text-anchor="start" x="324.7194" y="-578.3" font-family="Arial" font-size="14.00" fill="#000000">    </text>
<text text-anchor="start" x="358.9242" y="-578.3" font-family="Arial" font-size="14.00" fill="#666666">[BASE TABLE]</text>
<polygon fill="none" stroke="#000000" points="266,-535.5 266,-565.5 462,-565.5 462,-535.5 266,-535.5"/>
<text text-anchor="start" x="273" y="-546.9" font-family="Arial" font-size="14.00" fill="#000000">id    </text>
<text text-anchor="start" x="318.094" y="-546.9" font-family="Arial" font-size="14.00" fill="#666666">[int]</text>
<polygon fill="none" stroke="#000000" points="266,-505.5 266,-535.5 462,-535.5 462,-505.5 266,-505.5"/>
<text text-anchor="start" x="273" y="-516.9" font-family="Arial" font-size="14.00" fill="#000000">name    </text>
<text text-anchor="start" x="342.2132" y="-516.9" font-family="Arial" font-size="14.00" fill="#666666">[varchar(64)]</text>
<polygon fill="none" stroke="#000000" points="266,-475.5 266,-505.5 462,-505.5 462,-475.5 266,-475.5"/>
<text text-anchor="start" x="273" y="-486.9" font-family="Arial" font-size="14.00" fill="#000000">description    </text>
<text text-anchor="start" x="374.8822" y="-486.9" font-family="Arial" font-size="14.00" fill="#666666">[text]</text>
<polygon fill="none" stroke="#000000" points="266,-445.5 266,-475.5 462,-475.5 462,-445.5 266,-445.5"/>
<text text-anchor="start" x="273" y="-456.9" font-family="Arial" font-size="14.00" fill="#000000">icon_image    </text>
<text text-anchor="start" x="378.7742" y="-456.9" font-family="Arial" font-size="14.00" fill="#666666">[int]</text>
<polygon fill="none" stroke="#000000" points="266,-415.5 266,-445.5 462,-445.5 462,-415.5 266,-415.5"/>
<text text-anchor="start" x="273" y="-426.9" font-family="Arial" font-size="14.00" fill="#000000">weight    </text>
<text text-anchor="start" x="347.6564" y="-426.9" font-family="Arial" font-size="14.00" fill="#666666">[int]</text>
<polygon fill="none" stroke="#000000" points="266,-385.5 266,-415.5 462,-415.5 462,-385.5 266,-385.5"/>
<text text-anchor="start" x="273" y="-396.9" font-family="Arial" font-size="14.00" fill="#000000">rule_id    </text>
<text text-anchor="start" x="349.209" y="-396.9" font-family="Arial" font-size="14.00" fill="#666666">[int]</text>
<polygon fill="none" stroke="#000000" points="266,-355.5 266,-385.5 462,-385.5 462,-355.5 266,-355.5"/>
<text text-anchor="start" x="273" y="-366.9" font-family="Arial" font-size="14.00" fill="#000000">tag    </text>
<text text-anchor="start" x="326.6606" y="-366.9" font-family="Arial" font-size="14.00" fill="#666666">[int]</text>
<polygon fill="none" stroke="#000000" points="266,-325.5 266,-355.5 462,-355.5 462,-325.5 266,-325.5"/>
<text text-anchor="start" x="273" y="-336.9" font-family="Arial" font-size="14.00" fill="#000000">created_at    </text>
<text text-anchor="start" x="373.3422" y="-336.9" font-family="Arial" font-size="14.00" fill="#666666">[datetime(6)]</text>
<polygon fill="none" stroke="#000000" points="266,-295.5 266,-325.5 462,-325.5 462,-295.5 266,-295.5"/>
<text text-anchor="start" x="272.5947" y="-306.9" font-family="Arial" font-size="14.00" fill="#000000">updated_at    </text>
<text text-anchor="start" x="376.8415" y="-306.9" font-family="Arial" font-size="14.00" fill="#666666">[datetime(6)]</text>
</g>
<!-- sports&#45;&gt;images -->
<g id="edge1" class="edge">
<title>sports:icon_image&#45;&gt;images:id</title>
<path fill="none" stroke="#000000" d="M255.7607,-459.8864C176.4081,-449.9231 209.2475,-321.0634 266,-253 322.9995,-184.6404 406.0005,-285.3596 463,-217 490.4662,-184.0597 505.8889,-120.5 463,-120.5"/>
<polygon fill="#000000" stroke="#000000" points="256.0179,-459.9018 265.7308,-464.9919 261.009,-460.2009 266,-460.5 266,-460.5 266,-460.5 261.009,-460.2009 266.2692,-456.0081 256.0179,-459.9018 256.0179,-459.9018"/>
<text text-anchor="start" x="6.8875" y="-470.5" font-family="Arial" font-size="10.00" fill="#000000">FOREIGN KEY (icon_image) REFERENCES images (id)</text>
</g>
</g>
</svg>
