<?xml version="1.0" encoding="UTF-8" standalone="no"?>
<!DOCTYPE svg PUBLIC "-//W3C//DTD SVG 1.1//EN"
 "http://www.w3.org/Graphics/SVG/1.1/DTD/svg11.dtd">
<!-- Generated by graphviz version 2.40.1 (20161225.0304)
 -->
<!-- Title: locations Pages: 1 -->
<svg width="520pt" height="802pt"
 viewBox="0.00 0.00 520.00 802.00" xmlns="http://www.w3.org/2000/svg" xmlns:xlink="http://www.w3.org/1999/xlink">
<g id="graph0" class="graph" transform="scale(1 1) rotate(0) translate(4 798)">
<title>locations</title>
<polygon fill="#ffffff" stroke="transparent" points="-4,4 -4,-798 516,-798 516,4 -4,4"/>
<!-- locations -->
<g id="node1" class="node">
<title>locations</title>
<polygon fill="#efefef" stroke="transparent" points="46,-105.5 46,-140.5 258,-140.5 258,-105.5 46,-105.5"/>
<polygon fill="none" stroke="#000000" points="46,-105.5 46,-140.5 258,-140.5 258,-105.5 46,-105.5"/>
<text text-anchor="start" x="52.7083" y="-118.3" font-family="Arial Bold" font-size="18.00" fill="#000000">locations</text>
<text text-anchor="start" x="123.7237" y="-118.3" font-family="Arial" font-size="14.00" fill="#000000">    </text>
<text text-anchor="start" x="157.9285" y="-118.3" font-family="Arial" font-size="14.00" fill="#666666">[BASE TABLE]</text>
<polygon fill="none" stroke="#000000" points="46,-75.5 46,-105.5 258,-105.5 258,-75.5 46,-75.5"/>
<text text-anchor="start" x="53" y="-86.9" font-family="Arial" font-size="14.00" fill="#000000">id </text>
<text text-anchor="start" x="67.7798" y="-86.9" font-family="Arial" font-size="14.00" fill="#666666">[int]</text>
<polygon fill="none" stroke="#000000" points="46,-45.5 46,-75.5 258,-75.5 258,-45.5 46,-45.5"/>
<text text-anchor="start" x="53" y="-56.9" font-family="Arial" font-size="14.00" fill="#000000">name </text>
<text text-anchor="start" x="91.899" y="-56.9" font-family="Arial" font-size="14.00" fill="#666666">[varchar(64)]</text>
<polygon fill="none" stroke="#000000" stroke-width="3" points="44.5,-44.5 44.5,-142.5 259.5,-142.5 259.5,-44.5 44.5,-44.5"/>
</g>
<!-- matches -->
<g id="node2" class="node">
<title>matches</title>
<polygon fill="#efefef" stroke="transparent" points="47,-715.5 47,-750.5 256,-750.5 256,-715.5 47,-715.5"/>
<polygon fill="none" stroke="#000000" points="47,-715.5 47,-750.5 256,-750.5 256,-715.5 47,-715.5"/>
<text text-anchor="start" x="53.7095" y="-728.3" font-family="Arial Bold" font-size="18.00" fill="#000000">matches</text>
<text text-anchor="start" x="121.7225" y="-728.3" font-family="Arial" font-size="14.00" fill="#000000">    </text>
<text text-anchor="start" x="155.9273" y="-728.3" font-family="Arial" font-size="14.00" fill="#666666">[BASE TABLE]</text>
<polygon fill="none" stroke="#000000" points="47,-685.5 47,-715.5 256,-715.5 256,-685.5 47,-685.5"/>
<text text-anchor="start" x="54" y="-696.9" font-family="Arial" font-size="14.00" fill="#000000">id    </text>
<text text-anchor="start" x="99.094" y="-696.9" font-family="Arial" font-size="14.00" fill="#666666">[int]</text>
<polygon fill="none" stroke="#000000" points="47,-655.5 47,-685.5 256,-685.5 256,-655.5 47,-655.5"/>
<text text-anchor="start" x="54" y="-666.9" font-family="Arial" font-size="14.00" fill="#000000">location    </text>
<text text-anchor="start" x="136.439" y="-666.9" font-family="Arial" font-size="14.00" fill="#666666">[int]</text>
<polygon fill="none" stroke="#000000" points="47,-625.5 47,-655.5 256,-655.5 256,-625.5 47,-625.5"/>
<text text-anchor="start" x="54" y="-636.9" font-family="Arial" font-size="14.00" fill="#000000">game    </text>
<text text-anchor="start" x="123.2132" y="-636.9" font-family="Arial" font-size="14.00" fill="#666666">[int]</text>
<polygon fill="none" stroke="#000000" points="47,-595.5 47,-625.5 256,-625.5 256,-595.5 47,-595.5"/>
<text text-anchor="start" x="54" y="-606.9" font-family="Arial" font-size="14.00" fill="#000000">sport    </text>
<text text-anchor="start" x="119.3212" y="-606.9" font-family="Arial" font-size="14.00" fill="#666666">[int]</text>
<polygon fill="none" stroke="#000000" points="47,-565.5 47,-595.5 256,-595.5 256,-565.5 47,-565.5"/>
<text text-anchor="start" x="54" y="-576.9" font-family="Arial" font-size="14.00" fill="#000000">started_at    </text>
<text text-anchor="start" x="150.4502" y="-576.9" font-family="Arial" font-size="14.00" fill="#666666">[datetime(6)]</text>
<polygon fill="none" stroke="#000000" points="47,-535.5 47,-565.5 256,-565.5 256,-535.5 47,-535.5"/>
<text text-anchor="start" x="54" y="-546.9" font-family="Arial" font-size="14.00" fill="#000000">left_team    </text>
<text text-anchor="start" x="145.7742" y="-546.9" font-family="Arial" font-size="14.00" fill="#666666">[int]</text>
<polygon fill="none" stroke="#000000" points="47,-505.5 47,-535.5 256,-535.5 256,-505.5 47,-505.5"/>
<text text-anchor="start" x="54" y="-516.9" font-family="Arial" font-size="14.00" fill="#000000">right_team    </text>
<text text-anchor="start" x="154.3268" y="-516.9" font-family="Arial" font-size="14.00" fill="#666666">[int]</text>
<polygon fill="none" stroke="#000000" points="47,-475.5 47,-505.5 256,-505.5 256,-475.5 47,-475.5"/>
<text text-anchor="start" x="54" y="-486.9" font-family="Arial" font-size="14.00" fill="#000000">left_score    </text>
<text text-anchor="start" x="148.8836" y="-486.9" font-family="Arial" font-size="14.00" fill="#666666">[int]</text>
<polygon fill="none" stroke="#000000" points="47,-445.5 47,-475.5 256,-475.5 256,-445.5 47,-445.5"/>
<text text-anchor="start" x="54" y="-456.9" font-family="Arial" font-size="14.00" fill="#000000">right_score    </text>
<text text-anchor="start" x="157.4362" y="-456.9" font-family="Arial" font-size="14.00" fill="#666666">[int]</text>
<polygon fill="none" stroke="#000000" points="47,-415.5 47,-445.5 256,-445.5 256,-415.5 47,-415.5"/>
<text text-anchor="start" x="54" y="-426.9" font-family="Arial" font-size="14.00" fill="#000000">result    </text>
<text text-anchor="start" x="122.4278" y="-426.9" font-family="Arial" font-size="14.00" fill="#666666">[varchar(32)]</text>
<polygon fill="none" stroke="#000000" points="47,-385.5 47,-415.5 256,-415.5 256,-385.5 47,-385.5"/>
<text text-anchor="start" x="54" y="-396.9" font-family="Arial" font-size="14.00" fill="#000000">status    </text>
<text text-anchor="start" x="125.5512" y="-396.9" font-family="Arial" font-size="14.00" fill="#666666">[varchar(32)]</text>
<polygon fill="none" stroke="#000000" points="47,-355.5 47,-385.5 256,-385.5 256,-355.5 47,-355.5"/>
<text text-anchor="start" x="54" y="-366.9" font-family="Arial" font-size="14.00" fill="#000000">note    </text>
<text text-anchor="start" x="115.4432" y="-366.9" font-family="Arial" font-size="14.00" fill="#666666">[text]</text>
<polygon fill="none" stroke="#000000" points="47,-325.5 47,-355.5 256,-355.5 256,-325.5 47,-325.5"/>
<text text-anchor="start" x="54" y="-336.9" font-family="Arial" font-size="14.00" fill="#000000">judge    </text>
<text text-anchor="start" x="122.4418" y="-336.9" font-family="Arial" font-size="14.00" fill="#666666">[varchar(64)]</text>
<polygon fill="none" stroke="#000000" points="47,-295.5 47,-325.5 256,-325.5 256,-295.5 47,-295.5"/>
<text text-anchor="start" x="54" y="-306.9" font-family="Arial" font-size="14.00" fill="#000000">created_at    </text>
<text text-anchor="start" x="154.3422" y="-306.9" font-family="Arial" font-size="14.00" fill="#666666">[datetime(6)]</text>
<polygon fill="none" stroke="#000000" points="47,-265.5 47,-295.5 256,-295.5 256,-265.5 47,-265.5"/>
<text text-anchor="start" x="54" y="-276.9" font-family="Arial" font-size="14.00" fill="#000000">updated_at    </text>
<text text-anchor="start" x="158.2468" y="-276.9" font-family="Arial" font-size="14.00" fill="#666666">[datetime(6)]</text>
</g>
<!-- matches&#45;&gt;locations -->
<g id="edge1" class="edge">
<title>matches:location&#45;&gt;locations:id</title>
<path fill="none" stroke="#000000" d="M265.9931,-669.1516C352.9239,-644.7459 317.849,-296.3539 256,-223 194.9591,-150.6045 107.0409,-259.3955 46,-187 18.3535,-154.2108 3.1111,-90.5 46,-90.5"/>
<polygon fill="#000000" stroke="#000000" points="265.9102,-669.1627 255.3982,-666.0404 260.9551,-669.8314 256,-670.5 256,-670.5 256,-670.5 260.9551,-669.8314 256.6018,-674.9596 265.9102,-669.1627 265.9102,-669.1627"/>
<text text-anchor="start" x="262.6075" y="-680.5" font-family="Arial" font-size="10.00" fill="#000000">FOREIGN KEY (location) REFERENCES locations (id)</text>
</g>
</g>
</svg>
