<?xml version="1.0" encoding="UTF-8" standalone="no"?>
<!DOCTYPE svg PUBLIC "-//W3C//DTD SVG 1.1//EN"
 "http://www.w3.org/Graphics/SVG/1.1/DTD/svg11.dtd">
<!-- Generated by graphviz version 2.40.1 (20161225.0304)
 -->
<!-- Title: logs Pages: 1 -->
<svg width="636pt" height="712pt"
 viewBox="0.00 0.00 636.00 712.00" xmlns="http://www.w3.org/2000/svg" xmlns:xlink="http://www.w3.org/1999/xlink">
<g id="graph0" class="graph" transform="scale(1 1) rotate(0) translate(4 708)">
<title>logs</title>
<polygon fill="#ffffff" stroke="transparent" points="-4,4 -4,-708 632,-708 632,4 -4,4"/>
<!-- logs -->
<g id="node1" class="node">
<title>logs</title>
<polygon fill="#efefef" stroke="transparent" points="104,-622.5 104,-657.5 278,-657.5 278,-622.5 104,-622.5"/>
<polygon fill="none" stroke="#000000" points="104,-622.5 104,-657.5 278,-657.5 278,-622.5 104,-622.5"/>
<text text-anchor="start" x="110.7127" y="-635.3" font-family="Arial Bold" font-size="18.00" fill="#000000">logs</text>
<text text-anchor="start" x="143.7193" y="-635.3" font-family="Arial" font-size="14.00" fill="#000000">    </text>
<text text-anchor="start" x="177.9241" y="-635.3" font-family="Arial" font-size="14.00" fill="#666666">[BASE TABLE]</text>
<polygon fill="none" stroke="#000000" points="104,-592.5 104,-622.5 278,-622.5 278,-592.5 104,-592.5"/>
<text text-anchor="start" x="111" y="-603.9" font-family="Arial" font-size="14.00" fill="#000000">id </text>
<text text-anchor="start" x="125.7798" y="-603.9" font-family="Arial" font-size="14.00" fill="#666666">[int]</text>
<polygon fill="none" stroke="#000000" points="104,-562.5 104,-592.5 278,-592.5 278,-562.5 104,-562.5"/>
<text text-anchor="start" x="111" y="-573.9" font-family="Arial" font-size="14.00" fill="#000000">log_event </text>
<text text-anchor="start" x="175.5834" y="-573.9" font-family="Arial" font-size="14.00" fill="#666666">[varchar(32)]</text>
<polygon fill="none" stroke="#000000" points="104,-532.5 104,-562.5 278,-562.5 278,-532.5 104,-532.5"/>
<text text-anchor="start" x="111" y="-543.9" font-family="Arial" font-size="14.00" fill="#000000">microsoft_account </text>
<text text-anchor="start" x="228.4684" y="-543.9" font-family="Arial" font-size="14.00" fill="#666666">[int]</text>
<polygon fill="none" stroke="#000000" points="104,-502.5 104,-532.5 278,-532.5 278,-502.5 104,-502.5"/>
<text text-anchor="start" x="111" y="-513.9" font-family="Arial" font-size="14.00" fill="#000000">message </text>
<text text-anchor="start" x="171.6816" y="-513.9" font-family="Arial" font-size="14.00" fill="#666666">[text]</text>
<polygon fill="none" stroke="#000000" points="104,-472.5 104,-502.5 278,-502.5 278,-472.5 104,-472.5"/>
<text text-anchor="start" x="111" y="-483.9" font-family="Arial" font-size="14.00" fill="#000000">created_at </text>
<text text-anchor="start" x="181.028" y="-483.9" font-family="Arial" font-size="14.00" fill="#666666">[datetime(6)]</text>
<polygon fill="none" stroke="#000000" stroke-width="3" points="102.5,-471.5 102.5,-659.5 279.5,-659.5 279.5,-471.5 102.5,-471.5"/>
</g>
<!-- microsoft_accounts -->
<g id="node2" class="node">
<title>microsoft_accounts</title>
<polygon fill="#efefef" stroke="transparent" points="43,-312.5 43,-347.5 339,-347.5 339,-312.5 43,-312.5"/>
<polygon fill="none" stroke="#000000" points="43,-312.5 43,-347.5 339,-347.5 339,-312.5 43,-312.5"/>
<text text-anchor="start" x="49.7017" y="-325.3" font-family="Arial Bold" font-size="18.00" fill="#000000">microsoft_accounts</text>
<text text-anchor="start" x="204.7303" y="-325.3" font-family="Arial" font-size="14.00" fill="#000000">    </text>
<text text-anchor="start" x="238.9351" y="-325.3" font-family="Arial" font-size="14.00" fill="#666666">[BASE TABLE]</text>
<polygon fill="none" stroke="#000000" points="43,-282.5 43,-312.5 339,-312.5 339,-282.5 43,-282.5"/>
<text text-anchor="start" x="50" y="-293.9" font-family="Arial" font-size="14.00" fill="#000000">id    </text>
<text text-anchor="start" x="95.094" y="-293.9" font-family="Arial" font-size="14.00" fill="#666666">[int]</text>
<polygon fill="none" stroke="#000000" points="43,-252.5 43,-282.5 339,-282.5 339,-252.5 43,-252.5"/>
<text text-anchor="start" x="50" y="-263.9" font-family="Arial" font-size="14.00" fill="#000000">email    </text>
<text text-anchor="start" x="117.6438" y="-263.9" font-family="Arial" font-size="14.00" fill="#666666">[varchar(320)]</text>
<polygon fill="none" stroke="#000000" points="43,-222.5 43,-252.5 339,-252.5 339,-222.5 43,-222.5"/>
<text text-anchor="start" x="50" y="-233.9" font-family="Arial" font-size="14.00" fill="#000000">name    </text>
<text text-anchor="start" x="119.2132" y="-233.9" font-family="Arial" font-size="14.00" fill="#666666">[varchar(128)]</text>
<polygon fill="none" stroke="#000000" points="43,-192.5 43,-222.5 339,-222.5 339,-192.5 43,-192.5"/>
<text text-anchor="start" x="50" y="-203.9" font-family="Arial" font-size="14.00" fill="#000000">mail_account_name    </text>
<text text-anchor="start" x="209.4558" y="-203.9" font-family="Arial" font-size="14.00" fill="#666666">[varchar(128)]</text>
<polygon fill="none" stroke="#000000" points="43,-162.5 43,-192.5 339,-192.5 339,-162.5 43,-162.5"/>
<text text-anchor="start" x="50" y="-173.9" font-family="Arial" font-size="14.00" fill="#000000">role    </text>
<text text-anchor="start" x="107.5372" y="-173.9" font-family="Arial" font-size="14.00" fill="#666666">[varchar(32)]</text>
<polygon fill="none" stroke="#000000" points="43,-132.5 43,-162.5 339,-162.5 339,-132.5 43,-132.5"/>
<text text-anchor="start" x="50" y="-143.9" font-family="Arial" font-size="14.00" fill="#000000">user    </text>
<text text-anchor="start" x="111.4306" y="-143.9" font-family="Arial" font-size="14.00" fill="#666666">[int]</text>
<polygon fill="none" stroke="#000000" points="43,-102.5 43,-132.5 339,-132.5 339,-102.5 43,-102.5"/>
<text text-anchor="start" x="50" y="-113.9" font-family="Arial" font-size="14.00" fill="#000000">link_later    </text>
<text text-anchor="start" x="140.2062" y="-113.9" font-family="Arial" font-size="14.00" fill="#666666">[tinyint(1)]</text>
<polygon fill="none" stroke="#000000" points="43,-72.5 43,-102.5 339,-102.5 339,-72.5 43,-72.5"/>
<text text-anchor="start" x="50" y="-83.9" font-family="Arial" font-size="14.00" fill="#000000">first_login    </text>
<text text-anchor="start" x="144.0968" y="-83.9" font-family="Arial" font-size="14.00" fill="#666666">[datetime(6)]</text>
<polygon fill="none" stroke="#000000" points="43,-42.5 43,-72.5 339,-72.5 339,-42.5 43,-42.5"/>
<text text-anchor="start" x="50" y="-53.9" font-family="Arial" font-size="14.00" fill="#000000">last_login    </text>
<text text-anchor="start" x="143.3282" y="-53.9" font-family="Arial" font-size="14.00" fill="#666666">[datetime(6)]</text>
</g>
<!-- logs&#45;&gt;microsoft_accounts -->
<g id="edge1" class="edge">
<title>logs:microsoft_account&#45;&gt;microsoft_accounts:id</title>
<path fill="none" stroke="#000000" d="M287.7316,-545.1847C341.7164,-519.9817 392.9464,-297.5 339,-297.5"/>
<polygon fill="#000000" stroke="#000000" points="287.7285,-545.1854 276.9584,-543.1222 282.8642,-546.3427 278,-547.5 278,-547.5 278,-547.5 282.8642,-546.3427 279.0416,-551.8778 287.7285,-545.1854 287.7285,-545.1854"/>
<text text-anchor="start" x="284.9335" y="-557.5" font-family="Arial" font-size="10.00" fill="#000000">FOREIGN KEY (microsoft_account) REFERENCES microsoft_accounts (id)</text>
</g>
</g>
</svg>
