<?xml version="1.0" encoding="UTF-8" standalone="no"?>
<!DOCTYPE svg PUBLIC "-//W3C//DTD SVG 1.1//EN"
 "http://www.w3.org/Graphics/SVG/1.1/DTD/svg11.dtd">
<!-- Generated by graphviz version 2.40.1 (20161225.0304)
 -->
<!-- Title: logs Pages: 1 -->
<svg width="476pt" height="682pt"
 viewBox="0.00 0.00 476.00 682.00" xmlns="http://www.w3.org/2000/svg" xmlns:xlink="http://www.w3.org/1999/xlink">
<g id="graph0" class="graph" transform="scale(1 1) rotate(0) translate(4 678)">
<title>logs</title>
<polygon fill="#ffffff" stroke="transparent" points="-4,4 -4,-678 472,-678 472,4 -4,4"/>
<!-- logs -->
<g id="node1" class="node">
<title>logs</title>
<polygon fill="#efefef" stroke="transparent" points="54,-592.5 54,-627.5 228,-627.5 228,-592.5 54,-592.5"/>
<polygon fill="none" stroke="#000000" points="54,-592.5 54,-627.5 228,-627.5 228,-592.5 54,-592.5"/>
<text text-anchor="start" x="60.7127" y="-605.3" font-family="Arial Bold" font-size="18.00" fill="#000000">logs</text>
<text text-anchor="start" x="93.7193" y="-605.3" font-family="Arial" font-size="14.00" fill="#000000">    </text>
<text text-anchor="start" x="127.9241" y="-605.3" font-family="Arial" font-size="14.00" fill="#666666">[BASE TABLE]</text>
<polygon fill="none" stroke="#000000" points="54,-562.5 54,-592.5 228,-592.5 228,-562.5 54,-562.5"/>
<text text-anchor="start" x="61" y="-573.9" font-family="Arial" font-size="14.00" fill="#000000">id </text>
<text text-anchor="start" x="75.7798" y="-573.9" font-family="Arial" font-size="14.00" fill="#666666">[int]</text>
<polygon fill="none" stroke="#000000" points="54,-532.5 54,-562.5 228,-562.5 228,-532.5 54,-532.5"/>
<text text-anchor="start" x="61" y="-543.9" font-family="Arial" font-size="14.00" fill="#000000">log_event </text>
<text text-anchor="start" x="125.5834" y="-543.9" font-family="Arial" font-size="14.00" fill="#666666">[varchar(32)]</text>
<polygon fill="none" stroke="#000000" points="54,-502.5 54,-532.5 228,-532.5 228,-502.5 54,-502.5"/>
<text text-anchor="start" x="61" y="-513.9" font-family="Arial" font-size="14.00" fill="#000000">user_id </text>
<text text-anchor="start" x="110.7882" y="-513.9" font-family="Arial" font-size="14.00" fill="#666666">[int]</text>
<polygon fill="none" stroke="#000000" points="54,-472.5 54,-502.5 228,-502.5 228,-472.5 54,-472.5"/>
<text text-anchor="start" x="61" y="-483.9" font-family="Arial" font-size="14.00" fill="#000000">message </text>
<text text-anchor="start" x="121.6816" y="-483.9" font-family="Arial" font-size="14.00" fill="#666666">[text]</text>
<polygon fill="none" stroke="#000000" points="54,-442.5 54,-472.5 228,-472.5 228,-442.5 54,-442.5"/>
<text text-anchor="start" x="61" y="-453.9" font-family="Arial" font-size="14.00" fill="#000000">created_at </text>
<text text-anchor="start" x="131.028" y="-453.9" font-family="Arial" font-size="14.00" fill="#666666">[datetime(6)]</text>
<polygon fill="none" stroke="#000000" stroke-width="3" points="52.5,-441.5 52.5,-629.5 229.5,-629.5 229.5,-441.5 52.5,-441.5"/>
</g>
<!-- users -->
<g id="node2" class="node">
<title>users</title>
<polygon fill="#efefef" stroke="transparent" points="43,-282.5 43,-317.5 239,-317.5 239,-282.5 43,-282.5"/>
<polygon fill="none" stroke="#000000" points="43,-282.5 43,-317.5 239,-317.5 239,-282.5 43,-282.5"/>
<text text-anchor="start" x="55.2137" y="-295.3" font-family="Arial Bold" font-size="18.00" fill="#000000">users</text>
<text text-anchor="start" x="99.2183" y="-295.3" font-family="Arial" font-size="14.00" fill="#000000">    </text>
<text text-anchor="start" x="133.4231" y="-295.3" font-family="Arial" font-size="14.00" fill="#666666">[BASE TABLE]</text>
<polygon fill="none" stroke="#000000" points="43,-252.5 43,-282.5 239,-282.5 239,-252.5 43,-252.5"/>
<text text-anchor="start" x="50" y="-263.9" font-family="Arial" font-size="14.00" fill="#000000">id    </text>
<text text-anchor="start" x="95.094" y="-263.9" font-family="Arial" font-size="14.00" fill="#666666">[int]</text>
<polygon fill="none" stroke="#000000" points="43,-222.5 43,-252.5 239,-252.5 239,-222.5 43,-222.5"/>
<text text-anchor="start" x="50" y="-233.9" font-family="Arial" font-size="14.00" fill="#000000">name    </text>
<text text-anchor="start" x="119.2132" y="-233.9" font-family="Arial" font-size="14.00" fill="#666666">[varchar(128)]</text>
<polygon fill="none" stroke="#000000" points="43,-192.5 43,-222.5 239,-222.5 239,-192.5 43,-192.5"/>
<text text-anchor="start" x="50" y="-203.9" font-family="Arial" font-size="14.00" fill="#000000">email    </text>
<text text-anchor="start" x="117.6438" y="-203.9" font-family="Arial" font-size="14.00" fill="#666666">[varchar(320)]</text>
<polygon fill="none" stroke="#000000" points="43,-162.5 43,-192.5 239,-192.5 239,-162.5 43,-162.5"/>
<text text-anchor="start" x="50" y="-173.9" font-family="Arial" font-size="14.00" fill="#000000">gender    </text>
<text text-anchor="start" x="127.7784" y="-173.9" font-family="Arial" font-size="14.00" fill="#666666">[varchar(10)]</text>
<polygon fill="none" stroke="#000000" points="43,-132.5 43,-162.5 239,-162.5 239,-132.5 43,-132.5"/>
<text text-anchor="start" x="50" y="-143.9" font-family="Arial" font-size="14.00" fill="#000000">picture    </text>
<text text-anchor="start" x="126.2104" y="-143.9" font-family="Arial" font-size="14.00" fill="#666666">[longtext]</text>
<polygon fill="none" stroke="#000000" points="43,-102.5 43,-132.5 239,-132.5 239,-102.5 43,-102.5"/>
<text text-anchor="start" x="50" y="-113.9" font-family="Arial" font-size="14.00" fill="#000000">class_id    </text>
<text text-anchor="start" x="134.7658" y="-113.9" font-family="Arial" font-size="14.00" fill="#666666">[int]</text>
<polygon fill="none" stroke="#000000" points="43,-72.5 43,-102.5 239,-102.5 239,-72.5 43,-72.5"/>
<text text-anchor="start" x="50" y="-83.9" font-family="Arial" font-size="14.00" fill="#000000">created_at    </text>
<text text-anchor="start" x="150.3422" y="-83.9" font-family="Arial" font-size="14.00" fill="#666666">[datetime(6)]</text>
<polygon fill="none" stroke="#000000" points="43,-42.5 43,-72.5 239,-72.5 239,-42.5 43,-42.5"/>
<text text-anchor="start" x="49.5947" y="-53.9" font-family="Arial" font-size="14.00" fill="#000000">updated_at    </text>
<text text-anchor="start" x="153.8415" y="-53.9" font-family="Arial" font-size="14.00" fill="#666666">[datetime(6)]</text>
</g>
<!-- logs&#45;&gt;users -->
<g id="edge1" class="edge">
<title>logs:user_id&#45;&gt;users:id</title>
<path fill="none" stroke="#000000" d="M237.8986,-514.6924C284.7241,-487.2266 291.1337,-267.5 239,-267.5"/>
<polygon fill="#000000" stroke="#000000" points="237.6205,-514.7712 226.772,-513.1708 232.8103,-516.1356 228,-517.5 228,-517.5 228,-517.5 232.8103,-516.1356 229.228,-521.8292 237.6205,-514.7712 237.6205,-514.7712"/>
<text text-anchor="start" x="234.945" y="-527.5" font-family="Arial" font-size="10.00" fill="#000000">FOREIGN KEY (user_id) REFERENCES users (id)</text>
</g>
</g>
</svg>
