<?xml version="1.0" encoding="UTF-8" standalone="no"?>
<!DOCTYPE svg PUBLIC "-//W3C//DTD SVG 1.1//EN"
 "http://www.w3.org/Graphics/SVG/1.1/DTD/svg11.dtd">
<!-- Generated by graphviz version 2.40.1 (20161225.0304)
 -->
<!-- Title: matches Pages: 1 -->
<svg width="1246pt" height="1229pt"
 viewBox="0.00 0.00 1245.50 1229.00" xmlns="http://www.w3.org/2000/svg" xmlns:xlink="http://www.w3.org/1999/xlink">
<g id="graph0" class="graph" transform="scale(1 1) rotate(0) translate(4 1225)">
<title>matches</title>
<polygon fill="#ffffff" stroke="transparent" points="-4,4 -4,-1225 1241.5,-1225 1241.5,4 -4,4"/>
<!-- matches -->
<g id="node1" class="node">
<title>matches</title>
<polygon fill="#efefef" stroke="transparent" points="684,-922.5 684,-957.5 893,-957.5 893,-922.5 684,-922.5"/>
<polygon fill="none" stroke="#000000" points="684,-922.5 684,-957.5 893,-957.5 893,-922.5 684,-922.5"/>
<text text-anchor="start" x="690.7095" y="-935.3" font-family="Arial Bold" font-size="18.00" fill="#000000">matches</text>
<text text-anchor="start" x="758.7225" y="-935.3" font-family="Arial" font-size="14.00" fill="#000000">    </text>
<text text-anchor="start" x="792.9273" y="-935.3" font-family="Arial" font-size="14.00" fill="#666666">[BASE TABLE]</text>
<polygon fill="none" stroke="#000000" points="684,-892.5 684,-922.5 893,-922.5 893,-892.5 684,-892.5"/>
<text text-anchor="start" x="691" y="-903.9" font-family="Arial" font-size="14.00" fill="#000000">id </text>
<text text-anchor="start" x="705.7798" y="-903.9" font-family="Arial" font-size="14.00" fill="#666666">[int]</text>
<polygon fill="none" stroke="#000000" points="684,-862.5 684,-892.5 893,-892.5 893,-862.5 684,-862.5"/>
<text text-anchor="start" x="691" y="-873.9" font-family="Arial" font-size="14.00" fill="#000000">location </text>
<text text-anchor="start" x="743.1248" y="-873.9" font-family="Arial" font-size="14.00" fill="#666666">[int]</text>
<polygon fill="none" stroke="#000000" points="684,-832.5 684,-862.5 893,-862.5 893,-832.5 684,-832.5"/>
<text text-anchor="start" x="691" y="-843.9" font-family="Arial" font-size="14.00" fill="#000000">game </text>
<text text-anchor="start" x="729.899" y="-843.9" font-family="Arial" font-size="14.00" fill="#666666">[int]</text>
<polygon fill="none" stroke="#000000" points="684,-802.5 684,-832.5 893,-832.5 893,-802.5 684,-802.5"/>
<text text-anchor="start" x="691" y="-813.9" font-family="Arial" font-size="14.00" fill="#000000">sport </text>
<text text-anchor="start" x="726.007" y="-813.9" font-family="Arial" font-size="14.00" fill="#666666">[int]</text>
<polygon fill="none" stroke="#000000" points="684,-772.5 684,-802.5 893,-802.5 893,-772.5 684,-772.5"/>
<text text-anchor="start" x="691" y="-783.9" font-family="Arial" font-size="14.00" fill="#000000">started_at </text>
<text text-anchor="start" x="757.136" y="-783.9" font-family="Arial" font-size="14.00" fill="#666666">[datetime(6)]</text>
<polygon fill="none" stroke="#000000" points="684,-742.5 684,-772.5 893,-772.5 893,-742.5 684,-742.5"/>
<text text-anchor="start" x="691" y="-753.9" font-family="Arial" font-size="14.00" fill="#000000">left_team </text>
<text text-anchor="start" x="752.46" y="-753.9" font-family="Arial" font-size="14.00" fill="#666666">[int]</text>
<polygon fill="none" stroke="#000000" points="684,-712.5 684,-742.5 893,-742.5 893,-712.5 684,-712.5"/>
<text text-anchor="start" x="691" y="-723.9" font-family="Arial" font-size="14.00" fill="#000000">right_team </text>
<text text-anchor="start" x="761.0126" y="-723.9" font-family="Arial" font-size="14.00" fill="#666666">[int]</text>
<polygon fill="none" stroke="#000000" points="684,-682.5 684,-712.5 893,-712.5 893,-682.5 684,-682.5"/>
<text text-anchor="start" x="691" y="-693.9" font-family="Arial" font-size="14.00" fill="#000000">left_score </text>
<text text-anchor="start" x="755.5694" y="-693.9" font-family="Arial" font-size="14.00" fill="#666666">[int]</text>
<polygon fill="none" stroke="#000000" points="684,-652.5 684,-682.5 893,-682.5 893,-652.5 684,-652.5"/>
<text text-anchor="start" x="691" y="-663.9" font-family="Arial" font-size="14.00" fill="#000000">right_score </text>
<text text-anchor="start" x="764.122" y="-663.9" font-family="Arial" font-size="14.00" fill="#666666">[int]</text>
<polygon fill="none" stroke="#000000" points="684,-622.5 684,-652.5 893,-652.5 893,-622.5 684,-622.5"/>
<text text-anchor="start" x="691" y="-633.9" font-family="Arial" font-size="14.00" fill="#000000">result </text>
<text text-anchor="start" x="729.1136" y="-633.9" font-family="Arial" font-size="14.00" fill="#666666">[varchar(32)]</text>
<polygon fill="none" stroke="#000000" points="684,-592.5 684,-622.5 893,-622.5 893,-592.5 684,-592.5"/>
<text text-anchor="start" x="691" y="-603.9" font-family="Arial" font-size="14.00" fill="#000000">status </text>
<text text-anchor="start" x="732.237" y="-603.9" font-family="Arial" font-size="14.00" fill="#666666">[varchar(32)]</text>
<polygon fill="none" stroke="#000000" points="684,-562.5 684,-592.5 893,-592.5 893,-562.5 684,-562.5"/>
<text text-anchor="start" x="691" y="-573.9" font-family="Arial" font-size="14.00" fill="#000000">note </text>
<text text-anchor="start" x="722.129" y="-573.9" font-family="Arial" font-size="14.00" fill="#666666">[text]</text>
<polygon fill="none" stroke="#000000" points="684,-532.5 684,-562.5 893,-562.5 893,-532.5 684,-532.5"/>
<text text-anchor="start" x="691" y="-543.9" font-family="Arial" font-size="14.00" fill="#000000">judge </text>
<text text-anchor="start" x="729.1276" y="-543.9" font-family="Arial" font-size="14.00" fill="#666666">[varchar(64)]</text>
<polygon fill="none" stroke="#000000" points="684,-502.5 684,-532.5 893,-532.5 893,-502.5 684,-502.5"/>
<text text-anchor="start" x="691" y="-513.9" font-family="Arial" font-size="14.00" fill="#000000">created_at </text>
<text text-anchor="start" x="761.028" y="-513.9" font-family="Arial" font-size="14.00" fill="#666666">[datetime(6)]</text>
<polygon fill="none" stroke="#000000" points="684,-472.5 684,-502.5 893,-502.5 893,-472.5 684,-472.5"/>
<text text-anchor="start" x="691" y="-483.9" font-family="Arial" font-size="14.00" fill="#000000">updated_at </text>
<text text-anchor="start" x="764.9326" y="-483.9" font-family="Arial" font-size="14.00" fill="#666666">[datetime(6)]</text>
<polygon fill="none" stroke="#000000" stroke-width="3" points="682,-471.5 682,-959.5 894,-959.5 894,-471.5 682,-471.5"/>
</g>
<!-- locations -->
<g id="node3" class="node">
<title>locations</title>
<polygon fill="#efefef" stroke="transparent" points="43,-207.5 43,-242.5 255,-242.5 255,-207.5 43,-207.5"/>
<polygon fill="none" stroke="#000000" points="43,-207.5 43,-242.5 255,-242.5 255,-207.5 43,-207.5"/>
<text text-anchor="start" x="49.7083" y="-220.3" font-family="Arial Bold" font-size="18.00" fill="#000000">locations</text>
<text text-anchor="start" x="120.7237" y="-220.3" font-family="Arial" font-size="14.00" fill="#000000">    </text>
<text text-anchor="start" x="154.9285" y="-220.3" font-family="Arial" font-size="14.00" fill="#666666">[BASE TABLE]</text>
<polygon fill="none" stroke="#000000" points="43,-177.5 43,-207.5 255,-207.5 255,-177.5 43,-177.5"/>
<text text-anchor="start" x="50" y="-188.9" font-family="Arial" font-size="14.00" fill="#000000">id    </text>
<text text-anchor="start" x="95.094" y="-188.9" font-family="Arial" font-size="14.00" fill="#666666">[int]</text>
<polygon fill="none" stroke="#000000" points="43,-147.5 43,-177.5 255,-177.5 255,-147.5 43,-147.5"/>
<text text-anchor="start" x="50" y="-158.9" font-family="Arial" font-size="14.00" fill="#000000">name    </text>
<text text-anchor="start" x="119.2132" y="-158.9" font-family="Arial" font-size="14.00" fill="#666666">[varchar(64)]</text>
</g>
<!-- matches&#45;&gt;locations -->
<g id="edge3" class="edge">
<title>matches:location&#45;&gt;locations:id</title>
<path fill="none" stroke="#000000" d="M673.7216,-877.3839C410.8752,-871.3773 426.3496,-633.27 307,-391 266.6975,-309.1893 346.1991,-192.5 255,-192.5"/>
<polygon fill="#000000" stroke="#000000" points="674.0006,-877.387 683.9491,-881.9997 679.0003,-877.4435 684,-877.5 684,-877.5 684,-877.5 679.0003,-877.4435 684.0509,-873.0003 674.0006,-877.387 674.0006,-877.387"/>
<text text-anchor="start" x="434.6075" y="-887.5" font-family="Arial" font-size="10.00" fill="#000000">FOREIGN KEY (location) REFERENCES locations (id)</text>
</g>
<!-- games -->
<g id="node4" class="node">
<title>games</title>
<polygon fill="#efefef" stroke="transparent" points="360,-312.5 360,-347.5 587,-347.5 587,-312.5 360,-312.5"/>
<polygon fill="none" stroke="#000000" points="360,-312.5 360,-347.5 587,-347.5 587,-312.5 360,-312.5"/>
<text text-anchor="start" x="382.7106" y="-325.3" font-family="Arial Bold" font-size="18.00" fill="#000000">games</text>
<text text-anchor="start" x="436.7214" y="-325.3" font-family="Arial" font-size="14.00" fill="#000000">    </text>
<text text-anchor="start" x="470.9262" y="-325.3" font-family="Arial" font-size="14.00" fill="#666666">[BASE TABLE]</text>
<polygon fill="none" stroke="#000000" points="360,-282.5 360,-312.5 587,-312.5 587,-282.5 360,-282.5"/>
<text text-anchor="start" x="367" y="-293.9" font-family="Arial" font-size="14.00" fill="#000000">id    </text>
<text text-anchor="start" x="412.094" y="-293.9" font-family="Arial" font-size="14.00" fill="#666666">[int]</text>
<polygon fill="none" stroke="#000000" points="360,-252.5 360,-282.5 587,-282.5 587,-252.5 360,-252.5"/>
<text text-anchor="start" x="367" y="-263.9" font-family="Arial" font-size="14.00" fill="#000000">name    </text>
<text text-anchor="start" x="436.2132" y="-263.9" font-family="Arial" font-size="14.00" fill="#666666">[varchar(64)]</text>
<polygon fill="none" stroke="#000000" points="360,-222.5 360,-252.5 587,-252.5 587,-222.5 360,-222.5"/>
<text text-anchor="start" x="367" y="-233.9" font-family="Arial" font-size="14.00" fill="#000000">description    </text>
<text text-anchor="start" x="468.8822" y="-233.9" font-family="Arial" font-size="14.00" fill="#666666">[varchar(512)]</text>
<polygon fill="none" stroke="#000000" points="360,-192.5 360,-222.5 587,-222.5 587,-192.5 360,-192.5"/>
<text text-anchor="start" x="367" y="-203.9" font-family="Arial" font-size="14.00" fill="#000000">sport    </text>
<text text-anchor="start" x="432.3212" y="-203.9" font-family="Arial" font-size="14.00" fill="#666666">[int]</text>
<polygon fill="none" stroke="#000000" points="360,-162.5 360,-192.5 587,-192.5 587,-162.5 360,-162.5"/>
<text text-anchor="start" x="367" y="-173.9" font-family="Arial" font-size="14.00" fill="#000000">type    </text>
<text text-anchor="start" x="427.6606" y="-173.9" font-family="Arial" font-size="14.00" fill="#666666">[varchar(32)]</text>
<polygon fill="none" stroke="#000000" points="360,-132.5 360,-162.5 587,-162.5 587,-132.5 360,-132.5"/>
<text text-anchor="start" x="366.5484" y="-143.9" font-family="Arial" font-size="14.00" fill="#000000">calculation_type    </text>
<text text-anchor="start" x="501.115" y="-143.9" font-family="Arial" font-size="14.00" fill="#666666">[varchar(32)]</text>
<polygon fill="none" stroke="#000000" points="360,-102.5 360,-132.5 587,-132.5 587,-102.5 360,-102.5"/>
<text text-anchor="start" x="367" y="-113.9" font-family="Arial" font-size="14.00" fill="#000000">weight    </text>
<text text-anchor="start" x="441.6564" y="-113.9" font-family="Arial" font-size="14.00" fill="#666666">[int]</text>
<polygon fill="none" stroke="#000000" points="360,-72.5 360,-102.5 587,-102.5 587,-72.5 360,-72.5"/>
<text text-anchor="start" x="367" y="-83.9" font-family="Arial" font-size="14.00" fill="#000000">created_at    </text>
<text text-anchor="start" x="467.3422" y="-83.9" font-family="Arial" font-size="14.00" fill="#666666">[datetime(6)]</text>
<polygon fill="none" stroke="#000000" points="360,-42.5 360,-72.5 587,-72.5 587,-42.5 360,-42.5"/>
<text text-anchor="start" x="367" y="-53.9" font-family="Arial" font-size="14.00" fill="#000000">updated_at    </text>
<text text-anchor="start" x="471.2468" y="-53.9" font-family="Arial" font-size="14.00" fill="#666666">[datetime(6)]</text>
</g>
<!-- matches&#45;&gt;games -->
<g id="edge4" class="edge">
<title>matches:game&#45;&gt;games:id</title>
<path fill="none" stroke="#000000" d="M673.7871,-846.1115C568.5156,-815.7455 707.4725,-297.5 587,-297.5"/>
<polygon fill="#000000" stroke="#000000" points="674.0912,-846.1527 683.3937,-851.959 679.0456,-846.8264 684,-847.5 684,-847.5 684,-847.5 679.0456,-846.8264 684.6063,-843.041 674.0912,-846.1527 674.0912,-846.1527"/>
<text text-anchor="start" x="454.0545" y="-857.5" font-family="Arial" font-size="10.00" fill="#000000">FOREIGN KEY (game) REFERENCES games (id)</text>
</g>
<!-- sports -->
<g id="node5" class="node">
<title>sports</title>
<polygon fill="#efefef" stroke="transparent" points="691,-297.5 691,-332.5 887,-332.5 887,-297.5 691,-297.5"/>
<polygon fill="none" stroke="#000000" points="691,-297.5 691,-332.5 887,-332.5 887,-297.5 691,-297.5"/>
<text text-anchor="start" x="700.7126" y="-310.3" font-family="Arial Bold" font-size="18.00" fill="#000000">sports</text>
<text text-anchor="start" x="749.7194" y="-310.3" font-family="Arial" font-size="14.00" fill="#000000">    </text>
<text text-anchor="start" x="783.9242" y="-310.3" font-family="Arial" font-size="14.00" fill="#666666">[BASE TABLE]</text>
<polygon fill="none" stroke="#000000" points="691,-267.5 691,-297.5 887,-297.5 887,-267.5 691,-267.5"/>
<text text-anchor="start" x="698" y="-278.9" font-family="Arial" font-size="14.00" fill="#000000">id    </text>
<text text-anchor="start" x="743.094" y="-278.9" font-family="Arial" font-size="14.00" fill="#666666">[int]</text>
<polygon fill="none" stroke="#000000" points="691,-237.5 691,-267.5 887,-267.5 887,-237.5 691,-237.5"/>
<text text-anchor="start" x="698" y="-248.9" font-family="Arial" font-size="14.00" fill="#000000">name    </text>
<text text-anchor="start" x="767.2132" y="-248.9" font-family="Arial" font-size="14.00" fill="#666666">[varchar(64)]</text>
<polygon fill="none" stroke="#000000" points="691,-207.5 691,-237.5 887,-237.5 887,-207.5 691,-207.5"/>
<text text-anchor="start" x="698" y="-218.9" font-family="Arial" font-size="14.00" fill="#000000">description    </text>
<text text-anchor="start" x="799.8822" y="-218.9" font-family="Arial" font-size="14.00" fill="#666666">[text]</text>
<polygon fill="none" stroke="#000000" points="691,-177.5 691,-207.5 887,-207.5 887,-177.5 691,-177.5"/>
<text text-anchor="start" x="698" y="-188.9" font-family="Arial" font-size="14.00" fill="#000000">icon_image    </text>
<text text-anchor="start" x="803.7742" y="-188.9" font-family="Arial" font-size="14.00" fill="#666666">[int]</text>
<polygon fill="none" stroke="#000000" points="691,-147.5 691,-177.5 887,-177.5 887,-147.5 691,-147.5"/>
<text text-anchor="start" x="698" y="-158.9" font-family="Arial" font-size="14.00" fill="#000000">weight    </text>
<text text-anchor="start" x="772.6564" y="-158.9" font-family="Arial" font-size="14.00" fill="#666666">[int]</text>
<polygon fill="none" stroke="#000000" points="691,-117.5 691,-147.5 887,-147.5 887,-117.5 691,-117.5"/>
<text text-anchor="start" x="698" y="-128.9" font-family="Arial" font-size="14.00" fill="#000000">rule_id    </text>
<text text-anchor="start" x="774.209" y="-128.9" font-family="Arial" font-size="14.00" fill="#666666">[int]</text>
<polygon fill="none" stroke="#000000" points="691,-87.5 691,-117.5 887,-117.5 887,-87.5 691,-87.5"/>
<text text-anchor="start" x="698" y="-98.9" font-family="Arial" font-size="14.00" fill="#000000">created_at    </text>
<text text-anchor="start" x="798.3422" y="-98.9" font-family="Arial" font-size="14.00" fill="#666666">[datetime(6)]</text>
<polygon fill="none" stroke="#000000" points="691,-57.5 691,-87.5 887,-87.5 887,-57.5 691,-57.5"/>
<text text-anchor="start" x="697.5947" y="-68.9" font-family="Arial" font-size="14.00" fill="#000000">updated_at    </text>
<text text-anchor="start" x="801.8415" y="-68.9" font-family="Arial" font-size="14.00" fill="#666666">[datetime(6)]</text>
</g>
<!-- matches&#45;&gt;sports -->
<g id="edge5" class="edge">
<title>matches:sport&#45;&gt;sports:id</title>
<path fill="none" stroke="#000000" d="M903.3761,-817.1833C1063.7946,-807.1484 997.4617,-561.1137 893,-427 836.1009,-353.9499 747.8991,-449.0501 691,-376 665.4644,-343.2159 649.4444,-282.5 691,-282.5"/>
<polygon fill="#000000" stroke="#000000" points="902.9953,-817.1948 892.8627,-813.0021 897.9977,-817.3474 893,-817.5 893,-817.5 893,-817.5 897.9977,-817.3474 893.1373,-821.9979 902.9953,-817.1948 902.9953,-817.1948"/>
<text text-anchor="start" x="899.8345" y="-827.5" font-family="Arial" font-size="10.00" fill="#000000">FOREIGN KEY (sport) REFERENCES sports (id)</text>
</g>
<!-- teams -->
<g id="node6" class="node">
<title>teams</title>
<polygon fill="#efefef" stroke="transparent" points="992,-267.5 992,-302.5 1195,-302.5 1195,-267.5 992,-267.5"/>
<polygon fill="none" stroke="#000000" points="992,-267.5 992,-302.5 1195,-302.5 1195,-267.5 992,-267.5"/>
<text text-anchor="start" x="1005.2126" y="-280.3" font-family="Arial Bold" font-size="18.00" fill="#000000">teams</text>
<text text-anchor="start" x="1054.2194" y="-280.3" font-family="Arial" font-size="14.00" fill="#000000">    </text>
<text text-anchor="start" x="1088.4242" y="-280.3" font-family="Arial" font-size="14.00" fill="#666666">[BASE TABLE]</text>
<polygon fill="none" stroke="#000000" points="992,-237.5 992,-267.5 1195,-267.5 1195,-237.5 992,-237.5"/>
<text text-anchor="start" x="999" y="-248.9" font-family="Arial" font-size="14.00" fill="#000000">id    </text>
<text text-anchor="start" x="1044.094" y="-248.9" font-family="Arial" font-size="14.00" fill="#666666">[int]</text>
<polygon fill="none" stroke="#000000" points="992,-207.5 992,-237.5 1195,-237.5 1195,-207.5 992,-207.5"/>
<text text-anchor="start" x="999" y="-218.9" font-family="Arial" font-size="14.00" fill="#000000">name    </text>
<text text-anchor="start" x="1068.2132" y="-218.9" font-family="Arial" font-size="14.00" fill="#666666">[varchar(64)]</text>
<polygon fill="none" stroke="#000000" points="992,-177.5 992,-207.5 1195,-207.5 1195,-177.5 992,-177.5"/>
<text text-anchor="start" x="998.9993" y="-188.9" font-family="Arial" font-size="14.00" fill="#000000">description    </text>
<text text-anchor="start" x="1100.8815" y="-188.9" font-family="Arial" font-size="14.00" fill="#666666">[varchar(128)]</text>
<polygon fill="none" stroke="#000000" points="992,-147.5 992,-177.5 1195,-177.5 1195,-147.5 992,-147.5"/>
<text text-anchor="start" x="999" y="-158.9" font-family="Arial" font-size="14.00" fill="#000000">class    </text>
<text text-anchor="start" x="1065.094" y="-158.9" font-family="Arial" font-size="14.00" fill="#666666">[int]</text>
<polygon fill="none" stroke="#000000" points="992,-117.5 992,-147.5 1195,-147.5 1195,-117.5 992,-117.5"/>
<text text-anchor="start" x="999" y="-128.9" font-family="Arial" font-size="14.00" fill="#000000">created_at    </text>
<text text-anchor="start" x="1099.3422" y="-128.9" font-family="Arial" font-size="14.00" fill="#666666">[datetime(6)]</text>
<polygon fill="none" stroke="#000000" points="992,-87.5 992,-117.5 1195,-117.5 1195,-87.5 992,-87.5"/>
<text text-anchor="start" x="999" y="-98.9" font-family="Arial" font-size="14.00" fill="#000000">updated_at    </text>
<text text-anchor="start" x="1103.2468" y="-98.9" font-family="Arial" font-size="14.00" fill="#666666">[datetime(6)]</text>
</g>
<!-- matches&#45;&gt;teams -->
<g id="edge6" class="edge">
<title>matches:left_team&#45;&gt;teams:id</title>
<path fill="none" stroke="#000000" d="M903.0209,-756.0513C999.4894,-726.4307 881.2154,-252.5 992,-252.5"/>
<polygon fill="#000000" stroke="#000000" points="902.8971,-756.0691 892.3561,-753.0463 897.9486,-756.7846 893,-757.5 893,-757.5 893,-757.5 897.9486,-756.7846 893.6439,-761.9537 902.8971,-756.0691 902.8971,-756.0691"/>
<text text-anchor="start" x="900.387" y="-767.5" font-family="Arial" font-size="10.00" fill="#000000">FOREIGN KEY (left_team) REFERENCES teams (id)</text>
</g>
<!-- matches&#45;&gt;teams -->
<g id="edge7" class="edge">
<title>matches:right_team&#45;&gt;teams:id</title>
<path fill="none" stroke="#000000" d="M903.0143,-725.9638C993.3252,-696.4807 887.7563,-252.5 992,-252.5"/>
<polygon fill="#000000" stroke="#000000" points="902.8844,-725.9836 892.3176,-723.052 897.9422,-726.7418 893,-727.5 893,-727.5 893,-727.5 897.9422,-726.7418 893.6824,-731.948 902.8844,-725.9836 902.8844,-725.9836"/>
<text text-anchor="start" x="900.3325" y="-737.5" font-family="Arial" font-size="10.00" fill="#000000">FOREIGN KEY (right_team) REFERENCES teams (id)</text>
</g>
<!-- tournament_path -->
<g id="node2" class="node">
<title>tournament_path</title>
<polygon fill="#efefef" stroke="transparent" points="650,-1142.5 650,-1177.5 927,-1177.5 927,-1142.5 650,-1142.5"/>
<polygon fill="none" stroke="#000000" points="650,-1142.5 650,-1177.5 927,-1177.5 927,-1142.5 650,-1142.5"/>
<text text-anchor="start" x="656.6895" y="-1155.3" font-family="Arial Bold" font-size="18.00" fill="#000000">tournament_path</text>
<text text-anchor="start" x="792.7425" y="-1155.3" font-family="Arial" font-size="14.00" fill="#000000">    </text>
<text text-anchor="start" x="826.9473" y="-1155.3" font-family="Arial" font-size="14.00" fill="#666666">[BASE TABLE]</text>
<polygon fill="none" stroke="#000000" points="650,-1112.5 650,-1142.5 927,-1142.5 927,-1112.5 650,-1112.5"/>
<text text-anchor="start" x="657" y="-1123.9" font-family="Arial" font-size="14.00" fill="#000000">parent_match    </text>
<text text-anchor="start" x="776.7854" y="-1123.9" font-family="Arial" font-size="14.00" fill="#666666">[int]</text>
<polygon fill="none" stroke="#000000" points="650,-1082.5 650,-1112.5 927,-1112.5 927,-1082.5 650,-1082.5"/>
<text text-anchor="start" x="657" y="-1093.9" font-family="Arial" font-size="14.00" fill="#000000">child_match    </text>
<text text-anchor="start" x="765.8822" y="-1093.9" font-family="Arial" font-size="14.00" fill="#666666">[int]</text>
</g>
<!-- tournament_path&#45;&gt;matches -->
<g id="edge1" class="edge">
<title>tournament_path:child_match&#45;&gt;matches:id</title>
<path fill="none" stroke="#000000" d="M788.0519,-1072.3102C779.0483,-1027.9917 708.4154,-1052.7377 684,-1004 664.7903,-965.6537 641.1111,-907.5 684,-907.5"/>
<polygon fill="#000000" stroke="#000000" points="788.0735,-1072.543 784.5194,-1082.9169 788.5368,-1077.5215 789,-1082.5 789,-1082.5 789,-1082.5 788.5368,-1077.5215 793.4806,-1082.0831 788.0735,-1072.543 788.0735,-1072.543"/>
<text text-anchor="start" x="795.9975" y="-1092.5" font-family="Arial" font-size="10.00" fill="#000000">FOREIGN KEY (child_match) REFERENCES matches (id)</text>
</g>
<!-- tournament_path&#45;&gt;matches -->
<g id="edge2" class="edge">
<title>tournament_path:parent_match&#45;&gt;matches:id</title>
<path fill="none" stroke="#000000" d="M639.7927,-1126.6591C553.6032,-1111.8888 588.6364,-907.5 684,-907.5"/>
<polygon fill="#000000" stroke="#000000" points="640.0338,-1126.6788 649.6305,-1131.9848 645.0169,-1127.0894 650,-1127.5 650,-1127.5 650,-1127.5 645.0169,-1127.0894 650.3695,-1123.0152 640.0338,-1126.6788 640.0338,-1126.6788"/>
<text text-anchor="start" x="376.1035" y="-1137.5" font-family="Arial" font-size="10.00" fill="#000000">FOREIGN KEY (parent_match) REFERENCES matches (id)</text>
</g>
</g>
</svg>
