<?xml version="1.0" encoding="UTF-8" standalone="no"?>
<!DOCTYPE svg PUBLIC "-//W3C//DTD SVG 1.1//EN"
 "http://www.w3.org/Graphics/SVG/1.1/DTD/svg11.dtd">
<!-- Generated by graphviz version 2.40.1 (20161225.0304)
 -->
<!-- Title: matches Pages: 1 -->
<svg width="1246pt" height="1259pt"
 viewBox="0.00 0.00 1245.50 1259.00" xmlns="http://www.w3.org/2000/svg" xmlns:xlink="http://www.w3.org/1999/xlink">
<g id="graph0" class="graph" transform="scale(1 1) rotate(0) translate(4 1255)">
<title>matches</title>
<polygon fill="#ffffff" stroke="transparent" points="-4,4 -4,-1255 1241.5,-1255 1241.5,4 -4,4"/>
<!-- matches -->
<g id="node1" class="node">
<title>matches</title>
<polygon fill="#efefef" stroke="transparent" points="684,-952.5 684,-987.5 893,-987.5 893,-952.5 684,-952.5"/>
<polygon fill="none" stroke="#000000" points="684,-952.5 684,-987.5 893,-987.5 893,-952.5 684,-952.5"/>
<text text-anchor="start" x="690.7095" y="-965.3" font-family="Arial Bold" font-size="18.00" fill="#000000">matches</text>
<text text-anchor="start" x="758.7225" y="-965.3" font-family="Arial" font-size="14.00" fill="#000000">    </text>
<text text-anchor="start" x="792.9273" y="-965.3" font-family="Arial" font-size="14.00" fill="#666666">[BASE TABLE]</text>
<polygon fill="none" stroke="#000000" points="684,-922.5 684,-952.5 893,-952.5 893,-922.5 684,-922.5"/>
<text text-anchor="start" x="691" y="-933.9" font-family="Arial" font-size="14.00" fill="#000000">id </text>
<text text-anchor="start" x="705.7798" y="-933.9" font-family="Arial" font-size="14.00" fill="#666666">[int]</text>
<polygon fill="none" stroke="#000000" points="684,-892.5 684,-922.5 893,-922.5 893,-892.5 684,-892.5"/>
<text text-anchor="start" x="691" y="-903.9" font-family="Arial" font-size="14.00" fill="#000000">location </text>
<text text-anchor="start" x="743.1248" y="-903.9" font-family="Arial" font-size="14.00" fill="#666666">[int]</text>
<polygon fill="none" stroke="#000000" points="684,-862.5 684,-892.5 893,-892.5 893,-862.5 684,-862.5"/>
<text text-anchor="start" x="691" y="-873.9" font-family="Arial" font-size="14.00" fill="#000000">game </text>
<text text-anchor="start" x="729.899" y="-873.9" font-family="Arial" font-size="14.00" fill="#666666">[int]</text>
<polygon fill="none" stroke="#000000" points="684,-832.5 684,-862.5 893,-862.5 893,-832.5 684,-832.5"/>
<text text-anchor="start" x="691" y="-843.9" font-family="Arial" font-size="14.00" fill="#000000">sport </text>
<text text-anchor="start" x="726.007" y="-843.9" font-family="Arial" font-size="14.00" fill="#666666">[int]</text>
<polygon fill="none" stroke="#000000" points="684,-802.5 684,-832.5 893,-832.5 893,-802.5 684,-802.5"/>
<text text-anchor="start" x="691" y="-813.9" font-family="Arial" font-size="14.00" fill="#000000">started_at </text>
<text text-anchor="start" x="757.136" y="-813.9" font-family="Arial" font-size="14.00" fill="#666666">[datetime(6)]</text>
<polygon fill="none" stroke="#000000" points="684,-772.5 684,-802.5 893,-802.5 893,-772.5 684,-772.5"/>
<text text-anchor="start" x="691" y="-783.9" font-family="Arial" font-size="14.00" fill="#000000">left_team </text>
<text text-anchor="start" x="752.46" y="-783.9" font-family="Arial" font-size="14.00" fill="#666666">[int]</text>
<polygon fill="none" stroke="#000000" points="684,-742.5 684,-772.5 893,-772.5 893,-742.5 684,-742.5"/>
<text text-anchor="start" x="691" y="-753.9" font-family="Arial" font-size="14.00" fill="#000000">right_team </text>
<text text-anchor="start" x="761.0126" y="-753.9" font-family="Arial" font-size="14.00" fill="#666666">[int]</text>
<polygon fill="none" stroke="#000000" points="684,-712.5 684,-742.5 893,-742.5 893,-712.5 684,-712.5"/>
<text text-anchor="start" x="691" y="-723.9" font-family="Arial" font-size="14.00" fill="#000000">left_score </text>
<text text-anchor="start" x="755.5694" y="-723.9" font-family="Arial" font-size="14.00" fill="#666666">[int]</text>
<polygon fill="none" stroke="#000000" points="684,-682.5 684,-712.5 893,-712.5 893,-682.5 684,-682.5"/>
<text text-anchor="start" x="691" y="-693.9" font-family="Arial" font-size="14.00" fill="#000000">right_score </text>
<text text-anchor="start" x="764.122" y="-693.9" font-family="Arial" font-size="14.00" fill="#666666">[int]</text>
<polygon fill="none" stroke="#000000" points="684,-652.5 684,-682.5 893,-682.5 893,-652.5 684,-652.5"/>
<text text-anchor="start" x="691" y="-663.9" font-family="Arial" font-size="14.00" fill="#000000">result </text>
<text text-anchor="start" x="729.1136" y="-663.9" font-family="Arial" font-size="14.00" fill="#666666">[varchar(32)]</text>
<polygon fill="none" stroke="#000000" points="684,-622.5 684,-652.5 893,-652.5 893,-622.5 684,-622.5"/>
<text text-anchor="start" x="691" y="-633.9" font-family="Arial" font-size="14.00" fill="#000000">status </text>
<text text-anchor="start" x="732.237" y="-633.9" font-family="Arial" font-size="14.00" fill="#666666">[varchar(32)]</text>
<polygon fill="none" stroke="#000000" points="684,-592.5 684,-622.5 893,-622.5 893,-592.5 684,-592.5"/>
<text text-anchor="start" x="691" y="-603.9" font-family="Arial" font-size="14.00" fill="#000000">note </text>
<text text-anchor="start" x="722.129" y="-603.9" font-family="Arial" font-size="14.00" fill="#666666">[text]</text>
<polygon fill="none" stroke="#000000" points="684,-562.5 684,-592.5 893,-592.5 893,-562.5 684,-562.5"/>
<text text-anchor="start" x="691" y="-573.9" font-family="Arial" font-size="14.00" fill="#000000">judge </text>
<text text-anchor="start" x="729.1276" y="-573.9" font-family="Arial" font-size="14.00" fill="#666666">[varchar(64)]</text>
<polygon fill="none" stroke="#000000" points="684,-532.5 684,-562.5 893,-562.5 893,-532.5 684,-532.5"/>
<text text-anchor="start" x="691" y="-543.9" font-family="Arial" font-size="14.00" fill="#000000">created_at </text>
<text text-anchor="start" x="761.028" y="-543.9" font-family="Arial" font-size="14.00" fill="#666666">[datetime(6)]</text>
<polygon fill="none" stroke="#000000" points="684,-502.5 684,-532.5 893,-532.5 893,-502.5 684,-502.5"/>
<text text-anchor="start" x="691" y="-513.9" font-family="Arial" font-size="14.00" fill="#000000">updated_at </text>
<text text-anchor="start" x="764.9326" y="-513.9" font-family="Arial" font-size="14.00" fill="#666666">[datetime(6)]</text>
<polygon fill="none" stroke="#000000" stroke-width="3" points="682,-501.5 682,-989.5 894,-989.5 894,-501.5 682,-501.5"/>
</g>
<!-- locations -->
<g id="node3" class="node">
<title>locations</title>
<polygon fill="#efefef" stroke="transparent" points="43,-222.5 43,-257.5 255,-257.5 255,-222.5 43,-222.5"/>
<polygon fill="none" stroke="#000000" points="43,-222.5 43,-257.5 255,-257.5 255,-222.5 43,-222.5"/>
<text text-anchor="start" x="49.7083" y="-235.3" font-family="Arial Bold" font-size="18.00" fill="#000000">locations</text>
<text text-anchor="start" x="120.7237" y="-235.3" font-family="Arial" font-size="14.00" fill="#000000">    </text>
<text text-anchor="start" x="154.9285" y="-235.3" font-family="Arial" font-size="14.00" fill="#666666">[BASE TABLE]</text>
<polygon fill="none" stroke="#000000" points="43,-192.5 43,-222.5 255,-222.5 255,-192.5 43,-192.5"/>
<text text-anchor="start" x="50" y="-203.9" font-family="Arial" font-size="14.00" fill="#000000">id    </text>
<text text-anchor="start" x="95.094" y="-203.9" font-family="Arial" font-size="14.00" fill="#666666">[int]</text>
<polygon fill="none" stroke="#000000" points="43,-162.5 43,-192.5 255,-192.5 255,-162.5 43,-162.5"/>
<text text-anchor="start" x="50" y="-173.9" font-family="Arial" font-size="14.00" fill="#000000">name    </text>
<text text-anchor="start" x="119.2132" y="-173.9" font-family="Arial" font-size="14.00" fill="#666666">[varchar(64)]</text>
</g>
<!-- matches&#45;&gt;locations -->
<g id="edge3" class="edge">
<title>matches:location&#45;&gt;locations:id</title>
<path fill="none" stroke="#000000" d="M673.7206,-907.3844C410.8218,-901.4032 424.2496,-664.2932 307,-421 264.6005,-333.021 352.6628,-207.5 255,-207.5"/>
<polygon fill="#000000" stroke="#000000" points="674.0006,-907.3875 683.9494,-911.9997 679.0003,-907.4437 684,-907.5 684,-907.5 684,-907.5 679.0003,-907.4437 684.0506,-903.0003 674.0006,-907.3875 674.0006,-907.3875"/>
<text text-anchor="start" x="434.6075" y="-917.5" font-family="Arial" font-size="10.00" fill="#000000">FOREIGN KEY (location) REFERENCES locations (id)</text>
</g>
<!-- games -->
<g id="node4" class="node">
<title>games</title>
<polygon fill="#efefef" stroke="transparent" points="360,-342.5 360,-377.5 587,-377.5 587,-342.5 360,-342.5"/>
<polygon fill="none" stroke="#000000" points="360,-342.5 360,-377.5 587,-377.5 587,-342.5 360,-342.5"/>
<text text-anchor="start" x="382.7106" y="-355.3" font-family="Arial Bold" font-size="18.00" fill="#000000">games</text>
<text text-anchor="start" x="436.7214" y="-355.3" font-family="Arial" font-size="14.00" fill="#000000">    </text>
<text text-anchor="start" x="470.9262" y="-355.3" font-family="Arial" font-size="14.00" fill="#666666">[BASE TABLE]</text>
<polygon fill="none" stroke="#000000" points="360,-312.5 360,-342.5 587,-342.5 587,-312.5 360,-312.5"/>
<text text-anchor="start" x="367" y="-323.9" font-family="Arial" font-size="14.00" fill="#000000">id    </text>
<text text-anchor="start" x="412.094" y="-323.9" font-family="Arial" font-size="14.00" fill="#666666">[int]</text>
<polygon fill="none" stroke="#000000" points="360,-282.5 360,-312.5 587,-312.5 587,-282.5 360,-282.5"/>
<text text-anchor="start" x="367" y="-293.9" font-family="Arial" font-size="14.00" fill="#000000">name    </text>
<text text-anchor="start" x="436.2132" y="-293.9" font-family="Arial" font-size="14.00" fill="#666666">[varchar(64)]</text>
<polygon fill="none" stroke="#000000" points="360,-252.5 360,-282.5 587,-282.5 587,-252.5 360,-252.5"/>
<text text-anchor="start" x="367" y="-263.9" font-family="Arial" font-size="14.00" fill="#000000">description    </text>
<text text-anchor="start" x="468.8822" y="-263.9" font-family="Arial" font-size="14.00" fill="#666666">[varchar(512)]</text>
<polygon fill="none" stroke="#000000" points="360,-222.5 360,-252.5 587,-252.5 587,-222.5 360,-222.5"/>
<text text-anchor="start" x="367" y="-233.9" font-family="Arial" font-size="14.00" fill="#000000">sport    </text>
<text text-anchor="start" x="432.3212" y="-233.9" font-family="Arial" font-size="14.00" fill="#666666">[int]</text>
<polygon fill="none" stroke="#000000" points="360,-192.5 360,-222.5 587,-222.5 587,-192.5 360,-192.5"/>
<text text-anchor="start" x="367" y="-203.9" font-family="Arial" font-size="14.00" fill="#000000">type    </text>
<text text-anchor="start" x="427.6606" y="-203.9" font-family="Arial" font-size="14.00" fill="#666666">[varchar(32)]</text>
<polygon fill="none" stroke="#000000" points="360,-162.5 360,-192.5 587,-192.5 587,-162.5 360,-162.5"/>
<text text-anchor="start" x="366.5484" y="-173.9" font-family="Arial" font-size="14.00" fill="#000000">calculation_type    </text>
<text text-anchor="start" x="501.115" y="-173.9" font-family="Arial" font-size="14.00" fill="#666666">[varchar(32)]</text>
<polygon fill="none" stroke="#000000" points="360,-132.5 360,-162.5 587,-162.5 587,-132.5 360,-132.5"/>
<text text-anchor="start" x="367" y="-143.9" font-family="Arial" font-size="14.00" fill="#000000">weight    </text>
<text text-anchor="start" x="441.6564" y="-143.9" font-family="Arial" font-size="14.00" fill="#666666">[int]</text>
<polygon fill="none" stroke="#000000" points="360,-102.5 360,-132.5 587,-132.5 587,-102.5 360,-102.5"/>
<text text-anchor="start" x="367" y="-113.9" font-family="Arial" font-size="14.00" fill="#000000">tag    </text>
<text text-anchor="start" x="420.6606" y="-113.9" font-family="Arial" font-size="14.00" fill="#666666">[int]</text>
<polygon fill="none" stroke="#000000" points="360,-72.5 360,-102.5 587,-102.5 587,-72.5 360,-72.5"/>
<text text-anchor="start" x="367" y="-83.9" font-family="Arial" font-size="14.00" fill="#000000">created_at    </text>
<text text-anchor="start" x="467.3422" y="-83.9" font-family="Arial" font-size="14.00" fill="#666666">[datetime(6)]</text>
<polygon fill="none" stroke="#000000" points="360,-42.5 360,-72.5 587,-72.5 587,-42.5 360,-42.5"/>
<text text-anchor="start" x="367" y="-53.9" font-family="Arial" font-size="14.00" fill="#000000">updated_at    </text>
<text text-anchor="start" x="471.2468" y="-53.9" font-family="Arial" font-size="14.00" fill="#666666">[datetime(6)]</text>
</g>
<!-- matches&#45;&gt;games -->
<g id="edge4" class="edge">
<title>matches:game&#45;&gt;games:id</title>
<path fill="none" stroke="#000000" d="M673.7871,-876.1115C568.5156,-845.7455 707.4725,-327.5 587,-327.5"/>
<polygon fill="#000000" stroke="#000000" points="674.0912,-876.1527 683.3937,-881.959 679.0456,-876.8264 684,-877.5 684,-877.5 684,-877.5 679.0456,-876.8264 684.6063,-873.041 674.0912,-876.1527 674.0912,-876.1527"/>
<text text-anchor="start" x="454.0545" y="-887.5" font-family="Arial" font-size="10.00" fill="#000000">FOREIGN KEY (game) REFERENCES games (id)</text>
</g>
<!-- sports -->
<g id="node5" class="node">
<title>sports</title>
<polygon fill="#efefef" stroke="transparent" points="691,-327.5 691,-362.5 887,-362.5 887,-327.5 691,-327.5"/>
<polygon fill="none" stroke="#000000" points="691,-327.5 691,-362.5 887,-362.5 887,-327.5 691,-327.5"/>
<text text-anchor="start" x="700.7126" y="-340.3" font-family="Arial Bold" font-size="18.00" fill="#000000">sports</text>
<text text-anchor="start" x="749.7194" y="-340.3" font-family="Arial" font-size="14.00" fill="#000000">    </text>
<text text-anchor="start" x="783.9242" y="-340.3" font-family="Arial" font-size="14.00" fill="#666666">[BASE TABLE]</text>
<polygon fill="none" stroke="#000000" points="691,-297.5 691,-327.5 887,-327.5 887,-297.5 691,-297.5"/>
<text text-anchor="start" x="698" y="-308.9" font-family="Arial" font-size="14.00" fill="#000000">id    </text>
<text text-anchor="start" x="743.094" y="-308.9" font-family="Arial" font-size="14.00" fill="#666666">[int]</text>
<polygon fill="none" stroke="#000000" points="691,-267.5 691,-297.5 887,-297.5 887,-267.5 691,-267.5"/>
<text text-anchor="start" x="698" y="-278.9" font-family="Arial" font-size="14.00" fill="#000000">name    </text>
<text text-anchor="start" x="767.2132" y="-278.9" font-family="Arial" font-size="14.00" fill="#666666">[varchar(64)]</text>
<polygon fill="none" stroke="#000000" points="691,-237.5 691,-267.5 887,-267.5 887,-237.5 691,-237.5"/>
<text text-anchor="start" x="698" y="-248.9" font-family="Arial" font-size="14.00" fill="#000000">description    </text>
<text text-anchor="start" x="799.8822" y="-248.9" font-family="Arial" font-size="14.00" fill="#666666">[text]</text>
<polygon fill="none" stroke="#000000" points="691,-207.5 691,-237.5 887,-237.5 887,-207.5 691,-207.5"/>
<text text-anchor="start" x="698" y="-218.9" font-family="Arial" font-size="14.00" fill="#000000">icon_image    </text>
<text text-anchor="start" x="803.7742" y="-218.9" font-family="Arial" font-size="14.00" fill="#666666">[int]</text>
<polygon fill="none" stroke="#000000" points="691,-177.5 691,-207.5 887,-207.5 887,-177.5 691,-177.5"/>
<text text-anchor="start" x="698" y="-188.9" font-family="Arial" font-size="14.00" fill="#000000">weight    </text>
<text text-anchor="start" x="772.6564" y="-188.9" font-family="Arial" font-size="14.00" fill="#666666">[int]</text>
<polygon fill="none" stroke="#000000" points="691,-147.5 691,-177.5 887,-177.5 887,-147.5 691,-147.5"/>
<text text-anchor="start" x="698" y="-158.9" font-family="Arial" font-size="14.00" fill="#000000">rule_id    </text>
<text text-anchor="start" x="774.209" y="-158.9" font-family="Arial" font-size="14.00" fill="#666666">[int]</text>
<polygon fill="none" stroke="#000000" points="691,-117.5 691,-147.5 887,-147.5 887,-117.5 691,-117.5"/>
<text text-anchor="start" x="698" y="-128.9" font-family="Arial" font-size="14.00" fill="#000000">tag    </text>
<text text-anchor="start" x="751.6606" y="-128.9" font-family="Arial" font-size="14.00" fill="#666666">[int]</text>
<polygon fill="none" stroke="#000000" points="691,-87.5 691,-117.5 887,-117.5 887,-87.5 691,-87.5"/>
<text text-anchor="start" x="698" y="-98.9" font-family="Arial" font-size="14.00" fill="#000000">created_at    </text>
<text text-anchor="start" x="798.3422" y="-98.9" font-family="Arial" font-size="14.00" fill="#666666">[datetime(6)]</text>
<polygon fill="none" stroke="#000000" points="691,-57.5 691,-87.5 887,-87.5 887,-57.5 691,-57.5"/>
<text text-anchor="start" x="697.5947" y="-68.9" font-family="Arial" font-size="14.00" fill="#000000">updated_at    </text>
<text text-anchor="start" x="801.8415" y="-68.9" font-family="Arial" font-size="14.00" fill="#666666">[datetime(6)]</text>
</g>
<!-- matches&#45;&gt;sports -->
<g id="edge5" class="edge">
<title>matches:sport&#45;&gt;sports:id</title>
<path fill="none" stroke="#000000" d="M903.3761,-847.1833C1063.7946,-837.1484 997.4617,-591.1137 893,-457 836.1009,-383.9499 747.8991,-479.0501 691,-406 665.4644,-373.2159 649.4444,-312.5 691,-312.5"/>
<polygon fill="#000000" stroke="#000000" points="902.9953,-847.1948 892.8627,-843.0021 897.9977,-847.3474 893,-847.5 893,-847.5 893,-847.5 897.9977,-847.3474 893.1373,-851.9979 902.9953,-847.1948 902.9953,-847.1948"/>
<text text-anchor="start" x="899.8345" y="-857.5" font-family="Arial" font-size="10.00" fill="#000000">FOREIGN KEY (sport) REFERENCES sports (id)</text>
</g>
<!-- teams -->
<g id="node6" class="node">
<title>teams</title>
<polygon fill="#efefef" stroke="transparent" points="992,-282.5 992,-317.5 1195,-317.5 1195,-282.5 992,-282.5"/>
<polygon fill="none" stroke="#000000" points="992,-282.5 992,-317.5 1195,-317.5 1195,-282.5 992,-282.5"/>
<text text-anchor="start" x="1005.2126" y="-295.3" font-family="Arial Bold" font-size="18.00" fill="#000000">teams</text>
<text text-anchor="start" x="1054.2194" y="-295.3" font-family="Arial" font-size="14.00" fill="#000000">    </text>
<text text-anchor="start" x="1088.4242" y="-295.3" font-family="Arial" font-size="14.00" fill="#666666">[BASE TABLE]</text>
<polygon fill="none" stroke="#000000" points="992,-252.5 992,-282.5 1195,-282.5 1195,-252.5 992,-252.5"/>
<text text-anchor="start" x="999" y="-263.9" font-family="Arial" font-size="14.00" fill="#000000">id    </text>
<text text-anchor="start" x="1044.094" y="-263.9" font-family="Arial" font-size="14.00" fill="#666666">[int]</text>
<polygon fill="none" stroke="#000000" points="992,-222.5 992,-252.5 1195,-252.5 1195,-222.5 992,-222.5"/>
<text text-anchor="start" x="999" y="-233.9" font-family="Arial" font-size="14.00" fill="#000000">name    </text>
<text text-anchor="start" x="1068.2132" y="-233.9" font-family="Arial" font-size="14.00" fill="#666666">[varchar(64)]</text>
<polygon fill="none" stroke="#000000" points="992,-192.5 992,-222.5 1195,-222.5 1195,-192.5 992,-192.5"/>
<text text-anchor="start" x="998.9993" y="-203.9" font-family="Arial" font-size="14.00" fill="#000000">description    </text>
<text text-anchor="start" x="1100.8815" y="-203.9" font-family="Arial" font-size="14.00" fill="#666666">[varchar(128)]</text>
<polygon fill="none" stroke="#000000" points="992,-162.5 992,-192.5 1195,-192.5 1195,-162.5 992,-162.5"/>
<text text-anchor="start" x="999" y="-173.9" font-family="Arial" font-size="14.00" fill="#000000">class    </text>
<text text-anchor="start" x="1065.094" y="-173.9" font-family="Arial" font-size="14.00" fill="#666666">[int]</text>
<polygon fill="none" stroke="#000000" points="992,-132.5 992,-162.5 1195,-162.5 1195,-132.5 992,-132.5"/>
<text text-anchor="start" x="999" y="-143.9" font-family="Arial" font-size="14.00" fill="#000000">created_at    </text>
<text text-anchor="start" x="1099.3422" y="-143.9" font-family="Arial" font-size="14.00" fill="#666666">[datetime(6)]</text>
<polygon fill="none" stroke="#000000" points="992,-102.5 992,-132.5 1195,-132.5 1195,-102.5 992,-102.5"/>
<text text-anchor="start" x="999" y="-113.9" font-family="Arial" font-size="14.00" fill="#000000">updated_at    </text>
<text text-anchor="start" x="1103.2468" y="-113.9" font-family="Arial" font-size="14.00" fill="#666666">[datetime(6)]</text>
</g>
<!-- matches&#45;&gt;teams -->
<g id="edge6" class="edge">
<title>matches:left_team&#45;&gt;teams:id</title>
<path fill="none" stroke="#000000" d="M902.9993,-786.0991C1002.6136,-756.4922 877.93,-267.5 992,-267.5"/>
<polygon fill="#000000" stroke="#000000" points="902.9033,-786.1125 892.3756,-783.0435 897.9516,-786.8063 893,-787.5 893,-787.5 893,-787.5 897.9516,-786.8063 893.6244,-791.9565 902.9033,-786.1125 902.9033,-786.1125"/>
<text text-anchor="start" x="900.387" y="-797.5" font-family="Arial" font-size="10.00" fill="#000000">FOREIGN KEY (left_team) REFERENCES teams (id)</text>
</g>
<!-- matches&#45;&gt;teams -->
<g id="edge7" class="edge">
<title>matches:right_team&#45;&gt;teams:id</title>
<path fill="none" stroke="#000000" d="M903.0258,-756.0061C996.3932,-726.4269 884.4909,-267.5 992,-267.5"/>
<polygon fill="#000000" stroke="#000000" points="902.8908,-756.0262 892.3368,-753.0491 897.9454,-756.7631 893,-757.5 893,-757.5 893,-757.5 897.9454,-756.7631 893.6632,-761.9509 902.8908,-756.0262 902.8908,-756.0262"/>
<text text-anchor="start" x="900.3325" y="-767.5" font-family="Arial" font-size="10.00" fill="#000000">FOREIGN KEY (right_team) REFERENCES teams (id)</text>
</g>
<!-- tournament_path -->
<g id="node2" class="node">
<title>tournament_path</title>
<polygon fill="#efefef" stroke="transparent" points="650,-1172.5 650,-1207.5 927,-1207.5 927,-1172.5 650,-1172.5"/>
<polygon fill="none" stroke="#000000" points="650,-1172.5 650,-1207.5 927,-1207.5 927,-1172.5 650,-1172.5"/>
<text text-anchor="start" x="656.6895" y="-1185.3" font-family="Arial Bold" font-size="18.00" fill="#000000">tournament_path</text>
<text text-anchor="start" x="792.7425" y="-1185.3" font-family="Arial" font-size="14.00" fill="#000000">    </text>
<text text-anchor="start" x="826.9473" y="-1185.3" font-family="Arial" font-size="14.00" fill="#666666">[BASE TABLE]</text>
<polygon fill="none" stroke="#000000" points="650,-1142.5 650,-1172.5 927,-1172.5 927,-1142.5 650,-1142.5"/>
<text text-anchor="start" x="657" y="-1153.9" font-family="Arial" font-size="14.00" fill="#000000">parent_match    </text>
<text text-anchor="start" x="776.7854" y="-1153.9" font-family="Arial" font-size="14.00" fill="#666666">[int]</text>
<polygon fill="none" stroke="#000000" points="650,-1112.5 650,-1142.5 927,-1142.5 927,-1112.5 650,-1112.5"/>
<text text-anchor="start" x="657" y="-1123.9" font-family="Arial" font-size="14.00" fill="#000000">child_match    </text>
<text text-anchor="start" x="765.8822" y="-1123.9" font-family="Arial" font-size="14.00" fill="#666666">[int]</text>
</g>
<!-- tournament_path&#45;&gt;matches -->
<g id="edge1" class="edge">
<title>tournament_path:child_match&#45;&gt;matches:id</title>
<path fill="none" stroke="#000000" d="M788.0519,-1102.3102C779.0483,-1057.9917 708.4154,-1082.7377 684,-1034 664.7903,-995.6537 641.1111,-937.5 684,-937.5"/>
<polygon fill="#000000" stroke="#000000" points="788.0735,-1102.543 784.5194,-1112.9169 788.5368,-1107.5215 789,-1112.5 789,-1112.5 789,-1112.5 788.5368,-1107.5215 793.4806,-1112.0831 788.0735,-1102.543 788.0735,-1102.543"/>
<text text-anchor="start" x="795.9975" y="-1122.5" font-family="Arial" font-size="10.00" fill="#000000">FOREIGN KEY (child_match) REFERENCES matches (id)</text>
</g>
<!-- tournament_path&#45;&gt;matches -->
<g id="edge2" class="edge">
<title>tournament_path:parent_match&#45;&gt;matches:id</title>
<path fill="none" stroke="#000000" d="M639.7927,-1156.6591C553.6032,-1141.8888 588.6364,-937.5 684,-937.5"/>
<polygon fill="#000000" stroke="#000000" points="640.0338,-1156.6788 649.6305,-1161.9848 645.0169,-1157.0894 650,-1157.5 650,-1157.5 650,-1157.5 645.0169,-1157.0894 650.3695,-1153.0152 640.0338,-1156.6788 640.0338,-1156.6788"/>
<text text-anchor="start" x="376.1035" y="-1167.5" font-family="Arial" font-size="10.00" fill="#000000">FOREIGN KEY (parent_match) REFERENCES matches (id)</text>
</g>
</g>
</svg>
