<?xml version="1.0" encoding="UTF-8" standalone="no"?>
<!DOCTYPE svg PUBLIC "-//W3C//DTD SVG 1.1//EN"
 "http://www.w3.org/Graphics/SVG/1.1/DTD/svg11.dtd">
<!-- Generated by graphviz version 2.40.1 (20161225.0304)
 -->
<!-- Title: matches Pages: 1 -->
<svg width="1328pt" height="1259pt"
 viewBox="0.00 0.00 1328.00 1259.00" xmlns="http://www.w3.org/2000/svg" xmlns:xlink="http://www.w3.org/1999/xlink">
<g id="graph0" class="graph" transform="scale(1 1) rotate(0) translate(4 1255)">
<title>matches</title>
<polygon fill="#ffffff" stroke="transparent" points="-4,4 -4,-1255 1324,-1255 1324,4 -4,4"/>
<!-- matches -->
<g id="node1" class="node">
<title>matches</title>
<polygon fill="#efefef" stroke="transparent" points="836,-952.5 836,-987.5 1045,-987.5 1045,-952.5 836,-952.5"/>
<polygon fill="none" stroke="#000000" points="836,-952.5 836,-987.5 1045,-987.5 1045,-952.5 836,-952.5"/>
<text text-anchor="start" x="842.7095" y="-965.3" font-family="Arial Bold" font-size="18.00" fill="#000000">matches</text>
<text text-anchor="start" x="910.7225" y="-965.3" font-family="Arial" font-size="14.00" fill="#000000">    </text>
<text text-anchor="start" x="944.9273" y="-965.3" font-family="Arial" font-size="14.00" fill="#666666">[BASE TABLE]</text>
<polygon fill="none" stroke="#000000" points="836,-922.5 836,-952.5 1045,-952.5 1045,-922.5 836,-922.5"/>
<text text-anchor="start" x="843" y="-933.9" font-family="Arial" font-size="14.00" fill="#000000">id </text>
<text text-anchor="start" x="857.7798" y="-933.9" font-family="Arial" font-size="14.00" fill="#666666">[int]</text>
<polygon fill="none" stroke="#000000" points="836,-892.5 836,-922.5 1045,-922.5 1045,-892.5 836,-892.5"/>
<text text-anchor="start" x="843" y="-903.9" font-family="Arial" font-size="14.00" fill="#000000">location </text>
<text text-anchor="start" x="895.1248" y="-903.9" font-family="Arial" font-size="14.00" fill="#666666">[int]</text>
<polygon fill="none" stroke="#000000" points="836,-862.5 836,-892.5 1045,-892.5 1045,-862.5 836,-862.5"/>
<text text-anchor="start" x="843" y="-873.9" font-family="Arial" font-size="14.00" fill="#000000">game </text>
<text text-anchor="start" x="881.899" y="-873.9" font-family="Arial" font-size="14.00" fill="#666666">[int]</text>
<polygon fill="none" stroke="#000000" points="836,-832.5 836,-862.5 1045,-862.5 1045,-832.5 836,-832.5"/>
<text text-anchor="start" x="843" y="-843.9" font-family="Arial" font-size="14.00" fill="#000000">sport </text>
<text text-anchor="start" x="878.007" y="-843.9" font-family="Arial" font-size="14.00" fill="#666666">[int]</text>
<polygon fill="none" stroke="#000000" points="836,-802.5 836,-832.5 1045,-832.5 1045,-802.5 836,-802.5"/>
<text text-anchor="start" x="843" y="-813.9" font-family="Arial" font-size="14.00" fill="#000000">started_at </text>
<text text-anchor="start" x="909.136" y="-813.9" font-family="Arial" font-size="14.00" fill="#666666">[datetime(6)]</text>
<polygon fill="none" stroke="#000000" points="836,-772.5 836,-802.5 1045,-802.5 1045,-772.5 836,-772.5"/>
<text text-anchor="start" x="843" y="-783.9" font-family="Arial" font-size="14.00" fill="#000000">left_team </text>
<text text-anchor="start" x="904.46" y="-783.9" font-family="Arial" font-size="14.00" fill="#666666">[int]</text>
<polygon fill="none" stroke="#000000" points="836,-742.5 836,-772.5 1045,-772.5 1045,-742.5 836,-742.5"/>
<text text-anchor="start" x="843" y="-753.9" font-family="Arial" font-size="14.00" fill="#000000">right_team </text>
<text text-anchor="start" x="913.0126" y="-753.9" font-family="Arial" font-size="14.00" fill="#666666">[int]</text>
<polygon fill="none" stroke="#000000" points="836,-712.5 836,-742.5 1045,-742.5 1045,-712.5 836,-712.5"/>
<text text-anchor="start" x="843" y="-723.9" font-family="Arial" font-size="14.00" fill="#000000">left_score </text>
<text text-anchor="start" x="907.5694" y="-723.9" font-family="Arial" font-size="14.00" fill="#666666">[int]</text>
<polygon fill="none" stroke="#000000" points="836,-682.5 836,-712.5 1045,-712.5 1045,-682.5 836,-682.5"/>
<text text-anchor="start" x="843" y="-693.9" font-family="Arial" font-size="14.00" fill="#000000">right_score </text>
<text text-anchor="start" x="916.122" y="-693.9" font-family="Arial" font-size="14.00" fill="#666666">[int]</text>
<polygon fill="none" stroke="#000000" points="836,-652.5 836,-682.5 1045,-682.5 1045,-652.5 836,-652.5"/>
<text text-anchor="start" x="843" y="-663.9" font-family="Arial" font-size="14.00" fill="#000000">result </text>
<text text-anchor="start" x="881.1136" y="-663.9" font-family="Arial" font-size="14.00" fill="#666666">[varchar(32)]</text>
<polygon fill="none" stroke="#000000" points="836,-622.5 836,-652.5 1045,-652.5 1045,-622.5 836,-622.5"/>
<text text-anchor="start" x="843" y="-633.9" font-family="Arial" font-size="14.00" fill="#000000">status </text>
<text text-anchor="start" x="884.237" y="-633.9" font-family="Arial" font-size="14.00" fill="#666666">[varchar(32)]</text>
<polygon fill="none" stroke="#000000" points="836,-592.5 836,-622.5 1045,-622.5 1045,-592.5 836,-592.5"/>
<text text-anchor="start" x="843" y="-603.9" font-family="Arial" font-size="14.00" fill="#000000">note </text>
<text text-anchor="start" x="874.129" y="-603.9" font-family="Arial" font-size="14.00" fill="#666666">[text]</text>
<polygon fill="none" stroke="#000000" points="836,-562.5 836,-592.5 1045,-592.5 1045,-562.5 836,-562.5"/>
<text text-anchor="start" x="843" y="-573.9" font-family="Arial" font-size="14.00" fill="#000000">judge_team_id </text>
<text text-anchor="start" x="938.6984" y="-573.9" font-family="Arial" font-size="14.00" fill="#666666">[int]</text>
<polygon fill="none" stroke="#000000" points="836,-532.5 836,-562.5 1045,-562.5 1045,-532.5 836,-532.5"/>
<text text-anchor="start" x="843" y="-543.9" font-family="Arial" font-size="14.00" fill="#000000">created_at </text>
<text text-anchor="start" x="913.028" y="-543.9" font-family="Arial" font-size="14.00" fill="#666666">[datetime(6)]</text>
<polygon fill="none" stroke="#000000" points="836,-502.5 836,-532.5 1045,-532.5 1045,-502.5 836,-502.5"/>
<text text-anchor="start" x="843" y="-513.9" font-family="Arial" font-size="14.00" fill="#000000">updated_at </text>
<text text-anchor="start" x="916.9326" y="-513.9" font-family="Arial" font-size="14.00" fill="#666666">[datetime(6)]</text>
<polygon fill="none" stroke="#000000" stroke-width="3" points="834,-501.5 834,-989.5 1046,-989.5 1046,-501.5 834,-501.5"/>
</g>
<!-- locations -->
<g id="node3" class="node">
<title>locations</title>
<polygon fill="#efefef" stroke="transparent" points="43,-222.5 43,-257.5 255,-257.5 255,-222.5 43,-222.5"/>
<polygon fill="none" stroke="#000000" points="43,-222.5 43,-257.5 255,-257.5 255,-222.5 43,-222.5"/>
<text text-anchor="start" x="49.7083" y="-235.3" font-family="Arial Bold" font-size="18.00" fill="#000000">locations</text>
<text text-anchor="start" x="120.7237" y="-235.3" font-family="Arial" font-size="14.00" fill="#000000">    </text>
<text text-anchor="start" x="154.9285" y="-235.3" font-family="Arial" font-size="14.00" fill="#666666">[BASE TABLE]</text>
<polygon fill="none" stroke="#000000" points="43,-192.5 43,-222.5 255,-222.5 255,-192.5 43,-192.5"/>
<text text-anchor="start" x="50" y="-203.9" font-family="Arial" font-size="14.00" fill="#000000">id    </text>
<text text-anchor="start" x="95.094" y="-203.9" font-family="Arial" font-size="14.00" fill="#666666">[int]</text>
<polygon fill="none" stroke="#000000" points="43,-162.5 43,-192.5 255,-192.5 255,-162.5 43,-162.5"/>
<text text-anchor="start" x="50" y="-173.9" font-family="Arial" font-size="14.00" fill="#000000">name    </text>
<text text-anchor="start" x="119.2132" y="-173.9" font-family="Arial" font-size="14.00" fill="#666666">[varchar(64)]</text>
</g>
<!-- matches&#45;&gt;locations -->
<g id="edge3" class="edge">
<title>matches:location&#45;&gt;locations:id</title>
<path fill="none" stroke="#000000" d="M825.7999,-907.427C515.5512,-902.9509 467.5783,-693.1464 307,-421 257.37,-336.8876 352.6628,-207.5 255,-207.5"/>
<polygon fill="#000000" stroke="#000000" points="826.0003,-907.4283 835.9678,-911.9999 831.0001,-907.4642 836,-907.5 836,-907.5 836,-907.5 831.0001,-907.4642 836.0322,-903.0001 826.0003,-907.4283 826.0003,-907.4283"/>
<text text-anchor="start" x="586.6075" y="-917.5" font-family="Arial" font-size="10.00" fill="#000000">FOREIGN KEY (location) REFERENCES locations (id)</text>
</g>
<!-- games -->
<g id="node4" class="node">
<title>games</title>
<polygon fill="#efefef" stroke="transparent" points="360,-342.5 360,-377.5 587,-377.5 587,-342.5 360,-342.5"/>
<polygon fill="none" stroke="#000000" points="360,-342.5 360,-377.5 587,-377.5 587,-342.5 360,-342.5"/>
<text text-anchor="start" x="382.7106" y="-355.3" font-family="Arial Bold" font-size="18.00" fill="#000000">games</text>
<text text-anchor="start" x="436.7214" y="-355.3" font-family="Arial" font-size="14.00" fill="#000000">    </text>
<text text-anchor="start" x="470.9262" y="-355.3" font-family="Arial" font-size="14.00" fill="#666666">[BASE TABLE]</text>
<polygon fill="none" stroke="#000000" points="360,-312.5 360,-342.5 587,-342.5 587,-312.5 360,-312.5"/>
<text text-anchor="start" x="367" y="-323.9" font-family="Arial" font-size="14.00" fill="#000000">id    </text>
<text text-anchor="start" x="412.094" y="-323.9" font-family="Arial" font-size="14.00" fill="#666666">[int]</text>
<polygon fill="none" stroke="#000000" points="360,-282.5 360,-312.5 587,-312.5 587,-282.5 360,-282.5"/>
<text text-anchor="start" x="367" y="-293.9" font-family="Arial" font-size="14.00" fill="#000000">name    </text>
<text text-anchor="start" x="436.2132" y="-293.9" font-family="Arial" font-size="14.00" fill="#666666">[varchar(64)]</text>
<polygon fill="none" stroke="#000000" points="360,-252.5 360,-282.5 587,-282.5 587,-252.5 360,-252.5"/>
<text text-anchor="start" x="367" y="-263.9" font-family="Arial" font-size="14.00" fill="#000000">description    </text>
<text text-anchor="start" x="468.8822" y="-263.9" font-family="Arial" font-size="14.00" fill="#666666">[varchar(512)]</text>
<polygon fill="none" stroke="#000000" points="360,-222.5 360,-252.5 587,-252.5 587,-222.5 360,-222.5"/>
<text text-anchor="start" x="367" y="-233.9" font-family="Arial" font-size="14.00" fill="#000000">sport    </text>
<text text-anchor="start" x="432.3212" y="-233.9" font-family="Arial" font-size="14.00" fill="#666666">[int]</text>
<polygon fill="none" stroke="#000000" points="360,-192.5 360,-222.5 587,-222.5 587,-192.5 360,-192.5"/>
<text text-anchor="start" x="367" y="-203.9" font-family="Arial" font-size="14.00" fill="#000000">type    </text>
<text text-anchor="start" x="427.6606" y="-203.9" font-family="Arial" font-size="14.00" fill="#666666">[varchar(32)]</text>
<polygon fill="none" stroke="#000000" points="360,-162.5 360,-192.5 587,-192.5 587,-162.5 360,-162.5"/>
<text text-anchor="start" x="366.5484" y="-173.9" font-family="Arial" font-size="14.00" fill="#000000">calculation_type    </text>
<text text-anchor="start" x="501.115" y="-173.9" font-family="Arial" font-size="14.00" fill="#666666">[varchar(32)]</text>
<polygon fill="none" stroke="#000000" points="360,-132.5 360,-162.5 587,-162.5 587,-132.5 360,-132.5"/>
<text text-anchor="start" x="367" y="-143.9" font-family="Arial" font-size="14.00" fill="#000000">weight    </text>
<text text-anchor="start" x="441.6564" y="-143.9" font-family="Arial" font-size="14.00" fill="#666666">[int]</text>
<polygon fill="none" stroke="#000000" points="360,-102.5 360,-132.5 587,-132.5 587,-102.5 360,-102.5"/>
<text text-anchor="start" x="367" y="-113.9" font-family="Arial" font-size="14.00" fill="#000000">tag    </text>
<text text-anchor="start" x="420.6606" y="-113.9" font-family="Arial" font-size="14.00" fill="#666666">[int]</text>
<polygon fill="none" stroke="#000000" points="360,-72.5 360,-102.5 587,-102.5 587,-72.5 360,-72.5"/>
<text text-anchor="start" x="367" y="-83.9" font-family="Arial" font-size="14.00" fill="#000000">created_at    </text>
<text text-anchor="start" x="467.3422" y="-83.9" font-family="Arial" font-size="14.00" fill="#666666">[datetime(6)]</text>
<polygon fill="none" stroke="#000000" points="360,-42.5 360,-72.5 587,-72.5 587,-42.5 360,-42.5"/>
<text text-anchor="start" x="367" y="-53.9" font-family="Arial" font-size="14.00" fill="#000000">updated_at    </text>
<text text-anchor="start" x="471.2468" y="-53.9" font-family="Arial" font-size="14.00" fill="#666666">[datetime(6)]</text>
</g>
<!-- matches&#45;&gt;games -->
<g id="edge4" class="edge">
<title>matches:game&#45;&gt;games:id</title>
<path fill="none" stroke="#000000" d="M828.0447,-871.3232C780.2988,-810.8984 618.4447,-327.5 587,-327.5"/>
<polygon fill="#000000" stroke="#000000" points="828.1013,-871.3672 833.2402,-881.0544 832.0507,-874.4336 836,-877.5 836,-877.5 836,-877.5 832.0507,-874.4336 838.7598,-873.9456 828.1013,-871.3672 828.1013,-871.3672"/>
<text text-anchor="start" x="606.0545" y="-887.5" font-family="Arial" font-size="10.00" fill="#000000">FOREIGN KEY (game) REFERENCES games (id)</text>
</g>
<!-- sports -->
<g id="node5" class="node">
<title>sports</title>
<polygon fill="#efefef" stroke="transparent" points="691,-327.5 691,-362.5 887,-362.5 887,-327.5 691,-327.5"/>
<polygon fill="none" stroke="#000000" points="691,-327.5 691,-362.5 887,-362.5 887,-327.5 691,-327.5"/>
<text text-anchor="start" x="700.7126" y="-340.3" font-family="Arial Bold" font-size="18.00" fill="#000000">sports</text>
<text text-anchor="start" x="749.7194" y="-340.3" font-family="Arial" font-size="14.00" fill="#000000">    </text>
<text text-anchor="start" x="783.9242" y="-340.3" font-family="Arial" font-size="14.00" fill="#666666">[BASE TABLE]</text>
<polygon fill="none" stroke="#000000" points="691,-297.5 691,-327.5 887,-327.5 887,-297.5 691,-297.5"/>
<text text-anchor="start" x="698" y="-308.9" font-family="Arial" font-size="14.00" fill="#000000">id    </text>
<text text-anchor="start" x="743.094" y="-308.9" font-family="Arial" font-size="14.00" fill="#666666">[int]</text>
<polygon fill="none" stroke="#000000" points="691,-267.5 691,-297.5 887,-297.5 887,-267.5 691,-267.5"/>
<text text-anchor="start" x="698" y="-278.9" font-family="Arial" font-size="14.00" fill="#000000">name    </text>
<text text-anchor="start" x="767.2132" y="-278.9" font-family="Arial" font-size="14.00" fill="#666666">[varchar(64)]</text>
<polygon fill="none" stroke="#000000" points="691,-237.5 691,-267.5 887,-267.5 887,-237.5 691,-237.5"/>
<text text-anchor="start" x="698" y="-248.9" font-family="Arial" font-size="14.00" fill="#000000">description    </text>
<text text-anchor="start" x="799.8822" y="-248.9" font-family="Arial" font-size="14.00" fill="#666666">[text]</text>
<polygon fill="none" stroke="#000000" points="691,-207.5 691,-237.5 887,-237.5 887,-207.5 691,-207.5"/>
<text text-anchor="start" x="698" y="-218.9" font-family="Arial" font-size="14.00" fill="#000000">icon_image    </text>
<text text-anchor="start" x="803.7742" y="-218.9" font-family="Arial" font-size="14.00" fill="#666666">[int]</text>
<polygon fill="none" stroke="#000000" points="691,-177.5 691,-207.5 887,-207.5 887,-177.5 691,-177.5"/>
<text text-anchor="start" x="698" y="-188.9" font-family="Arial" font-size="14.00" fill="#000000">weight    </text>
<text text-anchor="start" x="772.6564" y="-188.9" font-family="Arial" font-size="14.00" fill="#666666">[int]</text>
<polygon fill="none" stroke="#000000" points="691,-147.5 691,-177.5 887,-177.5 887,-147.5 691,-147.5"/>
<text text-anchor="start" x="698" y="-158.9" font-family="Arial" font-size="14.00" fill="#000000">rule_id    </text>
<text text-anchor="start" x="774.209" y="-158.9" font-family="Arial" font-size="14.00" fill="#666666">[int]</text>
<polygon fill="none" stroke="#000000" points="691,-117.5 691,-147.5 887,-147.5 887,-117.5 691,-117.5"/>
<text text-anchor="start" x="698" y="-128.9" font-family="Arial" font-size="14.00" fill="#000000">tag    </text>
<text text-anchor="start" x="751.6606" y="-128.9" font-family="Arial" font-size="14.00" fill="#666666">[int]</text>
<polygon fill="none" stroke="#000000" points="691,-87.5 691,-117.5 887,-117.5 887,-87.5 691,-87.5"/>
<text text-anchor="start" x="698" y="-98.9" font-family="Arial" font-size="14.00" fill="#000000">created_at    </text>
<text text-anchor="start" x="798.3422" y="-98.9" font-family="Arial" font-size="14.00" fill="#666666">[datetime(6)]</text>
<polygon fill="none" stroke="#000000" points="691,-57.5 691,-87.5 887,-87.5 887,-57.5 691,-57.5"/>
<text text-anchor="start" x="697.5947" y="-68.9" font-family="Arial" font-size="14.00" fill="#000000">updated_at    </text>
<text text-anchor="start" x="801.8415" y="-68.9" font-family="Arial" font-size="14.00" fill="#666666">[datetime(6)]</text>
</g>
<!-- matches&#45;&gt;sports -->
<g id="edge5" class="edge">
<title>matches:sport&#45;&gt;sports:id</title>
<path fill="none" stroke="#000000" d="M825.6736,-847.2122C666.8217,-838.0894 770.9452,-614.0561 836,-457 848.2671,-427.3846 874.7329,-435.6154 887,-406 902.9026,-367.6077 928.5556,-312.5 887,-312.5"/>
<polygon fill="#000000" stroke="#000000" points="826.0039,-847.2213 835.8746,-851.9983 831.0019,-847.3607 836,-847.5 836,-847.5 836,-847.5 831.0019,-847.3607 836.1254,-843.0017 826.0039,-847.2213 826.0039,-847.2213"/>
<text text-anchor="start" x="610.8345" y="-857.5" font-family="Arial" font-size="10.00" fill="#000000">FOREIGN KEY (sport) REFERENCES sports (id)</text>
</g>
<!-- teams -->
<g id="node6" class="node">
<title>teams</title>
<polygon fill="#efefef" stroke="transparent" points="992,-297.5 992,-332.5 1195,-332.5 1195,-297.5 992,-297.5"/>
<polygon fill="none" stroke="#000000" points="992,-297.5 992,-332.5 1195,-332.5 1195,-297.5 992,-297.5"/>
<text text-anchor="start" x="1005.2126" y="-310.3" font-family="Arial Bold" font-size="18.00" fill="#000000">teams</text>
<text text-anchor="start" x="1054.2194" y="-310.3" font-family="Arial" font-size="14.00" fill="#000000">    </text>
<text text-anchor="start" x="1088.4242" y="-310.3" font-family="Arial" font-size="14.00" fill="#666666">[BASE TABLE]</text>
<polygon fill="none" stroke="#000000" points="992,-267.5 992,-297.5 1195,-297.5 1195,-267.5 992,-267.5"/>
<text text-anchor="start" x="999" y="-278.9" font-family="Arial" font-size="14.00" fill="#000000">id    </text>
<text text-anchor="start" x="1044.094" y="-278.9" font-family="Arial" font-size="14.00" fill="#666666">[int]</text>
<polygon fill="none" stroke="#000000" points="992,-237.5 992,-267.5 1195,-267.5 1195,-237.5 992,-237.5"/>
<text text-anchor="start" x="999" y="-248.9" font-family="Arial" font-size="14.00" fill="#000000">name    </text>
<text text-anchor="start" x="1068.2132" y="-248.9" font-family="Arial" font-size="14.00" fill="#666666">[varchar(64)]</text>
<polygon fill="none" stroke="#000000" points="992,-207.5 992,-237.5 1195,-237.5 1195,-207.5 992,-207.5"/>
<text text-anchor="start" x="998.9993" y="-218.9" font-family="Arial" font-size="14.00" fill="#000000">description    </text>
<text text-anchor="start" x="1100.8815" y="-218.9" font-family="Arial" font-size="14.00" fill="#666666">[varchar(128)]</text>
<polygon fill="none" stroke="#000000" points="992,-177.5 992,-207.5 1195,-207.5 1195,-177.5 992,-177.5"/>
<text text-anchor="start" x="999" y="-188.9" font-family="Arial" font-size="14.00" fill="#000000">class    </text>
<text text-anchor="start" x="1065.094" y="-188.9" font-family="Arial" font-size="14.00" fill="#666666">[int]</text>
<polygon fill="none" stroke="#000000" points="992,-147.5 992,-177.5 1195,-177.5 1195,-147.5 992,-147.5"/>
<text text-anchor="start" x="999" y="-158.9" font-family="Arial" font-size="14.00" fill="#000000">team_tag    </text>
<text text-anchor="start" x="1091.5596" y="-158.9" font-family="Arial" font-size="14.00" fill="#666666">[int]</text>
<polygon fill="none" stroke="#000000" points="992,-117.5 992,-147.5 1195,-147.5 1195,-117.5 992,-117.5"/>
<text text-anchor="start" x="999" y="-128.9" font-family="Arial" font-size="14.00" fill="#000000">created_at    </text>
<text text-anchor="start" x="1099.3422" y="-128.9" font-family="Arial" font-size="14.00" fill="#666666">[datetime(6)]</text>
<polygon fill="none" stroke="#000000" points="992,-87.5 992,-117.5 1195,-117.5 1195,-87.5 992,-87.5"/>
<text text-anchor="start" x="999" y="-98.9" font-family="Arial" font-size="14.00" fill="#000000">updated_at    </text>
<text text-anchor="start" x="1103.2468" y="-98.9" font-family="Arial" font-size="14.00" fill="#666666">[datetime(6)]</text>
</g>
<!-- matches&#45;&gt;teams -->
<g id="edge6" class="edge">
<title>matches:left_team&#45;&gt;teams:id</title>
<path fill="none" stroke="#000000" d="M1055.3128,-787.1642C1186.803,-778.2649 1085.937,-594.3311 1045,-457 1032.7101,-415.7711 1004.2899,-417.2289 992,-376 980.1289,-336.1761 950.4444,-282.5 992,-282.5"/>
<polygon fill="#000000" stroke="#000000" points="1054.9947,-787.1745 1044.8535,-783.0024 1049.9974,-787.3372 1045,-787.5 1045,-787.5 1045,-787.5 1049.9974,-787.3372 1045.1465,-791.9976 1054.9947,-787.1745 1054.9947,-787.1745"/>
<text text-anchor="start" x="1052.387" y="-797.5" font-family="Arial" font-size="10.00" fill="#000000">FOREIGN KEY (left_team) REFERENCES teams (id)</text>
</g>
<!-- matches&#45;&gt;teams -->
<g id="edge7" class="edge">
<title>matches:right_team&#45;&gt;teams:id</title>
<path fill="none" stroke="#000000" d="M1055.0922,-757.1442C1173.5643,-748.4338 1082.1466,-581.6154 1045,-457 1032.7101,-415.7711 1004.2899,-417.2289 992,-376 980.1289,-336.1761 950.4444,-282.5 992,-282.5"/>
<polygon fill="#000000" stroke="#000000" points="1054.9938,-757.1475 1044.8414,-753.0028 1049.9969,-757.3238 1045,-757.5 1045,-757.5 1045,-757.5 1049.9969,-757.3238 1045.1586,-761.9972 1054.9938,-757.1475 1054.9938,-757.1475"/>
<text text-anchor="start" x="1052.3325" y="-767.5" font-family="Arial" font-size="10.00" fill="#000000">FOREIGN KEY (right_team) REFERENCES teams (id)</text>
</g>
<!-- matches&#45;&gt;teams -->
<g id="edge8" class="edge">
<title>matches:judge_team_id&#45;&gt;teams:id</title>
<path fill="none" stroke="#000000" d="M1055.189,-577.0496C1163.5273,-566.8435 995.1311,-386.5039 992,-376 980.1289,-336.1761 950.4444,-282.5 992,-282.5"/>
<polygon fill="#000000" stroke="#000000" points="1054.9902,-577.0583 1044.8012,-573.0044 1049.9951,-577.2791 1045,-577.5 1045,-577.5 1045,-577.5 1049.9951,-577.2791 1045.1988,-581.9956 1054.9902,-577.0583 1054.9902,-577.0583"/>
<text text-anchor="start" x="1052.159" y="-587.5" font-family="Arial" font-size="10.00" fill="#000000">FOREIGN KEY (judge_team_id) REFERENCES teams (id)</text>
</g>
<!-- tournament_path -->
<g id="node2" class="node">
<title>tournament_path</title>
<polygon fill="#efefef" stroke="transparent" points="802,-1172.5 802,-1207.5 1079,-1207.5 1079,-1172.5 802,-1172.5"/>
<polygon fill="none" stroke="#000000" points="802,-1172.5 802,-1207.5 1079,-1207.5 1079,-1172.5 802,-1172.5"/>
<text text-anchor="start" x="808.6895" y="-1185.3" font-family="Arial Bold" font-size="18.00" fill="#000000">tournament_path</text>
<text text-anchor="start" x="944.7425" y="-1185.3" font-family="Arial" font-size="14.00" fill="#000000">    </text>
<text text-anchor="start" x="978.9473" y="-1185.3" font-family="Arial" font-size="14.00" fill="#666666">[BASE TABLE]</text>
<polygon fill="none" stroke="#000000" points="802,-1142.5 802,-1172.5 1079,-1172.5 1079,-1142.5 802,-1142.5"/>
<text text-anchor="start" x="809" y="-1153.9" font-family="Arial" font-size="14.00" fill="#000000">parent_match    </text>
<text text-anchor="start" x="928.7854" y="-1153.9" font-family="Arial" font-size="14.00" fill="#666666">[int]</text>
<polygon fill="none" stroke="#000000" points="802,-1112.5 802,-1142.5 1079,-1142.5 1079,-1112.5 802,-1112.5"/>
<text text-anchor="start" x="809" y="-1123.9" font-family="Arial" font-size="14.00" fill="#000000">child_match    </text>
<text text-anchor="start" x="917.8822" y="-1123.9" font-family="Arial" font-size="14.00" fill="#666666">[int]</text>
</g>
<!-- tournament_path&#45;&gt;matches -->
<g id="edge1" class="edge">
<title>tournament_path:child_match&#45;&gt;matches:id</title>
<path fill="none" stroke="#000000" d="M940.0519,-1102.3102C931.0483,-1057.9917 860.4154,-1082.7377 836,-1034 816.7903,-995.6537 793.1111,-937.5 836,-937.5"/>
<polygon fill="#000000" stroke="#000000" points="940.0735,-1102.543 936.5194,-1112.9169 940.5368,-1107.5215 941,-1112.5 941,-1112.5 941,-1112.5 940.5368,-1107.5215 945.4806,-1112.0831 940.0735,-1102.543 940.0735,-1102.543"/>
<text text-anchor="start" x="947.9975" y="-1122.5" font-family="Arial" font-size="10.00" fill="#000000">FOREIGN KEY (child_match) REFERENCES matches (id)</text>
</g>
<!-- tournament_path&#45;&gt;matches -->
<g id="edge2" class="edge">
<title>tournament_path:parent_match&#45;&gt;matches:id</title>
<path fill="none" stroke="#000000" d="M791.7927,-1156.6591C705.6032,-1141.8888 740.6364,-937.5 836,-937.5"/>
<polygon fill="#000000" stroke="#000000" points="792.0338,-1156.6788 801.6305,-1161.9848 797.0169,-1157.0894 802,-1157.5 802,-1157.5 802,-1157.5 797.0169,-1157.0894 802.3695,-1153.0152 792.0338,-1156.6788 792.0338,-1156.6788"/>
<text text-anchor="start" x="528.1035" y="-1167.5" font-family="Arial" font-size="10.00" fill="#000000">FOREIGN KEY (parent_match) REFERENCES matches (id)</text>
</g>
</g>
</svg>
