<?xml version="1.0" encoding="UTF-8" standalone="no"?>
<!DOCTYPE svg PUBLIC "-//W3C//DTD SVG 1.1//EN"
 "http://www.w3.org/Graphics/SVG/1.1/DTD/svg11.dtd">
<!-- Generated by graphviz version 2.40.1 (20161225.0304)
 -->
<!-- Title: microsoft_accounts Pages: 1 -->
<svg width="780pt" height="1079pt"
 viewBox="0.00 0.00 780.00 1079.00" xmlns="http://www.w3.org/2000/svg" xmlns:xlink="http://www.w3.org/1999/xlink">
<g id="graph0" class="graph" transform="scale(1 1) rotate(0) translate(4 1075)">
<title>microsoft_accounts</title>
<polygon fill="#ffffff" stroke="transparent" points="-4,4 -4,-1075 776,-1075 776,4 -4,4"/>
<!-- microsoft_accounts -->
<g id="node1" class="node">
<title>microsoft_accounts</title>
<polygon fill="#efefef" stroke="transparent" points="220,-682.5 220,-717.5 516,-717.5 516,-682.5 220,-682.5"/>
<polygon fill="none" stroke="#000000" points="220,-682.5 220,-717.5 516,-717.5 516,-682.5 220,-682.5"/>
<text text-anchor="start" x="226.7017" y="-695.3" font-family="Arial Bold" font-size="18.00" fill="#000000">microsoft_accounts</text>
<text text-anchor="start" x="381.7303" y="-695.3" font-family="Arial" font-size="14.00" fill="#000000">    </text>
<text text-anchor="start" x="415.9351" y="-695.3" font-family="Arial" font-size="14.00" fill="#666666">[BASE TABLE]</text>
<polygon fill="none" stroke="#000000" points="220,-652.5 220,-682.5 516,-682.5 516,-652.5 220,-652.5"/>
<text text-anchor="start" x="227" y="-663.9" font-family="Arial" font-size="14.00" fill="#000000">id </text>
<text text-anchor="start" x="241.7798" y="-663.9" font-family="Arial" font-size="14.00" fill="#666666">[int]</text>
<polygon fill="none" stroke="#000000" points="220,-622.5 220,-652.5 516,-652.5 516,-622.5 220,-622.5"/>
<text text-anchor="start" x="227" y="-633.9" font-family="Arial" font-size="14.00" fill="#000000">email </text>
<text text-anchor="start" x="264.3296" y="-633.9" font-family="Arial" font-size="14.00" fill="#666666">[varchar(320)]</text>
<polygon fill="none" stroke="#000000" points="220,-592.5 220,-622.5 516,-622.5 516,-592.5 220,-592.5"/>
<text text-anchor="start" x="227" y="-603.9" font-family="Arial" font-size="14.00" fill="#000000">name </text>
<text text-anchor="start" x="265.899" y="-603.9" font-family="Arial" font-size="14.00" fill="#666666">[varchar(128)]</text>
<polygon fill="none" stroke="#000000" points="220,-562.5 220,-592.5 516,-592.5 516,-562.5 220,-562.5"/>
<text text-anchor="start" x="227" y="-573.9" font-family="Arial" font-size="14.00" fill="#000000">mail_account_name </text>
<text text-anchor="start" x="356.1416" y="-573.9" font-family="Arial" font-size="14.00" fill="#666666">[varchar(128)]</text>
<polygon fill="none" stroke="#000000" points="220,-532.5 220,-562.5 516,-562.5 516,-532.5 220,-532.5"/>
<text text-anchor="start" x="227" y="-543.9" font-family="Arial" font-size="14.00" fill="#000000">role </text>
<text text-anchor="start" x="254.223" y="-543.9" font-family="Arial" font-size="14.00" fill="#666666">[varchar(32)]</text>
<polygon fill="none" stroke="#000000" points="220,-502.5 220,-532.5 516,-532.5 516,-502.5 220,-502.5"/>
<text text-anchor="start" x="227" y="-513.9" font-family="Arial" font-size="14.00" fill="#000000">user </text>
<text text-anchor="start" x="258.1164" y="-513.9" font-family="Arial" font-size="14.00" fill="#666666">[int]</text>
<polygon fill="none" stroke="#000000" points="220,-472.5 220,-502.5 516,-502.5 516,-472.5 220,-472.5"/>
<text text-anchor="start" x="227" y="-483.9" font-family="Arial" font-size="14.00" fill="#000000">link_later </text>
<text text-anchor="start" x="286.892" y="-483.9" font-family="Arial" font-size="14.00" fill="#666666">[tinyint(1)]</text>
<polygon fill="none" stroke="#000000" points="220,-442.5 220,-472.5 516,-472.5 516,-442.5 220,-442.5"/>
<text text-anchor="start" x="227" y="-453.9" font-family="Arial" font-size="14.00" fill="#000000">first_login </text>
<text text-anchor="start" x="290.7826" y="-453.9" font-family="Arial" font-size="14.00" fill="#666666">[datetime(6)]</text>
<polygon fill="none" stroke="#000000" points="220,-412.5 220,-442.5 516,-442.5 516,-412.5 220,-412.5"/>
<text text-anchor="start" x="227" y="-423.9" font-family="Arial" font-size="14.00" fill="#000000">last_login </text>
<text text-anchor="start" x="290.014" y="-423.9" font-family="Arial" font-size="14.00" fill="#666666">[datetime(6)]</text>
<polygon fill="none" stroke="#000000" stroke-width="3" points="218.5,-411.5 218.5,-719.5 517.5,-719.5 517.5,-411.5 218.5,-411.5"/>
</g>
<!-- users -->
<g id="node4" class="node">
<title>users</title>
<polygon fill="#efefef" stroke="transparent" points="270,-252.5 270,-287.5 466,-287.5 466,-252.5 270,-252.5"/>
<polygon fill="none" stroke="#000000" points="270,-252.5 270,-287.5 466,-287.5 466,-252.5 270,-252.5"/>
<text text-anchor="start" x="282.2137" y="-265.3" font-family="Arial Bold" font-size="18.00" fill="#000000">users</text>
<text text-anchor="start" x="326.2183" y="-265.3" font-family="Arial" font-size="14.00" fill="#000000">    </text>
<text text-anchor="start" x="360.4231" y="-265.3" font-family="Arial" font-size="14.00" fill="#666666">[BASE TABLE]</text>
<polygon fill="none" stroke="#000000" points="270,-222.5 270,-252.5 466,-252.5 466,-222.5 270,-222.5"/>
<text text-anchor="start" x="277" y="-233.9" font-family="Arial" font-size="14.00" fill="#000000">id    </text>
<text text-anchor="start" x="322.094" y="-233.9" font-family="Arial" font-size="14.00" fill="#666666">[int]</text>
<polygon fill="none" stroke="#000000" points="270,-192.5 270,-222.5 466,-222.5 466,-192.5 270,-192.5"/>
<text text-anchor="start" x="277" y="-203.9" font-family="Arial" font-size="14.00" fill="#000000">name    </text>
<text text-anchor="start" x="346.2132" y="-203.9" font-family="Arial" font-size="14.00" fill="#666666">[varchar(64)]</text>
<polygon fill="none" stroke="#000000" points="270,-162.5 270,-192.5 466,-192.5 466,-162.5 270,-162.5"/>
<text text-anchor="start" x="277" y="-173.9" font-family="Arial" font-size="14.00" fill="#000000">student_id    </text>
<text text-anchor="start" x="375.7882" y="-173.9" font-family="Arial" font-size="14.00" fill="#666666">[varchar(32)]</text>
<polygon fill="none" stroke="#000000" points="270,-132.5 270,-162.5 466,-162.5 466,-132.5 270,-132.5"/>
<text text-anchor="start" x="277" y="-143.9" font-family="Arial" font-size="14.00" fill="#000000">gender    </text>
<text text-anchor="start" x="354.7784" y="-143.9" font-family="Arial" font-size="14.00" fill="#666666">[varchar(10)]</text>
<polygon fill="none" stroke="#000000" points="270,-102.5 270,-132.5 466,-132.5 466,-102.5 270,-102.5"/>
<text text-anchor="start" x="277" y="-113.9" font-family="Arial" font-size="14.00" fill="#000000">class    </text>
<text text-anchor="start" x="343.094" y="-113.9" font-family="Arial" font-size="14.00" fill="#666666">[int]</text>
<polygon fill="none" stroke="#000000" points="270,-72.5 270,-102.5 466,-102.5 466,-72.5 270,-72.5"/>
<text text-anchor="start" x="277" y="-83.9" font-family="Arial" font-size="14.00" fill="#000000">created_at    </text>
<text text-anchor="start" x="377.3422" y="-83.9" font-family="Arial" font-size="14.00" fill="#666666">[datetime(6)]</text>
<polygon fill="none" stroke="#000000" points="270,-42.5 270,-72.5 466,-72.5 466,-42.5 270,-42.5"/>
<text text-anchor="start" x="276.5947" y="-53.9" font-family="Arial" font-size="14.00" fill="#000000">updated_at    </text>
<text text-anchor="start" x="380.8415" y="-53.9" font-family="Arial" font-size="14.00" fill="#666666">[datetime(6)]</text>
</g>
<!-- microsoft_accounts&#45;&gt;users -->
<g id="edge3" class="edge">
<title>microsoft_accounts:user&#45;&gt;users:id</title>
<path fill="none" stroke="#000000" d="M526.318,-516.839C639.5197,-501.8652 588.8329,-237.5 466,-237.5"/>
<polygon fill="#000000" stroke="#000000" points="525.9795,-516.8606 515.7123,-513.0092 520.9898,-517.1803 516,-517.5 516,-517.5 516,-517.5 520.9898,-517.1803 516.2877,-521.9908 525.9795,-516.8606 525.9795,-516.8606"/>
<text text-anchor="start" x="522.6135" y="-527.5" font-family="Arial" font-size="10.00" fill="#000000">FOREIGN KEY (user) REFERENCES users (id)</text>
</g>
<!-- images -->
<g id="node2" class="node">
<title>images</title>
<polygon fill="#efefef" stroke="transparent" points="119,-992.5 119,-1027.5 318,-1027.5 318,-992.5 119,-992.5"/>
<polygon fill="none" stroke="#000000" points="119,-992.5 119,-1027.5 318,-1027.5 318,-992.5 119,-992.5"/>
<text text-anchor="start" x="125.7135" y="-1005.3" font-family="Arial Bold" font-size="18.00" fill="#000000">images</text>
<text text-anchor="start" x="183.7185" y="-1005.3" font-family="Arial" font-size="14.00" fill="#000000">    </text>
<text text-anchor="start" x="217.9233" y="-1005.3" font-family="Arial" font-size="14.00" fill="#666666">[BASE TABLE]</text>
<polygon fill="none" stroke="#000000" points="119,-962.5 119,-992.5 318,-992.5 318,-962.5 119,-962.5"/>
<text text-anchor="start" x="126" y="-973.9" font-family="Arial" font-size="14.00" fill="#000000">id    </text>
<text text-anchor="start" x="171.094" y="-973.9" font-family="Arial" font-size="14.00" fill="#666666">[int]</text>
<polygon fill="none" stroke="#000000" points="119,-932.5 119,-962.5 318,-962.5 318,-932.5 119,-932.5"/>
<text text-anchor="start" x="126" y="-943.9" font-family="Arial" font-size="14.00" fill="#000000">name    </text>
<text text-anchor="start" x="195.2132" y="-943.9" font-family="Arial" font-size="14.00" fill="#666666">[varchar(64)]</text>
<polygon fill="none" stroke="#000000" points="119,-902.5 119,-932.5 318,-932.5 318,-902.5 119,-902.5"/>
<text text-anchor="start" x="126" y="-913.9" font-family="Arial" font-size="14.00" fill="#000000">attachment    </text>
<text text-anchor="start" x="229.4502" y="-913.9" font-family="Arial" font-size="14.00" fill="#666666">[text]</text>
<polygon fill="none" stroke="#000000" points="119,-872.5 119,-902.5 318,-902.5 318,-872.5 119,-872.5"/>
<text text-anchor="start" x="126" y="-883.9" font-family="Arial" font-size="14.00" fill="#000000">created_at    </text>
<text text-anchor="start" x="226.3422" y="-883.9" font-family="Arial" font-size="14.00" fill="#666666">[datetime(6)]</text>
<polygon fill="none" stroke="#000000" points="119,-842.5 119,-872.5 318,-872.5 318,-842.5 119,-842.5"/>
<text text-anchor="start" x="126" y="-853.9" font-family="Arial" font-size="14.00" fill="#000000">created_by    </text>
<text text-anchor="start" x="229.4516" y="-853.9" font-family="Arial" font-size="14.00" fill="#666666">[int]</text>
</g>
<!-- images&#45;&gt;microsoft_accounts -->
<g id="edge1" class="edge">
<title>images:created_by&#45;&gt;microsoft_accounts:id</title>
<path fill="none" stroke="#000000" d="M327.7768,-854.7793C339.87,-845.9285 330.2272,-817.5176 318,-800 291.4419,-761.9506 246.5581,-802.0494 220,-764 195.4523,-728.8309 177.1111,-667.5 220,-667.5"/>
<polygon fill="#000000" stroke="#000000" points="327.6339,-854.819 316.7935,-853.1647 322.817,-856.1595 318,-857.5 318,-857.5 318,-857.5 322.817,-856.1595 319.2065,-861.8353 327.6339,-854.819 327.6339,-854.819"/>
<text text-anchor="start" x="6.766" y="-867.5" font-family="Arial" font-size="10.00" fill="#000000">FOREIGN KEY (created_by) REFERENCES microsoft_accounts (id)</text>
</g>
<!-- logs -->
<g id="node3" class="node">
<title>logs</title>
<polygon fill="#efefef" stroke="transparent" points="422,-992.5 422,-1027.5 614,-1027.5 614,-992.5 422,-992.5"/>
<polygon fill="none" stroke="#000000" points="422,-992.5 422,-1027.5 614,-1027.5 614,-992.5 422,-992.5"/>
<text text-anchor="start" x="437.7127" y="-1005.3" font-family="Arial Bold" font-size="18.00" fill="#000000">logs</text>
<text text-anchor="start" x="470.7193" y="-1005.3" font-family="Arial" font-size="14.00" fill="#000000">    </text>
<text text-anchor="start" x="504.9241" y="-1005.3" font-family="Arial" font-size="14.00" fill="#666666">[BASE TABLE]</text>
<polygon fill="none" stroke="#000000" points="422,-962.5 422,-992.5 614,-992.5 614,-962.5 422,-962.5"/>
<text text-anchor="start" x="429" y="-973.9" font-family="Arial" font-size="14.00" fill="#000000">id    </text>
<text text-anchor="start" x="474.094" y="-973.9" font-family="Arial" font-size="14.00" fill="#666666">[int]</text>
<polygon fill="none" stroke="#000000" points="422,-932.5 422,-962.5 614,-962.5 614,-932.5 422,-932.5"/>
<text text-anchor="start" x="429" y="-943.9" font-family="Arial" font-size="14.00" fill="#000000">log_event    </text>
<text text-anchor="start" x="523.8976" y="-943.9" font-family="Arial" font-size="14.00" fill="#666666">[varchar(32)]</text>
<polygon fill="none" stroke="#000000" points="422,-902.5 422,-932.5 614,-932.5 614,-902.5 422,-902.5"/>
<text text-anchor="start" x="429" y="-913.9" font-family="Arial" font-size="14.00" fill="#000000">microsoft_account    </text>
<text text-anchor="start" x="576.7826" y="-913.9" font-family="Arial" font-size="14.00" fill="#666666">[int]</text>
<polygon fill="none" stroke="#000000" points="422,-872.5 422,-902.5 614,-902.5 614,-872.5 422,-872.5"/>
<text text-anchor="start" x="429" y="-883.9" font-family="Arial" font-size="14.00" fill="#000000">message    </text>
<text text-anchor="start" x="519.9958" y="-883.9" font-family="Arial" font-size="14.00" fill="#666666">[text]</text>
<polygon fill="none" stroke="#000000" points="422,-842.5 422,-872.5 614,-872.5 614,-842.5 422,-842.5"/>
<text text-anchor="start" x="428.547" y="-853.9" font-family="Arial" font-size="14.00" fill="#000000">created_at    </text>
<text text-anchor="start" x="528.8892" y="-853.9" font-family="Arial" font-size="14.00" fill="#666666">[datetime(6)]</text>
</g>
<!-- logs&#45;&gt;microsoft_accounts -->
<g id="edge2" class="edge">
<title>logs:microsoft_account&#45;&gt;microsoft_accounts:id</title>
<path fill="none" stroke="#000000" d="M411.5815,-916.3126C373.1748,-906.6185 394.6009,-839.8329 422,-800 447.3534,-763.141 490.6466,-800.859 516,-764 540.3062,-728.6635 558.8889,-667.5 516,-667.5"/>
<polygon fill="#000000" stroke="#000000" points="412.0643,-916.3675 421.4904,-921.9711 417.0322,-916.9338 422,-917.5 422,-917.5 422,-917.5 417.0322,-916.9338 422.5096,-913.0289 412.0643,-916.3675 412.0643,-916.3675"/>
<text text-anchor="start" x="428.9335" y="-927.5" font-family="Arial" font-size="10.00" fill="#000000">FOREIGN KEY (microsoft_account) REFERENCES microsoft_accounts (id)</text>
</g>
</g>
</svg>
