<?xml version="1.0" encoding="UTF-8" standalone="no"?>
<!DOCTYPE svg PUBLIC "-//W3C//DTD SVG 1.1//EN"
 "http://www.w3.org/Graphics/SVG/1.1/DTD/svg11.dtd">
<!-- Generated by graphviz version 2.40.1 (20161225.0304)
 -->
<!-- Title: role_permissions Pages: 1 -->
<svg width="552pt" height="562pt"
 viewBox="0.00 0.00 551.50 562.00" xmlns="http://www.w3.org/2000/svg" xmlns:xlink="http://www.w3.org/1999/xlink">
<g id="graph0" class="graph" transform="scale(1 1) rotate(0) translate(4 558)">
<title>role_permissions</title>
<polygon fill="#ffffff" stroke="transparent" points="-4,4 -4,-558 547.5,-558 547.5,4 -4,4"/>
<!-- role_permissions -->
<g id="node1" class="node">
<title>role_permissions</title>
<polygon fill="#efefef" stroke="transparent" points="221,-472.5 221,-507.5 498,-507.5 498,-472.5 221,-472.5"/>
<polygon fill="none" stroke="#000000" points="221,-472.5 221,-507.5 498,-507.5 498,-472.5 221,-472.5"/>
<text text-anchor="start" x="227.7147" y="-485.3" font-family="Arial Bold" font-size="18.00" fill="#000000">role_permissions</text>
<text text-anchor="start" x="363.7173" y="-485.3" font-family="Arial" font-size="14.00" fill="#000000">    </text>
<text text-anchor="start" x="397.9221" y="-485.3" font-family="Arial" font-size="14.00" fill="#666666">[BASE TABLE]</text>
<polygon fill="none" stroke="#000000" points="221,-442.5 221,-472.5 498,-472.5 498,-442.5 221,-442.5"/>
<text text-anchor="start" x="228" y="-453.9" font-family="Arial" font-size="14.00" fill="#000000">id </text>
<text text-anchor="start" x="242.7798" y="-453.9" font-family="Arial" font-size="14.00" fill="#666666">[int]</text>
<polygon fill="none" stroke="#000000" points="221,-412.5 221,-442.5 498,-442.5 498,-412.5 221,-412.5"/>
<text text-anchor="start" x="228" y="-423.9" font-family="Arial" font-size="14.00" fill="#000000">role </text>
<text text-anchor="start" x="255.223" y="-423.9" font-family="Arial" font-size="14.00" fill="#666666">[int]</text>
<polygon fill="none" stroke="#000000" points="221,-382.5 221,-412.5 498,-412.5 498,-382.5 221,-382.5"/>
<text text-anchor="start" x="228" y="-393.9" font-family="Arial" font-size="14.00" fill="#000000">permission </text>
<text text-anchor="start" x="299.5554" y="-393.9" font-family="Arial" font-size="14.00" fill="#666666">[varchar(64)]</text>
<polygon fill="none" stroke="#000000" stroke-width="3" points="219,-381.5 219,-509.5 499,-509.5 499,-381.5 219,-381.5"/>
</g>
<!-- roles -->
<g id="node2" class="node">
<title>roles</title>
<polygon fill="#efefef" stroke="transparent" points="258,-222.5 258,-257.5 461,-257.5 461,-222.5 258,-222.5"/>
<polygon fill="none" stroke="#000000" points="258,-222.5 258,-257.5 461,-257.5 461,-222.5 258,-222.5"/>
<text text-anchor="start" x="276.2166" y="-235.3" font-family="Arial Bold" font-size="18.00" fill="#000000">roles</text>
<text text-anchor="start" x="315.2154" y="-235.3" font-family="Arial" font-size="14.00" fill="#000000">    </text>
<text text-anchor="start" x="349.4202" y="-235.3" font-family="Arial" font-size="14.00" fill="#666666">[BASE TABLE]</text>
<polygon fill="none" stroke="#000000" points="258,-192.5 258,-222.5 461,-222.5 461,-192.5 258,-192.5"/>
<text text-anchor="start" x="265" y="-203.9" font-family="Arial" font-size="14.00" fill="#000000">id    </text>
<text text-anchor="start" x="310.094" y="-203.9" font-family="Arial" font-size="14.00" fill="#666666">[int]</text>
<polygon fill="none" stroke="#000000" points="258,-162.5 258,-192.5 461,-192.5 461,-162.5 258,-162.5"/>
<text text-anchor="start" x="265" y="-173.9" font-family="Arial" font-size="14.00" fill="#000000">name    </text>
<text text-anchor="start" x="334.2132" y="-173.9" font-family="Arial" font-size="14.00" fill="#666666">[varchar(64)]</text>
<polygon fill="none" stroke="#000000" points="258,-132.5 258,-162.5 461,-162.5 461,-132.5 258,-132.5"/>
<text text-anchor="start" x="264.9993" y="-143.9" font-family="Arial" font-size="14.00" fill="#000000">description    </text>
<text text-anchor="start" x="366.8815" y="-143.9" font-family="Arial" font-size="14.00" fill="#666666">[varchar(128)]</text>
<polygon fill="none" stroke="#000000" points="258,-102.5 258,-132.5 461,-132.5 461,-102.5 258,-102.5"/>
<text text-anchor="start" x="265" y="-113.9" font-family="Arial" font-size="14.00" fill="#000000">default    </text>
<text text-anchor="start" x="341.223" y="-113.9" font-family="Arial" font-size="14.00" fill="#666666">[tinyint(1)]</text>
<polygon fill="none" stroke="#000000" points="258,-72.5 258,-102.5 461,-102.5 461,-72.5 258,-72.5"/>
<text text-anchor="start" x="265" y="-83.9" font-family="Arial" font-size="14.00" fill="#000000">created_at    </text>
<text text-anchor="start" x="365.3422" y="-83.9" font-family="Arial" font-size="14.00" fill="#666666">[datetime(6)]</text>
<polygon fill="none" stroke="#000000" points="258,-42.5 258,-72.5 461,-72.5 461,-42.5 258,-42.5"/>
<text text-anchor="start" x="265" y="-53.9" font-family="Arial" font-size="14.00" fill="#000000">updated_at    </text>
<text text-anchor="start" x="369.2468" y="-53.9" font-family="Arial" font-size="14.00" fill="#666666">[datetime(6)]</text>
</g>
<!-- role_permissions&#45;&gt;roles -->
<g id="edge1" class="edge">
<title>role_permissions:role&#45;&gt;roles:id</title>
<path fill="none" stroke="#000000" d="M210.782,-426.6591C124.604,-411.8888 162.4316,-207.5 258,-207.5"/>
<polygon fill="#000000" stroke="#000000" points="211.0337,-426.6797 220.6309,-431.9848 216.0168,-427.0899 221,-427.5 221,-427.5 221,-427.5 216.0168,-427.0899 221.3691,-423.0152 211.0337,-426.6797 211.0337,-426.6797"/>
<text text-anchor="start" x="7.3945" y="-437.5" font-family="Arial" font-size="10.00" fill="#000000">FOREIGN KEY (role) REFERENCES roles (id)</text>
</g>
</g>
</svg>
