<?xml version="1.0" encoding="UTF-8" standalone="no"?>
<!DOCTYPE svg PUBLIC "-//W3C//DTD SVG 1.1//EN"
 "http://www.w3.org/Graphics/SVG/1.1/DTD/svg11.dtd">
<!-- Generated by graphviz version 2.40.1 (20161225.0304)
 -->
<!-- Title: roles Pages: 1 -->
<svg width="672pt" height="712pt"
 viewBox="0.00 0.00 671.50 712.00" xmlns="http://www.w3.org/2000/svg" xmlns:xlink="http://www.w3.org/1999/xlink">
<g id="graph0" class="graph" transform="scale(1 1) rotate(0) translate(4 708)">
<title>roles</title>
<polygon fill="#ffffff" stroke="transparent" points="-4,4 -4,-708 667.5,-708 667.5,4 -4,4"/>
<!-- roles -->
<g id="node1" class="node">
<title>roles</title>
<polygon fill="#efefef" stroke="transparent" points="262.5,-225.5 262.5,-260.5 442.5,-260.5 442.5,-225.5 262.5,-225.5"/>
<polygon fill="none" stroke="#000000" points="262.5,-225.5 262.5,-260.5 442.5,-260.5 442.5,-225.5 262.5,-225.5"/>
<text text-anchor="start" x="269.2166" y="-238.3" font-family="Arial Bold" font-size="18.00" fill="#000000">roles</text>
<text text-anchor="start" x="308.2154" y="-238.3" font-family="Arial" font-size="14.00" fill="#000000">    </text>
<text text-anchor="start" x="342.4202" y="-238.3" font-family="Arial" font-size="14.00" fill="#666666">[BASE TABLE]</text>
<polygon fill="none" stroke="#000000" points="262.5,-195.5 262.5,-225.5 442.5,-225.5 442.5,-195.5 262.5,-195.5"/>
<text text-anchor="start" x="269.5" y="-206.9" font-family="Arial" font-size="14.00" fill="#000000">id </text>
<text text-anchor="start" x="284.2798" y="-206.9" font-family="Arial" font-size="14.00" fill="#666666">[int]</text>
<polygon fill="none" stroke="#000000" points="262.5,-165.5 262.5,-195.5 442.5,-195.5 442.5,-165.5 262.5,-165.5"/>
<text text-anchor="start" x="269.5" y="-176.9" font-family="Arial" font-size="14.00" fill="#000000">name </text>
<text text-anchor="start" x="308.399" y="-176.9" font-family="Arial" font-size="14.00" fill="#666666">[varchar(64)]</text>
<polygon fill="none" stroke="#000000" points="262.5,-135.5 262.5,-165.5 442.5,-165.5 442.5,-135.5 262.5,-135.5"/>
<text text-anchor="start" x="269.5" y="-146.9" font-family="Arial" font-size="14.00" fill="#000000">description </text>
<text text-anchor="start" x="341.068" y="-146.9" font-family="Arial" font-size="14.00" fill="#666666">[varchar(128)]</text>
<polygon fill="none" stroke="#000000" points="262.5,-105.5 262.5,-135.5 442.5,-135.5 442.5,-105.5 262.5,-105.5"/>
<text text-anchor="start" x="269.5" y="-116.9" font-family="Arial" font-size="14.00" fill="#000000">default </text>
<text text-anchor="start" x="315.4088" y="-116.9" font-family="Arial" font-size="14.00" fill="#666666">[tinyint(1)]</text>
<polygon fill="none" stroke="#000000" points="262.5,-75.5 262.5,-105.5 442.5,-105.5 442.5,-75.5 262.5,-75.5"/>
<text text-anchor="start" x="269.5" y="-86.9" font-family="Arial" font-size="14.00" fill="#000000">created_at </text>
<text text-anchor="start" x="339.528" y="-86.9" font-family="Arial" font-size="14.00" fill="#666666">[datetime(6)]</text>
<polygon fill="none" stroke="#000000" points="262.5,-45.5 262.5,-75.5 442.5,-75.5 442.5,-45.5 262.5,-45.5"/>
<text text-anchor="start" x="269.5" y="-56.9" font-family="Arial" font-size="14.00" fill="#000000">updated_at </text>
<text text-anchor="start" x="343.4326" y="-56.9" font-family="Arial" font-size="14.00" fill="#666666">[datetime(6)]</text>
<polygon fill="none" stroke="#000000" stroke-width="3" points="261,-44.5 261,-262.5 444,-262.5 444,-44.5 261,-44.5"/>
</g>
<!-- role_permissions -->
<g id="node2" class="node">
<title>role_permissions</title>
<polygon fill="#efefef" stroke="transparent" points="43.5,-550.5 43.5,-585.5 320.5,-585.5 320.5,-550.5 43.5,-550.5"/>
<polygon fill="none" stroke="#000000" points="43.5,-550.5 43.5,-585.5 320.5,-585.5 320.5,-550.5 43.5,-550.5"/>
<text text-anchor="start" x="50.2147" y="-563.3" font-family="Arial Bold" font-size="18.00" fill="#000000">role_permissions</text>
<text text-anchor="start" x="186.2173" y="-563.3" font-family="Arial" font-size="14.00" fill="#000000">    </text>
<text text-anchor="start" x="220.4221" y="-563.3" font-family="Arial" font-size="14.00" fill="#666666">[BASE TABLE]</text>
<polygon fill="none" stroke="#000000" points="43.5,-520.5 43.5,-550.5 320.5,-550.5 320.5,-520.5 43.5,-520.5"/>
<text text-anchor="start" x="50.5" y="-531.9" font-family="Arial" font-size="14.00" fill="#000000">id    </text>
<text text-anchor="start" x="95.594" y="-531.9" font-family="Arial" font-size="14.00" fill="#666666">[int]</text>
<polygon fill="none" stroke="#000000" points="43.5,-490.5 43.5,-520.5 320.5,-520.5 320.5,-490.5 43.5,-490.5"/>
<text text-anchor="start" x="50.5" y="-501.9" font-family="Arial" font-size="14.00" fill="#000000">role    </text>
<text text-anchor="start" x="108.0372" y="-501.9" font-family="Arial" font-size="14.00" fill="#666666">[int]</text>
<polygon fill="none" stroke="#000000" points="43.5,-460.5 43.5,-490.5 320.5,-490.5 320.5,-460.5 43.5,-460.5"/>
<text text-anchor="start" x="50.5" y="-471.9" font-family="Arial" font-size="14.00" fill="#000000">permission    </text>
<text text-anchor="start" x="152.3696" y="-471.9" font-family="Arial" font-size="14.00" fill="#666666">[varchar(64)]</text>
</g>
<!-- role_permissions&#45;&gt;roles -->
<g id="edge1" class="edge">
<title>role_permissions:role&#45;&gt;roles:id</title>
<path fill="none" stroke="#000000" d="M330.7693,-504.8036C436.0673,-489.0276 132.663,-210.5 262.5,-210.5"/>
<polygon fill="#000000" stroke="#000000" points="330.4771,-504.8233 320.1955,-501.0103 325.4885,-505.1617 320.5,-505.5 320.5,-505.5 320.5,-505.5 325.4885,-505.1617 320.8045,-509.9897 330.4771,-504.8233 330.4771,-504.8233"/>
<text text-anchor="start" x="327.8945" y="-515.5" font-family="Arial" font-size="10.00" fill="#000000">FOREIGN KEY (role) REFERENCES roles (id)</text>
</g>
<!-- users -->
<g id="node3" class="node">
<title>users</title>
<polygon fill="#efefef" stroke="transparent" points="424.5,-625.5 424.5,-660.5 620.5,-660.5 620.5,-625.5 424.5,-625.5"/>
<polygon fill="none" stroke="#000000" points="424.5,-625.5 424.5,-660.5 620.5,-660.5 620.5,-625.5 424.5,-625.5"/>
<text text-anchor="start" x="436.7137" y="-638.3" font-family="Arial Bold" font-size="18.00" fill="#000000">users</text>
<text text-anchor="start" x="480.7183" y="-638.3" font-family="Arial" font-size="14.00" fill="#000000">    </text>
<text text-anchor="start" x="514.9231" y="-638.3" font-family="Arial" font-size="14.00" fill="#666666">[BASE TABLE]</text>
<polygon fill="none" stroke="#000000" points="424.5,-595.5 424.5,-625.5 620.5,-625.5 620.5,-595.5 424.5,-595.5"/>
<text text-anchor="start" x="431.5" y="-606.9" font-family="Arial" font-size="14.00" fill="#000000">id    </text>
<text text-anchor="start" x="476.594" y="-606.9" font-family="Arial" font-size="14.00" fill="#666666">[int]</text>
<polygon fill="none" stroke="#000000" points="424.5,-565.5 424.5,-595.5 620.5,-595.5 620.5,-565.5 424.5,-565.5"/>
<text text-anchor="start" x="431.5" y="-576.9" font-family="Arial" font-size="14.00" fill="#000000">name    </text>
<text text-anchor="start" x="500.7132" y="-576.9" font-family="Arial" font-size="14.00" fill="#666666">[varchar(128)]</text>
<polygon fill="none" stroke="#000000" points="424.5,-535.5 424.5,-565.5 620.5,-565.5 620.5,-535.5 424.5,-535.5"/>
<text text-anchor="start" x="431.5" y="-546.9" font-family="Arial" font-size="14.00" fill="#000000">email    </text>
<text text-anchor="start" x="499.1438" y="-546.9" font-family="Arial" font-size="14.00" fill="#666666">[varchar(320)]</text>
<polygon fill="none" stroke="#000000" points="424.5,-505.5 424.5,-535.5 620.5,-535.5 620.5,-505.5 424.5,-505.5"/>
<text text-anchor="start" x="431.5" y="-516.9" font-family="Arial" font-size="14.00" fill="#000000">gender    </text>
<text text-anchor="start" x="509.2784" y="-516.9" font-family="Arial" font-size="14.00" fill="#666666">[varchar(10)]</text>
<polygon fill="none" stroke="#000000" points="424.5,-475.5 424.5,-505.5 620.5,-505.5 620.5,-475.5 424.5,-475.5"/>
<text text-anchor="start" x="431.5" y="-486.9" font-family="Arial" font-size="14.00" fill="#000000">class_id    </text>
<text text-anchor="start" x="516.2658" y="-486.9" font-family="Arial" font-size="14.00" fill="#666666">[int]</text>
<polygon fill="none" stroke="#000000" points="424.5,-445.5 424.5,-475.5 620.5,-475.5 620.5,-445.5 424.5,-445.5"/>
<text text-anchor="start" x="431.5" y="-456.9" font-family="Arial" font-size="14.00" fill="#000000">role_id    </text>
<text text-anchor="start" x="507.709" y="-456.9" font-family="Arial" font-size="14.00" fill="#666666">[int]</text>
<polygon fill="none" stroke="#000000" points="424.5,-415.5 424.5,-445.5 620.5,-445.5 620.5,-415.5 424.5,-415.5"/>
<text text-anchor="start" x="431.5" y="-426.9" font-family="Arial" font-size="14.00" fill="#000000">created_at    </text>
<text text-anchor="start" x="531.8422" y="-426.9" font-family="Arial" font-size="14.00" fill="#666666">[datetime(6)]</text>
<polygon fill="none" stroke="#000000" points="424.5,-385.5 424.5,-415.5 620.5,-415.5 620.5,-385.5 424.5,-385.5"/>
<text text-anchor="start" x="431.0947" y="-396.9" font-family="Arial" font-size="14.00" fill="#000000">updated_at    </text>
<text text-anchor="start" x="535.3415" y="-396.9" font-family="Arial" font-size="14.00" fill="#666666">[datetime(6)]</text>
</g>
<!-- users&#45;&gt;roles -->
<g id="edge2" class="edge">
<title>users:role_id&#45;&gt;roles:id</title>
<path fill="none" stroke="#000000" d="M414.3508,-459.4319C378.0931,-450.6903 413.3923,-390.053 424.5,-343 428.6099,-325.59 438.3901,-324.41 442.5,-307 452.3538,-265.2584 485.3889,-210.5 442.5,-210.5"/>
<polygon fill="#000000" stroke="#000000" points="414.5549,-459.4533 424.029,-464.9753 419.5275,-459.9767 424.5,-460.5 424.5,-460.5 424.5,-460.5 419.5275,-459.9767 424.971,-456.0247 414.5549,-459.4533 414.5549,-459.4533"/>
<text text-anchor="start" x="372.726" y="-444.5" font-family="Arial" font-size="10.00" fill="#000000">FOREIGN KEY (role_id) REFERENCES roles (id)</text>
</g>
</g>
</svg>
