<?xml version="1.0" encoding="UTF-8" standalone="no"?>
<!DOCTYPE svg PUBLIC "-//W3C//DTD SVG 1.1//EN"
 "http://www.w3.org/Graphics/SVG/1.1/DTD/svg11.dtd">
<!-- Generated by graphviz version 2.40.1 (20161225.0304)
 -->
<!-- Title: sports Pages: 1 -->
<svg width="679pt" height="1319pt"
 viewBox="0.00 0.00 679.00 1319.00" xmlns="http://www.w3.org/2000/svg" xmlns:xlink="http://www.w3.org/1999/xlink">
<g id="graph0" class="graph" transform="scale(1 1) rotate(0) translate(4 1315)">
<title>sports</title>
<polygon fill="#ffffff" stroke="transparent" points="-4,4 -4,-1315 675,-1315 675,4 -4,4"/>
<!-- sports -->
<g id="node1" class="node">
<title>sports</title>
<polygon fill="#efefef" stroke="transparent" points="266,-622.5 266,-657.5 456,-657.5 456,-622.5 266,-622.5"/>
<polygon fill="none" stroke="#000000" points="266,-622.5 266,-657.5 456,-657.5 456,-622.5 266,-622.5"/>
<text text-anchor="start" x="272.7126" y="-635.3" font-family="Arial Bold" font-size="18.00" fill="#000000">sports</text>
<text text-anchor="start" x="321.7194" y="-635.3" font-family="Arial" font-size="14.00" fill="#000000">    </text>
<text text-anchor="start" x="355.9242" y="-635.3" font-family="Arial" font-size="14.00" fill="#666666">[BASE TABLE]</text>
<polygon fill="none" stroke="#000000" points="266,-592.5 266,-622.5 456,-622.5 456,-592.5 266,-592.5"/>
<text text-anchor="start" x="273" y="-603.9" font-family="Arial" font-size="14.00" fill="#000000">id </text>
<text text-anchor="start" x="287.7798" y="-603.9" font-family="Arial" font-size="14.00" fill="#666666">[int]</text>
<polygon fill="none" stroke="#000000" points="266,-562.5 266,-592.5 456,-592.5 456,-562.5 266,-562.5"/>
<text text-anchor="start" x="273" y="-573.9" font-family="Arial" font-size="14.00" fill="#000000">name </text>
<text text-anchor="start" x="311.899" y="-573.9" font-family="Arial" font-size="14.00" fill="#666666">[varchar(64)]</text>
<polygon fill="none" stroke="#000000" points="266,-532.5 266,-562.5 456,-562.5 456,-532.5 266,-532.5"/>
<text text-anchor="start" x="273" y="-543.9" font-family="Arial" font-size="14.00" fill="#000000">description </text>
<text text-anchor="start" x="344.568" y="-543.9" font-family="Arial" font-size="14.00" fill="#666666">[text]</text>
<polygon fill="none" stroke="#000000" points="266,-502.5 266,-532.5 456,-532.5 456,-502.5 266,-502.5"/>
<text text-anchor="start" x="273" y="-513.9" font-family="Arial" font-size="14.00" fill="#000000">icon_image </text>
<text text-anchor="start" x="348.46" y="-513.9" font-family="Arial" font-size="14.00" fill="#666666">[int]</text>
<polygon fill="none" stroke="#000000" points="266,-472.5 266,-502.5 456,-502.5 456,-472.5 266,-472.5"/>
<text text-anchor="start" x="273" y="-483.9" font-family="Arial" font-size="14.00" fill="#000000">weight </text>
<text text-anchor="start" x="317.3422" y="-483.9" font-family="Arial" font-size="14.00" fill="#666666">[int]</text>
<polygon fill="none" stroke="#000000" points="266,-442.5 266,-472.5 456,-472.5 456,-442.5 266,-442.5"/>
<text text-anchor="start" x="273" y="-453.9" font-family="Arial" font-size="14.00" fill="#000000">rule_id </text>
<text text-anchor="start" x="318.8948" y="-453.9" font-family="Arial" font-size="14.00" fill="#666666">[int]</text>
<polygon fill="none" stroke="#000000" points="266,-412.5 266,-442.5 456,-442.5 456,-412.5 266,-412.5"/>
<text text-anchor="start" x="273" y="-423.9" font-family="Arial" font-size="14.00" fill="#000000">tag </text>
<text text-anchor="start" x="296.3464" y="-423.9" font-family="Arial" font-size="14.00" fill="#666666">[int]</text>
<polygon fill="none" stroke="#000000" points="266,-382.5 266,-412.5 456,-412.5 456,-382.5 266,-382.5"/>
<text text-anchor="start" x="273" y="-393.9" font-family="Arial" font-size="14.00" fill="#000000">created_at </text>
<text text-anchor="start" x="343.028" y="-393.9" font-family="Arial" font-size="14.00" fill="#666666">[datetime(6)]</text>
<polygon fill="none" stroke="#000000" points="266,-352.5 266,-382.5 456,-382.5 456,-352.5 266,-352.5"/>
<text text-anchor="start" x="273" y="-363.9" font-family="Arial" font-size="14.00" fill="#000000">updated_at </text>
<text text-anchor="start" x="346.9326" y="-363.9" font-family="Arial" font-size="14.00" fill="#666666">[datetime(6)]</text>
<polygon fill="none" stroke="#000000" stroke-width="3" points="264.5,-351.5 264.5,-659.5 457.5,-659.5 457.5,-351.5 264.5,-351.5"/>
</g>
<!-- images -->
<g id="node4" class="node">
<title>images</title>
<polygon fill="#efefef" stroke="transparent" points="111,-192.5 111,-227.5 310,-227.5 310,-192.5 111,-192.5"/>
<polygon fill="none" stroke="#000000" points="111,-192.5 111,-227.5 310,-227.5 310,-192.5 111,-192.5"/>
<text text-anchor="start" x="117.7135" y="-205.3" font-family="Arial Bold" font-size="18.00" fill="#000000">images</text>
<text text-anchor="start" x="175.7185" y="-205.3" font-family="Arial" font-size="14.00" fill="#000000">    </text>
<text text-anchor="start" x="209.9233" y="-205.3" font-family="Arial" font-size="14.00" fill="#666666">[BASE TABLE]</text>
<polygon fill="none" stroke="#000000" points="111,-162.5 111,-192.5 310,-192.5 310,-162.5 111,-162.5"/>
<text text-anchor="start" x="118" y="-173.9" font-family="Arial" font-size="14.00" fill="#000000">id    </text>
<text text-anchor="start" x="163.094" y="-173.9" font-family="Arial" font-size="14.00" fill="#666666">[int]</text>
<polygon fill="none" stroke="#000000" points="111,-132.5 111,-162.5 310,-162.5 310,-132.5 111,-132.5"/>
<text text-anchor="start" x="118" y="-143.9" font-family="Arial" font-size="14.00" fill="#000000">name    </text>
<text text-anchor="start" x="187.2132" y="-143.9" font-family="Arial" font-size="14.00" fill="#666666">[varchar(64)]</text>
<polygon fill="none" stroke="#000000" points="111,-102.5 111,-132.5 310,-132.5 310,-102.5 111,-102.5"/>
<text text-anchor="start" x="118" y="-113.9" font-family="Arial" font-size="14.00" fill="#000000">attachment    </text>
<text text-anchor="start" x="221.4502" y="-113.9" font-family="Arial" font-size="14.00" fill="#666666">[text]</text>
<polygon fill="none" stroke="#000000" points="111,-72.5 111,-102.5 310,-102.5 310,-72.5 111,-72.5"/>
<text text-anchor="start" x="118" y="-83.9" font-family="Arial" font-size="14.00" fill="#000000">created_at    </text>
<text text-anchor="start" x="218.3422" y="-83.9" font-family="Arial" font-size="14.00" fill="#666666">[datetime(6)]</text>
<polygon fill="none" stroke="#000000" points="111,-42.5 111,-72.5 310,-72.5 310,-42.5 111,-42.5"/>
<text text-anchor="start" x="118" y="-53.9" font-family="Arial" font-size="14.00" fill="#000000">created_by    </text>
<text text-anchor="start" x="221.4516" y="-53.9" font-family="Arial" font-size="14.00" fill="#666666">[int]</text>
</g>
<!-- sports&#45;&gt;images -->
<g id="edge3" class="edge">
<title>sports:icon_image&#45;&gt;images:id</title>
<path fill="none" stroke="#000000" d="M255.7,-516.9334C176.603,-507.7228 227.5017,-388.2408 266,-307 276.8201,-284.167 299.1799,-293.833 310,-271 327.7953,-233.4475 351.5556,-177.5 310,-177.5"/>
<polygon fill="#000000" stroke="#000000" points="256.0151,-516.9506 265.7528,-521.9932 261.0075,-517.2253 266,-517.5 266,-517.5 266,-517.5 261.0075,-517.2253 266.2472,-513.0068 256.0151,-516.9506 256.0151,-516.9506"/>
<text text-anchor="start" x="6.8875" y="-527.5" font-family="Arial" font-size="10.00" fill="#000000">FOREIGN KEY (icon_image) REFERENCES images (id)</text>
</g>
<!-- tags -->
<g id="node5" class="node">
<title>tags</title>
<polygon fill="#efefef" stroke="transparent" points="414,-192.5 414,-227.5 610,-227.5 610,-192.5 414,-192.5"/>
<polygon fill="none" stroke="#000000" points="414,-192.5 414,-227.5 610,-227.5 610,-192.5 414,-192.5"/>
<text text-anchor="start" x="431.2087" y="-205.3" font-family="Arial Bold" font-size="18.00" fill="#000000">tags</text>
<text text-anchor="start" x="465.2233" y="-205.3" font-family="Arial" font-size="14.00" fill="#000000">    </text>
<text text-anchor="start" x="499.4281" y="-205.3" font-family="Arial" font-size="14.00" fill="#666666">[BASE TABLE]</text>
<polygon fill="none" stroke="#000000" points="414,-162.5 414,-192.5 610,-192.5 610,-162.5 414,-162.5"/>
<text text-anchor="start" x="421" y="-173.9" font-family="Arial" font-size="14.00" fill="#000000">id    </text>
<text text-anchor="start" x="466.094" y="-173.9" font-family="Arial" font-size="14.00" fill="#666666">[int]</text>
<polygon fill="none" stroke="#000000" points="414,-132.5 414,-162.5 610,-162.5 610,-132.5 414,-132.5"/>
<text text-anchor="start" x="421" y="-143.9" font-family="Arial" font-size="14.00" fill="#000000">name    </text>
<text text-anchor="start" x="490.2132" y="-143.9" font-family="Arial" font-size="14.00" fill="#666666">[varchar(64)]</text>
<polygon fill="none" stroke="#000000" points="414,-102.5 414,-132.5 610,-132.5 610,-102.5 414,-102.5"/>
<text text-anchor="start" x="421" y="-113.9" font-family="Arial" font-size="14.00" fill="#000000">enabled    </text>
<text text-anchor="start" x="505.007" y="-113.9" font-family="Arial" font-size="14.00" fill="#666666">[tinyint(1)]</text>
<polygon fill="none" stroke="#000000" points="414,-72.5 414,-102.5 610,-102.5 610,-72.5 414,-72.5"/>
<text text-anchor="start" x="421" y="-83.9" font-family="Arial" font-size="14.00" fill="#000000">created_at    </text>
<text text-anchor="start" x="521.3422" y="-83.9" font-family="Arial" font-size="14.00" fill="#666666">[datetime(6)]</text>
<polygon fill="none" stroke="#000000" points="414,-42.5 414,-72.5 610,-72.5 610,-42.5 414,-42.5"/>
<text text-anchor="start" x="420.5947" y="-53.9" font-family="Arial" font-size="14.00" fill="#000000">updated_at    </text>
<text text-anchor="start" x="524.8415" y="-53.9" font-family="Arial" font-size="14.00" fill="#666666">[datetime(6)]</text>
</g>
<!-- sports&#45;&gt;tags -->
<g id="edge4" class="edge">
<title>sports:tag&#45;&gt;tags:id</title>
<path fill="none" stroke="#000000" d="M466.2139,-427.3738C660.4016,-422.4183 414.9902,-273.1528 414,-271 396.6357,-233.2462 372.4444,-177.5 414,-177.5"/>
<polygon fill="#000000" stroke="#000000" points="465.9992,-427.3764 455.9444,-423.0003 460.9996,-427.4382 456,-427.5 456,-427.5 456,-427.5 460.9996,-427.4382 456.0556,-431.9997 465.9992,-427.3764 465.9992,-427.3764"/>
<text text-anchor="start" x="463.1635" y="-437.5" font-family="Arial" font-size="10.00" fill="#000000">FOREIGN KEY (tag) REFERENCES tags (id)</text>
</g>
<!-- games -->
<g id="node2" class="node">
<title>games</title>
<polygon fill="#efefef" stroke="transparent" points="86,-1157.5 86,-1192.5 313,-1192.5 313,-1157.5 86,-1157.5"/>
<polygon fill="none" stroke="#000000" points="86,-1157.5 86,-1192.5 313,-1192.5 313,-1157.5 86,-1157.5"/>
<text text-anchor="start" x="108.7106" y="-1170.3" font-family="Arial Bold" font-size="18.00" fill="#000000">games</text>
<text text-anchor="start" x="162.7214" y="-1170.3" font-family="Arial" font-size="14.00" fill="#000000">    </text>
<text text-anchor="start" x="196.9262" y="-1170.3" font-family="Arial" font-size="14.00" fill="#666666">[BASE TABLE]</text>
<polygon fill="none" stroke="#000000" points="86,-1127.5 86,-1157.5 313,-1157.5 313,-1127.5 86,-1127.5"/>
<text text-anchor="start" x="93" y="-1138.9" font-family="Arial" font-size="14.00" fill="#000000">id    </text>
<text text-anchor="start" x="138.094" y="-1138.9" font-family="Arial" font-size="14.00" fill="#666666">[int]</text>
<polygon fill="none" stroke="#000000" points="86,-1097.5 86,-1127.5 313,-1127.5 313,-1097.5 86,-1097.5"/>
<text text-anchor="start" x="93" y="-1108.9" font-family="Arial" font-size="14.00" fill="#000000">name    </text>
<text text-anchor="start" x="162.2132" y="-1108.9" font-family="Arial" font-size="14.00" fill="#666666">[varchar(64)]</text>
<polygon fill="none" stroke="#000000" points="86,-1067.5 86,-1097.5 313,-1097.5 313,-1067.5 86,-1067.5"/>
<text text-anchor="start" x="93" y="-1078.9" font-family="Arial" font-size="14.00" fill="#000000">description    </text>
<text text-anchor="start" x="194.8822" y="-1078.9" font-family="Arial" font-size="14.00" fill="#666666">[varchar(512)]</text>
<polygon fill="none" stroke="#000000" points="86,-1037.5 86,-1067.5 313,-1067.5 313,-1037.5 86,-1037.5"/>
<text text-anchor="start" x="93" y="-1048.9" font-family="Arial" font-size="14.00" fill="#000000">sport    </text>
<text text-anchor="start" x="158.3212" y="-1048.9" font-family="Arial" font-size="14.00" fill="#666666">[int]</text>
<polygon fill="none" stroke="#000000" points="86,-1007.5 86,-1037.5 313,-1037.5 313,-1007.5 86,-1007.5"/>
<text text-anchor="start" x="93" y="-1018.9" font-family="Arial" font-size="14.00" fill="#000000">type    </text>
<text text-anchor="start" x="153.6606" y="-1018.9" font-family="Arial" font-size="14.00" fill="#666666">[varchar(32)]</text>
<polygon fill="none" stroke="#000000" points="86,-977.5 86,-1007.5 313,-1007.5 313,-977.5 86,-977.5"/>
<text text-anchor="start" x="92.5484" y="-988.9" font-family="Arial" font-size="14.00" fill="#000000">calculation_type    </text>
<text text-anchor="start" x="227.115" y="-988.9" font-family="Arial" font-size="14.00" fill="#666666">[varchar(32)]</text>
<polygon fill="none" stroke="#000000" points="86,-947.5 86,-977.5 313,-977.5 313,-947.5 86,-947.5"/>
<text text-anchor="start" x="93" y="-958.9" font-family="Arial" font-size="14.00" fill="#000000">weight    </text>
<text text-anchor="start" x="167.6564" y="-958.9" font-family="Arial" font-size="14.00" fill="#666666">[int]</text>
<polygon fill="none" stroke="#000000" points="86,-917.5 86,-947.5 313,-947.5 313,-917.5 86,-917.5"/>
<text text-anchor="start" x="93" y="-928.9" font-family="Arial" font-size="14.00" fill="#000000">tag    </text>
<text text-anchor="start" x="146.6606" y="-928.9" font-family="Arial" font-size="14.00" fill="#666666">[int]</text>
<polygon fill="none" stroke="#000000" points="86,-887.5 86,-917.5 313,-917.5 313,-887.5 86,-887.5"/>
<text text-anchor="start" x="93" y="-898.9" font-family="Arial" font-size="14.00" fill="#000000">created_at    </text>
<text text-anchor="start" x="193.3422" y="-898.9" font-family="Arial" font-size="14.00" fill="#666666">[datetime(6)]</text>
<polygon fill="none" stroke="#000000" points="86,-857.5 86,-887.5 313,-887.5 313,-857.5 86,-857.5"/>
<text text-anchor="start" x="93" y="-868.9" font-family="Arial" font-size="14.00" fill="#000000">updated_at    </text>
<text text-anchor="start" x="197.2468" y="-868.9" font-family="Arial" font-size="14.00" fill="#666666">[datetime(6)]</text>
</g>
<!-- games&#45;&gt;sports -->
<g id="edge1" class="edge">
<title>games:sport&#45;&gt;sports:id</title>
<path fill="none" stroke="#000000" d="M323.1674,-1052.0367C412.8495,-1043.3719 333.2806,-914.9101 313,-815 302.3425,-762.4972 276.6575,-756.5028 266,-704 257.4681,-661.9683 223.1111,-607.5 266,-607.5"/>
<polygon fill="#000000" stroke="#000000" points="322.9896,-1052.0448 312.7951,-1048.0047 317.9948,-1052.2724 313,-1052.5 313,-1052.5 313,-1052.5 317.9948,-1052.2724 313.2049,-1056.9953 322.9896,-1052.0448 322.9896,-1052.0448"/>
<text text-anchor="start" x="319.8345" y="-1062.5" font-family="Arial" font-size="10.00" fill="#000000">FOREIGN KEY (sport) REFERENCES sports (id)</text>
</g>
<!-- matches -->
<g id="node3" class="node">
<title>matches</title>
<polygon fill="#efefef" stroke="transparent" points="417,-1232.5 417,-1267.5 626,-1267.5 626,-1232.5 417,-1232.5"/>
<polygon fill="none" stroke="#000000" points="417,-1232.5 417,-1267.5 626,-1267.5 626,-1232.5 417,-1232.5"/>
<text text-anchor="start" x="423.7095" y="-1245.3" font-family="Arial Bold" font-size="18.00" fill="#000000">matches</text>
<text text-anchor="start" x="491.7225" y="-1245.3" font-family="Arial" font-size="14.00" fill="#000000">    </text>
<text text-anchor="start" x="525.9273" y="-1245.3" font-family="Arial" font-size="14.00" fill="#666666">[BASE TABLE]</text>
<polygon fill="none" stroke="#000000" points="417,-1202.5 417,-1232.5 626,-1232.5 626,-1202.5 417,-1202.5"/>
<text text-anchor="start" x="424" y="-1213.9" font-family="Arial" font-size="14.00" fill="#000000">id    </text>
<text text-anchor="start" x="469.094" y="-1213.9" font-family="Arial" font-size="14.00" fill="#666666">[int]</text>
<polygon fill="none" stroke="#000000" points="417,-1172.5 417,-1202.5 626,-1202.5 626,-1172.5 417,-1172.5"/>
<text text-anchor="start" x="424" y="-1183.9" font-family="Arial" font-size="14.00" fill="#000000">location    </text>
<text text-anchor="start" x="506.439" y="-1183.9" font-family="Arial" font-size="14.00" fill="#666666">[int]</text>
<polygon fill="none" stroke="#000000" points="417,-1142.5 417,-1172.5 626,-1172.5 626,-1142.5 417,-1142.5"/>
<text text-anchor="start" x="424" y="-1153.9" font-family="Arial" font-size="14.00" fill="#000000">game    </text>
<text text-anchor="start" x="493.2132" y="-1153.9" font-family="Arial" font-size="14.00" fill="#666666">[int]</text>
<polygon fill="none" stroke="#000000" points="417,-1112.5 417,-1142.5 626,-1142.5 626,-1112.5 417,-1112.5"/>
<text text-anchor="start" x="424" y="-1123.9" font-family="Arial" font-size="14.00" fill="#000000">sport    </text>
<text text-anchor="start" x="489.3212" y="-1123.9" font-family="Arial" font-size="14.00" fill="#666666">[int]</text>
<polygon fill="none" stroke="#000000" points="417,-1082.5 417,-1112.5 626,-1112.5 626,-1082.5 417,-1082.5"/>
<text text-anchor="start" x="424" y="-1093.9" font-family="Arial" font-size="14.00" fill="#000000">started_at    </text>
<text text-anchor="start" x="520.4502" y="-1093.9" font-family="Arial" font-size="14.00" fill="#666666">[datetime(6)]</text>
<polygon fill="none" stroke="#000000" points="417,-1052.5 417,-1082.5 626,-1082.5 626,-1052.5 417,-1052.5"/>
<text text-anchor="start" x="424" y="-1063.9" font-family="Arial" font-size="14.00" fill="#000000">left_team    </text>
<text text-anchor="start" x="515.7742" y="-1063.9" font-family="Arial" font-size="14.00" fill="#666666">[int]</text>
<polygon fill="none" stroke="#000000" points="417,-1022.5 417,-1052.5 626,-1052.5 626,-1022.5 417,-1022.5"/>
<text text-anchor="start" x="424" y="-1033.9" font-family="Arial" font-size="14.00" fill="#000000">right_team    </text>
<text text-anchor="start" x="524.3268" y="-1033.9" font-family="Arial" font-size="14.00" fill="#666666">[int]</text>
<polygon fill="none" stroke="#000000" points="417,-992.5 417,-1022.5 626,-1022.5 626,-992.5 417,-992.5"/>
<text text-anchor="start" x="424" y="-1003.9" font-family="Arial" font-size="14.00" fill="#000000">left_score    </text>
<text text-anchor="start" x="518.8836" y="-1003.9" font-family="Arial" font-size="14.00" fill="#666666">[int]</text>
<polygon fill="none" stroke="#000000" points="417,-962.5 417,-992.5 626,-992.5 626,-962.5 417,-962.5"/>
<text text-anchor="start" x="424" y="-973.9" font-family="Arial" font-size="14.00" fill="#000000">right_score    </text>
<text text-anchor="start" x="527.4362" y="-973.9" font-family="Arial" font-size="14.00" fill="#666666">[int]</text>
<polygon fill="none" stroke="#000000" points="417,-932.5 417,-962.5 626,-962.5 626,-932.5 417,-932.5"/>
<text text-anchor="start" x="424" y="-943.9" font-family="Arial" font-size="14.00" fill="#000000">result    </text>
<text text-anchor="start" x="492.4278" y="-943.9" font-family="Arial" font-size="14.00" fill="#666666">[varchar(32)]</text>
<polygon fill="none" stroke="#000000" points="417,-902.5 417,-932.5 626,-932.5 626,-902.5 417,-902.5"/>
<text text-anchor="start" x="424" y="-913.9" font-family="Arial" font-size="14.00" fill="#000000">status    </text>
<text text-anchor="start" x="495.5512" y="-913.9" font-family="Arial" font-size="14.00" fill="#666666">[varchar(32)]</text>
<polygon fill="none" stroke="#000000" points="417,-872.5 417,-902.5 626,-902.5 626,-872.5 417,-872.5"/>
<text text-anchor="start" x="424" y="-883.9" font-family="Arial" font-size="14.00" fill="#000000">note    </text>
<text text-anchor="start" x="485.4432" y="-883.9" font-family="Arial" font-size="14.00" fill="#666666">[text]</text>
<polygon fill="none" stroke="#000000" points="417,-842.5 417,-872.5 626,-872.5 626,-842.5 417,-842.5"/>
<text text-anchor="start" x="424" y="-853.9" font-family="Arial" font-size="14.00" fill="#000000">judge    </text>
<text text-anchor="start" x="492.4418" y="-853.9" font-family="Arial" font-size="14.00" fill="#666666">[varchar(64)]</text>
<polygon fill="none" stroke="#000000" points="417,-812.5 417,-842.5 626,-842.5 626,-812.5 417,-812.5"/>
<text text-anchor="start" x="424" y="-823.9" font-family="Arial" font-size="14.00" fill="#000000">created_at    </text>
<text text-anchor="start" x="524.3422" y="-823.9" font-family="Arial" font-size="14.00" fill="#666666">[datetime(6)]</text>
<polygon fill="none" stroke="#000000" points="417,-782.5 417,-812.5 626,-812.5 626,-782.5 417,-782.5"/>
<text text-anchor="start" x="424" y="-793.9" font-family="Arial" font-size="14.00" fill="#000000">updated_at    </text>
<text text-anchor="start" x="528.2468" y="-793.9" font-family="Arial" font-size="14.00" fill="#666666">[datetime(6)]</text>
</g>
<!-- matches&#45;&gt;sports -->
<g id="edge2" class="edge">
<title>matches:sport&#45;&gt;sports:id</title>
<path fill="none" stroke="#000000" d="M407.0885,-1125.9796C335.0909,-1102.5701 383.8797,-815.6463 417,-740 426.461,-718.3913 446.539,-725.6087 456,-704 473.2016,-664.7118 498.8889,-607.5 456,-607.5"/>
<polygon fill="#000000" stroke="#000000" points="407.1156,-1125.9837 416.3177,-1131.948 412.0578,-1126.7418 417,-1127.5 417,-1127.5 417,-1127.5 412.0578,-1126.7418 417.6823,-1123.052 407.1156,-1125.9837 407.1156,-1125.9837"/>
<text text-anchor="start" x="365.8345" y="-1111.5" font-family="Arial" font-size="10.00" fill="#000000">FOREIGN KEY (sport) REFERENCES sports (id)</text>
</g>
</g>
</svg>
