<?xml version="1.0" encoding="UTF-8" standalone="no"?>
<!DOCTYPE svg PUBLIC "-//W3C//DTD SVG 1.1//EN"
 "http://www.w3.org/Graphics/SVG/1.1/DTD/svg11.dtd">
<!-- Generated by graphviz version 2.40.1 (20161225.0304)
 -->
<!-- Title: sports Pages: 1 -->
<svg width="677pt" height="1289pt"
 viewBox="0.00 0.00 676.50 1289.00" xmlns="http://www.w3.org/2000/svg" xmlns:xlink="http://www.w3.org/1999/xlink">
<g id="graph0" class="graph" transform="scale(1 1) rotate(0) translate(4 1285)">
<title>sports</title>
<polygon fill="#ffffff" stroke="transparent" points="-4,4 -4,-1285 672.5,-1285 672.5,4 -4,4"/>
<!-- sports -->
<g id="node1" class="node">
<title>sports</title>
<polygon fill="#efefef" stroke="transparent" points="266,-592.5 266,-627.5 456,-627.5 456,-592.5 266,-592.5"/>
<polygon fill="none" stroke="#000000" points="266,-592.5 266,-627.5 456,-627.5 456,-592.5 266,-592.5"/>
<text text-anchor="start" x="272.7126" y="-605.3" font-family="Arial Bold" font-size="18.00" fill="#000000">sports</text>
<text text-anchor="start" x="321.7194" y="-605.3" font-family="Arial" font-size="14.00" fill="#000000">    </text>
<text text-anchor="start" x="355.9242" y="-605.3" font-family="Arial" font-size="14.00" fill="#666666">[BASE TABLE]</text>
<polygon fill="none" stroke="#000000" points="266,-562.5 266,-592.5 456,-592.5 456,-562.5 266,-562.5"/>
<text text-anchor="start" x="273" y="-573.9" font-family="Arial" font-size="14.00" fill="#000000">id </text>
<text text-anchor="start" x="287.7798" y="-573.9" font-family="Arial" font-size="14.00" fill="#666666">[int]</text>
<polygon fill="none" stroke="#000000" points="266,-532.5 266,-562.5 456,-562.5 456,-532.5 266,-532.5"/>
<text text-anchor="start" x="273" y="-543.9" font-family="Arial" font-size="14.00" fill="#000000">name </text>
<text text-anchor="start" x="311.899" y="-543.9" font-family="Arial" font-size="14.00" fill="#666666">[varchar(64)]</text>
<polygon fill="none" stroke="#000000" points="266,-502.5 266,-532.5 456,-532.5 456,-502.5 266,-502.5"/>
<text text-anchor="start" x="273" y="-513.9" font-family="Arial" font-size="14.00" fill="#000000">description </text>
<text text-anchor="start" x="344.568" y="-513.9" font-family="Arial" font-size="14.00" fill="#666666">[text]</text>
<polygon fill="none" stroke="#000000" points="266,-472.5 266,-502.5 456,-502.5 456,-472.5 266,-472.5"/>
<text text-anchor="start" x="273" y="-483.9" font-family="Arial" font-size="14.00" fill="#000000">icon_image </text>
<text text-anchor="start" x="348.46" y="-483.9" font-family="Arial" font-size="14.00" fill="#666666">[int]</text>
<polygon fill="none" stroke="#000000" points="266,-442.5 266,-472.5 456,-472.5 456,-442.5 266,-442.5"/>
<text text-anchor="start" x="273" y="-453.9" font-family="Arial" font-size="14.00" fill="#000000">weight </text>
<text text-anchor="start" x="317.3422" y="-453.9" font-family="Arial" font-size="14.00" fill="#666666">[int]</text>
<polygon fill="none" stroke="#000000" points="266,-412.5 266,-442.5 456,-442.5 456,-412.5 266,-412.5"/>
<text text-anchor="start" x="273" y="-423.9" font-family="Arial" font-size="14.00" fill="#000000">rule_id </text>
<text text-anchor="start" x="318.8948" y="-423.9" font-family="Arial" font-size="14.00" fill="#666666">[int]</text>
<polygon fill="none" stroke="#000000" points="266,-382.5 266,-412.5 456,-412.5 456,-382.5 266,-382.5"/>
<text text-anchor="start" x="273" y="-393.9" font-family="Arial" font-size="14.00" fill="#000000">created_at </text>
<text text-anchor="start" x="343.028" y="-393.9" font-family="Arial" font-size="14.00" fill="#666666">[datetime(6)]</text>
<polygon fill="none" stroke="#000000" points="266,-352.5 266,-382.5 456,-382.5 456,-352.5 266,-352.5"/>
<text text-anchor="start" x="273" y="-363.9" font-family="Arial" font-size="14.00" fill="#000000">updated_at </text>
<text text-anchor="start" x="346.9326" y="-363.9" font-family="Arial" font-size="14.00" fill="#666666">[datetime(6)]</text>
<polygon fill="none" stroke="#000000" stroke-width="3" points="264.5,-351.5 264.5,-629.5 457.5,-629.5 457.5,-351.5 264.5,-351.5"/>
</g>
<!-- images -->
<g id="node4" class="node">
<title>images</title>
<polygon fill="#efefef" stroke="transparent" points="261,-192.5 261,-227.5 460,-227.5 460,-192.5 261,-192.5"/>
<polygon fill="none" stroke="#000000" points="261,-192.5 261,-227.5 460,-227.5 460,-192.5 261,-192.5"/>
<text text-anchor="start" x="267.7135" y="-205.3" font-family="Arial Bold" font-size="18.00" fill="#000000">images</text>
<text text-anchor="start" x="325.7185" y="-205.3" font-family="Arial" font-size="14.00" fill="#000000">    </text>
<text text-anchor="start" x="359.9233" y="-205.3" font-family="Arial" font-size="14.00" fill="#666666">[BASE TABLE]</text>
<polygon fill="none" stroke="#000000" points="261,-162.5 261,-192.5 460,-192.5 460,-162.5 261,-162.5"/>
<text text-anchor="start" x="268" y="-173.9" font-family="Arial" font-size="14.00" fill="#000000">id    </text>
<text text-anchor="start" x="313.094" y="-173.9" font-family="Arial" font-size="14.00" fill="#666666">[int]</text>
<polygon fill="none" stroke="#000000" points="261,-132.5 261,-162.5 460,-162.5 460,-132.5 261,-132.5"/>
<text text-anchor="start" x="268" y="-143.9" font-family="Arial" font-size="14.00" fill="#000000">name    </text>
<text text-anchor="start" x="337.2132" y="-143.9" font-family="Arial" font-size="14.00" fill="#666666">[varchar(64)]</text>
<polygon fill="none" stroke="#000000" points="261,-102.5 261,-132.5 460,-132.5 460,-102.5 261,-102.5"/>
<text text-anchor="start" x="268" y="-113.9" font-family="Arial" font-size="14.00" fill="#000000">attachment    </text>
<text text-anchor="start" x="371.4502" y="-113.9" font-family="Arial" font-size="14.00" fill="#666666">[text]</text>
<polygon fill="none" stroke="#000000" points="261,-72.5 261,-102.5 460,-102.5 460,-72.5 261,-72.5"/>
<text text-anchor="start" x="268" y="-83.9" font-family="Arial" font-size="14.00" fill="#000000">created_at    </text>
<text text-anchor="start" x="368.3422" y="-83.9" font-family="Arial" font-size="14.00" fill="#666666">[datetime(6)]</text>
<polygon fill="none" stroke="#000000" points="261,-42.5 261,-72.5 460,-72.5 460,-42.5 261,-42.5"/>
<text text-anchor="start" x="268" y="-53.9" font-family="Arial" font-size="14.00" fill="#000000">created_by    </text>
<text text-anchor="start" x="371.4516" y="-53.9" font-family="Arial" font-size="14.00" fill="#666666">[int]</text>
</g>
<!-- sports&#45;&gt;images -->
<g id="edge3" class="edge">
<title>sports:icon_image&#45;&gt;images:id</title>
<path fill="none" stroke="#000000" d="M255.8417,-486.7966C188.4222,-476.9404 217.0136,-365.9129 266,-307 322.0677,-239.5709 403.9323,-338.4291 460,-271 486.5687,-239.0474 501.5556,-177.5 460,-177.5"/>
<polygon fill="#000000" stroke="#000000" points="256.0239,-486.8092 265.6891,-491.9893 261.0119,-487.1546 266,-487.5 266,-487.5 266,-487.5 261.0119,-487.1546 266.3109,-483.0107 256.0239,-486.8092 256.0239,-486.8092"/>
<text text-anchor="start" x="6.8875" y="-497.5" font-family="Arial" font-size="10.00" fill="#000000">FOREIGN KEY (icon_image) REFERENCES images (id)</text>
</g>
<!-- games -->
<g id="node2" class="node">
<title>games</title>
<polygon fill="#efefef" stroke="transparent" points="86,-1112.5 86,-1147.5 313,-1147.5 313,-1112.5 86,-1112.5"/>
<polygon fill="none" stroke="#000000" points="86,-1112.5 86,-1147.5 313,-1147.5 313,-1112.5 86,-1112.5"/>
<text text-anchor="start" x="108.7106" y="-1125.3" font-family="Arial Bold" font-size="18.00" fill="#000000">games</text>
<text text-anchor="start" x="162.7214" y="-1125.3" font-family="Arial" font-size="14.00" fill="#000000">    </text>
<text text-anchor="start" x="196.9262" y="-1125.3" font-family="Arial" font-size="14.00" fill="#666666">[BASE TABLE]</text>
<polygon fill="none" stroke="#000000" points="86,-1082.5 86,-1112.5 313,-1112.5 313,-1082.5 86,-1082.5"/>
<text text-anchor="start" x="93" y="-1093.9" font-family="Arial" font-size="14.00" fill="#000000">id    </text>
<text text-anchor="start" x="138.094" y="-1093.9" font-family="Arial" font-size="14.00" fill="#666666">[int]</text>
<polygon fill="none" stroke="#000000" points="86,-1052.5 86,-1082.5 313,-1082.5 313,-1052.5 86,-1052.5"/>
<text text-anchor="start" x="93" y="-1063.9" font-family="Arial" font-size="14.00" fill="#000000">name    </text>
<text text-anchor="start" x="162.2132" y="-1063.9" font-family="Arial" font-size="14.00" fill="#666666">[varchar(64)]</text>
<polygon fill="none" stroke="#000000" points="86,-1022.5 86,-1052.5 313,-1052.5 313,-1022.5 86,-1022.5"/>
<text text-anchor="start" x="93" y="-1033.9" font-family="Arial" font-size="14.00" fill="#000000">description    </text>
<text text-anchor="start" x="194.8822" y="-1033.9" font-family="Arial" font-size="14.00" fill="#666666">[varchar(512)]</text>
<polygon fill="none" stroke="#000000" points="86,-992.5 86,-1022.5 313,-1022.5 313,-992.5 86,-992.5"/>
<text text-anchor="start" x="93" y="-1003.9" font-family="Arial" font-size="14.00" fill="#000000">sport    </text>
<text text-anchor="start" x="158.3212" y="-1003.9" font-family="Arial" font-size="14.00" fill="#666666">[int]</text>
<polygon fill="none" stroke="#000000" points="86,-962.5 86,-992.5 313,-992.5 313,-962.5 86,-962.5"/>
<text text-anchor="start" x="93" y="-973.9" font-family="Arial" font-size="14.00" fill="#000000">type    </text>
<text text-anchor="start" x="153.6606" y="-973.9" font-family="Arial" font-size="14.00" fill="#666666">[varchar(32)]</text>
<polygon fill="none" stroke="#000000" points="86,-932.5 86,-962.5 313,-962.5 313,-932.5 86,-932.5"/>
<text text-anchor="start" x="92.5484" y="-943.9" font-family="Arial" font-size="14.00" fill="#000000">calculation_type    </text>
<text text-anchor="start" x="227.115" y="-943.9" font-family="Arial" font-size="14.00" fill="#666666">[varchar(32)]</text>
<polygon fill="none" stroke="#000000" points="86,-902.5 86,-932.5 313,-932.5 313,-902.5 86,-902.5"/>
<text text-anchor="start" x="93" y="-913.9" font-family="Arial" font-size="14.00" fill="#000000">weight    </text>
<text text-anchor="start" x="167.6564" y="-913.9" font-family="Arial" font-size="14.00" fill="#666666">[int]</text>
<polygon fill="none" stroke="#000000" points="86,-872.5 86,-902.5 313,-902.5 313,-872.5 86,-872.5"/>
<text text-anchor="start" x="93" y="-883.9" font-family="Arial" font-size="14.00" fill="#000000">created_at    </text>
<text text-anchor="start" x="193.3422" y="-883.9" font-family="Arial" font-size="14.00" fill="#666666">[datetime(6)]</text>
<polygon fill="none" stroke="#000000" points="86,-842.5 86,-872.5 313,-872.5 313,-842.5 86,-842.5"/>
<text text-anchor="start" x="93" y="-853.9" font-family="Arial" font-size="14.00" fill="#000000">updated_at    </text>
<text text-anchor="start" x="197.2468" y="-853.9" font-family="Arial" font-size="14.00" fill="#666666">[datetime(6)]</text>
</g>
<!-- games&#45;&gt;sports -->
<g id="edge1" class="edge">
<title>games:sport&#45;&gt;sports:id</title>
<path fill="none" stroke="#000000" d="M323.0515,-1006.9741C399.3875,-998.4191 328.7361,-887.2115 313,-800 302.3869,-741.1807 276.6131,-732.8193 266,-674 258.3843,-631.7927 223.1111,-577.5 266,-577.5"/>
<polygon fill="#000000" stroke="#000000" points="322.9863,-1006.9774 312.7648,-1003.0061 317.9932,-1007.2387 313,-1007.5 313,-1007.5 313,-1007.5 317.9932,-1007.2387 313.2352,-1011.9939 322.9863,-1006.9774 322.9863,-1006.9774"/>
<text text-anchor="start" x="319.8345" y="-1017.5" font-family="Arial" font-size="10.00" fill="#000000">FOREIGN KEY (sport) REFERENCES sports (id)</text>
</g>
<!-- matches -->
<g id="node3" class="node">
<title>matches</title>
<polygon fill="#efefef" stroke="transparent" points="417,-1202.5 417,-1237.5 626,-1237.5 626,-1202.5 417,-1202.5"/>
<polygon fill="none" stroke="#000000" points="417,-1202.5 417,-1237.5 626,-1237.5 626,-1202.5 417,-1202.5"/>
<text text-anchor="start" x="423.7095" y="-1215.3" font-family="Arial Bold" font-size="18.00" fill="#000000">matches</text>
<text text-anchor="start" x="491.7225" y="-1215.3" font-family="Arial" font-size="14.00" fill="#000000">    </text>
<text text-anchor="start" x="525.9273" y="-1215.3" font-family="Arial" font-size="14.00" fill="#666666">[BASE TABLE]</text>
<polygon fill="none" stroke="#000000" points="417,-1172.5 417,-1202.5 626,-1202.5 626,-1172.5 417,-1172.5"/>
<text text-anchor="start" x="424" y="-1183.9" font-family="Arial" font-size="14.00" fill="#000000">id    </text>
<text text-anchor="start" x="469.094" y="-1183.9" font-family="Arial" font-size="14.00" fill="#666666">[int]</text>
<polygon fill="none" stroke="#000000" points="417,-1142.5 417,-1172.5 626,-1172.5 626,-1142.5 417,-1142.5"/>
<text text-anchor="start" x="424" y="-1153.9" font-family="Arial" font-size="14.00" fill="#000000">location    </text>
<text text-anchor="start" x="506.439" y="-1153.9" font-family="Arial" font-size="14.00" fill="#666666">[int]</text>
<polygon fill="none" stroke="#000000" points="417,-1112.5 417,-1142.5 626,-1142.5 626,-1112.5 417,-1112.5"/>
<text text-anchor="start" x="424" y="-1123.9" font-family="Arial" font-size="14.00" fill="#000000">game    </text>
<text text-anchor="start" x="493.2132" y="-1123.9" font-family="Arial" font-size="14.00" fill="#666666">[int]</text>
<polygon fill="none" stroke="#000000" points="417,-1082.5 417,-1112.5 626,-1112.5 626,-1082.5 417,-1082.5"/>
<text text-anchor="start" x="424" y="-1093.9" font-family="Arial" font-size="14.00" fill="#000000">sport    </text>
<text text-anchor="start" x="489.3212" y="-1093.9" font-family="Arial" font-size="14.00" fill="#666666">[int]</text>
<polygon fill="none" stroke="#000000" points="417,-1052.5 417,-1082.5 626,-1082.5 626,-1052.5 417,-1052.5"/>
<text text-anchor="start" x="424" y="-1063.9" font-family="Arial" font-size="14.00" fill="#000000">started_at    </text>
<text text-anchor="start" x="520.4502" y="-1063.9" font-family="Arial" font-size="14.00" fill="#666666">[datetime(6)]</text>
<polygon fill="none" stroke="#000000" points="417,-1022.5 417,-1052.5 626,-1052.5 626,-1022.5 417,-1022.5"/>
<text text-anchor="start" x="424" y="-1033.9" font-family="Arial" font-size="14.00" fill="#000000">left_team    </text>
<text text-anchor="start" x="515.7742" y="-1033.9" font-family="Arial" font-size="14.00" fill="#666666">[int]</text>
<polygon fill="none" stroke="#000000" points="417,-992.5 417,-1022.5 626,-1022.5 626,-992.5 417,-992.5"/>
<text text-anchor="start" x="424" y="-1003.9" font-family="Arial" font-size="14.00" fill="#000000">right_team    </text>
<text text-anchor="start" x="524.3268" y="-1003.9" font-family="Arial" font-size="14.00" fill="#666666">[int]</text>
<polygon fill="none" stroke="#000000" points="417,-962.5 417,-992.5 626,-992.5 626,-962.5 417,-962.5"/>
<text text-anchor="start" x="424" y="-973.9" font-family="Arial" font-size="14.00" fill="#000000">left_score    </text>
<text text-anchor="start" x="518.8836" y="-973.9" font-family="Arial" font-size="14.00" fill="#666666">[int]</text>
<polygon fill="none" stroke="#000000" points="417,-932.5 417,-962.5 626,-962.5 626,-932.5 417,-932.5"/>
<text text-anchor="start" x="424" y="-943.9" font-family="Arial" font-size="14.00" fill="#000000">right_score    </text>
<text text-anchor="start" x="527.4362" y="-943.9" font-family="Arial" font-size="14.00" fill="#666666">[int]</text>
<polygon fill="none" stroke="#000000" points="417,-902.5 417,-932.5 626,-932.5 626,-902.5 417,-902.5"/>
<text text-anchor="start" x="424" y="-913.9" font-family="Arial" font-size="14.00" fill="#000000">result    </text>
<text text-anchor="start" x="492.4278" y="-913.9" font-family="Arial" font-size="14.00" fill="#666666">[varchar(32)]</text>
<polygon fill="none" stroke="#000000" points="417,-872.5 417,-902.5 626,-902.5 626,-872.5 417,-872.5"/>
<text text-anchor="start" x="424" y="-883.9" font-family="Arial" font-size="14.00" fill="#000000">status    </text>
<text text-anchor="start" x="495.5512" y="-883.9" font-family="Arial" font-size="14.00" fill="#666666">[varchar(32)]</text>
<polygon fill="none" stroke="#000000" points="417,-842.5 417,-872.5 626,-872.5 626,-842.5 417,-842.5"/>
<text text-anchor="start" x="424" y="-853.9" font-family="Arial" font-size="14.00" fill="#000000">note    </text>
<text text-anchor="start" x="485.4432" y="-853.9" font-family="Arial" font-size="14.00" fill="#666666">[text]</text>
<polygon fill="none" stroke="#000000" points="417,-812.5 417,-842.5 626,-842.5 626,-812.5 417,-812.5"/>
<text text-anchor="start" x="424" y="-823.9" font-family="Arial" font-size="14.00" fill="#000000">judge    </text>
<text text-anchor="start" x="492.4418" y="-823.9" font-family="Arial" font-size="14.00" fill="#666666">[varchar(64)]</text>
<polygon fill="none" stroke="#000000" points="417,-782.5 417,-812.5 626,-812.5 626,-782.5 417,-782.5"/>
<text text-anchor="start" x="424" y="-793.9" font-family="Arial" font-size="14.00" fill="#000000">created_at    </text>
<text text-anchor="start" x="524.3422" y="-793.9" font-family="Arial" font-size="14.00" fill="#666666">[datetime(6)]</text>
<polygon fill="none" stroke="#000000" points="417,-752.5 417,-782.5 626,-782.5 626,-752.5 417,-752.5"/>
<text text-anchor="start" x="424" y="-763.9" font-family="Arial" font-size="14.00" fill="#000000">updated_at    </text>
<text text-anchor="start" x="528.2468" y="-763.9" font-family="Arial" font-size="14.00" fill="#666666">[datetime(6)]</text>
</g>
<!-- matches&#45;&gt;sports -->
<g id="edge2" class="edge">
<title>matches:sport&#45;&gt;sports:id</title>
<path fill="none" stroke="#000000" d="M407.0885,-1095.9796C335.0909,-1072.5701 383.8797,-785.6463 417,-710 426.461,-688.3913 446.539,-695.6087 456,-674 473.2016,-634.7118 498.8889,-577.5 456,-577.5"/>
<polygon fill="#000000" stroke="#000000" points="407.1156,-1095.9837 416.3177,-1101.948 412.0578,-1096.7418 417,-1097.5 417,-1097.5 417,-1097.5 412.0578,-1096.7418 417.6823,-1093.052 407.1156,-1095.9837 407.1156,-1095.9837"/>
<text text-anchor="start" x="365.8345" y="-1081.5" font-family="Arial" font-size="10.00" fill="#000000">FOREIGN KEY (sport) REFERENCES sports (id)</text>
</g>
</g>
</svg>
