<?xml version="1.0" encoding="UTF-8" standalone="no"?>
<!DOCTYPE svg PUBLIC "-//W3C//DTD SVG 1.1//EN"
 "http://www.w3.org/Graphics/SVG/1.1/DTD/svg11.dtd">
<!-- Generated by graphviz version 2.40.1 (20161225.0304)
 -->
<!-- Title: sports Pages: 1 -->
<svg width="963pt" height="1319pt"
 viewBox="0.00 0.00 963.00 1319.00" xmlns="http://www.w3.org/2000/svg" xmlns:xlink="http://www.w3.org/1999/xlink">
<g id="graph0" class="graph" transform="scale(1 1) rotate(0) translate(4 1315)">
<title>sports</title>
<polygon fill="#ffffff" stroke="transparent" points="-4,4 -4,-1315 959,-1315 959,4 -4,4"/>
<!-- sports -->
<g id="node1" class="node">
<title>sports</title>
<polygon fill="#efefef" stroke="transparent" points="384.5,-622.5 384.5,-657.5 574.5,-657.5 574.5,-622.5 384.5,-622.5"/>
<polygon fill="none" stroke="#000000" points="384.5,-622.5 384.5,-657.5 574.5,-657.5 574.5,-622.5 384.5,-622.5"/>
<text text-anchor="start" x="391.2126" y="-635.3" font-family="Arial Bold" font-size="18.00" fill="#000000">sports</text>
<text text-anchor="start" x="440.2194" y="-635.3" font-family="Arial" font-size="14.00" fill="#000000">    </text>
<text text-anchor="start" x="474.4242" y="-635.3" font-family="Arial" font-size="14.00" fill="#666666">[BASE TABLE]</text>
<polygon fill="none" stroke="#000000" points="384.5,-592.5 384.5,-622.5 574.5,-622.5 574.5,-592.5 384.5,-592.5"/>
<text text-anchor="start" x="391.5" y="-603.9" font-family="Arial" font-size="14.00" fill="#000000">id </text>
<text text-anchor="start" x="406.2798" y="-603.9" font-family="Arial" font-size="14.00" fill="#666666">[int]</text>
<polygon fill="none" stroke="#000000" points="384.5,-562.5 384.5,-592.5 574.5,-592.5 574.5,-562.5 384.5,-562.5"/>
<text text-anchor="start" x="391.5" y="-573.9" font-family="Arial" font-size="14.00" fill="#000000">name </text>
<text text-anchor="start" x="430.399" y="-573.9" font-family="Arial" font-size="14.00" fill="#666666">[varchar(64)]</text>
<polygon fill="none" stroke="#000000" points="384.5,-532.5 384.5,-562.5 574.5,-562.5 574.5,-532.5 384.5,-532.5"/>
<text text-anchor="start" x="391.5" y="-543.9" font-family="Arial" font-size="14.00" fill="#000000">description </text>
<text text-anchor="start" x="463.068" y="-543.9" font-family="Arial" font-size="14.00" fill="#666666">[text]</text>
<polygon fill="none" stroke="#000000" points="384.5,-502.5 384.5,-532.5 574.5,-532.5 574.5,-502.5 384.5,-502.5"/>
<text text-anchor="start" x="391.5" y="-513.9" font-family="Arial" font-size="14.00" fill="#000000">icon_image </text>
<text text-anchor="start" x="466.96" y="-513.9" font-family="Arial" font-size="14.00" fill="#666666">[int]</text>
<polygon fill="none" stroke="#000000" points="384.5,-472.5 384.5,-502.5 574.5,-502.5 574.5,-472.5 384.5,-472.5"/>
<text text-anchor="start" x="391.5" y="-483.9" font-family="Arial" font-size="14.00" fill="#000000">weight </text>
<text text-anchor="start" x="435.8422" y="-483.9" font-family="Arial" font-size="14.00" fill="#666666">[int]</text>
<polygon fill="none" stroke="#000000" points="384.5,-442.5 384.5,-472.5 574.5,-472.5 574.5,-442.5 384.5,-442.5"/>
<text text-anchor="start" x="391.5" y="-453.9" font-family="Arial" font-size="14.00" fill="#000000">rule_id </text>
<text text-anchor="start" x="437.3948" y="-453.9" font-family="Arial" font-size="14.00" fill="#666666">[int]</text>
<polygon fill="none" stroke="#000000" points="384.5,-412.5 384.5,-442.5 574.5,-442.5 574.5,-412.5 384.5,-412.5"/>
<text text-anchor="start" x="391.5" y="-423.9" font-family="Arial" font-size="14.00" fill="#000000">tag </text>
<text text-anchor="start" x="414.8464" y="-423.9" font-family="Arial" font-size="14.00" fill="#666666">[int]</text>
<polygon fill="none" stroke="#000000" points="384.5,-382.5 384.5,-412.5 574.5,-412.5 574.5,-382.5 384.5,-382.5"/>
<text text-anchor="start" x="391.5" y="-393.9" font-family="Arial" font-size="14.00" fill="#000000">created_at </text>
<text text-anchor="start" x="461.528" y="-393.9" font-family="Arial" font-size="14.00" fill="#666666">[datetime(6)]</text>
<polygon fill="none" stroke="#000000" points="384.5,-352.5 384.5,-382.5 574.5,-382.5 574.5,-352.5 384.5,-352.5"/>
<text text-anchor="start" x="391.5" y="-363.9" font-family="Arial" font-size="14.00" fill="#000000">updated_at </text>
<text text-anchor="start" x="465.4326" y="-363.9" font-family="Arial" font-size="14.00" fill="#666666">[datetime(6)]</text>
<polygon fill="none" stroke="#000000" stroke-width="3" points="383,-351.5 383,-659.5 576,-659.5 576,-351.5 383,-351.5"/>
</g>
<!-- images -->
<g id="node5" class="node">
<title>images</title>
<polygon fill="#efefef" stroke="transparent" points="229.5,-162.5 229.5,-197.5 428.5,-197.5 428.5,-162.5 229.5,-162.5"/>
<polygon fill="none" stroke="#000000" points="229.5,-162.5 229.5,-197.5 428.5,-197.5 428.5,-162.5 229.5,-162.5"/>
<text text-anchor="start" x="236.2135" y="-175.3" font-family="Arial Bold" font-size="18.00" fill="#000000">images</text>
<text text-anchor="start" x="294.2185" y="-175.3" font-family="Arial" font-size="14.00" fill="#000000">    </text>
<text text-anchor="start" x="328.4233" y="-175.3" font-family="Arial" font-size="14.00" fill="#666666">[BASE TABLE]</text>
<polygon fill="none" stroke="#000000" points="229.5,-132.5 229.5,-162.5 428.5,-162.5 428.5,-132.5 229.5,-132.5"/>
<text text-anchor="start" x="236.5" y="-143.9" font-family="Arial" font-size="14.00" fill="#000000">id    </text>
<text text-anchor="start" x="281.594" y="-143.9" font-family="Arial" font-size="14.00" fill="#666666">[int]</text>
<polygon fill="none" stroke="#000000" points="229.5,-102.5 229.5,-132.5 428.5,-132.5 428.5,-102.5 229.5,-102.5"/>
<text text-anchor="start" x="236.5" y="-113.9" font-family="Arial" font-size="14.00" fill="#000000">data    </text>
<text text-anchor="start" x="297.9432" y="-113.9" font-family="Arial" font-size="14.00" fill="#666666">[text]</text>
<polygon fill="none" stroke="#000000" points="229.5,-72.5 229.5,-102.5 428.5,-102.5 428.5,-72.5 229.5,-72.5"/>
<text text-anchor="start" x="236.5" y="-83.9" font-family="Arial" font-size="14.00" fill="#000000">created_at    </text>
<text text-anchor="start" x="336.8422" y="-83.9" font-family="Arial" font-size="14.00" fill="#666666">[datetime(6)]</text>
</g>
<!-- sports&#45;&gt;images -->
<g id="edge4" class="edge">
<title>sports:icon_image&#45;&gt;images:id</title>
<path fill="none" stroke="#000000" d="M374.257,-516.9554C296.0754,-508.098 358.4481,-393.0436 384.5,-307 394.7161,-273.2584 418.2839,-274.7416 428.5,-241 440.5421,-201.2275 470.0556,-147.5 428.5,-147.5"/>
<polygon fill="#000000" stroke="#000000" points="374.5141,-516.969 384.261,-521.9937 379.5071,-517.2345 384.5,-517.5 384.5,-517.5 384.5,-517.5 379.5071,-517.2345 384.739,-513.0063 374.5141,-516.969 374.5141,-516.969"/>
<text text-anchor="start" x="125.3875" y="-527.5" font-family="Arial" font-size="10.00" fill="#000000">FOREIGN KEY (icon_image) REFERENCES images (id)</text>
</g>
<!-- tags -->
<g id="node6" class="node">
<title>tags</title>
<polygon fill="#efefef" stroke="transparent" points="532.5,-192.5 532.5,-227.5 728.5,-227.5 728.5,-192.5 532.5,-192.5"/>
<polygon fill="none" stroke="#000000" points="532.5,-192.5 532.5,-227.5 728.5,-227.5 728.5,-192.5 532.5,-192.5"/>
<text text-anchor="start" x="549.7087" y="-205.3" font-family="Arial Bold" font-size="18.00" fill="#000000">tags</text>
<text text-anchor="start" x="583.7233" y="-205.3" font-family="Arial" font-size="14.00" fill="#000000">    </text>
<text text-anchor="start" x="617.9281" y="-205.3" font-family="Arial" font-size="14.00" fill="#666666">[BASE TABLE]</text>
<polygon fill="none" stroke="#000000" points="532.5,-162.5 532.5,-192.5 728.5,-192.5 728.5,-162.5 532.5,-162.5"/>
<text text-anchor="start" x="539.5" y="-173.9" font-family="Arial" font-size="14.00" fill="#000000">id    </text>
<text text-anchor="start" x="584.594" y="-173.9" font-family="Arial" font-size="14.00" fill="#666666">[int]</text>
<polygon fill="none" stroke="#000000" points="532.5,-132.5 532.5,-162.5 728.5,-162.5 728.5,-132.5 532.5,-132.5"/>
<text text-anchor="start" x="539.5" y="-143.9" font-family="Arial" font-size="14.00" fill="#000000">name    </text>
<text text-anchor="start" x="608.7132" y="-143.9" font-family="Arial" font-size="14.00" fill="#666666">[varchar(64)]</text>
<polygon fill="none" stroke="#000000" points="532.5,-102.5 532.5,-132.5 728.5,-132.5 728.5,-102.5 532.5,-102.5"/>
<text text-anchor="start" x="539.5" y="-113.9" font-family="Arial" font-size="14.00" fill="#000000">enabled    </text>
<text text-anchor="start" x="623.507" y="-113.9" font-family="Arial" font-size="14.00" fill="#666666">[tinyint(1)]</text>
<polygon fill="none" stroke="#000000" points="532.5,-72.5 532.5,-102.5 728.5,-102.5 728.5,-72.5 532.5,-72.5"/>
<text text-anchor="start" x="539.5" y="-83.9" font-family="Arial" font-size="14.00" fill="#000000">created_at    </text>
<text text-anchor="start" x="639.8422" y="-83.9" font-family="Arial" font-size="14.00" fill="#666666">[datetime(6)]</text>
<polygon fill="none" stroke="#000000" points="532.5,-42.5 532.5,-72.5 728.5,-72.5 728.5,-42.5 532.5,-42.5"/>
<text text-anchor="start" x="539.0947" y="-53.9" font-family="Arial" font-size="14.00" fill="#000000">updated_at    </text>
<text text-anchor="start" x="643.3415" y="-53.9" font-family="Arial" font-size="14.00" fill="#666666">[datetime(6)]</text>
</g>
<!-- sports&#45;&gt;tags -->
<g id="edge5" class="edge">
<title>sports:tag&#45;&gt;tags:id</title>
<path fill="none" stroke="#000000" d="M584.7139,-427.3738C778.9016,-422.4183 533.4902,-273.1528 532.5,-271 515.1357,-233.2462 490.9444,-177.5 532.5,-177.5"/>
<polygon fill="#000000" stroke="#000000" points="584.4992,-427.3764 574.4444,-423.0003 579.4996,-427.4382 574.5,-427.5 574.5,-427.5 574.5,-427.5 579.4996,-427.4382 574.5556,-431.9997 584.4992,-427.3764 584.4992,-427.3764"/>
<text text-anchor="start" x="581.6635" y="-437.5" font-family="Arial" font-size="10.00" fill="#000000">FOREIGN KEY (tag) REFERENCES tags (id)</text>
</g>
<!-- games -->
<g id="node2" class="node">
<title>games</title>
<polygon fill="#efefef" stroke="transparent" points="43.5,-1157.5 43.5,-1192.5 270.5,-1192.5 270.5,-1157.5 43.5,-1157.5"/>
<polygon fill="none" stroke="#000000" points="43.5,-1157.5 43.5,-1192.5 270.5,-1192.5 270.5,-1157.5 43.5,-1157.5"/>
<text text-anchor="start" x="66.2106" y="-1170.3" font-family="Arial Bold" font-size="18.00" fill="#000000">games</text>
<text text-anchor="start" x="120.2214" y="-1170.3" font-family="Arial" font-size="14.00" fill="#000000">    </text>
<text text-anchor="start" x="154.4262" y="-1170.3" font-family="Arial" font-size="14.00" fill="#666666">[BASE TABLE]</text>
<polygon fill="none" stroke="#000000" points="43.5,-1127.5 43.5,-1157.5 270.5,-1157.5 270.5,-1127.5 43.5,-1127.5"/>
<text text-anchor="start" x="50.5" y="-1138.9" font-family="Arial" font-size="14.00" fill="#000000">id    </text>
<text text-anchor="start" x="95.594" y="-1138.9" font-family="Arial" font-size="14.00" fill="#666666">[int]</text>
<polygon fill="none" stroke="#000000" points="43.5,-1097.5 43.5,-1127.5 270.5,-1127.5 270.5,-1097.5 43.5,-1097.5"/>
<text text-anchor="start" x="50.5" y="-1108.9" font-family="Arial" font-size="14.00" fill="#000000">name    </text>
<text text-anchor="start" x="119.7132" y="-1108.9" font-family="Arial" font-size="14.00" fill="#666666">[varchar(64)]</text>
<polygon fill="none" stroke="#000000" points="43.5,-1067.5 43.5,-1097.5 270.5,-1097.5 270.5,-1067.5 43.5,-1067.5"/>
<text text-anchor="start" x="50.5" y="-1078.9" font-family="Arial" font-size="14.00" fill="#000000">description    </text>
<text text-anchor="start" x="152.3822" y="-1078.9" font-family="Arial" font-size="14.00" fill="#666666">[varchar(512)]</text>
<polygon fill="none" stroke="#000000" points="43.5,-1037.5 43.5,-1067.5 270.5,-1067.5 270.5,-1037.5 43.5,-1037.5"/>
<text text-anchor="start" x="50.5" y="-1048.9" font-family="Arial" font-size="14.00" fill="#000000">sport    </text>
<text text-anchor="start" x="115.8212" y="-1048.9" font-family="Arial" font-size="14.00" fill="#666666">[int]</text>
<polygon fill="none" stroke="#000000" points="43.5,-1007.5 43.5,-1037.5 270.5,-1037.5 270.5,-1007.5 43.5,-1007.5"/>
<text text-anchor="start" x="50.5" y="-1018.9" font-family="Arial" font-size="14.00" fill="#000000">type    </text>
<text text-anchor="start" x="111.1606" y="-1018.9" font-family="Arial" font-size="14.00" fill="#666666">[varchar(32)]</text>
<polygon fill="none" stroke="#000000" points="43.5,-977.5 43.5,-1007.5 270.5,-1007.5 270.5,-977.5 43.5,-977.5"/>
<text text-anchor="start" x="50.0484" y="-988.9" font-family="Arial" font-size="14.00" fill="#000000">calculation_type    </text>
<text text-anchor="start" x="184.615" y="-988.9" font-family="Arial" font-size="14.00" fill="#666666">[varchar(32)]</text>
<polygon fill="none" stroke="#000000" points="43.5,-947.5 43.5,-977.5 270.5,-977.5 270.5,-947.5 43.5,-947.5"/>
<text text-anchor="start" x="50.5" y="-958.9" font-family="Arial" font-size="14.00" fill="#000000">weight    </text>
<text text-anchor="start" x="125.1564" y="-958.9" font-family="Arial" font-size="14.00" fill="#666666">[int]</text>
<polygon fill="none" stroke="#000000" points="43.5,-917.5 43.5,-947.5 270.5,-947.5 270.5,-917.5 43.5,-917.5"/>
<text text-anchor="start" x="50.5" y="-928.9" font-family="Arial" font-size="14.00" fill="#000000">tag    </text>
<text text-anchor="start" x="104.1606" y="-928.9" font-family="Arial" font-size="14.00" fill="#666666">[int]</text>
<polygon fill="none" stroke="#000000" points="43.5,-887.5 43.5,-917.5 270.5,-917.5 270.5,-887.5 43.5,-887.5"/>
<text text-anchor="start" x="50.5" y="-898.9" font-family="Arial" font-size="14.00" fill="#000000">created_at    </text>
<text text-anchor="start" x="150.8422" y="-898.9" font-family="Arial" font-size="14.00" fill="#666666">[datetime(6)]</text>
<polygon fill="none" stroke="#000000" points="43.5,-857.5 43.5,-887.5 270.5,-887.5 270.5,-857.5 43.5,-857.5"/>
<text text-anchor="start" x="50.5" y="-868.9" font-family="Arial" font-size="14.00" fill="#000000">updated_at    </text>
<text text-anchor="start" x="154.7468" y="-868.9" font-family="Arial" font-size="14.00" fill="#666666">[datetime(6)]</text>
</g>
<!-- games&#45;&gt;sports -->
<g id="edge1" class="edge">
<title>games:sport&#45;&gt;sports:id</title>
<path fill="none" stroke="#000000" d="M280.3855,-1050.6575C336.9237,-1028.0423 301.5834,-803.7514 321.5,-740 340.9444,-677.76 319.2934,-607.5 384.5,-607.5"/>
<polygon fill="#000000" stroke="#000000" points="280.3307,-1050.6676 269.6754,-1048.0762 275.4153,-1051.5838 270.5,-1052.5 270.5,-1052.5 270.5,-1052.5 275.4153,-1051.5838 271.3246,-1056.9238 280.3307,-1050.6676 280.3307,-1050.6676"/>
<text text-anchor="start" x="277.3345" y="-1062.5" font-family="Arial" font-size="10.00" fill="#000000">FOREIGN KEY (sport) REFERENCES sports (id)</text>
</g>
<!-- matches -->
<g id="node3" class="node">
<title>matches</title>
<polygon fill="#efefef" stroke="transparent" points="374.5,-1232.5 374.5,-1267.5 583.5,-1267.5 583.5,-1232.5 374.5,-1232.5"/>
<polygon fill="none" stroke="#000000" points="374.5,-1232.5 374.5,-1267.5 583.5,-1267.5 583.5,-1232.5 374.5,-1232.5"/>
<text text-anchor="start" x="381.2095" y="-1245.3" font-family="Arial Bold" font-size="18.00" fill="#000000">matches</text>
<text text-anchor="start" x="449.2225" y="-1245.3" font-family="Arial" font-size="14.00" fill="#000000">    </text>
<text text-anchor="start" x="483.4273" y="-1245.3" font-family="Arial" font-size="14.00" fill="#666666">[BASE TABLE]</text>
<polygon fill="none" stroke="#000000" points="374.5,-1202.5 374.5,-1232.5 583.5,-1232.5 583.5,-1202.5 374.5,-1202.5"/>
<text text-anchor="start" x="381.5" y="-1213.9" font-family="Arial" font-size="14.00" fill="#000000">id    </text>
<text text-anchor="start" x="426.594" y="-1213.9" font-family="Arial" font-size="14.00" fill="#666666">[int]</text>
<polygon fill="none" stroke="#000000" points="374.5,-1172.5 374.5,-1202.5 583.5,-1202.5 583.5,-1172.5 374.5,-1172.5"/>
<text text-anchor="start" x="381.5" y="-1183.9" font-family="Arial" font-size="14.00" fill="#000000">location    </text>
<text text-anchor="start" x="463.939" y="-1183.9" font-family="Arial" font-size="14.00" fill="#666666">[int]</text>
<polygon fill="none" stroke="#000000" points="374.5,-1142.5 374.5,-1172.5 583.5,-1172.5 583.5,-1142.5 374.5,-1142.5"/>
<text text-anchor="start" x="381.5" y="-1153.9" font-family="Arial" font-size="14.00" fill="#000000">game    </text>
<text text-anchor="start" x="450.7132" y="-1153.9" font-family="Arial" font-size="14.00" fill="#666666">[int]</text>
<polygon fill="none" stroke="#000000" points="374.5,-1112.5 374.5,-1142.5 583.5,-1142.5 583.5,-1112.5 374.5,-1112.5"/>
<text text-anchor="start" x="381.5" y="-1123.9" font-family="Arial" font-size="14.00" fill="#000000">sport    </text>
<text text-anchor="start" x="446.8212" y="-1123.9" font-family="Arial" font-size="14.00" fill="#666666">[int]</text>
<polygon fill="none" stroke="#000000" points="374.5,-1082.5 374.5,-1112.5 583.5,-1112.5 583.5,-1082.5 374.5,-1082.5"/>
<text text-anchor="start" x="381.5" y="-1093.9" font-family="Arial" font-size="14.00" fill="#000000">started_at    </text>
<text text-anchor="start" x="477.9502" y="-1093.9" font-family="Arial" font-size="14.00" fill="#666666">[datetime(6)]</text>
<polygon fill="none" stroke="#000000" points="374.5,-1052.5 374.5,-1082.5 583.5,-1082.5 583.5,-1052.5 374.5,-1052.5"/>
<text text-anchor="start" x="381.5" y="-1063.9" font-family="Arial" font-size="14.00" fill="#000000">left_team    </text>
<text text-anchor="start" x="473.2742" y="-1063.9" font-family="Arial" font-size="14.00" fill="#666666">[int]</text>
<polygon fill="none" stroke="#000000" points="374.5,-1022.5 374.5,-1052.5 583.5,-1052.5 583.5,-1022.5 374.5,-1022.5"/>
<text text-anchor="start" x="381.5" y="-1033.9" font-family="Arial" font-size="14.00" fill="#000000">right_team    </text>
<text text-anchor="start" x="481.8268" y="-1033.9" font-family="Arial" font-size="14.00" fill="#666666">[int]</text>
<polygon fill="none" stroke="#000000" points="374.5,-992.5 374.5,-1022.5 583.5,-1022.5 583.5,-992.5 374.5,-992.5"/>
<text text-anchor="start" x="381.5" y="-1003.9" font-family="Arial" font-size="14.00" fill="#000000">left_score    </text>
<text text-anchor="start" x="476.3836" y="-1003.9" font-family="Arial" font-size="14.00" fill="#666666">[int]</text>
<polygon fill="none" stroke="#000000" points="374.5,-962.5 374.5,-992.5 583.5,-992.5 583.5,-962.5 374.5,-962.5"/>
<text text-anchor="start" x="381.5" y="-973.9" font-family="Arial" font-size="14.00" fill="#000000">right_score    </text>
<text text-anchor="start" x="484.9362" y="-973.9" font-family="Arial" font-size="14.00" fill="#666666">[int]</text>
<polygon fill="none" stroke="#000000" points="374.5,-932.5 374.5,-962.5 583.5,-962.5 583.5,-932.5 374.5,-932.5"/>
<text text-anchor="start" x="381.5" y="-943.9" font-family="Arial" font-size="14.00" fill="#000000">result    </text>
<text text-anchor="start" x="449.9278" y="-943.9" font-family="Arial" font-size="14.00" fill="#666666">[varchar(32)]</text>
<polygon fill="none" stroke="#000000" points="374.5,-902.5 374.5,-932.5 583.5,-932.5 583.5,-902.5 374.5,-902.5"/>
<text text-anchor="start" x="381.5" y="-913.9" font-family="Arial" font-size="14.00" fill="#000000">status    </text>
<text text-anchor="start" x="453.0512" y="-913.9" font-family="Arial" font-size="14.00" fill="#666666">[varchar(32)]</text>
<polygon fill="none" stroke="#000000" points="374.5,-872.5 374.5,-902.5 583.5,-902.5 583.5,-872.5 374.5,-872.5"/>
<text text-anchor="start" x="381.5" y="-883.9" font-family="Arial" font-size="14.00" fill="#000000">note    </text>
<text text-anchor="start" x="442.9432" y="-883.9" font-family="Arial" font-size="14.00" fill="#666666">[text]</text>
<polygon fill="none" stroke="#000000" points="374.5,-842.5 374.5,-872.5 583.5,-872.5 583.5,-842.5 374.5,-842.5"/>
<text text-anchor="start" x="381.5" y="-853.9" font-family="Arial" font-size="14.00" fill="#000000">judge_team_id    </text>
<text text-anchor="start" x="507.5126" y="-853.9" font-family="Arial" font-size="14.00" fill="#666666">[int]</text>
<polygon fill="none" stroke="#000000" points="374.5,-812.5 374.5,-842.5 583.5,-842.5 583.5,-812.5 374.5,-812.5"/>
<text text-anchor="start" x="381.5" y="-823.9" font-family="Arial" font-size="14.00" fill="#000000">created_at    </text>
<text text-anchor="start" x="481.8422" y="-823.9" font-family="Arial" font-size="14.00" fill="#666666">[datetime(6)]</text>
<polygon fill="none" stroke="#000000" points="374.5,-782.5 374.5,-812.5 583.5,-812.5 583.5,-782.5 374.5,-782.5"/>
<text text-anchor="start" x="381.5" y="-793.9" font-family="Arial" font-size="14.00" fill="#000000">updated_at    </text>
<text text-anchor="start" x="485.7468" y="-793.9" font-family="Arial" font-size="14.00" fill="#666666">[datetime(6)]</text>
</g>
<!-- matches&#45;&gt;sports -->
<g id="edge2" class="edge">
<title>matches:sport&#45;&gt;sports:id</title>
<path fill="none" stroke="#000000" d="M592.1387,-1121.9188C624.1948,-1076.6559 609.0537,-770.5913 583.5,-740 525.8791,-671.0199 442.1209,-772.9801 384.5,-704 357.0045,-671.0841 341.6111,-607.5 384.5,-607.5"/>
<polygon fill="#000000" stroke="#000000" points="591.8995,-1122.0733 581.058,-1123.7202 587.6998,-1124.7867 583.5,-1127.5 583.5,-1127.5 583.5,-1127.5 587.6998,-1124.7867 585.942,-1131.2798 591.8995,-1122.0733 591.8995,-1122.0733"/>
<text text-anchor="start" x="474.3345" y="-1111.5" font-family="Arial" font-size="10.00" fill="#000000">FOREIGN KEY (sport) REFERENCES sports (id)</text>
</g>
<!-- team_tags -->
<g id="node4" class="node">
<title>team_tags</title>
<polygon fill="#efefef" stroke="transparent" points="687.5,-1082.5 687.5,-1117.5 912.5,-1117.5 912.5,-1082.5 687.5,-1082.5"/>
<polygon fill="none" stroke="#000000" points="687.5,-1082.5 687.5,-1117.5 912.5,-1117.5 912.5,-1082.5 687.5,-1082.5"/>
<text text-anchor="start" x="694.2022" y="-1095.3" font-family="Arial Bold" font-size="18.00" fill="#000000">team_tags</text>
<text text-anchor="start" x="778.2298" y="-1095.3" font-family="Arial" font-size="14.00" fill="#000000">    </text>
<text text-anchor="start" x="812.4346" y="-1095.3" font-family="Arial" font-size="14.00" fill="#666666">[BASE TABLE]</text>
<polygon fill="none" stroke="#000000" points="687.5,-1052.5 687.5,-1082.5 912.5,-1082.5 912.5,-1052.5 687.5,-1052.5"/>
<text text-anchor="start" x="694.5" y="-1063.9" font-family="Arial" font-size="14.00" fill="#000000">id    </text>
<text text-anchor="start" x="739.594" y="-1063.9" font-family="Arial" font-size="14.00" fill="#666666">[int]</text>
<polygon fill="none" stroke="#000000" points="687.5,-1022.5 687.5,-1052.5 912.5,-1052.5 912.5,-1022.5 687.5,-1022.5"/>
<text text-anchor="start" x="694.5" y="-1033.9" font-family="Arial" font-size="14.00" fill="#000000">name    </text>
<text text-anchor="start" x="763.7132" y="-1033.9" font-family="Arial" font-size="14.00" fill="#666666">[varchar(64)]</text>
<polygon fill="none" stroke="#000000" points="687.5,-992.5 687.5,-1022.5 912.5,-1022.5 912.5,-992.5 687.5,-992.5"/>
<text text-anchor="start" x="694.5" y="-1003.9" font-family="Arial" font-size="14.00" fill="#000000">sport    </text>
<text text-anchor="start" x="759.8212" y="-1003.9" font-family="Arial" font-size="14.00" fill="#666666">[int]</text>
<polygon fill="none" stroke="#000000" points="687.5,-962.5 687.5,-992.5 912.5,-992.5 912.5,-962.5 687.5,-962.5"/>
<text text-anchor="start" x="694.5" y="-973.9" font-family="Arial" font-size="14.00" fill="#000000">created_at    </text>
<text text-anchor="start" x="794.8422" y="-973.9" font-family="Arial" font-size="14.00" fill="#666666">[datetime(6)]</text>
<polygon fill="none" stroke="#000000" points="687.5,-932.5 687.5,-962.5 912.5,-962.5 912.5,-932.5 687.5,-932.5"/>
<text text-anchor="start" x="694.5" y="-943.9" font-family="Arial" font-size="14.00" fill="#000000">updated_at    </text>
<text text-anchor="start" x="798.7468" y="-943.9" font-family="Arial" font-size="14.00" fill="#666666">[datetime(6)]</text>
</g>
<!-- team_tags&#45;&gt;sports -->
<g id="edge3" class="edge">
<title>team_tags:sport&#45;&gt;sports:id</title>
<path fill="none" stroke="#000000" d="M677.4351,-1005.2724C630.0606,-982.6451 652.9484,-794.1489 635.5,-740 615.6167,-678.2945 639.3299,-607.5 574.5,-607.5"/>
<polygon fill="#000000" stroke="#000000" points="677.7363,-1005.3389 686.5275,-1011.8937 682.6181,-1006.4195 687.5,-1007.5 687.5,-1007.5 687.5,-1007.5 682.6181,-1006.4195 688.4725,-1003.1063 677.7363,-1005.3389 677.7363,-1005.3389"/>
<text text-anchor="start" x="462.3345" y="-1017.5" font-family="Arial" font-size="10.00" fill="#000000">FOREIGN KEY (sport) REFERENCES sports (id)</text>
</g>
</g>
</svg>
