<?xml version="1.0" encoding="UTF-8" standalone="no"?>
<!DOCTYPE svg PUBLIC "-//W3C//DTD SVG 1.1//EN"
 "http://www.w3.org/Graphics/SVG/1.1/DTD/svg11.dtd">
<!-- Generated by graphviz version 2.40.1 (20161225.0304)
 -->
<!-- Title: tags Pages: 1 -->
<svg width="622pt" height="742pt"
 viewBox="0.00 0.00 621.50 742.00" xmlns="http://www.w3.org/2000/svg" xmlns:xlink="http://www.w3.org/1999/xlink">
<g id="graph0" class="graph" transform="scale(1 1) rotate(0) translate(4 738)">
<title>tags</title>
<polygon fill="#ffffff" stroke="transparent" points="-4,4 -4,-738 617.5,-738 617.5,4 -4,4"/>
<!-- tags -->
<g id="node1" class="node">
<title>tags</title>
<polygon fill="#efefef" stroke="transparent" points="226.5,-195.5 226.5,-230.5 401.5,-230.5 401.5,-195.5 226.5,-195.5"/>
<polygon fill="none" stroke="#000000" points="226.5,-195.5 226.5,-230.5 401.5,-230.5 401.5,-195.5 226.5,-195.5"/>
<text text-anchor="start" x="233.2087" y="-208.3" font-family="Arial Bold" font-size="18.00" fill="#000000">tags</text>
<text text-anchor="start" x="267.2233" y="-208.3" font-family="Arial" font-size="14.00" fill="#000000">    </text>
<text text-anchor="start" x="301.4281" y="-208.3" font-family="Arial" font-size="14.00" fill="#666666">[BASE TABLE]</text>
<polygon fill="none" stroke="#000000" points="226.5,-165.5 226.5,-195.5 401.5,-195.5 401.5,-165.5 226.5,-165.5"/>
<text text-anchor="start" x="233.5" y="-176.9" font-family="Arial" font-size="14.00" fill="#000000">id </text>
<text text-anchor="start" x="248.2798" y="-176.9" font-family="Arial" font-size="14.00" fill="#666666">[int]</text>
<polygon fill="none" stroke="#000000" points="226.5,-135.5 226.5,-165.5 401.5,-165.5 401.5,-135.5 226.5,-135.5"/>
<text text-anchor="start" x="233.5" y="-146.9" font-family="Arial" font-size="14.00" fill="#000000">name </text>
<text text-anchor="start" x="272.399" y="-146.9" font-family="Arial" font-size="14.00" fill="#666666">[varchar(64)]</text>
<polygon fill="none" stroke="#000000" points="226.5,-105.5 226.5,-135.5 401.5,-135.5 401.5,-105.5 226.5,-105.5"/>
<text text-anchor="start" x="233.5" y="-116.9" font-family="Arial" font-size="14.00" fill="#000000">enabled </text>
<text text-anchor="start" x="287.1928" y="-116.9" font-family="Arial" font-size="14.00" fill="#666666">[tinyint(1)]</text>
<polygon fill="none" stroke="#000000" points="226.5,-75.5 226.5,-105.5 401.5,-105.5 401.5,-75.5 226.5,-75.5"/>
<text text-anchor="start" x="233.5" y="-86.9" font-family="Arial" font-size="14.00" fill="#000000">created_at </text>
<text text-anchor="start" x="303.528" y="-86.9" font-family="Arial" font-size="14.00" fill="#666666">[datetime(6)]</text>
<polygon fill="none" stroke="#000000" points="226.5,-45.5 226.5,-75.5 401.5,-75.5 401.5,-45.5 226.5,-45.5"/>
<text text-anchor="start" x="233.5" y="-56.9" font-family="Arial" font-size="14.00" fill="#000000">updated_at </text>
<text text-anchor="start" x="307.4326" y="-56.9" font-family="Arial" font-size="14.00" fill="#666666">[datetime(6)]</text>
<polygon fill="none" stroke="#000000" stroke-width="3" points="224.5,-44.5 224.5,-232.5 402.5,-232.5 402.5,-44.5 224.5,-44.5"/>
</g>
<!-- games -->
<g id="node2" class="node">
<title>games</title>
<polygon fill="#efefef" stroke="transparent" points="43.5,-655.5 43.5,-690.5 270.5,-690.5 270.5,-655.5 43.5,-655.5"/>
<polygon fill="none" stroke="#000000" points="43.5,-655.5 43.5,-690.5 270.5,-690.5 270.5,-655.5 43.5,-655.5"/>
<text text-anchor="start" x="66.2106" y="-668.3" font-family="Arial Bold" font-size="18.00" fill="#000000">games</text>
<text text-anchor="start" x="120.2214" y="-668.3" font-family="Arial" font-size="14.00" fill="#000000">    </text>
<text text-anchor="start" x="154.4262" y="-668.3" font-family="Arial" font-size="14.00" fill="#666666">[BASE TABLE]</text>
<polygon fill="none" stroke="#000000" points="43.5,-625.5 43.5,-655.5 270.5,-655.5 270.5,-625.5 43.5,-625.5"/>
<text text-anchor="start" x="50.5" y="-636.9" font-family="Arial" font-size="14.00" fill="#000000">id    </text>
<text text-anchor="start" x="95.594" y="-636.9" font-family="Arial" font-size="14.00" fill="#666666">[int]</text>
<polygon fill="none" stroke="#000000" points="43.5,-595.5 43.5,-625.5 270.5,-625.5 270.5,-595.5 43.5,-595.5"/>
<text text-anchor="start" x="50.5" y="-606.9" font-family="Arial" font-size="14.00" fill="#000000">name    </text>
<text text-anchor="start" x="119.7132" y="-606.9" font-family="Arial" font-size="14.00" fill="#666666">[varchar(64)]</text>
<polygon fill="none" stroke="#000000" points="43.5,-565.5 43.5,-595.5 270.5,-595.5 270.5,-565.5 43.5,-565.5"/>
<text text-anchor="start" x="50.5" y="-576.9" font-family="Arial" font-size="14.00" fill="#000000">description    </text>
<text text-anchor="start" x="152.3822" y="-576.9" font-family="Arial" font-size="14.00" fill="#666666">[varchar(512)]</text>
<polygon fill="none" stroke="#000000" points="43.5,-535.5 43.5,-565.5 270.5,-565.5 270.5,-535.5 43.5,-535.5"/>
<text text-anchor="start" x="50.5" y="-546.9" font-family="Arial" font-size="14.00" fill="#000000">sport    </text>
<text text-anchor="start" x="115.8212" y="-546.9" font-family="Arial" font-size="14.00" fill="#666666">[int]</text>
<polygon fill="none" stroke="#000000" points="43.5,-505.5 43.5,-535.5 270.5,-535.5 270.5,-505.5 43.5,-505.5"/>
<text text-anchor="start" x="50.5" y="-516.9" font-family="Arial" font-size="14.00" fill="#000000">type    </text>
<text text-anchor="start" x="111.1606" y="-516.9" font-family="Arial" font-size="14.00" fill="#666666">[varchar(32)]</text>
<polygon fill="none" stroke="#000000" points="43.5,-475.5 43.5,-505.5 270.5,-505.5 270.5,-475.5 43.5,-475.5"/>
<text text-anchor="start" x="50.0484" y="-486.9" font-family="Arial" font-size="14.00" fill="#000000">calculation_type    </text>
<text text-anchor="start" x="184.615" y="-486.9" font-family="Arial" font-size="14.00" fill="#666666">[varchar(32)]</text>
<polygon fill="none" stroke="#000000" points="43.5,-445.5 43.5,-475.5 270.5,-475.5 270.5,-445.5 43.5,-445.5"/>
<text text-anchor="start" x="50.5" y="-456.9" font-family="Arial" font-size="14.00" fill="#000000">weight    </text>
<text text-anchor="start" x="125.1564" y="-456.9" font-family="Arial" font-size="14.00" fill="#666666">[int]</text>
<polygon fill="none" stroke="#000000" points="43.5,-415.5 43.5,-445.5 270.5,-445.5 270.5,-415.5 43.5,-415.5"/>
<text text-anchor="start" x="50.5" y="-426.9" font-family="Arial" font-size="14.00" fill="#000000">tag    </text>
<text text-anchor="start" x="104.1606" y="-426.9" font-family="Arial" font-size="14.00" fill="#666666">[int]</text>
<polygon fill="none" stroke="#000000" points="43.5,-385.5 43.5,-415.5 270.5,-415.5 270.5,-385.5 43.5,-385.5"/>
<text text-anchor="start" x="50.5" y="-396.9" font-family="Arial" font-size="14.00" fill="#000000">created_at    </text>
<text text-anchor="start" x="150.8422" y="-396.9" font-family="Arial" font-size="14.00" fill="#666666">[datetime(6)]</text>
<polygon fill="none" stroke="#000000" points="43.5,-355.5 43.5,-385.5 270.5,-385.5 270.5,-355.5 43.5,-355.5"/>
<text text-anchor="start" x="50.5" y="-366.9" font-family="Arial" font-size="14.00" fill="#000000">updated_at    </text>
<text text-anchor="start" x="154.7468" y="-366.9" font-family="Arial" font-size="14.00" fill="#666666">[datetime(6)]</text>
</g>
<!-- games&#45;&gt;tags -->
<g id="edge1" class="edge">
<title>games:tag&#45;&gt;tags:id</title>
<path fill="none" stroke="#000000" d="M280.8078,-429.3763C318.3313,-420.1909 291.2034,-356.6891 270.5,-313 259.6799,-290.167 237.3201,-299.833 226.5,-277 208.1337,-238.2426 183.6111,-180.5 226.5,-180.5"/>
<polygon fill="#000000" stroke="#000000" points="280.4411,-429.4162 270.0123,-426.0265 275.4706,-429.9581 270.5,-430.5 270.5,-430.5 270.5,-430.5 275.4706,-429.9581 270.9877,-434.9735 280.4411,-429.4162 280.4411,-429.4162"/>
<text text-anchor="start" x="277.6635" y="-440.5" font-family="Arial" font-size="10.00" fill="#000000">FOREIGN KEY (tag) REFERENCES tags (id)</text>
</g>
<!-- sports -->
<g id="node3" class="node">
<title>sports</title>
<polygon fill="#efefef" stroke="transparent" points="374.5,-640.5 374.5,-675.5 570.5,-675.5 570.5,-640.5 374.5,-640.5"/>
<polygon fill="none" stroke="#000000" points="374.5,-640.5 374.5,-675.5 570.5,-675.5 570.5,-640.5 374.5,-640.5"/>
<text text-anchor="start" x="384.2126" y="-653.3" font-family="Arial Bold" font-size="18.00" fill="#000000">sports</text>
<text text-anchor="start" x="433.2194" y="-653.3" font-family="Arial" font-size="14.00" fill="#000000">    </text>
<text text-anchor="start" x="467.4242" y="-653.3" font-family="Arial" font-size="14.00" fill="#666666">[BASE TABLE]</text>
<polygon fill="none" stroke="#000000" points="374.5,-610.5 374.5,-640.5 570.5,-640.5 570.5,-610.5 374.5,-610.5"/>
<text text-anchor="start" x="381.5" y="-621.9" font-family="Arial" font-size="14.00" fill="#000000">id    </text>
<text text-anchor="start" x="426.594" y="-621.9" font-family="Arial" font-size="14.00" fill="#666666">[int]</text>
<polygon fill="none" stroke="#000000" points="374.5,-580.5 374.5,-610.5 570.5,-610.5 570.5,-580.5 374.5,-580.5"/>
<text text-anchor="start" x="381.5" y="-591.9" font-family="Arial" font-size="14.00" fill="#000000">name    </text>
<text text-anchor="start" x="450.7132" y="-591.9" font-family="Arial" font-size="14.00" fill="#666666">[varchar(64)]</text>
<polygon fill="none" stroke="#000000" points="374.5,-550.5 374.5,-580.5 570.5,-580.5 570.5,-550.5 374.5,-550.5"/>
<text text-anchor="start" x="381.5" y="-561.9" font-family="Arial" font-size="14.00" fill="#000000">description    </text>
<text text-anchor="start" x="483.3822" y="-561.9" font-family="Arial" font-size="14.00" fill="#666666">[text]</text>
<polygon fill="none" stroke="#000000" points="374.5,-520.5 374.5,-550.5 570.5,-550.5 570.5,-520.5 374.5,-520.5"/>
<text text-anchor="start" x="381.5" y="-531.9" font-family="Arial" font-size="14.00" fill="#000000">icon_image    </text>
<text text-anchor="start" x="487.2742" y="-531.9" font-family="Arial" font-size="14.00" fill="#666666">[int]</text>
<polygon fill="none" stroke="#000000" points="374.5,-490.5 374.5,-520.5 570.5,-520.5 570.5,-490.5 374.5,-490.5"/>
<text text-anchor="start" x="381.5" y="-501.9" font-family="Arial" font-size="14.00" fill="#000000">weight    </text>
<text text-anchor="start" x="456.1564" y="-501.9" font-family="Arial" font-size="14.00" fill="#666666">[int]</text>
<polygon fill="none" stroke="#000000" points="374.5,-460.5 374.5,-490.5 570.5,-490.5 570.5,-460.5 374.5,-460.5"/>
<text text-anchor="start" x="381.5" y="-471.9" font-family="Arial" font-size="14.00" fill="#000000">rule_id    </text>
<text text-anchor="start" x="457.709" y="-471.9" font-family="Arial" font-size="14.00" fill="#666666">[int]</text>
<polygon fill="none" stroke="#000000" points="374.5,-430.5 374.5,-460.5 570.5,-460.5 570.5,-430.5 374.5,-430.5"/>
<text text-anchor="start" x="381.5" y="-441.9" font-family="Arial" font-size="14.00" fill="#000000">tag    </text>
<text text-anchor="start" x="435.1606" y="-441.9" font-family="Arial" font-size="14.00" fill="#666666">[int]</text>
<polygon fill="none" stroke="#000000" points="374.5,-400.5 374.5,-430.5 570.5,-430.5 570.5,-400.5 374.5,-400.5"/>
<text text-anchor="start" x="381.5" y="-411.9" font-family="Arial" font-size="14.00" fill="#000000">created_at    </text>
<text text-anchor="start" x="481.8422" y="-411.9" font-family="Arial" font-size="14.00" fill="#666666">[datetime(6)]</text>
<polygon fill="none" stroke="#000000" points="374.5,-370.5 374.5,-400.5 570.5,-400.5 570.5,-370.5 374.5,-370.5"/>
<text text-anchor="start" x="381.0947" y="-381.9" font-family="Arial" font-size="14.00" fill="#000000">updated_at    </text>
<text text-anchor="start" x="485.3415" y="-381.9" font-family="Arial" font-size="14.00" fill="#666666">[datetime(6)]</text>
</g>
<!-- sports&#45;&gt;tags -->
<g id="edge2" class="edge">
<title>sports:tag&#45;&gt;tags:id</title>
<path fill="none" stroke="#000000" d="M364.3417,-444.4297C328.012,-435.6706 362.846,-374.9207 374.5,-328 380.6823,-303.1091 395.3177,-301.8909 401.5,-277 411.8385,-235.3758 444.3889,-180.5 401.5,-180.5"/>
<polygon fill="#000000" stroke="#000000" points="364.555,-444.4521 374.0285,-449.9752 369.5275,-444.9761 374.5,-445.5 374.5,-445.5 374.5,-445.5 369.5275,-444.9761 374.9715,-441.0248 364.555,-444.4521 364.555,-444.4521"/>
<text text-anchor="start" x="381.6635" y="-455.5" font-family="Arial" font-size="10.00" fill="#000000">FOREIGN KEY (tag) REFERENCES tags (id)</text>
</g>
</g>
</svg>
