<?xml version="1.0" encoding="UTF-8" standalone="no"?>
<!DOCTYPE svg PUBLIC "-//W3C//DTD SVG 1.1//EN"
 "http://www.w3.org/Graphics/SVG/1.1/DTD/svg11.dtd">
<!-- Generated by graphviz version 2.40.1 (20161225.0304)
 -->
<!-- Title: team_users Pages: 1 -->
<svg width="701pt" height="622pt"
 viewBox="0.00 0.00 701.00 622.00" xmlns="http://www.w3.org/2000/svg" xmlns:xlink="http://www.w3.org/1999/xlink">
<g id="graph0" class="graph" transform="scale(1 1) rotate(0) translate(4 618)">
<title>team_users</title>
<polygon fill="#ffffff" stroke="transparent" points="-4,4 -4,-618 697,-618 697,4 -4,4"/>
<!-- team_users -->
<g id="node1" class="node">
<title>team_users</title>
<polygon fill="#efefef" stroke="transparent" points="232,-532.5 232,-567.5 467,-567.5 467,-532.5 232,-532.5"/>
<polygon fill="none" stroke="#000000" points="232,-532.5 232,-567.5 467,-567.5 467,-532.5 232,-532.5"/>
<text text-anchor="start" x="238.7072" y="-545.3" font-family="Arial Bold" font-size="18.00" fill="#000000">team_users</text>
<text text-anchor="start" x="332.7248" y="-545.3" font-family="Arial" font-size="14.00" fill="#000000">    </text>
<text text-anchor="start" x="366.9296" y="-545.3" font-family="Arial" font-size="14.00" fill="#666666">[BASE TABLE]</text>
<polygon fill="none" stroke="#000000" points="232,-502.5 232,-532.5 467,-532.5 467,-502.5 232,-502.5"/>
<text text-anchor="start" x="239" y="-513.9" font-family="Arial" font-size="14.00" fill="#000000">team </text>
<text text-anchor="start" x="274.007" y="-513.9" font-family="Arial" font-size="14.00" fill="#666666">[int]</text>
<polygon fill="none" stroke="#000000" points="232,-472.5 232,-502.5 467,-502.5 467,-472.5 232,-472.5"/>
<text text-anchor="start" x="239" y="-483.9" font-family="Arial" font-size="14.00" fill="#000000">user </text>
<text text-anchor="start" x="270.1164" y="-483.9" font-family="Arial" font-size="14.00" fill="#666666">[int]</text>
<polygon fill="none" stroke="#000000" stroke-width="3" points="230,-471.5 230,-569.5 468,-569.5 468,-471.5 230,-471.5"/>
</g>
<!-- teams -->
<g id="node2" class="node">
<title>teams</title>
<polygon fill="#efefef" stroke="transparent" points="97,-282.5 97,-317.5 300,-317.5 300,-282.5 97,-282.5"/>
<polygon fill="none" stroke="#000000" points="97,-282.5 97,-317.5 300,-317.5 300,-282.5 97,-282.5"/>
<text text-anchor="start" x="110.2126" y="-295.3" font-family="Arial Bold" font-size="18.00" fill="#000000">teams</text>
<text text-anchor="start" x="159.2194" y="-295.3" font-family="Arial" font-size="14.00" fill="#000000">    </text>
<text text-anchor="start" x="193.4242" y="-295.3" font-family="Arial" font-size="14.00" fill="#666666">[BASE TABLE]</text>
<polygon fill="none" stroke="#000000" points="97,-252.5 97,-282.5 300,-282.5 300,-252.5 97,-252.5"/>
<text text-anchor="start" x="104" y="-263.9" font-family="Arial" font-size="14.00" fill="#000000">id    </text>
<text text-anchor="start" x="149.094" y="-263.9" font-family="Arial" font-size="14.00" fill="#666666">[int]</text>
<polygon fill="none" stroke="#000000" points="97,-222.5 97,-252.5 300,-252.5 300,-222.5 97,-222.5"/>
<text text-anchor="start" x="104" y="-233.9" font-family="Arial" font-size="14.00" fill="#000000">name    </text>
<text text-anchor="start" x="173.2132" y="-233.9" font-family="Arial" font-size="14.00" fill="#666666">[varchar(64)]</text>
<polygon fill="none" stroke="#000000" points="97,-192.5 97,-222.5 300,-222.5 300,-192.5 97,-192.5"/>
<text text-anchor="start" x="103.9993" y="-203.9" font-family="Arial" font-size="14.00" fill="#000000">description    </text>
<text text-anchor="start" x="205.8815" y="-203.9" font-family="Arial" font-size="14.00" fill="#666666">[varchar(128)]</text>
<polygon fill="none" stroke="#000000" points="97,-162.5 97,-192.5 300,-192.5 300,-162.5 97,-162.5"/>
<text text-anchor="start" x="104" y="-173.9" font-family="Arial" font-size="14.00" fill="#000000">class    </text>
<text text-anchor="start" x="170.094" y="-173.9" font-family="Arial" font-size="14.00" fill="#666666">[int]</text>
<polygon fill="none" stroke="#000000" points="97,-132.5 97,-162.5 300,-162.5 300,-132.5 97,-132.5"/>
<text text-anchor="start" x="104" y="-143.9" font-family="Arial" font-size="14.00" fill="#000000">team_tag    </text>
<text text-anchor="start" x="196.5596" y="-143.9" font-family="Arial" font-size="14.00" fill="#666666">[int]</text>
<polygon fill="none" stroke="#000000" points="97,-102.5 97,-132.5 300,-132.5 300,-102.5 97,-102.5"/>
<text text-anchor="start" x="104" y="-113.9" font-family="Arial" font-size="14.00" fill="#000000">created_at    </text>
<text text-anchor="start" x="204.3422" y="-113.9" font-family="Arial" font-size="14.00" fill="#666666">[datetime(6)]</text>
<polygon fill="none" stroke="#000000" points="97,-72.5 97,-102.5 300,-102.5 300,-72.5 97,-72.5"/>
<text text-anchor="start" x="104" y="-83.9" font-family="Arial" font-size="14.00" fill="#000000">updated_at    </text>
<text text-anchor="start" x="208.2468" y="-83.9" font-family="Arial" font-size="14.00" fill="#666666">[datetime(6)]</text>
</g>
<!-- team_users&#45;&gt;teams -->
<g id="edge1" class="edge">
<title>team_users:team&#45;&gt;teams:id</title>
<path fill="none" stroke="#000000" d="M222.0008,-516.0357C196.4886,-507.216 217.861,-460.427 232,-427 248.4073,-388.2105 283.5927,-399.7895 300,-361 316.1887,-322.7274 341.5556,-267.5 300,-267.5"/>
<polygon fill="#000000" stroke="#000000" points="222.1055,-516.051 231.3479,-521.9525 227.0528,-516.7755 232,-517.5 232,-517.5 232,-517.5 227.0528,-516.7755 232.6521,-513.0475 222.1055,-516.051 222.1055,-516.051"/>
<text text-anchor="start" x="6.8345" y="-527.5" font-family="Arial" font-size="10.00" fill="#000000">FOREIGN KEY (team) REFERENCES teams (id)</text>
</g>
<!-- users -->
<g id="node3" class="node">
<title>users</title>
<polygon fill="#efefef" stroke="transparent" points="404,-312.5 404,-347.5 600,-347.5 600,-312.5 404,-312.5"/>
<polygon fill="none" stroke="#000000" points="404,-312.5 404,-347.5 600,-347.5 600,-312.5 404,-312.5"/>
<text text-anchor="start" x="416.2137" y="-325.3" font-family="Arial Bold" font-size="18.00" fill="#000000">users</text>
<text text-anchor="start" x="460.2183" y="-325.3" font-family="Arial" font-size="14.00" fill="#000000">    </text>
<text text-anchor="start" x="494.4231" y="-325.3" font-family="Arial" font-size="14.00" fill="#666666">[BASE TABLE]</text>
<polygon fill="none" stroke="#000000" points="404,-282.5 404,-312.5 600,-312.5 600,-282.5 404,-282.5"/>
<text text-anchor="start" x="411" y="-293.9" font-family="Arial" font-size="14.00" fill="#000000">id    </text>
<text text-anchor="start" x="456.094" y="-293.9" font-family="Arial" font-size="14.00" fill="#666666">[int]</text>
<polygon fill="none" stroke="#000000" points="404,-252.5 404,-282.5 600,-282.5 600,-252.5 404,-252.5"/>
<text text-anchor="start" x="411" y="-263.9" font-family="Arial" font-size="14.00" fill="#000000">name    </text>
<text text-anchor="start" x="480.2132" y="-263.9" font-family="Arial" font-size="14.00" fill="#666666">[varchar(128)]</text>
<polygon fill="none" stroke="#000000" points="404,-222.5 404,-252.5 600,-252.5 600,-222.5 404,-222.5"/>
<text text-anchor="start" x="411" y="-233.9" font-family="Arial" font-size="14.00" fill="#000000">email    </text>
<text text-anchor="start" x="478.6438" y="-233.9" font-family="Arial" font-size="14.00" fill="#666666">[varchar(320)]</text>
<polygon fill="none" stroke="#000000" points="404,-192.5 404,-222.5 600,-222.5 600,-192.5 404,-192.5"/>
<text text-anchor="start" x="411" y="-203.9" font-family="Arial" font-size="14.00" fill="#000000">gender    </text>
<text text-anchor="start" x="488.7784" y="-203.9" font-family="Arial" font-size="14.00" fill="#666666">[varchar(10)]</text>
<polygon fill="none" stroke="#000000" points="404,-162.5 404,-192.5 600,-192.5 600,-162.5 404,-162.5"/>
<text text-anchor="start" x="411" y="-173.9" font-family="Arial" font-size="14.00" fill="#000000">picture_id    </text>
<text text-anchor="start" x="505.8822" y="-173.9" font-family="Arial" font-size="14.00" fill="#666666">[int]</text>
<polygon fill="none" stroke="#000000" points="404,-132.5 404,-162.5 600,-162.5 600,-132.5 404,-132.5"/>
<text text-anchor="start" x="411" y="-143.9" font-family="Arial" font-size="14.00" fill="#000000">class_id    </text>
<text text-anchor="start" x="495.7658" y="-143.9" font-family="Arial" font-size="14.00" fill="#666666">[int]</text>
<polygon fill="none" stroke="#000000" points="404,-102.5 404,-132.5 600,-132.5 600,-102.5 404,-102.5"/>
<text text-anchor="start" x="411" y="-113.9" font-family="Arial" font-size="14.00" fill="#000000">role_id    </text>
<text text-anchor="start" x="487.209" y="-113.9" font-family="Arial" font-size="14.00" fill="#666666">[int]</text>
<polygon fill="none" stroke="#000000" points="404,-72.5 404,-102.5 600,-102.5 600,-72.5 404,-72.5"/>
<text text-anchor="start" x="411" y="-83.9" font-family="Arial" font-size="14.00" fill="#000000">created_at    </text>
<text text-anchor="start" x="511.3422" y="-83.9" font-family="Arial" font-size="14.00" fill="#666666">[datetime(6)]</text>
<polygon fill="none" stroke="#000000" points="404,-42.5 404,-72.5 600,-72.5 600,-42.5 404,-42.5"/>
<text text-anchor="start" x="410.5947" y="-53.9" font-family="Arial" font-size="14.00" fill="#000000">updated_at    </text>
<text text-anchor="start" x="514.8415" y="-53.9" font-family="Arial" font-size="14.00" fill="#666666">[datetime(6)]</text>
</g>
<!-- team_users&#45;&gt;users -->
<g id="edge2" class="edge">
<title>team_users:user&#45;&gt;users:id</title>
<path fill="none" stroke="#000000" d="M476.8071,-484.9676C489.7012,-476.2029 478.3875,-446.6226 467,-427 450.8133,-399.1075 420.1867,-418.8925 404,-391 383.1422,-355.0582 362.4444,-297.5 404,-297.5"/>
<polygon fill="#000000" stroke="#000000" points="476.6824,-484.9998 465.8749,-483.1429 471.8412,-486.2499 467,-487.5 467,-487.5 467,-487.5 471.8412,-486.2499 468.1251,-491.8571 476.6824,-484.9998 476.6824,-484.9998"/>
<text text-anchor="start" x="473.6135" y="-497.5" font-family="Arial" font-size="10.00" fill="#000000">FOREIGN KEY (user) REFERENCES users (id)</text>
</g>
</g>
</svg>
