<?xml version="1.0" encoding="UTF-8" standalone="no"?>
<!DOCTYPE svg PUBLIC "-//W3C//DTD SVG 1.1//EN"
 "http://www.w3.org/Graphics/SVG/1.1/DTD/svg11.dtd">
<!-- Generated by graphviz version 2.40.1 (20161225.0304)
 -->
<!-- Title: team_tags Pages: 1 -->
<svg width="539pt" height="622pt"
 viewBox="0.00 0.00 538.50 622.00" xmlns="http://www.w3.org/2000/svg" xmlns:xlink="http://www.w3.org/1999/xlink">
<g id="graph0" class="graph" transform="scale(1 1) rotate(0) translate(4 618)">
<title>team_tags</title>
<polygon fill="#ffffff" stroke="transparent" points="-4,4 -4,-618 534.5,-618 534.5,4 -4,4"/>
<!-- team_tags -->
<g id="node1" class="node">
<title>team_tags</title>
<polygon fill="#efefef" stroke="transparent" points="260,-165.5 260,-200.5 485,-200.5 485,-165.5 260,-165.5"/>
<polygon fill="none" stroke="#000000" points="260,-165.5 260,-200.5 485,-200.5 485,-165.5 260,-165.5"/>
<text text-anchor="start" x="266.7022" y="-178.3" font-family="Arial Bold" font-size="18.00" fill="#000000">team_tags</text>
<text text-anchor="start" x="350.7298" y="-178.3" font-family="Arial" font-size="14.00" fill="#000000">    </text>
<text text-anchor="start" x="384.9346" y="-178.3" font-family="Arial" font-size="14.00" fill="#666666">[BASE TABLE]</text>
<polygon fill="none" stroke="#000000" points="260,-135.5 260,-165.5 485,-165.5 485,-135.5 260,-135.5"/>
<text text-anchor="start" x="267" y="-146.9" font-family="Arial" font-size="14.00" fill="#000000">id </text>
<text text-anchor="start" x="281.7798" y="-146.9" font-family="Arial" font-size="14.00" fill="#666666">[int]</text>
<polygon fill="none" stroke="#000000" points="260,-105.5 260,-135.5 485,-135.5 485,-105.5 260,-105.5"/>
<text text-anchor="start" x="267" y="-116.9" font-family="Arial" font-size="14.00" fill="#000000">name </text>
<text text-anchor="start" x="305.899" y="-116.9" font-family="Arial" font-size="14.00" fill="#666666">[varchar(64)]</text>
<polygon fill="none" stroke="#000000" points="260,-75.5 260,-105.5 485,-105.5 485,-75.5 260,-75.5"/>
<text text-anchor="start" x="267" y="-86.9" font-family="Arial" font-size="14.00" fill="#000000">created_at </text>
<text text-anchor="start" x="337.028" y="-86.9" font-family="Arial" font-size="14.00" fill="#666666">[datetime(6)]</text>
<polygon fill="none" stroke="#000000" points="260,-45.5 260,-75.5 485,-75.5 485,-45.5 260,-45.5"/>
<text text-anchor="start" x="267" y="-56.9" font-family="Arial" font-size="14.00" fill="#000000">updated_at </text>
<text text-anchor="start" x="340.9326" y="-56.9" font-family="Arial" font-size="14.00" fill="#666666">[datetime(6)]</text>
<polygon fill="none" stroke="#000000" stroke-width="3" points="258,-44.5 258,-202.5 486,-202.5 486,-44.5 258,-44.5"/>
</g>
<!-- teams -->
<g id="node2" class="node">
<title>teams</title>
<polygon fill="#efefef" stroke="transparent" points="271,-535.5 271,-570.5 474,-570.5 474,-535.5 271,-535.5"/>
<polygon fill="none" stroke="#000000" points="271,-535.5 271,-570.5 474,-570.5 474,-535.5 271,-535.5"/>
<text text-anchor="start" x="284.2126" y="-548.3" font-family="Arial Bold" font-size="18.00" fill="#000000">teams</text>
<text text-anchor="start" x="333.2194" y="-548.3" font-family="Arial" font-size="14.00" fill="#000000">    </text>
<text text-anchor="start" x="367.4242" y="-548.3" font-family="Arial" font-size="14.00" fill="#666666">[BASE TABLE]</text>
<polygon fill="none" stroke="#000000" points="271,-505.5 271,-535.5 474,-535.5 474,-505.5 271,-505.5"/>
<text text-anchor="start" x="278" y="-516.9" font-family="Arial" font-size="14.00" fill="#000000">id    </text>
<text text-anchor="start" x="323.094" y="-516.9" font-family="Arial" font-size="14.00" fill="#666666">[int]</text>
<polygon fill="none" stroke="#000000" points="271,-475.5 271,-505.5 474,-505.5 474,-475.5 271,-475.5"/>
<text text-anchor="start" x="278" y="-486.9" font-family="Arial" font-size="14.00" fill="#000000">name    </text>
<text text-anchor="start" x="347.2132" y="-486.9" font-family="Arial" font-size="14.00" fill="#666666">[varchar(64)]</text>
<polygon fill="none" stroke="#000000" points="271,-445.5 271,-475.5 474,-475.5 474,-445.5 271,-445.5"/>
<text text-anchor="start" x="277.9993" y="-456.9" font-family="Arial" font-size="14.00" fill="#000000">description    </text>
<text text-anchor="start" x="379.8815" y="-456.9" font-family="Arial" font-size="14.00" fill="#666666">[varchar(128)]</text>
<polygon fill="none" stroke="#000000" points="271,-415.5 271,-445.5 474,-445.5 474,-415.5 271,-415.5"/>
<text text-anchor="start" x="278" y="-426.9" font-family="Arial" font-size="14.00" fill="#000000">class    </text>
<text text-anchor="start" x="344.094" y="-426.9" font-family="Arial" font-size="14.00" fill="#666666">[int]</text>
<polygon fill="none" stroke="#000000" points="271,-385.5 271,-415.5 474,-415.5 474,-385.5 271,-385.5"/>
<text text-anchor="start" x="278" y="-396.9" font-family="Arial" font-size="14.00" fill="#000000">team_tag    </text>
<text text-anchor="start" x="370.5596" y="-396.9" font-family="Arial" font-size="14.00" fill="#666666">[int]</text>
<polygon fill="none" stroke="#000000" points="271,-355.5 271,-385.5 474,-385.5 474,-355.5 271,-355.5"/>
<text text-anchor="start" x="278" y="-366.9" font-family="Arial" font-size="14.00" fill="#000000">created_at    </text>
<text text-anchor="start" x="378.3422" y="-366.9" font-family="Arial" font-size="14.00" fill="#666666">[datetime(6)]</text>
<polygon fill="none" stroke="#000000" points="271,-325.5 271,-355.5 474,-355.5 474,-325.5 271,-325.5"/>
<text text-anchor="start" x="278" y="-336.9" font-family="Arial" font-size="14.00" fill="#000000">updated_at    </text>
<text text-anchor="start" x="382.2468" y="-336.9" font-family="Arial" font-size="14.00" fill="#666666">[datetime(6)]</text>
</g>
<!-- teams&#45;&gt;team_tags -->
<g id="edge1" class="edge">
<title>teams:team_tag&#45;&gt;team_tags:id</title>
<path fill="none" stroke="#000000" d="M261.1014,-397.6924C214.2759,-370.2266 207.8663,-150.5 260,-150.5"/>
<polygon fill="#000000" stroke="#000000" points="261.3795,-397.7712 269.772,-404.8292 266.1897,-399.1356 271,-400.5 271,-400.5 271,-400.5 266.1897,-399.1356 272.228,-396.1708 261.3795,-397.7712 261.3795,-397.7712"/>
<text text-anchor="start" x="7.3785" y="-410.5" font-family="Arial" font-size="10.00" fill="#000000">FOREIGN KEY (team_tag) REFERENCES team_tags (id)</text>
</g>
</g>
</svg>
