<?xml version="1.0" encoding="UTF-8" standalone="no"?>
<!DOCTYPE svg PUBLIC "-//W3C//DTD SVG 1.1//EN"
 "http://www.w3.org/Graphics/SVG/1.1/DTD/svg11.dtd">
<!-- Generated by graphviz version 2.40.1 (20161225.0304)
 -->
<!-- Title: team_tags Pages: 1 -->
<svg width="725pt" height="1079pt"
 viewBox="0.00 0.00 725.00 1079.00" xmlns="http://www.w3.org/2000/svg" xmlns:xlink="http://www.w3.org/1999/xlink">
<g id="graph0" class="graph" transform="scale(1 1) rotate(0) translate(4 1075)">
<title>team_tags</title>
<polygon fill="#ffffff" stroke="transparent" points="-4,4 -4,-1075 721,-1075 721,4 -4,4"/>
<!-- team_tags -->
<g id="node1" class="node">
<title>team_tags</title>
<polygon fill="#efefef" stroke="transparent" points="260,-622.5 260,-657.5 485,-657.5 485,-622.5 260,-622.5"/>
<polygon fill="none" stroke="#000000" points="260,-622.5 260,-657.5 485,-657.5 485,-622.5 260,-622.5"/>
<text text-anchor="start" x="266.7022" y="-635.3" font-family="Arial Bold" font-size="18.00" fill="#000000">team_tags</text>
<text text-anchor="start" x="350.7298" y="-635.3" font-family="Arial" font-size="14.00" fill="#000000">    </text>
<text text-anchor="start" x="384.9346" y="-635.3" font-family="Arial" font-size="14.00" fill="#666666">[BASE TABLE]</text>
<polygon fill="none" stroke="#000000" points="260,-592.5 260,-622.5 485,-622.5 485,-592.5 260,-592.5"/>
<text text-anchor="start" x="267" y="-603.9" font-family="Arial" font-size="14.00" fill="#000000">id </text>
<text text-anchor="start" x="281.7798" y="-603.9" font-family="Arial" font-size="14.00" fill="#666666">[int]</text>
<polygon fill="none" stroke="#000000" points="260,-562.5 260,-592.5 485,-592.5 485,-562.5 260,-562.5"/>
<text text-anchor="start" x="267" y="-573.9" font-family="Arial" font-size="14.00" fill="#000000">name </text>
<text text-anchor="start" x="305.899" y="-573.9" font-family="Arial" font-size="14.00" fill="#666666">[varchar(64)]</text>
<polygon fill="none" stroke="#000000" points="260,-532.5 260,-562.5 485,-562.5 485,-532.5 260,-532.5"/>
<text text-anchor="start" x="267" y="-543.9" font-family="Arial" font-size="14.00" fill="#000000">sport </text>
<text text-anchor="start" x="302.007" y="-543.9" font-family="Arial" font-size="14.00" fill="#666666">[int]</text>
<polygon fill="none" stroke="#000000" points="260,-502.5 260,-532.5 485,-532.5 485,-502.5 260,-502.5"/>
<text text-anchor="start" x="267" y="-513.9" font-family="Arial" font-size="14.00" fill="#000000">created_at </text>
<text text-anchor="start" x="337.028" y="-513.9" font-family="Arial" font-size="14.00" fill="#666666">[datetime(6)]</text>
<polygon fill="none" stroke="#000000" points="260,-472.5 260,-502.5 485,-502.5 485,-472.5 260,-472.5"/>
<text text-anchor="start" x="267" y="-483.9" font-family="Arial" font-size="14.00" fill="#000000">updated_at </text>
<text text-anchor="start" x="340.9326" y="-483.9" font-family="Arial" font-size="14.00" fill="#666666">[datetime(6)]</text>
<polygon fill="none" stroke="#000000" stroke-width="3" points="258,-471.5 258,-659.5 486,-659.5 486,-471.5 258,-471.5"/>
</g>
<!-- sports -->
<g id="node3" class="node">
<title>sports</title>
<polygon fill="#efefef" stroke="transparent" points="275,-312.5 275,-347.5 471,-347.5 471,-312.5 275,-312.5"/>
<polygon fill="none" stroke="#000000" points="275,-312.5 275,-347.5 471,-347.5 471,-312.5 275,-312.5"/>
<text text-anchor="start" x="284.7126" y="-325.3" font-family="Arial Bold" font-size="18.00" fill="#000000">sports</text>
<text text-anchor="start" x="333.7194" y="-325.3" font-family="Arial" font-size="14.00" fill="#000000">    </text>
<text text-anchor="start" x="367.9242" y="-325.3" font-family="Arial" font-size="14.00" fill="#666666">[BASE TABLE]</text>
<polygon fill="none" stroke="#000000" points="275,-282.5 275,-312.5 471,-312.5 471,-282.5 275,-282.5"/>
<text text-anchor="start" x="282" y="-293.9" font-family="Arial" font-size="14.00" fill="#000000">id    </text>
<text text-anchor="start" x="327.094" y="-293.9" font-family="Arial" font-size="14.00" fill="#666666">[int]</text>
<polygon fill="none" stroke="#000000" points="275,-252.5 275,-282.5 471,-282.5 471,-252.5 275,-252.5"/>
<text text-anchor="start" x="282" y="-263.9" font-family="Arial" font-size="14.00" fill="#000000">name    </text>
<text text-anchor="start" x="351.2132" y="-263.9" font-family="Arial" font-size="14.00" fill="#666666">[varchar(64)]</text>
<polygon fill="none" stroke="#000000" points="275,-222.5 275,-252.5 471,-252.5 471,-222.5 275,-222.5"/>
<text text-anchor="start" x="282" y="-233.9" font-family="Arial" font-size="14.00" fill="#000000">description    </text>
<text text-anchor="start" x="383.8822" y="-233.9" font-family="Arial" font-size="14.00" fill="#666666">[text]</text>
<polygon fill="none" stroke="#000000" points="275,-192.5 275,-222.5 471,-222.5 471,-192.5 275,-192.5"/>
<text text-anchor="start" x="282" y="-203.9" font-family="Arial" font-size="14.00" fill="#000000">icon_image    </text>
<text text-anchor="start" x="387.7742" y="-203.9" font-family="Arial" font-size="14.00" fill="#666666">[int]</text>
<polygon fill="none" stroke="#000000" points="275,-162.5 275,-192.5 471,-192.5 471,-162.5 275,-162.5"/>
<text text-anchor="start" x="282" y="-173.9" font-family="Arial" font-size="14.00" fill="#000000">weight    </text>
<text text-anchor="start" x="356.6564" y="-173.9" font-family="Arial" font-size="14.00" fill="#666666">[int]</text>
<polygon fill="none" stroke="#000000" points="275,-132.5 275,-162.5 471,-162.5 471,-132.5 275,-132.5"/>
<text text-anchor="start" x="282" y="-143.9" font-family="Arial" font-size="14.00" fill="#000000">rule_id    </text>
<text text-anchor="start" x="358.209" y="-143.9" font-family="Arial" font-size="14.00" fill="#666666">[int]</text>
<polygon fill="none" stroke="#000000" points="275,-102.5 275,-132.5 471,-132.5 471,-102.5 275,-102.5"/>
<text text-anchor="start" x="282" y="-113.9" font-family="Arial" font-size="14.00" fill="#000000">tag    </text>
<text text-anchor="start" x="335.6606" y="-113.9" font-family="Arial" font-size="14.00" fill="#666666">[int]</text>
<polygon fill="none" stroke="#000000" points="275,-72.5 275,-102.5 471,-102.5 471,-72.5 275,-72.5"/>
<text text-anchor="start" x="282" y="-83.9" font-family="Arial" font-size="14.00" fill="#000000">created_at    </text>
<text text-anchor="start" x="382.3422" y="-83.9" font-family="Arial" font-size="14.00" fill="#666666">[datetime(6)]</text>
<polygon fill="none" stroke="#000000" points="275,-42.5 275,-72.5 471,-72.5 471,-42.5 275,-42.5"/>
<text text-anchor="start" x="281.5947" y="-53.9" font-family="Arial" font-size="14.00" fill="#000000">updated_at    </text>
<text text-anchor="start" x="385.8415" y="-53.9" font-family="Arial" font-size="14.00" fill="#666666">[datetime(6)]</text>
</g>
<!-- team_tags&#45;&gt;sports -->
<g id="edge2" class="edge">
<title>team_tags:sport&#45;&gt;sports:id</title>
<path fill="none" stroke="#000000" d="M494.9837,-546.4225C535.881,-536.8036 517.1624,-465.1451 485,-427 423.9591,-354.6045 336.0409,-463.3955 275,-391 248.213,-359.2302 233.4444,-297.5 275,-297.5"/>
<polygon fill="#000000" stroke="#000000" points="494.9423,-546.4268 484.5171,-543.026 489.9711,-546.9634 485,-547.5 485,-547.5 485,-547.5 489.9711,-546.9634 485.4829,-551.974 494.9423,-546.4268 494.9423,-546.4268"/>
<text text-anchor="start" x="491.8345" y="-557.5" font-family="Arial" font-size="10.00" fill="#000000">FOREIGN KEY (sport) REFERENCES sports (id)</text>
</g>
<!-- teams -->
<g id="node2" class="node">
<title>teams</title>
<polygon fill="#efefef" stroke="transparent" points="271,-992.5 271,-1027.5 474,-1027.5 474,-992.5 271,-992.5"/>
<polygon fill="none" stroke="#000000" points="271,-992.5 271,-1027.5 474,-1027.5 474,-992.5 271,-992.5"/>
<text text-anchor="start" x="284.2126" y="-1005.3" font-family="Arial Bold" font-size="18.00" fill="#000000">teams</text>
<text text-anchor="start" x="333.2194" y="-1005.3" font-family="Arial" font-size="14.00" fill="#000000">    </text>
<text text-anchor="start" x="367.4242" y="-1005.3" font-family="Arial" font-size="14.00" fill="#666666">[BASE TABLE]</text>
<polygon fill="none" stroke="#000000" points="271,-962.5 271,-992.5 474,-992.5 474,-962.5 271,-962.5"/>
<text text-anchor="start" x="278" y="-973.9" font-family="Arial" font-size="14.00" fill="#000000">id    </text>
<text text-anchor="start" x="323.094" y="-973.9" font-family="Arial" font-size="14.00" fill="#666666">[int]</text>
<polygon fill="none" stroke="#000000" points="271,-932.5 271,-962.5 474,-962.5 474,-932.5 271,-932.5"/>
<text text-anchor="start" x="278" y="-943.9" font-family="Arial" font-size="14.00" fill="#000000">name    </text>
<text text-anchor="start" x="347.2132" y="-943.9" font-family="Arial" font-size="14.00" fill="#666666">[varchar(64)]</text>
<polygon fill="none" stroke="#000000" points="271,-902.5 271,-932.5 474,-932.5 474,-902.5 271,-902.5"/>
<text text-anchor="start" x="277.9993" y="-913.9" font-family="Arial" font-size="14.00" fill="#000000">description    </text>
<text text-anchor="start" x="379.8815" y="-913.9" font-family="Arial" font-size="14.00" fill="#666666">[varchar(128)]</text>
<polygon fill="none" stroke="#000000" points="271,-872.5 271,-902.5 474,-902.5 474,-872.5 271,-872.5"/>
<text text-anchor="start" x="278" y="-883.9" font-family="Arial" font-size="14.00" fill="#000000">class    </text>
<text text-anchor="start" x="344.094" y="-883.9" font-family="Arial" font-size="14.00" fill="#666666">[int]</text>
<polygon fill="none" stroke="#000000" points="271,-842.5 271,-872.5 474,-872.5 474,-842.5 271,-842.5"/>
<text text-anchor="start" x="278" y="-853.9" font-family="Arial" font-size="14.00" fill="#000000">team_tag    </text>
<text text-anchor="start" x="370.5596" y="-853.9" font-family="Arial" font-size="14.00" fill="#666666">[int]</text>
<polygon fill="none" stroke="#000000" points="271,-812.5 271,-842.5 474,-842.5 474,-812.5 271,-812.5"/>
<text text-anchor="start" x="278" y="-823.9" font-family="Arial" font-size="14.00" fill="#000000">created_at    </text>
<text text-anchor="start" x="378.3422" y="-823.9" font-family="Arial" font-size="14.00" fill="#666666">[datetime(6)]</text>
<polygon fill="none" stroke="#000000" points="271,-782.5 271,-812.5 474,-812.5 474,-782.5 271,-782.5"/>
<text text-anchor="start" x="278" y="-793.9" font-family="Arial" font-size="14.00" fill="#000000">updated_at    </text>
<text text-anchor="start" x="382.2468" y="-793.9" font-family="Arial" font-size="14.00" fill="#666666">[datetime(6)]</text>
</g>
<!-- teams&#45;&gt;team_tags -->
<g id="edge1" class="edge">
<title>teams:team_tag&#45;&gt;team_tags:id</title>
<path fill="none" stroke="#000000" d="M260.8675,-856.7828C159.2132,-842.1191 152.257,-607.5 260,-607.5"/>
<polygon fill="#000000" stroke="#000000" points="261.025,-856.7939 270.6822,-861.9888 266.0125,-857.1469 271,-857.5 271,-857.5 271,-857.5 266.0125,-857.1469 271.3178,-853.0112 261.025,-856.7939 261.025,-856.7939"/>
<text text-anchor="start" x="7.3785" y="-867.5" font-family="Arial" font-size="10.00" fill="#000000">FOREIGN KEY (team_tag) REFERENCES team_tags (id)</text>
</g>
</g>
</svg>
