<?xml version="1.0" encoding="UTF-8" standalone="no"?>
<!DOCTYPE svg PUBLIC "-//W3C//DTD SVG 1.1//EN"
 "http://www.w3.org/Graphics/SVG/1.1/DTD/svg11.dtd">
<!-- Generated by graphviz version 2.40.1 (20161225.0304)
 -->
<!-- Title: teams Pages: 1 -->
<svg width="997pt" height="1259pt"
 viewBox="0.00 0.00 996.50 1259.00" xmlns="http://www.w3.org/2000/svg" xmlns:xlink="http://www.w3.org/1999/xlink">
<g id="graph0" class="graph" transform="scale(1 1) rotate(0) translate(4 1255)">
<title>teams</title>
<polygon fill="#ffffff" stroke="transparent" points="-4,4 -4,-1255 992.5,-1255 992.5,4 -4,4"/>
<!-- teams -->
<g id="node1" class="node">
<title>teams</title>
<polygon fill="#efefef" stroke="transparent" points="408,-562.5 408,-597.5 598,-597.5 598,-562.5 408,-562.5"/>
<polygon fill="none" stroke="#000000" points="408,-562.5 408,-597.5 598,-597.5 598,-562.5 408,-562.5"/>
<text text-anchor="start" x="414.7126" y="-575.3" font-family="Arial Bold" font-size="18.00" fill="#000000">teams</text>
<text text-anchor="start" x="463.7194" y="-575.3" font-family="Arial" font-size="14.00" fill="#000000">    </text>
<text text-anchor="start" x="497.9242" y="-575.3" font-family="Arial" font-size="14.00" fill="#666666">[BASE TABLE]</text>
<polygon fill="none" stroke="#000000" points="408,-532.5 408,-562.5 598,-562.5 598,-532.5 408,-532.5"/>
<text text-anchor="start" x="415" y="-543.9" font-family="Arial" font-size="14.00" fill="#000000">id </text>
<text text-anchor="start" x="429.7798" y="-543.9" font-family="Arial" font-size="14.00" fill="#666666">[int]</text>
<polygon fill="none" stroke="#000000" points="408,-502.5 408,-532.5 598,-532.5 598,-502.5 408,-502.5"/>
<text text-anchor="start" x="415" y="-513.9" font-family="Arial" font-size="14.00" fill="#000000">name </text>
<text text-anchor="start" x="453.899" y="-513.9" font-family="Arial" font-size="14.00" fill="#666666">[varchar(64)]</text>
<polygon fill="none" stroke="#000000" points="408,-472.5 408,-502.5 598,-502.5 598,-472.5 408,-472.5"/>
<text text-anchor="start" x="415" y="-483.9" font-family="Arial" font-size="14.00" fill="#000000">description </text>
<text text-anchor="start" x="486.568" y="-483.9" font-family="Arial" font-size="14.00" fill="#666666">[varchar(128)]</text>
<polygon fill="none" stroke="#000000" points="408,-442.5 408,-472.5 598,-472.5 598,-442.5 408,-442.5"/>
<text text-anchor="start" x="415" y="-453.9" font-family="Arial" font-size="14.00" fill="#000000">class </text>
<text text-anchor="start" x="450.7798" y="-453.9" font-family="Arial" font-size="14.00" fill="#666666">[int]</text>
<polygon fill="none" stroke="#000000" points="408,-412.5 408,-442.5 598,-442.5 598,-412.5 408,-412.5"/>
<text text-anchor="start" x="415" y="-423.9" font-family="Arial" font-size="14.00" fill="#000000">created_at </text>
<text text-anchor="start" x="485.028" y="-423.9" font-family="Arial" font-size="14.00" fill="#666666">[datetime(6)]</text>
<polygon fill="none" stroke="#000000" points="408,-382.5 408,-412.5 598,-412.5 598,-382.5 408,-382.5"/>
<text text-anchor="start" x="415" y="-393.9" font-family="Arial" font-size="14.00" fill="#000000">updated_at </text>
<text text-anchor="start" x="488.9326" y="-393.9" font-family="Arial" font-size="14.00" fill="#666666">[datetime(6)]</text>
<polygon fill="none" stroke="#000000" stroke-width="3" points="406.5,-381.5 406.5,-599.5 599.5,-599.5 599.5,-381.5 406.5,-381.5"/>
</g>
<!-- classes -->
<g id="node5" class="node">
<title>classes</title>
<polygon fill="#efefef" stroke="transparent" points="401,-222.5 401,-257.5 604,-257.5 604,-222.5 401,-222.5"/>
<polygon fill="none" stroke="#000000" points="401,-222.5 401,-257.5 604,-257.5 604,-222.5 401,-222.5"/>
<text text-anchor="start" x="408.7127" y="-235.3" font-family="Arial Bold" font-size="18.00" fill="#000000">classes</text>
<text text-anchor="start" x="468.7193" y="-235.3" font-family="Arial" font-size="14.00" fill="#000000">    </text>
<text text-anchor="start" x="502.9241" y="-235.3" font-family="Arial" font-size="14.00" fill="#666666">[BASE TABLE]</text>
<polygon fill="none" stroke="#000000" points="401,-192.5 401,-222.5 604,-222.5 604,-192.5 401,-192.5"/>
<text text-anchor="start" x="408" y="-203.9" font-family="Arial" font-size="14.00" fill="#000000">id    </text>
<text text-anchor="start" x="453.094" y="-203.9" font-family="Arial" font-size="14.00" fill="#666666">[int]</text>
<polygon fill="none" stroke="#000000" points="401,-162.5 401,-192.5 604,-192.5 604,-162.5 401,-162.5"/>
<text text-anchor="start" x="408" y="-173.9" font-family="Arial" font-size="14.00" fill="#000000">name    </text>
<text text-anchor="start" x="477.2132" y="-173.9" font-family="Arial" font-size="14.00" fill="#666666">[varchar(64)]</text>
<polygon fill="none" stroke="#000000" points="401,-132.5 401,-162.5 604,-162.5 604,-132.5 401,-132.5"/>
<text text-anchor="start" x="407.9993" y="-143.9" font-family="Arial" font-size="14.00" fill="#000000">description    </text>
<text text-anchor="start" x="509.8815" y="-143.9" font-family="Arial" font-size="14.00" fill="#666666">[varchar(128)]</text>
<polygon fill="none" stroke="#000000" points="401,-102.5 401,-132.5 604,-132.5 604,-102.5 401,-102.5"/>
<text text-anchor="start" x="408" y="-113.9" font-family="Arial" font-size="14.00" fill="#000000">group    </text>
<text text-anchor="start" x="477.9958" y="-113.9" font-family="Arial" font-size="14.00" fill="#666666">[int]</text>
<polygon fill="none" stroke="#000000" points="401,-72.5 401,-102.5 604,-102.5 604,-72.5 401,-72.5"/>
<text text-anchor="start" x="408" y="-83.9" font-family="Arial" font-size="14.00" fill="#000000">created_at    </text>
<text text-anchor="start" x="508.3422" y="-83.9" font-family="Arial" font-size="14.00" fill="#666666">[datetime(6)]</text>
<polygon fill="none" stroke="#000000" points="401,-42.5 401,-72.5 604,-72.5 604,-42.5 401,-42.5"/>
<text text-anchor="start" x="408" y="-53.9" font-family="Arial" font-size="14.00" fill="#000000">updated_at    </text>
<text text-anchor="start" x="512.2468" y="-53.9" font-family="Arial" font-size="14.00" fill="#666666">[datetime(6)]</text>
</g>
<!-- teams&#45;&gt;classes -->
<g id="edge5" class="edge">
<title>teams:class&#45;&gt;classes:id</title>
<path fill="none" stroke="#000000" d="M398.0195,-456.4251C357.1501,-446.8296 376.0646,-375.3353 408,-337 464.6889,-268.9506 547.3111,-369.0494 604,-301 630.598,-269.0718 645.5556,-207.5 604,-207.5"/>
<polygon fill="#000000" stroke="#000000" points="398.0575,-456.4291 407.5181,-461.9741 403.0287,-456.9646 408,-457.5 408,-457.5 408,-457.5 403.0287,-456.9646 408.4819,-453.0259 398.0575,-456.4291 398.0575,-456.4291"/>
<text text-anchor="start" x="176.503" y="-467.5" font-family="Arial" font-size="10.00" fill="#000000">FOREIGN KEY (class) REFERENCES classes (id)</text>
</g>
<!-- game_entries -->
<g id="node2" class="node">
<title>game_entries</title>
<polygon fill="#efefef" stroke="transparent" points="43,-977.5 43,-1012.5 293,-1012.5 293,-977.5 43,-977.5"/>
<polygon fill="none" stroke="#000000" points="43,-977.5 43,-1012.5 293,-1012.5 293,-977.5 43,-977.5"/>
<text text-anchor="start" x="49.7039" y="-990.3" font-family="Arial Bold" font-size="18.00" fill="#000000">game_entries</text>
<text text-anchor="start" x="158.7281" y="-990.3" font-family="Arial" font-size="14.00" fill="#000000">    </text>
<text text-anchor="start" x="192.9329" y="-990.3" font-family="Arial" font-size="14.00" fill="#666666">[BASE TABLE]</text>
<polygon fill="none" stroke="#000000" points="43,-947.5 43,-977.5 293,-977.5 293,-947.5 43,-947.5"/>
<text text-anchor="start" x="50" y="-958.9" font-family="Arial" font-size="14.00" fill="#000000">game    </text>
<text text-anchor="start" x="119.2132" y="-958.9" font-family="Arial" font-size="14.00" fill="#666666">[int]</text>
<polygon fill="none" stroke="#000000" points="43,-917.5 43,-947.5 293,-947.5 293,-917.5 43,-917.5"/>
<text text-anchor="start" x="50" y="-928.9" font-family="Arial" font-size="14.00" fill="#000000">team    </text>
<text text-anchor="start" x="115.3212" y="-928.9" font-family="Arial" font-size="14.00" fill="#666666">[int]</text>
</g>
<!-- game_entries&#45;&gt;teams -->
<g id="edge1" class="edge">
<title>game_entries:team&#45;&gt;teams:id</title>
<path fill="none" stroke="#000000" d="M302.8248,-930.2611C347.5143,-908.2892 327.9286,-730.9227 345,-680 365.7263,-618.1751 342.7934,-547.5 408,-547.5"/>
<polygon fill="#000000" stroke="#000000" points="302.75,-930.278 292.0001,-928.1125 297.875,-931.389 293,-932.5 293,-932.5 293,-932.5 297.875,-931.389 293.9999,-936.8875 302.75,-930.278 302.75,-930.278"/>
<text text-anchor="start" x="299.8345" y="-942.5" font-family="Arial" font-size="10.00" fill="#000000">FOREIGN KEY (team) REFERENCES teams (id)</text>
</g>
<!-- matches -->
<g id="node3" class="node">
<title>matches</title>
<polygon fill="#efefef" stroke="transparent" points="398,-1172.5 398,-1207.5 607,-1207.5 607,-1172.5 398,-1172.5"/>
<polygon fill="none" stroke="#000000" points="398,-1172.5 398,-1207.5 607,-1207.5 607,-1172.5 398,-1172.5"/>
<text text-anchor="start" x="404.7095" y="-1185.3" font-family="Arial Bold" font-size="18.00" fill="#000000">matches</text>
<text text-anchor="start" x="472.7225" y="-1185.3" font-family="Arial" font-size="14.00" fill="#000000">    </text>
<text text-anchor="start" x="506.9273" y="-1185.3" font-family="Arial" font-size="14.00" fill="#666666">[BASE TABLE]</text>
<polygon fill="none" stroke="#000000" points="398,-1142.5 398,-1172.5 607,-1172.5 607,-1142.5 398,-1142.5"/>
<text text-anchor="start" x="405" y="-1153.9" font-family="Arial" font-size="14.00" fill="#000000">id    </text>
<text text-anchor="start" x="450.094" y="-1153.9" font-family="Arial" font-size="14.00" fill="#666666">[int]</text>
<polygon fill="none" stroke="#000000" points="398,-1112.5 398,-1142.5 607,-1142.5 607,-1112.5 398,-1112.5"/>
<text text-anchor="start" x="405" y="-1123.9" font-family="Arial" font-size="14.00" fill="#000000">location    </text>
<text text-anchor="start" x="487.439" y="-1123.9" font-family="Arial" font-size="14.00" fill="#666666">[int]</text>
<polygon fill="none" stroke="#000000" points="398,-1082.5 398,-1112.5 607,-1112.5 607,-1082.5 398,-1082.5"/>
<text text-anchor="start" x="405" y="-1093.9" font-family="Arial" font-size="14.00" fill="#000000">game    </text>
<text text-anchor="start" x="474.2132" y="-1093.9" font-family="Arial" font-size="14.00" fill="#666666">[int]</text>
<polygon fill="none" stroke="#000000" points="398,-1052.5 398,-1082.5 607,-1082.5 607,-1052.5 398,-1052.5"/>
<text text-anchor="start" x="405" y="-1063.9" font-family="Arial" font-size="14.00" fill="#000000">sport    </text>
<text text-anchor="start" x="470.3212" y="-1063.9" font-family="Arial" font-size="14.00" fill="#666666">[int]</text>
<polygon fill="none" stroke="#000000" points="398,-1022.5 398,-1052.5 607,-1052.5 607,-1022.5 398,-1022.5"/>
<text text-anchor="start" x="405" y="-1033.9" font-family="Arial" font-size="14.00" fill="#000000">started_at    </text>
<text text-anchor="start" x="501.4502" y="-1033.9" font-family="Arial" font-size="14.00" fill="#666666">[datetime(6)]</text>
<polygon fill="none" stroke="#000000" points="398,-992.5 398,-1022.5 607,-1022.5 607,-992.5 398,-992.5"/>
<text text-anchor="start" x="405" y="-1003.9" font-family="Arial" font-size="14.00" fill="#000000">left_team    </text>
<text text-anchor="start" x="496.7742" y="-1003.9" font-family="Arial" font-size="14.00" fill="#666666">[int]</text>
<polygon fill="none" stroke="#000000" points="398,-962.5 398,-992.5 607,-992.5 607,-962.5 398,-962.5"/>
<text text-anchor="start" x="405" y="-973.9" font-family="Arial" font-size="14.00" fill="#000000">right_team    </text>
<text text-anchor="start" x="505.3268" y="-973.9" font-family="Arial" font-size="14.00" fill="#666666">[int]</text>
<polygon fill="none" stroke="#000000" points="398,-932.5 398,-962.5 607,-962.5 607,-932.5 398,-932.5"/>
<text text-anchor="start" x="405" y="-943.9" font-family="Arial" font-size="14.00" fill="#000000">left_score    </text>
<text text-anchor="start" x="499.8836" y="-943.9" font-family="Arial" font-size="14.00" fill="#666666">[int]</text>
<polygon fill="none" stroke="#000000" points="398,-902.5 398,-932.5 607,-932.5 607,-902.5 398,-902.5"/>
<text text-anchor="start" x="405" y="-913.9" font-family="Arial" font-size="14.00" fill="#000000">right_score    </text>
<text text-anchor="start" x="508.4362" y="-913.9" font-family="Arial" font-size="14.00" fill="#666666">[int]</text>
<polygon fill="none" stroke="#000000" points="398,-872.5 398,-902.5 607,-902.5 607,-872.5 398,-872.5"/>
<text text-anchor="start" x="405" y="-883.9" font-family="Arial" font-size="14.00" fill="#000000">result    </text>
<text text-anchor="start" x="473.4278" y="-883.9" font-family="Arial" font-size="14.00" fill="#666666">[varchar(32)]</text>
<polygon fill="none" stroke="#000000" points="398,-842.5 398,-872.5 607,-872.5 607,-842.5 398,-842.5"/>
<text text-anchor="start" x="405" y="-853.9" font-family="Arial" font-size="14.00" fill="#000000">status    </text>
<text text-anchor="start" x="476.5512" y="-853.9" font-family="Arial" font-size="14.00" fill="#666666">[varchar(32)]</text>
<polygon fill="none" stroke="#000000" points="398,-812.5 398,-842.5 607,-842.5 607,-812.5 398,-812.5"/>
<text text-anchor="start" x="405" y="-823.9" font-family="Arial" font-size="14.00" fill="#000000">note    </text>
<text text-anchor="start" x="466.4432" y="-823.9" font-family="Arial" font-size="14.00" fill="#666666">[text]</text>
<polygon fill="none" stroke="#000000" points="398,-782.5 398,-812.5 607,-812.5 607,-782.5 398,-782.5"/>
<text text-anchor="start" x="405" y="-793.9" font-family="Arial" font-size="14.00" fill="#000000">judge    </text>
<text text-anchor="start" x="473.4418" y="-793.9" font-family="Arial" font-size="14.00" fill="#666666">[varchar(64)]</text>
<polygon fill="none" stroke="#000000" points="398,-752.5 398,-782.5 607,-782.5 607,-752.5 398,-752.5"/>
<text text-anchor="start" x="405" y="-763.9" font-family="Arial" font-size="14.00" fill="#000000">created_at    </text>
<text text-anchor="start" x="505.3422" y="-763.9" font-family="Arial" font-size="14.00" fill="#666666">[datetime(6)]</text>
<polygon fill="none" stroke="#000000" points="398,-722.5 398,-752.5 607,-752.5 607,-722.5 398,-722.5"/>
<text text-anchor="start" x="405" y="-733.9" font-family="Arial" font-size="14.00" fill="#000000">updated_at    </text>
<text text-anchor="start" x="509.2468" y="-733.9" font-family="Arial" font-size="14.00" fill="#666666">[datetime(6)]</text>
</g>
<!-- matches&#45;&gt;teams -->
<g id="edge2" class="edge">
<title>matches:left_team&#45;&gt;teams:id</title>
<path fill="none" stroke="#000000" d="M616.9626,-1005.6138C677.1779,-981.4866 651.3787,-733.1274 607,-680 549.3791,-611.0199 465.6209,-712.9801 408,-644 380.5045,-611.0841 365.1111,-547.5 408,-547.5"/>
<polygon fill="#000000" stroke="#000000" points="616.8255,-1005.6397 606.1628,-1003.0785 611.9127,-1006.5698 607,-1007.5 607,-1007.5 607,-1007.5 611.9127,-1006.5698 607.8372,-1011.9215 616.8255,-1005.6397 616.8255,-1005.6397"/>
<text text-anchor="start" x="614.387" y="-1017.5" font-family="Arial" font-size="10.00" fill="#000000">FOREIGN KEY (left_team) REFERENCES teams (id)</text>
</g>
<!-- matches&#45;&gt;teams -->
<g id="edge3" class="edge">
<title>matches:right_team&#45;&gt;teams:id</title>
<path fill="none" stroke="#000000" d="M617.0519,-975.3584C670.4601,-951.0967 647.0652,-727.9634 607,-680 549.3791,-611.0199 465.6209,-712.9801 408,-644 380.5045,-611.0841 365.1111,-547.5 408,-547.5"/>
<polygon fill="#000000" stroke="#000000" points="616.7805,-975.4162 606.0623,-973.0988 611.8902,-976.4581 607,-977.5 607,-977.5 607,-977.5 611.8902,-976.4581 607.9377,-981.9012 616.7805,-975.4162 616.7805,-975.4162"/>
<text text-anchor="start" x="614.3325" y="-987.5" font-family="Arial" font-size="10.00" fill="#000000">FOREIGN KEY (right_team) REFERENCES teams (id)</text>
</g>
<!-- team_users -->
<g id="node4" class="node">
<title>team_users</title>
<polygon fill="#efefef" stroke="transparent" points="711,-977.5 711,-1012.5 946,-1012.5 946,-977.5 711,-977.5"/>
<polygon fill="none" stroke="#000000" points="711,-977.5 711,-1012.5 946,-1012.5 946,-977.5 711,-977.5"/>
<text text-anchor="start" x="717.7072" y="-990.3" font-family="Arial Bold" font-size="18.00" fill="#000000">team_users</text>
<text text-anchor="start" x="811.7248" y="-990.3" font-family="Arial" font-size="14.00" fill="#000000">    </text>
<text text-anchor="start" x="845.9296" y="-990.3" font-family="Arial" font-size="14.00" fill="#666666">[BASE TABLE]</text>
<polygon fill="none" stroke="#000000" points="711,-947.5 711,-977.5 946,-977.5 946,-947.5 711,-947.5"/>
<text text-anchor="start" x="718" y="-958.9" font-family="Arial" font-size="14.00" fill="#000000">team    </text>
<text text-anchor="start" x="783.3212" y="-958.9" font-family="Arial" font-size="14.00" fill="#666666">[int]</text>
<polygon fill="none" stroke="#000000" points="711,-917.5 711,-947.5 946,-947.5 946,-917.5 711,-917.5"/>
<text text-anchor="start" x="718" y="-928.9" font-family="Arial" font-size="14.00" fill="#000000">user    </text>
<text text-anchor="start" x="779.4306" y="-928.9" font-family="Arial" font-size="14.00" fill="#666666">[int]</text>
</g>
<!-- team_users&#45;&gt;teams -->
<g id="edge4" class="edge">
<title>team_users:team&#45;&gt;teams:id</title>
<path fill="none" stroke="#000000" d="M701.0408,-960.4363C650.5298,-937.9074 677.1827,-737.4062 659,-680 639.4244,-618.1962 662.8299,-547.5 598,-547.5"/>
<polygon fill="#000000" stroke="#000000" points="701.208,-960.4708 710.0869,-966.9064 706.104,-961.4854 711,-962.5 711,-962.5 711,-962.5 706.104,-961.4854 711.9131,-958.0936 701.208,-960.4708 701.208,-960.4708"/>
<text text-anchor="start" x="659.8345" y="-946.5" font-family="Arial" font-size="10.00" fill="#000000">FOREIGN KEY (team) REFERENCES teams (id)</text>
</g>
</g>
</svg>
