<?xml version="1.0" encoding="UTF-8" standalone="no"?>
<!DOCTYPE svg PUBLIC "-//W3C//DTD SVG 1.1//EN"
 "http://www.w3.org/Graphics/SVG/1.1/DTD/svg11.dtd">
<!-- Generated by graphviz version 2.40.1 (20161225.0304)
 -->
<!-- Title: teams Pages: 1 -->
<svg width="997pt" height="1259pt"
 viewBox="0.00 0.00 996.50 1259.00" xmlns="http://www.w3.org/2000/svg" xmlns:xlink="http://www.w3.org/1999/xlink">
<g id="graph0" class="graph" transform="scale(1 1) rotate(0) translate(4 1255)">
<title>teams</title>
<polygon fill="#ffffff" stroke="transparent" points="-4,4 -4,-1255 992.5,-1255 992.5,4 -4,4"/>
<!-- teams -->
<g id="node1" class="node">
<title>teams</title>
<polygon fill="#efefef" stroke="transparent" points="408,-562.5 408,-597.5 598,-597.5 598,-562.5 408,-562.5"/>
<polygon fill="none" stroke="#000000" points="408,-562.5 408,-597.5 598,-597.5 598,-562.5 408,-562.5"/>
<text text-anchor="start" x="414.7126" y="-575.3" font-family="Arial Bold" font-size="18.00" fill="#000000">teams</text>
<text text-anchor="start" x="463.7194" y="-575.3" font-family="Arial" font-size="14.00" fill="#000000">    </text>
<text text-anchor="start" x="497.9242" y="-575.3" font-family="Arial" font-size="14.00" fill="#666666">[BASE TABLE]</text>
<polygon fill="none" stroke="#000000" points="408,-532.5 408,-562.5 598,-562.5 598,-532.5 408,-532.5"/>
<text text-anchor="start" x="415" y="-543.9" font-family="Arial" font-size="14.00" fill="#000000">id </text>
<text text-anchor="start" x="429.7798" y="-543.9" font-family="Arial" font-size="14.00" fill="#666666">[int]</text>
<polygon fill="none" stroke="#000000" points="408,-502.5 408,-532.5 598,-532.5 598,-502.5 408,-502.5"/>
<text text-anchor="start" x="415" y="-513.9" font-family="Arial" font-size="14.00" fill="#000000">name </text>
<text text-anchor="start" x="453.899" y="-513.9" font-family="Arial" font-size="14.00" fill="#666666">[varchar(64)]</text>
<polygon fill="none" stroke="#000000" points="408,-472.5 408,-502.5 598,-502.5 598,-472.5 408,-472.5"/>
<text text-anchor="start" x="415" y="-483.9" font-family="Arial" font-size="14.00" fill="#000000">description </text>
<text text-anchor="start" x="486.568" y="-483.9" font-family="Arial" font-size="14.00" fill="#666666">[varchar(128)]</text>
<polygon fill="none" stroke="#000000" points="408,-442.5 408,-472.5 598,-472.5 598,-442.5 408,-442.5"/>
<text text-anchor="start" x="415" y="-453.9" font-family="Arial" font-size="14.00" fill="#000000">class </text>
<text text-anchor="start" x="450.7798" y="-453.9" font-family="Arial" font-size="14.00" fill="#666666">[int]</text>
<polygon fill="none" stroke="#000000" points="408,-412.5 408,-442.5 598,-442.5 598,-412.5 408,-412.5"/>
<text text-anchor="start" x="415" y="-423.9" font-family="Arial" font-size="14.00" fill="#000000">team_tag </text>
<text text-anchor="start" x="477.2454" y="-423.9" font-family="Arial" font-size="14.00" fill="#666666">[int]</text>
<polygon fill="none" stroke="#000000" points="408,-382.5 408,-412.5 598,-412.5 598,-382.5 408,-382.5"/>
<text text-anchor="start" x="415" y="-393.9" font-family="Arial" font-size="14.00" fill="#000000">created_at </text>
<text text-anchor="start" x="485.028" y="-393.9" font-family="Arial" font-size="14.00" fill="#666666">[datetime(6)]</text>
<polygon fill="none" stroke="#000000" points="408,-352.5 408,-382.5 598,-382.5 598,-352.5 408,-352.5"/>
<text text-anchor="start" x="415" y="-363.9" font-family="Arial" font-size="14.00" fill="#000000">updated_at </text>
<text text-anchor="start" x="488.9326" y="-363.9" font-family="Arial" font-size="14.00" fill="#666666">[datetime(6)]</text>
<polygon fill="none" stroke="#000000" stroke-width="3" points="406.5,-351.5 406.5,-599.5 599.5,-599.5 599.5,-351.5 406.5,-351.5"/>
</g>
<!-- classes -->
<g id="node5" class="node">
<title>classes</title>
<polygon fill="#efefef" stroke="transparent" points="242,-192.5 242,-227.5 445,-227.5 445,-192.5 242,-192.5"/>
<polygon fill="none" stroke="#000000" points="242,-192.5 242,-227.5 445,-227.5 445,-192.5 242,-192.5"/>
<text text-anchor="start" x="249.7127" y="-205.3" font-family="Arial Bold" font-size="18.00" fill="#000000">classes</text>
<text text-anchor="start" x="309.7193" y="-205.3" font-family="Arial" font-size="14.00" fill="#000000">    </text>
<text text-anchor="start" x="343.9241" y="-205.3" font-family="Arial" font-size="14.00" fill="#666666">[BASE TABLE]</text>
<polygon fill="none" stroke="#000000" points="242,-162.5 242,-192.5 445,-192.5 445,-162.5 242,-162.5"/>
<text text-anchor="start" x="249" y="-173.9" font-family="Arial" font-size="14.00" fill="#000000">id    </text>
<text text-anchor="start" x="294.094" y="-173.9" font-family="Arial" font-size="14.00" fill="#666666">[int]</text>
<polygon fill="none" stroke="#000000" points="242,-132.5 242,-162.5 445,-162.5 445,-132.5 242,-132.5"/>
<text text-anchor="start" x="249" y="-143.9" font-family="Arial" font-size="14.00" fill="#000000">name    </text>
<text text-anchor="start" x="318.2132" y="-143.9" font-family="Arial" font-size="14.00" fill="#666666">[varchar(64)]</text>
<polygon fill="none" stroke="#000000" points="242,-102.5 242,-132.5 445,-132.5 445,-102.5 242,-102.5"/>
<text text-anchor="start" x="248.9993" y="-113.9" font-family="Arial" font-size="14.00" fill="#000000">description    </text>
<text text-anchor="start" x="350.8815" y="-113.9" font-family="Arial" font-size="14.00" fill="#666666">[varchar(128)]</text>
<polygon fill="none" stroke="#000000" points="242,-72.5 242,-102.5 445,-102.5 445,-72.5 242,-72.5"/>
<text text-anchor="start" x="249" y="-83.9" font-family="Arial" font-size="14.00" fill="#000000">created_at    </text>
<text text-anchor="start" x="349.3422" y="-83.9" font-family="Arial" font-size="14.00" fill="#666666">[datetime(6)]</text>
<polygon fill="none" stroke="#000000" points="242,-42.5 242,-72.5 445,-72.5 445,-42.5 242,-42.5"/>
<text text-anchor="start" x="249" y="-53.9" font-family="Arial" font-size="14.00" fill="#000000">updated_at    </text>
<text text-anchor="start" x="353.2468" y="-53.9" font-family="Arial" font-size="14.00" fill="#666666">[datetime(6)]</text>
</g>
<!-- teams&#45;&gt;classes -->
<g id="edge6" class="edge">
<title>teams:class&#45;&gt;classes:id</title>
<path fill="none" stroke="#000000" d="M397.9728,-456.7216C345.5367,-447.8603 383.4031,-365.2506 408,-307 416.9252,-285.8633 436.0748,-292.1367 445,-271 461.1652,-232.7175 486.5556,-177.5 445,-177.5"/>
<polygon fill="#000000" stroke="#000000" points="398.03,-456.7259 407.6517,-461.9865 403.015,-457.113 408,-457.5 408,-457.5 408,-457.5 403.015,-457.113 408.3483,-453.0135 398.03,-456.7259 398.03,-456.7259"/>
<text text-anchor="start" x="176.503" y="-467.5" font-family="Arial" font-size="10.00" fill="#000000">FOREIGN KEY (class) REFERENCES classes (id)</text>
</g>
<!-- team_tags -->
<g id="node6" class="node">
<title>team_tags</title>
<polygon fill="#efefef" stroke="transparent" points="549,-177.5 549,-212.5 774,-212.5 774,-177.5 549,-177.5"/>
<polygon fill="none" stroke="#000000" points="549,-177.5 549,-212.5 774,-212.5 774,-177.5 549,-177.5"/>
<text text-anchor="start" x="555.7022" y="-190.3" font-family="Arial Bold" font-size="18.00" fill="#000000">team_tags</text>
<text text-anchor="start" x="639.7298" y="-190.3" font-family="Arial" font-size="14.00" fill="#000000">    </text>
<text text-anchor="start" x="673.9346" y="-190.3" font-family="Arial" font-size="14.00" fill="#666666">[BASE TABLE]</text>
<polygon fill="none" stroke="#000000" points="549,-147.5 549,-177.5 774,-177.5 774,-147.5 549,-147.5"/>
<text text-anchor="start" x="556" y="-158.9" font-family="Arial" font-size="14.00" fill="#000000">id    </text>
<text text-anchor="start" x="601.094" y="-158.9" font-family="Arial" font-size="14.00" fill="#666666">[int]</text>
<polygon fill="none" stroke="#000000" points="549,-117.5 549,-147.5 774,-147.5 774,-117.5 549,-117.5"/>
<text text-anchor="start" x="556" y="-128.9" font-family="Arial" font-size="14.00" fill="#000000">name    </text>
<text text-anchor="start" x="625.2132" y="-128.9" font-family="Arial" font-size="14.00" fill="#666666">[varchar(64)]</text>
<polygon fill="none" stroke="#000000" points="549,-87.5 549,-117.5 774,-117.5 774,-87.5 549,-87.5"/>
<text text-anchor="start" x="556" y="-98.9" font-family="Arial" font-size="14.00" fill="#000000">created_at    </text>
<text text-anchor="start" x="656.3422" y="-98.9" font-family="Arial" font-size="14.00" fill="#666666">[datetime(6)]</text>
<polygon fill="none" stroke="#000000" points="549,-57.5 549,-87.5 774,-87.5 774,-57.5 549,-57.5"/>
<text text-anchor="start" x="556" y="-68.9" font-family="Arial" font-size="14.00" fill="#000000">updated_at    </text>
<text text-anchor="start" x="660.2468" y="-68.9" font-family="Arial" font-size="14.00" fill="#666666">[datetime(6)]</text>
</g>
<!-- teams&#45;&gt;team_tags -->
<g id="edge7" class="edge">
<title>teams:team_tag&#45;&gt;team_tags:id</title>
<path fill="none" stroke="#000000" d="M608.0152,-427.3132C768.022,-421.101 551.4193,-262.0099 549,-256 533.482,-217.4506 507.4444,-162.5 549,-162.5"/>
<polygon fill="#000000" stroke="#000000" points="607.9983,-427.3134 597.916,-423.0008 602.9991,-427.4067 598,-427.5 598,-427.5 598,-427.5 602.9991,-427.4067 598.084,-431.9992 607.9983,-427.3134 607.9983,-427.3134"/>
<text text-anchor="start" x="605.3785" y="-437.5" font-family="Arial" font-size="10.00" fill="#000000">FOREIGN KEY (team_tag) REFERENCES team_tags (id)</text>
</g>
<!-- game_entries -->
<g id="node2" class="node">
<title>game_entries</title>
<polygon fill="#efefef" stroke="transparent" points="43,-977.5 43,-1012.5 293,-1012.5 293,-977.5 43,-977.5"/>
<polygon fill="none" stroke="#000000" points="43,-977.5 43,-1012.5 293,-1012.5 293,-977.5 43,-977.5"/>
<text text-anchor="start" x="49.7039" y="-990.3" font-family="Arial Bold" font-size="18.00" fill="#000000">game_entries</text>
<text text-anchor="start" x="158.7281" y="-990.3" font-family="Arial" font-size="14.00" fill="#000000">    </text>
<text text-anchor="start" x="192.9329" y="-990.3" font-family="Arial" font-size="14.00" fill="#666666">[BASE TABLE]</text>
<polygon fill="none" stroke="#000000" points="43,-947.5 43,-977.5 293,-977.5 293,-947.5 43,-947.5"/>
<text text-anchor="start" x="50" y="-958.9" font-family="Arial" font-size="14.00" fill="#000000">game    </text>
<text text-anchor="start" x="119.2132" y="-958.9" font-family="Arial" font-size="14.00" fill="#666666">[int]</text>
<polygon fill="none" stroke="#000000" points="43,-917.5 43,-947.5 293,-947.5 293,-917.5 43,-917.5"/>
<text text-anchor="start" x="50" y="-928.9" font-family="Arial" font-size="14.00" fill="#000000">team    </text>
<text text-anchor="start" x="115.3212" y="-928.9" font-family="Arial" font-size="14.00" fill="#666666">[int]</text>
</g>
<!-- game_entries&#45;&gt;teams -->
<g id="edge1" class="edge">
<title>game_entries:team&#45;&gt;teams:id</title>
<path fill="none" stroke="#000000" d="M302.8248,-930.2611C347.5143,-908.2892 327.9286,-730.9227 345,-680 365.7263,-618.1751 342.7934,-547.5 408,-547.5"/>
<polygon fill="#000000" stroke="#000000" points="302.75,-930.278 292.0001,-928.1125 297.875,-931.389 293,-932.5 293,-932.5 293,-932.5 297.875,-931.389 293.9999,-936.8875 302.75,-930.278 302.75,-930.278"/>
<text text-anchor="start" x="299.8345" y="-942.5" font-family="Arial" font-size="10.00" fill="#000000">FOREIGN KEY (team) REFERENCES teams (id)</text>
</g>
<!-- matches -->
<g id="node3" class="node">
<title>matches</title>
<polygon fill="#efefef" stroke="transparent" points="398,-1172.5 398,-1207.5 607,-1207.5 607,-1172.5 398,-1172.5"/>
<polygon fill="none" stroke="#000000" points="398,-1172.5 398,-1207.5 607,-1207.5 607,-1172.5 398,-1172.5"/>
<text text-anchor="start" x="404.7095" y="-1185.3" font-family="Arial Bold" font-size="18.00" fill="#000000">matches</text>
<text text-anchor="start" x="472.7225" y="-1185.3" font-family="Arial" font-size="14.00" fill="#000000">    </text>
<text text-anchor="start" x="506.9273" y="-1185.3" font-family="Arial" font-size="14.00" fill="#666666">[BASE TABLE]</text>
<polygon fill="none" stroke="#000000" points="398,-1142.5 398,-1172.5 607,-1172.5 607,-1142.5 398,-1142.5"/>
<text text-anchor="start" x="405" y="-1153.9" font-family="Arial" font-size="14.00" fill="#000000">id    </text>
<text text-anchor="start" x="450.094" y="-1153.9" font-family="Arial" font-size="14.00" fill="#666666">[int]</text>
<polygon fill="none" stroke="#000000" points="398,-1112.5 398,-1142.5 607,-1142.5 607,-1112.5 398,-1112.5"/>
<text text-anchor="start" x="405" y="-1123.9" font-family="Arial" font-size="14.00" fill="#000000">location    </text>
<text text-anchor="start" x="487.439" y="-1123.9" font-family="Arial" font-size="14.00" fill="#666666">[int]</text>
<polygon fill="none" stroke="#000000" points="398,-1082.5 398,-1112.5 607,-1112.5 607,-1082.5 398,-1082.5"/>
<text text-anchor="start" x="405" y="-1093.9" font-family="Arial" font-size="14.00" fill="#000000">game    </text>
<text text-anchor="start" x="474.2132" y="-1093.9" font-family="Arial" font-size="14.00" fill="#666666">[int]</text>
<polygon fill="none" stroke="#000000" points="398,-1052.5 398,-1082.5 607,-1082.5 607,-1052.5 398,-1052.5"/>
<text text-anchor="start" x="405" y="-1063.9" font-family="Arial" font-size="14.00" fill="#000000">sport    </text>
<text text-anchor="start" x="470.3212" y="-1063.9" font-family="Arial" font-size="14.00" fill="#666666">[int]</text>
<polygon fill="none" stroke="#000000" points="398,-1022.5 398,-1052.5 607,-1052.5 607,-1022.5 398,-1022.5"/>
<text text-anchor="start" x="405" y="-1033.9" font-family="Arial" font-size="14.00" fill="#000000">started_at    </text>
<text text-anchor="start" x="501.4502" y="-1033.9" font-family="Arial" font-size="14.00" fill="#666666">[datetime(6)]</text>
<polygon fill="none" stroke="#000000" points="398,-992.5 398,-1022.5 607,-1022.5 607,-992.5 398,-992.5"/>
<text text-anchor="start" x="405" y="-1003.9" font-family="Arial" font-size="14.00" fill="#000000">left_team    </text>
<text text-anchor="start" x="496.7742" y="-1003.9" font-family="Arial" font-size="14.00" fill="#666666">[int]</text>
<polygon fill="none" stroke="#000000" points="398,-962.5 398,-992.5 607,-992.5 607,-962.5 398,-962.5"/>
<text text-anchor="start" x="405" y="-973.9" font-family="Arial" font-size="14.00" fill="#000000">right_team    </text>
<text text-anchor="start" x="505.3268" y="-973.9" font-family="Arial" font-size="14.00" fill="#666666">[int]</text>
<polygon fill="none" stroke="#000000" points="398,-932.5 398,-962.5 607,-962.5 607,-932.5 398,-932.5"/>
<text text-anchor="start" x="405" y="-943.9" font-family="Arial" font-size="14.00" fill="#000000">left_score    </text>
<text text-anchor="start" x="499.8836" y="-943.9" font-family="Arial" font-size="14.00" fill="#666666">[int]</text>
<polygon fill="none" stroke="#000000" points="398,-902.5 398,-932.5 607,-932.5 607,-902.5 398,-902.5"/>
<text text-anchor="start" x="405" y="-913.9" font-family="Arial" font-size="14.00" fill="#000000">right_score    </text>
<text text-anchor="start" x="508.4362" y="-913.9" font-family="Arial" font-size="14.00" fill="#666666">[int]</text>
<polygon fill="none" stroke="#000000" points="398,-872.5 398,-902.5 607,-902.5 607,-872.5 398,-872.5"/>
<text text-anchor="start" x="405" y="-883.9" font-family="Arial" font-size="14.00" fill="#000000">result    </text>
<text text-anchor="start" x="473.4278" y="-883.9" font-family="Arial" font-size="14.00" fill="#666666">[varchar(32)]</text>
<polygon fill="none" stroke="#000000" points="398,-842.5 398,-872.5 607,-872.5 607,-842.5 398,-842.5"/>
<text text-anchor="start" x="405" y="-853.9" font-family="Arial" font-size="14.00" fill="#000000">status    </text>
<text text-anchor="start" x="476.5512" y="-853.9" font-family="Arial" font-size="14.00" fill="#666666">[varchar(32)]</text>
<polygon fill="none" stroke="#000000" points="398,-812.5 398,-842.5 607,-842.5 607,-812.5 398,-812.5"/>
<text text-anchor="start" x="405" y="-823.9" font-family="Arial" font-size="14.00" fill="#000000">note    </text>
<text text-anchor="start" x="466.4432" y="-823.9" font-family="Arial" font-size="14.00" fill="#666666">[text]</text>
<polygon fill="none" stroke="#000000" points="398,-782.5 398,-812.5 607,-812.5 607,-782.5 398,-782.5"/>
<text text-anchor="start" x="405" y="-793.9" font-family="Arial" font-size="14.00" fill="#000000">judge_team_id    </text>
<text text-anchor="start" x="531.0126" y="-793.9" font-family="Arial" font-size="14.00" fill="#666666">[int]</text>
<polygon fill="none" stroke="#000000" points="398,-752.5 398,-782.5 607,-782.5 607,-752.5 398,-752.5"/>
<text text-anchor="start" x="405" y="-763.9" font-family="Arial" font-size="14.00" fill="#000000">created_at    </text>
<text text-anchor="start" x="505.3422" y="-763.9" font-family="Arial" font-size="14.00" fill="#666666">[datetime(6)]</text>
<polygon fill="none" stroke="#000000" points="398,-722.5 398,-752.5 607,-752.5 607,-722.5 398,-722.5"/>
<text text-anchor="start" x="405" y="-733.9" font-family="Arial" font-size="14.00" fill="#000000">updated_at    </text>
<text text-anchor="start" x="509.2468" y="-733.9" font-family="Arial" font-size="14.00" fill="#666666">[datetime(6)]</text>
</g>
<!-- matches&#45;&gt;teams -->
<g id="edge2" class="edge">
<title>matches:judge_team_id&#45;&gt;teams:id</title>
<path fill="none" stroke="#000000" d="M616.9826,-796.3916C656.5136,-786.7973 638.125,-717.2609 607,-680 549.3791,-611.0199 465.6209,-712.9801 408,-644 380.5045,-611.0841 365.1111,-547.5 408,-547.5"/>
<polygon fill="#000000" stroke="#000000" points="616.9389,-796.3964 606.5034,-793.0275 611.9695,-796.9482 607,-797.5 607,-797.5 607,-797.5 611.9695,-796.9482 607.4966,-801.9725 616.9389,-796.3964 616.9389,-796.3964"/>
<text text-anchor="start" x="614.159" y="-807.5" font-family="Arial" font-size="10.00" fill="#000000">FOREIGN KEY (judge_team_id) REFERENCES teams (id)</text>
</g>
<!-- matches&#45;&gt;teams -->
<g id="edge3" class="edge">
<title>matches:left_team&#45;&gt;teams:id</title>
<path fill="none" stroke="#000000" d="M616.9626,-1005.6138C677.1779,-981.4866 651.3787,-733.1274 607,-680 549.3791,-611.0199 465.6209,-712.9801 408,-644 380.5045,-611.0841 365.1111,-547.5 408,-547.5"/>
<polygon fill="#000000" stroke="#000000" points="616.8255,-1005.6397 606.1628,-1003.0785 611.9127,-1006.5698 607,-1007.5 607,-1007.5 607,-1007.5 611.9127,-1006.5698 607.8372,-1011.9215 616.8255,-1005.6397 616.8255,-1005.6397"/>
<text text-anchor="start" x="614.387" y="-1017.5" font-family="Arial" font-size="10.00" fill="#000000">FOREIGN KEY (left_team) REFERENCES teams (id)</text>
</g>
<!-- matches&#45;&gt;teams -->
<g id="edge4" class="edge">
<title>matches:right_team&#45;&gt;teams:id</title>
<path fill="none" stroke="#000000" d="M617.0519,-975.3584C670.4601,-951.0967 647.0652,-727.9634 607,-680 549.3791,-611.0199 465.6209,-712.9801 408,-644 380.5045,-611.0841 365.1111,-547.5 408,-547.5"/>
<polygon fill="#000000" stroke="#000000" points="616.7805,-975.4162 606.0623,-973.0988 611.8902,-976.4581 607,-977.5 607,-977.5 607,-977.5 611.8902,-976.4581 607.9377,-981.9012 616.7805,-975.4162 616.7805,-975.4162"/>
<text text-anchor="start" x="614.3325" y="-987.5" font-family="Arial" font-size="10.00" fill="#000000">FOREIGN KEY (right_team) REFERENCES teams (id)</text>
</g>
<!-- team_users -->
<g id="node4" class="node">
<title>team_users</title>
<polygon fill="#efefef" stroke="transparent" points="711,-977.5 711,-1012.5 946,-1012.5 946,-977.5 711,-977.5"/>
<polygon fill="none" stroke="#000000" points="711,-977.5 711,-1012.5 946,-1012.5 946,-977.5 711,-977.5"/>
<text text-anchor="start" x="717.7072" y="-990.3" font-family="Arial Bold" font-size="18.00" fill="#000000">team_users</text>
<text text-anchor="start" x="811.7248" y="-990.3" font-family="Arial" font-size="14.00" fill="#000000">    </text>
<text text-anchor="start" x="845.9296" y="-990.3" font-family="Arial" font-size="14.00" fill="#666666">[BASE TABLE]</text>
<polygon fill="none" stroke="#000000" points="711,-947.5 711,-977.5 946,-977.5 946,-947.5 711,-947.5"/>
<text text-anchor="start" x="718" y="-958.9" font-family="Arial" font-size="14.00" fill="#000000">team    </text>
<text text-anchor="start" x="783.3212" y="-958.9" font-family="Arial" font-size="14.00" fill="#666666">[int]</text>
<polygon fill="none" stroke="#000000" points="711,-917.5 711,-947.5 946,-947.5 946,-917.5 711,-917.5"/>
<text text-anchor="start" x="718" y="-928.9" font-family="Arial" font-size="14.00" fill="#000000">user    </text>
<text text-anchor="start" x="779.4306" y="-928.9" font-family="Arial" font-size="14.00" fill="#666666">[int]</text>
</g>
<!-- team_users&#45;&gt;teams -->
<g id="edge5" class="edge">
<title>team_users:team&#45;&gt;teams:id</title>
<path fill="none" stroke="#000000" d="M701.0408,-960.4363C650.5298,-937.9074 677.1827,-737.4062 659,-680 639.4244,-618.1962 662.8299,-547.5 598,-547.5"/>
<polygon fill="#000000" stroke="#000000" points="701.208,-960.4708 710.0869,-966.9064 706.104,-961.4854 711,-962.5 711,-962.5 711,-962.5 706.104,-961.4854 711.9131,-958.0936 701.208,-960.4708 701.208,-960.4708"/>
<text text-anchor="start" x="659.8345" y="-946.5" font-family="Arial" font-size="10.00" fill="#000000">FOREIGN KEY (team) REFERENCES teams (id)</text>
</g>
</g>
</svg>
