<?xml version="1.0" encoding="UTF-8" standalone="no"?>
<!DOCTYPE svg PUBLIC "-//W3C//DTD SVG 1.1//EN"
 "http://www.w3.org/Graphics/SVG/1.1/DTD/svg11.dtd">
<!-- Generated by graphviz version 2.40.1 (20161225.0304)
 -->
<!-- Title: team_users Pages: 1 -->
<svg width="701pt" height="562pt"
 viewBox="0.00 0.00 701.00 562.00" xmlns="http://www.w3.org/2000/svg" xmlns:xlink="http://www.w3.org/1999/xlink">
<g id="graph0" class="graph" transform="scale(1 1) rotate(0) translate(4 558)">
<title>team_users</title>
<polygon fill="#ffffff" stroke="transparent" points="-4,4 -4,-558 697,-558 697,4 -4,4"/>
<!-- team_users -->
<g id="node1" class="node">
<title>team_users</title>
<polygon fill="#efefef" stroke="transparent" points="232,-472.5 232,-507.5 467,-507.5 467,-472.5 232,-472.5"/>
<polygon fill="none" stroke="#000000" points="232,-472.5 232,-507.5 467,-507.5 467,-472.5 232,-472.5"/>
<text text-anchor="start" x="238.7072" y="-485.3" font-family="Arial Bold" font-size="18.00" fill="#000000">team_users</text>
<text text-anchor="start" x="332.7248" y="-485.3" font-family="Arial" font-size="14.00" fill="#000000">    </text>
<text text-anchor="start" x="366.9296" y="-485.3" font-family="Arial" font-size="14.00" fill="#666666">[BASE TABLE]</text>
<polygon fill="none" stroke="#000000" points="232,-442.5 232,-472.5 467,-472.5 467,-442.5 232,-442.5"/>
<text text-anchor="start" x="239" y="-453.9" font-family="Arial" font-size="14.00" fill="#000000">team </text>
<text text-anchor="start" x="274.007" y="-453.9" font-family="Arial" font-size="14.00" fill="#666666">[int]</text>
<polygon fill="none" stroke="#000000" points="232,-412.5 232,-442.5 467,-442.5 467,-412.5 232,-412.5"/>
<text text-anchor="start" x="239" y="-423.9" font-family="Arial" font-size="14.00" fill="#000000">user </text>
<text text-anchor="start" x="270.1164" y="-423.9" font-family="Arial" font-size="14.00" fill="#666666">[int]</text>
<polygon fill="none" stroke="#000000" stroke-width="3" points="230,-411.5 230,-509.5 468,-509.5 468,-411.5 230,-411.5"/>
</g>
<!-- teams -->
<g id="node2" class="node">
<title>teams</title>
<polygon fill="#efefef" stroke="transparent" points="97,-237.5 97,-272.5 300,-272.5 300,-237.5 97,-237.5"/>
<polygon fill="none" stroke="#000000" points="97,-237.5 97,-272.5 300,-272.5 300,-237.5 97,-237.5"/>
<text text-anchor="start" x="110.2126" y="-250.3" font-family="Arial Bold" font-size="18.00" fill="#000000">teams</text>
<text text-anchor="start" x="159.2194" y="-250.3" font-family="Arial" font-size="14.00" fill="#000000">    </text>
<text text-anchor="start" x="193.4242" y="-250.3" font-family="Arial" font-size="14.00" fill="#666666">[BASE TABLE]</text>
<polygon fill="none" stroke="#000000" points="97,-207.5 97,-237.5 300,-237.5 300,-207.5 97,-207.5"/>
<text text-anchor="start" x="104" y="-218.9" font-family="Arial" font-size="14.00" fill="#000000">id    </text>
<text text-anchor="start" x="149.094" y="-218.9" font-family="Arial" font-size="14.00" fill="#666666">[int]</text>
<polygon fill="none" stroke="#000000" points="97,-177.5 97,-207.5 300,-207.5 300,-177.5 97,-177.5"/>
<text text-anchor="start" x="104" y="-188.9" font-family="Arial" font-size="14.00" fill="#000000">name    </text>
<text text-anchor="start" x="173.2132" y="-188.9" font-family="Arial" font-size="14.00" fill="#666666">[varchar(64)]</text>
<polygon fill="none" stroke="#000000" points="97,-147.5 97,-177.5 300,-177.5 300,-147.5 97,-147.5"/>
<text text-anchor="start" x="103.9993" y="-158.9" font-family="Arial" font-size="14.00" fill="#000000">description    </text>
<text text-anchor="start" x="205.8815" y="-158.9" font-family="Arial" font-size="14.00" fill="#666666">[varchar(128)]</text>
<polygon fill="none" stroke="#000000" points="97,-117.5 97,-147.5 300,-147.5 300,-117.5 97,-117.5"/>
<text text-anchor="start" x="104" y="-128.9" font-family="Arial" font-size="14.00" fill="#000000">class    </text>
<text text-anchor="start" x="170.094" y="-128.9" font-family="Arial" font-size="14.00" fill="#666666">[int]</text>
<polygon fill="none" stroke="#000000" points="97,-87.5 97,-117.5 300,-117.5 300,-87.5 97,-87.5"/>
<text text-anchor="start" x="104" y="-98.9" font-family="Arial" font-size="14.00" fill="#000000">created_at    </text>
<text text-anchor="start" x="204.3422" y="-98.9" font-family="Arial" font-size="14.00" fill="#666666">[datetime(6)]</text>
<polygon fill="none" stroke="#000000" points="97,-57.5 97,-87.5 300,-87.5 300,-57.5 97,-57.5"/>
<text text-anchor="start" x="104" y="-68.9" font-family="Arial" font-size="14.00" fill="#000000">updated_at    </text>
<text text-anchor="start" x="208.2468" y="-68.9" font-family="Arial" font-size="14.00" fill="#666666">[datetime(6)]</text>
</g>
<!-- team_users&#45;&gt;teams -->
<g id="edge1" class="edge">
<title>team_users:team&#45;&gt;teams:id</title>
<path fill="none" stroke="#000000" d="M221.9409,-456.0081C196.0799,-447.0276 215.7687,-399.4626 232,-367 248.8947,-333.2105 283.1053,-349.7895 300,-316 318.5842,-278.8316 341.5556,-222.5 300,-222.5"/>
<polygon fill="#000000" stroke="#000000" points="222.1082,-456.0328 231.3398,-461.9513 227.0541,-456.7664 232,-457.5 232,-457.5 232,-457.5 227.0541,-456.7664 232.6602,-453.0487 222.1082,-456.0328 222.1082,-456.0328"/>
<text text-anchor="start" x="6.8345" y="-467.5" font-family="Arial" font-size="10.00" fill="#000000">FOREIGN KEY (team) REFERENCES teams (id)</text>
</g>
<!-- users -->
<g id="node3" class="node">
<title>users</title>
<polygon fill="#efefef" stroke="transparent" points="404,-252.5 404,-287.5 600,-287.5 600,-252.5 404,-252.5"/>
<polygon fill="none" stroke="#000000" points="404,-252.5 404,-287.5 600,-287.5 600,-252.5 404,-252.5"/>
<text text-anchor="start" x="416.2137" y="-265.3" font-family="Arial Bold" font-size="18.00" fill="#000000">users</text>
<text text-anchor="start" x="460.2183" y="-265.3" font-family="Arial" font-size="14.00" fill="#000000">    </text>
<text text-anchor="start" x="494.4231" y="-265.3" font-family="Arial" font-size="14.00" fill="#666666">[BASE TABLE]</text>
<polygon fill="none" stroke="#000000" points="404,-222.5 404,-252.5 600,-252.5 600,-222.5 404,-222.5"/>
<text text-anchor="start" x="411" y="-233.9" font-family="Arial" font-size="14.00" fill="#000000">id    </text>
<text text-anchor="start" x="456.094" y="-233.9" font-family="Arial" font-size="14.00" fill="#666666">[int]</text>
<polygon fill="none" stroke="#000000" points="404,-192.5 404,-222.5 600,-222.5 600,-192.5 404,-192.5"/>
<text text-anchor="start" x="411" y="-203.9" font-family="Arial" font-size="14.00" fill="#000000">name    </text>
<text text-anchor="start" x="480.2132" y="-203.9" font-family="Arial" font-size="14.00" fill="#666666">[varchar(64)]</text>
<polygon fill="none" stroke="#000000" points="404,-162.5 404,-192.5 600,-192.5 600,-162.5 404,-162.5"/>
<text text-anchor="start" x="411" y="-173.9" font-family="Arial" font-size="14.00" fill="#000000">student_id    </text>
<text text-anchor="start" x="509.7882" y="-173.9" font-family="Arial" font-size="14.00" fill="#666666">[varchar(32)]</text>
<polygon fill="none" stroke="#000000" points="404,-132.5 404,-162.5 600,-162.5 600,-132.5 404,-132.5"/>
<text text-anchor="start" x="411" y="-143.9" font-family="Arial" font-size="14.00" fill="#000000">gender    </text>
<text text-anchor="start" x="488.7784" y="-143.9" font-family="Arial" font-size="14.00" fill="#666666">[varchar(10)]</text>
<polygon fill="none" stroke="#000000" points="404,-102.5 404,-132.5 600,-132.5 600,-102.5 404,-102.5"/>
<text text-anchor="start" x="411" y="-113.9" font-family="Arial" font-size="14.00" fill="#000000">class    </text>
<text text-anchor="start" x="477.094" y="-113.9" font-family="Arial" font-size="14.00" fill="#666666">[int]</text>
<polygon fill="none" stroke="#000000" points="404,-72.5 404,-102.5 600,-102.5 600,-72.5 404,-72.5"/>
<text text-anchor="start" x="411" y="-83.9" font-family="Arial" font-size="14.00" fill="#000000">created_at    </text>
<text text-anchor="start" x="511.3422" y="-83.9" font-family="Arial" font-size="14.00" fill="#666666">[datetime(6)]</text>
<polygon fill="none" stroke="#000000" points="404,-42.5 404,-72.5 600,-72.5 600,-42.5 404,-42.5"/>
<text text-anchor="start" x="410.5947" y="-53.9" font-family="Arial" font-size="14.00" fill="#000000">updated_at    </text>
<text text-anchor="start" x="514.8415" y="-53.9" font-family="Arial" font-size="14.00" fill="#666666">[datetime(6)]</text>
</g>
<!-- team_users&#45;&gt;users -->
<g id="edge2" class="edge">
<title>team_users:user&#45;&gt;users:id</title>
<path fill="none" stroke="#000000" d="M476.8071,-424.9676C489.7012,-416.2029 478.3875,-386.6226 467,-367 450.8133,-339.1075 420.1867,-358.8925 404,-331 383.1422,-295.0582 362.4444,-237.5 404,-237.5"/>
<polygon fill="#000000" stroke="#000000" points="476.6824,-424.9998 465.8749,-423.1429 471.8412,-426.2499 467,-427.5 467,-427.5 467,-427.5 471.8412,-426.2499 468.1251,-431.8571 476.6824,-424.9998 476.6824,-424.9998"/>
<text text-anchor="start" x="473.6135" y="-437.5" font-family="Arial" font-size="10.00" fill="#000000">FOREIGN KEY (user) REFERENCES users (id)</text>
</g>
</g>
</svg>
