<?xml version="1.0" encoding="UTF-8" standalone="no"?>
<!DOCTYPE svg PUBLIC "-//W3C//DTD SVG 1.1//EN"
 "http://www.w3.org/Graphics/SVG/1.1/DTD/svg11.dtd">
<!-- Generated by graphviz version 2.40.1 (20161225.0304)
 -->
<!-- Title: tournament_path Pages: 1 -->
<svg width="702pt" height="802pt"
 viewBox="0.00 0.00 702.00 802.00" xmlns="http://www.w3.org/2000/svg" xmlns:xlink="http://www.w3.org/1999/xlink">
<g id="graph0" class="graph" transform="scale(1 1) rotate(0) translate(4 798)">
<title>tournament_path</title>
<polygon fill="#ffffff" stroke="transparent" points="-4,4 -4,-798 698,-798 698,4 -4,4"/>
<!-- tournament_path -->
<g id="node1" class="node">
<title>tournament_path</title>
<polygon fill="#efefef" stroke="transparent" points="281,-712.5 281,-747.5 558,-747.5 558,-712.5 281,-712.5"/>
<polygon fill="none" stroke="#000000" points="281,-712.5 281,-747.5 558,-747.5 558,-712.5 281,-712.5"/>
<text text-anchor="start" x="287.6895" y="-725.3" font-family="Arial Bold" font-size="18.00" fill="#000000">tournament_path</text>
<text text-anchor="start" x="423.7425" y="-725.3" font-family="Arial" font-size="14.00" fill="#000000">    </text>
<text text-anchor="start" x="457.9473" y="-725.3" font-family="Arial" font-size="14.00" fill="#666666">[BASE TABLE]</text>
<polygon fill="none" stroke="#000000" points="281,-682.5 281,-712.5 558,-712.5 558,-682.5 281,-682.5"/>
<text text-anchor="start" x="288" y="-693.9" font-family="Arial" font-size="14.00" fill="#000000">parent_match </text>
<text text-anchor="start" x="377.4712" y="-693.9" font-family="Arial" font-size="14.00" fill="#666666">[int]</text>
<polygon fill="none" stroke="#000000" points="281,-652.5 281,-682.5 558,-682.5 558,-652.5 281,-652.5"/>
<text text-anchor="start" x="288" y="-663.9" font-family="Arial" font-size="14.00" fill="#000000">child_match </text>
<text text-anchor="start" x="366.568" y="-663.9" font-family="Arial" font-size="14.00" fill="#666666">[int]</text>
<polygon fill="none" stroke="#000000" stroke-width="3" points="279,-651.5 279,-749.5 559,-749.5 559,-651.5 279,-651.5"/>
</g>
<!-- matches -->
<g id="node2" class="node">
<title>matches</title>
<polygon fill="#efefef" stroke="transparent" points="315,-492.5 315,-527.5 524,-527.5 524,-492.5 315,-492.5"/>
<polygon fill="none" stroke="#000000" points="315,-492.5 315,-527.5 524,-527.5 524,-492.5 315,-492.5"/>
<text text-anchor="start" x="321.7095" y="-505.3" font-family="Arial Bold" font-size="18.00" fill="#000000">matches</text>
<text text-anchor="start" x="389.7225" y="-505.3" font-family="Arial" font-size="14.00" fill="#000000">    </text>
<text text-anchor="start" x="423.9273" y="-505.3" font-family="Arial" font-size="14.00" fill="#666666">[BASE TABLE]</text>
<polygon fill="none" stroke="#000000" points="315,-462.5 315,-492.5 524,-492.5 524,-462.5 315,-462.5"/>
<text text-anchor="start" x="322" y="-473.9" font-family="Arial" font-size="14.00" fill="#000000">id    </text>
<text text-anchor="start" x="367.094" y="-473.9" font-family="Arial" font-size="14.00" fill="#666666">[int]</text>
<polygon fill="none" stroke="#000000" points="315,-432.5 315,-462.5 524,-462.5 524,-432.5 315,-432.5"/>
<text text-anchor="start" x="322" y="-443.9" font-family="Arial" font-size="14.00" fill="#000000">location    </text>
<text text-anchor="start" x="404.439" y="-443.9" font-family="Arial" font-size="14.00" fill="#666666">[int]</text>
<polygon fill="none" stroke="#000000" points="315,-402.5 315,-432.5 524,-432.5 524,-402.5 315,-402.5"/>
<text text-anchor="start" x="322" y="-413.9" font-family="Arial" font-size="14.00" fill="#000000">game    </text>
<text text-anchor="start" x="391.2132" y="-413.9" font-family="Arial" font-size="14.00" fill="#666666">[int]</text>
<polygon fill="none" stroke="#000000" points="315,-372.5 315,-402.5 524,-402.5 524,-372.5 315,-372.5"/>
<text text-anchor="start" x="322" y="-383.9" font-family="Arial" font-size="14.00" fill="#000000">sport    </text>
<text text-anchor="start" x="387.3212" y="-383.9" font-family="Arial" font-size="14.00" fill="#666666">[int]</text>
<polygon fill="none" stroke="#000000" points="315,-342.5 315,-372.5 524,-372.5 524,-342.5 315,-342.5"/>
<text text-anchor="start" x="322" y="-353.9" font-family="Arial" font-size="14.00" fill="#000000">started_at    </text>
<text text-anchor="start" x="418.4502" y="-353.9" font-family="Arial" font-size="14.00" fill="#666666">[datetime(6)]</text>
<polygon fill="none" stroke="#000000" points="315,-312.5 315,-342.5 524,-342.5 524,-312.5 315,-312.5"/>
<text text-anchor="start" x="322" y="-323.9" font-family="Arial" font-size="14.00" fill="#000000">left_team    </text>
<text text-anchor="start" x="413.7742" y="-323.9" font-family="Arial" font-size="14.00" fill="#666666">[int]</text>
<polygon fill="none" stroke="#000000" points="315,-282.5 315,-312.5 524,-312.5 524,-282.5 315,-282.5"/>
<text text-anchor="start" x="322" y="-293.9" font-family="Arial" font-size="14.00" fill="#000000">right_team    </text>
<text text-anchor="start" x="422.3268" y="-293.9" font-family="Arial" font-size="14.00" fill="#666666">[int]</text>
<polygon fill="none" stroke="#000000" points="315,-252.5 315,-282.5 524,-282.5 524,-252.5 315,-252.5"/>
<text text-anchor="start" x="322" y="-263.9" font-family="Arial" font-size="14.00" fill="#000000">left_score    </text>
<text text-anchor="start" x="416.8836" y="-263.9" font-family="Arial" font-size="14.00" fill="#666666">[int]</text>
<polygon fill="none" stroke="#000000" points="315,-222.5 315,-252.5 524,-252.5 524,-222.5 315,-222.5"/>
<text text-anchor="start" x="322" y="-233.9" font-family="Arial" font-size="14.00" fill="#000000">right_score    </text>
<text text-anchor="start" x="425.4362" y="-233.9" font-family="Arial" font-size="14.00" fill="#666666">[int]</text>
<polygon fill="none" stroke="#000000" points="315,-192.5 315,-222.5 524,-222.5 524,-192.5 315,-192.5"/>
<text text-anchor="start" x="322" y="-203.9" font-family="Arial" font-size="14.00" fill="#000000">result    </text>
<text text-anchor="start" x="390.4278" y="-203.9" font-family="Arial" font-size="14.00" fill="#666666">[varchar(32)]</text>
<polygon fill="none" stroke="#000000" points="315,-162.5 315,-192.5 524,-192.5 524,-162.5 315,-162.5"/>
<text text-anchor="start" x="322" y="-173.9" font-family="Arial" font-size="14.00" fill="#000000">status    </text>
<text text-anchor="start" x="393.5512" y="-173.9" font-family="Arial" font-size="14.00" fill="#666666">[varchar(32)]</text>
<polygon fill="none" stroke="#000000" points="315,-132.5 315,-162.5 524,-162.5 524,-132.5 315,-132.5"/>
<text text-anchor="start" x="322" y="-143.9" font-family="Arial" font-size="14.00" fill="#000000">note    </text>
<text text-anchor="start" x="383.4432" y="-143.9" font-family="Arial" font-size="14.00" fill="#666666">[text]</text>
<polygon fill="none" stroke="#000000" points="315,-102.5 315,-132.5 524,-132.5 524,-102.5 315,-102.5"/>
<text text-anchor="start" x="322" y="-113.9" font-family="Arial" font-size="14.00" fill="#000000">judge    </text>
<text text-anchor="start" x="390.4418" y="-113.9" font-family="Arial" font-size="14.00" fill="#666666">[varchar(64)]</text>
<polygon fill="none" stroke="#000000" points="315,-72.5 315,-102.5 524,-102.5 524,-72.5 315,-72.5"/>
<text text-anchor="start" x="322" y="-83.9" font-family="Arial" font-size="14.00" fill="#000000">created_at    </text>
<text text-anchor="start" x="422.3422" y="-83.9" font-family="Arial" font-size="14.00" fill="#666666">[datetime(6)]</text>
<polygon fill="none" stroke="#000000" points="315,-42.5 315,-72.5 524,-72.5 524,-42.5 315,-42.5"/>
<text text-anchor="start" x="322" y="-53.9" font-family="Arial" font-size="14.00" fill="#000000">updated_at    </text>
<text text-anchor="start" x="426.2468" y="-53.9" font-family="Arial" font-size="14.00" fill="#666666">[datetime(6)]</text>
</g>
<!-- tournament_path&#45;&gt;matches -->
<g id="edge1" class="edge">
<title>tournament_path:parent_match&#45;&gt;matches:id</title>
<path fill="none" stroke="#000000" d="M270.7927,-696.6591C184.6032,-681.8888 219.6364,-477.5 315,-477.5"/>
<polygon fill="#000000" stroke="#000000" points="271.0338,-696.6788 280.6305,-701.9848 276.0169,-697.0894 281,-697.5 281,-697.5 281,-697.5 276.0169,-697.0894 281.3695,-693.0152 271.0338,-696.6788 271.0338,-696.6788"/>
<text text-anchor="start" x="7.1035" y="-707.5" font-family="Arial" font-size="10.00" fill="#000000">FOREIGN KEY (parent_match) REFERENCES matches (id)</text>
</g>
<!-- tournament_path&#45;&gt;matches -->
<g id="edge2" class="edge">
<title>tournament_path:child_match&#45;&gt;matches:id</title>
<path fill="none" stroke="#000000" d="M419.1062,-642.4324C410.3298,-596.9271 339.357,-620.739 315,-571 296.724,-533.6791 273.4444,-477.5 315,-477.5"/>
<polygon fill="#000000" stroke="#000000" points="419.1156,-642.5392 415.5176,-652.898 419.5578,-647.5196 420,-652.5 420,-652.5 420,-652.5 419.5578,-647.5196 424.4824,-652.102 419.1156,-642.5392 419.1156,-642.5392"/>
<text text-anchor="start" x="426.9975" y="-662.5" font-family="Arial" font-size="10.00" fill="#000000">FOREIGN KEY (child_match) REFERENCES matches (id)</text>
</g>
</g>
</svg>
