<?xml version="1.0" encoding="UTF-8" standalone="no"?>
<!DOCTYPE svg PUBLIC "-//W3C//DTD SVG 1.1//EN"
 "http://www.w3.org/Graphics/SVG/1.1/DTD/svg11.dtd">
<!-- Generated by graphviz version 2.40.1 (20161225.0304)
 -->
<!-- Title: users Pages: 1 -->
<svg width="679pt" height="1019pt"
 viewBox="0.00 0.00 679.00 1019.00" xmlns="http://www.w3.org/2000/svg" xmlns:xlink="http://www.w3.org/1999/xlink">
<g id="graph0" class="graph" transform="scale(1 1) rotate(0) translate(4 1015)">
<title>users</title>
<polygon fill="#ffffff" stroke="transparent" points="-4,4 -4,-1015 675,-1015 675,4 -4,4"/>
<!-- users -->
<g id="node1" class="node">
<title>users</title>
<polygon fill="#efefef" stroke="transparent" points="252,-622.5 252,-657.5 437,-657.5 437,-622.5 252,-622.5"/>
<polygon fill="none" stroke="#000000" points="252,-622.5 252,-657.5 437,-657.5 437,-622.5 252,-622.5"/>
<text text-anchor="start" x="258.7137" y="-635.3" font-family="Arial Bold" font-size="18.00" fill="#000000">users</text>
<text text-anchor="start" x="302.7183" y="-635.3" font-family="Arial" font-size="14.00" fill="#000000">    </text>
<text text-anchor="start" x="336.9231" y="-635.3" font-family="Arial" font-size="14.00" fill="#666666">[BASE TABLE]</text>
<polygon fill="none" stroke="#000000" points="252,-592.5 252,-622.5 437,-622.5 437,-592.5 252,-592.5"/>
<text text-anchor="start" x="259" y="-603.9" font-family="Arial" font-size="14.00" fill="#000000">id </text>
<text text-anchor="start" x="273.7798" y="-603.9" font-family="Arial" font-size="14.00" fill="#666666">[int]</text>
<polygon fill="none" stroke="#000000" points="252,-562.5 252,-592.5 437,-592.5 437,-562.5 252,-562.5"/>
<text text-anchor="start" x="259" y="-573.9" font-family="Arial" font-size="14.00" fill="#000000">name </text>
<text text-anchor="start" x="297.899" y="-573.9" font-family="Arial" font-size="14.00" fill="#666666">[varchar(128)]</text>
<polygon fill="none" stroke="#000000" points="252,-532.5 252,-562.5 437,-562.5 437,-532.5 252,-532.5"/>
<text text-anchor="start" x="259" y="-543.9" font-family="Arial" font-size="14.00" fill="#000000">email </text>
<text text-anchor="start" x="296.3296" y="-543.9" font-family="Arial" font-size="14.00" fill="#666666">[varchar(320)]</text>
<polygon fill="none" stroke="#000000" points="252,-502.5 252,-532.5 437,-532.5 437,-502.5 252,-502.5"/>
<text text-anchor="start" x="259" y="-513.9" font-family="Arial" font-size="14.00" fill="#000000">gender </text>
<text text-anchor="start" x="306.4642" y="-513.9" font-family="Arial" font-size="14.00" fill="#666666">[varchar(10)]</text>
<polygon fill="none" stroke="#000000" points="252,-472.5 252,-502.5 437,-502.5 437,-472.5 252,-472.5"/>
<text text-anchor="start" x="259" y="-483.9" font-family="Arial" font-size="14.00" fill="#000000">class_id </text>
<text text-anchor="start" x="313.4516" y="-483.9" font-family="Arial" font-size="14.00" fill="#666666">[int]</text>
<polygon fill="none" stroke="#000000" points="252,-442.5 252,-472.5 437,-472.5 437,-442.5 252,-442.5"/>
<text text-anchor="start" x="259" y="-453.9" font-family="Arial" font-size="14.00" fill="#000000">role_id </text>
<text text-anchor="start" x="304.8948" y="-453.9" font-family="Arial" font-size="14.00" fill="#666666">[int]</text>
<polygon fill="none" stroke="#000000" points="252,-412.5 252,-442.5 437,-442.5 437,-412.5 252,-412.5"/>
<text text-anchor="start" x="259" y="-423.9" font-family="Arial" font-size="14.00" fill="#000000">created_at </text>
<text text-anchor="start" x="329.028" y="-423.9" font-family="Arial" font-size="14.00" fill="#666666">[datetime(6)]</text>
<polygon fill="none" stroke="#000000" points="252,-382.5 252,-412.5 437,-412.5 437,-382.5 252,-382.5"/>
<text text-anchor="start" x="259" y="-393.9" font-family="Arial" font-size="14.00" fill="#000000">updated_at </text>
<text text-anchor="start" x="332.9326" y="-393.9" font-family="Arial" font-size="14.00" fill="#666666">[datetime(6)]</text>
<polygon fill="none" stroke="#000000" stroke-width="3" points="250,-381.5 250,-659.5 438,-659.5 438,-381.5 250,-381.5"/>
</g>
<!-- classes -->
<g id="node4" class="node">
<title>classes</title>
<polygon fill="#efefef" stroke="transparent" points="90,-207.5 90,-242.5 293,-242.5 293,-207.5 90,-207.5"/>
<polygon fill="none" stroke="#000000" points="90,-207.5 90,-242.5 293,-242.5 293,-207.5 90,-207.5"/>
<text text-anchor="start" x="97.7127" y="-220.3" font-family="Arial Bold" font-size="18.00" fill="#000000">classes</text>
<text text-anchor="start" x="157.7193" y="-220.3" font-family="Arial" font-size="14.00" fill="#000000">    </text>
<text text-anchor="start" x="191.9241" y="-220.3" font-family="Arial" font-size="14.00" fill="#666666">[BASE TABLE]</text>
<polygon fill="none" stroke="#000000" points="90,-177.5 90,-207.5 293,-207.5 293,-177.5 90,-177.5"/>
<text text-anchor="start" x="97" y="-188.9" font-family="Arial" font-size="14.00" fill="#000000">id    </text>
<text text-anchor="start" x="142.094" y="-188.9" font-family="Arial" font-size="14.00" fill="#666666">[int]</text>
<polygon fill="none" stroke="#000000" points="90,-147.5 90,-177.5 293,-177.5 293,-147.5 90,-147.5"/>
<text text-anchor="start" x="97" y="-158.9" font-family="Arial" font-size="14.00" fill="#000000">name    </text>
<text text-anchor="start" x="166.2132" y="-158.9" font-family="Arial" font-size="14.00" fill="#666666">[varchar(64)]</text>
<polygon fill="none" stroke="#000000" points="90,-117.5 90,-147.5 293,-147.5 293,-117.5 90,-117.5"/>
<text text-anchor="start" x="96.9993" y="-128.9" font-family="Arial" font-size="14.00" fill="#000000">description    </text>
<text text-anchor="start" x="198.8815" y="-128.9" font-family="Arial" font-size="14.00" fill="#666666">[varchar(128)]</text>
<polygon fill="none" stroke="#000000" points="90,-87.5 90,-117.5 293,-117.5 293,-87.5 90,-87.5"/>
<text text-anchor="start" x="97" y="-98.9" font-family="Arial" font-size="14.00" fill="#000000">created_at    </text>
<text text-anchor="start" x="197.3422" y="-98.9" font-family="Arial" font-size="14.00" fill="#666666">[datetime(6)]</text>
<polygon fill="none" stroke="#000000" points="90,-57.5 90,-87.5 293,-87.5 293,-57.5 90,-57.5"/>
<text text-anchor="start" x="97" y="-68.9" font-family="Arial" font-size="14.00" fill="#000000">updated_at    </text>
<text text-anchor="start" x="201.2468" y="-68.9" font-family="Arial" font-size="14.00" fill="#666666">[datetime(6)]</text>
</g>
<!-- users&#45;&gt;classes -->
<g id="edge3" class="edge">
<title>users:class_id&#45;&gt;classes:id</title>
<path fill="none" stroke="#000000" d="M242.0051,-486.734C189.93,-478.0125 230.9989,-396.6415 252,-337 261.6595,-309.5679 283.3405,-313.4321 293,-286 306.802,-246.8034 334.5556,-192.5 293,-192.5"/>
<polygon fill="#000000" stroke="#000000" points="242.0292,-486.7358 251.6561,-491.9868 247.0146,-487.1179 252,-487.5 252,-487.5 252,-487.5 247.0146,-487.1179 252.3439,-483.0132 242.0292,-486.7358 242.0292,-486.7358"/>
<text text-anchor="start" x="6.8345" y="-497.5" font-family="Arial" font-size="10.00" fill="#000000">FOREIGN KEY (class_id) REFERENCES classes (id)</text>
</g>
<!-- roles -->
<g id="node5" class="node">
<title>roles</title>
<polygon fill="#efefef" stroke="transparent" points="397,-222.5 397,-257.5 600,-257.5 600,-222.5 397,-222.5"/>
<polygon fill="none" stroke="#000000" points="397,-222.5 397,-257.5 600,-257.5 600,-222.5 397,-222.5"/>
<text text-anchor="start" x="415.2166" y="-235.3" font-family="Arial Bold" font-size="18.00" fill="#000000">roles</text>
<text text-anchor="start" x="454.2154" y="-235.3" font-family="Arial" font-size="14.00" fill="#000000">    </text>
<text text-anchor="start" x="488.4202" y="-235.3" font-family="Arial" font-size="14.00" fill="#666666">[BASE TABLE]</text>
<polygon fill="none" stroke="#000000" points="397,-192.5 397,-222.5 600,-222.5 600,-192.5 397,-192.5"/>
<text text-anchor="start" x="404" y="-203.9" font-family="Arial" font-size="14.00" fill="#000000">id    </text>
<text text-anchor="start" x="449.094" y="-203.9" font-family="Arial" font-size="14.00" fill="#666666">[int]</text>
<polygon fill="none" stroke="#000000" points="397,-162.5 397,-192.5 600,-192.5 600,-162.5 397,-162.5"/>
<text text-anchor="start" x="404" y="-173.9" font-family="Arial" font-size="14.00" fill="#000000">name    </text>
<text text-anchor="start" x="473.2132" y="-173.9" font-family="Arial" font-size="14.00" fill="#666666">[varchar(64)]</text>
<polygon fill="none" stroke="#000000" points="397,-132.5 397,-162.5 600,-162.5 600,-132.5 397,-132.5"/>
<text text-anchor="start" x="403.9993" y="-143.9" font-family="Arial" font-size="14.00" fill="#000000">description    </text>
<text text-anchor="start" x="505.8815" y="-143.9" font-family="Arial" font-size="14.00" fill="#666666">[varchar(128)]</text>
<polygon fill="none" stroke="#000000" points="397,-102.5 397,-132.5 600,-132.5 600,-102.5 397,-102.5"/>
<text text-anchor="start" x="404" y="-113.9" font-family="Arial" font-size="14.00" fill="#000000">default    </text>
<text text-anchor="start" x="480.223" y="-113.9" font-family="Arial" font-size="14.00" fill="#666666">[tinyint(1)]</text>
<polygon fill="none" stroke="#000000" points="397,-72.5 397,-102.5 600,-102.5 600,-72.5 397,-72.5"/>
<text text-anchor="start" x="404" y="-83.9" font-family="Arial" font-size="14.00" fill="#000000">created_at    </text>
<text text-anchor="start" x="504.3422" y="-83.9" font-family="Arial" font-size="14.00" fill="#666666">[datetime(6)]</text>
<polygon fill="none" stroke="#000000" points="397,-42.5 397,-72.5 600,-72.5 600,-42.5 397,-42.5"/>
<text text-anchor="start" x="404" y="-53.9" font-family="Arial" font-size="14.00" fill="#000000">updated_at    </text>
<text text-anchor="start" x="508.2468" y="-53.9" font-family="Arial" font-size="14.00" fill="#666666">[datetime(6)]</text>
</g>
<!-- users&#45;&gt;roles -->
<g id="edge4" class="edge">
<title>users:role_id&#45;&gt;roles:id</title>
<path fill="none" stroke="#000000" d="M447.0645,-456.4712C486.1376,-447.5465 457.2565,-382.4831 437,-337 427.2694,-315.1513 406.7306,-322.8487 397,-301 380.0936,-263.039 355.4444,-207.5 397,-207.5"/>
<polygon fill="#000000" stroke="#000000" points="446.9482,-456.483 436.5423,-453.0233 441.9741,-456.9915 437,-457.5 437,-457.5 437,-457.5 441.9741,-456.9915 437.4577,-461.9767 446.9482,-456.483 446.9482,-456.483"/>
<text text-anchor="start" x="443.726" y="-467.5" font-family="Arial" font-size="10.00" fill="#000000">FOREIGN KEY (role_id) REFERENCES roles (id)</text>
</g>
<!-- logs -->
<g id="node2" class="node">
<title>logs</title>
<polygon fill="#efefef" stroke="transparent" points="90,-932.5 90,-967.5 282,-967.5 282,-932.5 90,-932.5"/>
<polygon fill="none" stroke="#000000" points="90,-932.5 90,-967.5 282,-967.5 282,-932.5 90,-932.5"/>
<text text-anchor="start" x="105.7127" y="-945.3" font-family="Arial Bold" font-size="18.00" fill="#000000">logs</text>
<text text-anchor="start" x="138.7193" y="-945.3" font-family="Arial" font-size="14.00" fill="#000000">    </text>
<text text-anchor="start" x="172.9241" y="-945.3" font-family="Arial" font-size="14.00" fill="#666666">[BASE TABLE]</text>
<polygon fill="none" stroke="#000000" points="90,-902.5 90,-932.5 282,-932.5 282,-902.5 90,-902.5"/>
<text text-anchor="start" x="97" y="-913.9" font-family="Arial" font-size="14.00" fill="#000000">id    </text>
<text text-anchor="start" x="142.094" y="-913.9" font-family="Arial" font-size="14.00" fill="#666666">[int]</text>
<polygon fill="none" stroke="#000000" points="90,-872.5 90,-902.5 282,-902.5 282,-872.5 90,-872.5"/>
<text text-anchor="start" x="97" y="-883.9" font-family="Arial" font-size="14.00" fill="#000000">log_event    </text>
<text text-anchor="start" x="191.8976" y="-883.9" font-family="Arial" font-size="14.00" fill="#666666">[varchar(32)]</text>
<polygon fill="none" stroke="#000000" points="90,-842.5 90,-872.5 282,-872.5 282,-842.5 90,-842.5"/>
<text text-anchor="start" x="97" y="-853.9" font-family="Arial" font-size="14.00" fill="#000000">user_id    </text>
<text text-anchor="start" x="177.1024" y="-853.9" font-family="Arial" font-size="14.00" fill="#666666">[int]</text>
<polygon fill="none" stroke="#000000" points="90,-812.5 90,-842.5 282,-842.5 282,-812.5 90,-812.5"/>
<text text-anchor="start" x="97" y="-823.9" font-family="Arial" font-size="14.00" fill="#000000">message    </text>
<text text-anchor="start" x="187.9958" y="-823.9" font-family="Arial" font-size="14.00" fill="#666666">[text]</text>
<polygon fill="none" stroke="#000000" points="90,-782.5 90,-812.5 282,-812.5 282,-782.5 90,-782.5"/>
<text text-anchor="start" x="96.547" y="-793.9" font-family="Arial" font-size="14.00" fill="#000000">created_at    </text>
<text text-anchor="start" x="196.8892" y="-793.9" font-family="Arial" font-size="14.00" fill="#666666">[datetime(6)]</text>
</g>
<!-- logs&#45;&gt;users -->
<g id="edge1" class="edge">
<title>logs:user_id&#45;&gt;users:id</title>
<path fill="none" stroke="#000000" d="M292.2377,-856.4056C329.2012,-847.4536 298.4583,-785.4587 282,-740 274.9098,-720.4167 259.0902,-723.5833 252,-704 237.3995,-663.6728 209.1111,-607.5 252,-607.5"/>
<polygon fill="#000000" stroke="#000000" points="291.9433,-856.4369 281.5216,-853.0255 286.9717,-856.9685 282,-857.5 282,-857.5 282,-857.5 286.9717,-856.9685 282.4784,-861.9745 291.9433,-856.4369 291.9433,-856.4369"/>
<text text-anchor="start" x="288.945" y="-867.5" font-family="Arial" font-size="10.00" fill="#000000">FOREIGN KEY (user_id) REFERENCES users (id)</text>
</g>
<!-- team_users -->
<g id="node3" class="node">
<title>team_users</title>
<polygon fill="#efefef" stroke="transparent" points="387,-887.5 387,-922.5 622,-922.5 622,-887.5 387,-887.5"/>
<polygon fill="none" stroke="#000000" points="387,-887.5 387,-922.5 622,-922.5 622,-887.5 387,-887.5"/>
<text text-anchor="start" x="393.7072" y="-900.3" font-family="Arial Bold" font-size="18.00" fill="#000000">team_users</text>
<text text-anchor="start" x="487.7248" y="-900.3" font-family="Arial" font-size="14.00" fill="#000000">    </text>
<text text-anchor="start" x="521.9296" y="-900.3" font-family="Arial" font-size="14.00" fill="#666666">[BASE TABLE]</text>
<polygon fill="none" stroke="#000000" points="387,-857.5 387,-887.5 622,-887.5 622,-857.5 387,-857.5"/>
<text text-anchor="start" x="394" y="-868.9" font-family="Arial" font-size="14.00" fill="#000000">team    </text>
<text text-anchor="start" x="459.3212" y="-868.9" font-family="Arial" font-size="14.00" fill="#666666">[int]</text>
<polygon fill="none" stroke="#000000" points="387,-827.5 387,-857.5 622,-857.5 622,-827.5 387,-827.5"/>
<text text-anchor="start" x="394" y="-838.9" font-family="Arial" font-size="14.00" fill="#000000">user    </text>
<text text-anchor="start" x="455.4306" y="-838.9" font-family="Arial" font-size="14.00" fill="#666666">[int]</text>
</g>
<!-- team_users&#45;&gt;users -->
<g id="edge2" class="edge">
<title>team_users:user&#45;&gt;users:id</title>
<path fill="none" stroke="#000000" d="M377.1756,-839.551C367.7466,-830.9401 381.2768,-805.1672 387,-785 398.5499,-744.3008 425.4501,-744.6992 437,-704 448.7089,-662.7404 479.8889,-607.5 437,-607.5"/>
<polygon fill="#000000" stroke="#000000" points="377.4222,-839.625 385.7062,-846.81 382.2111,-841.0625 387,-842.5 387,-842.5 387,-842.5 382.2111,-841.0625 388.2938,-838.19 377.4222,-839.625 377.4222,-839.625"/>
<text text-anchor="start" x="337.1135" y="-826.5" font-family="Arial" font-size="10.00" fill="#000000">FOREIGN KEY (user) REFERENCES users (id)</text>
</g>
</g>
</svg>
