<?xml version="1.0" encoding="UTF-8" standalone="no"?>
<!DOCTYPE svg PUBLIC "-//W3C//DTD SVG 1.1//EN"
 "http://www.w3.org/Graphics/SVG/1.1/DTD/svg11.dtd">
<!-- Generated by graphviz version 2.40.1 (20161225.0304)
 -->
<!-- Title: users Pages: 1 -->
<svg width="730pt" height="1109pt"
 viewBox="0.00 0.00 729.50 1109.00" xmlns="http://www.w3.org/2000/svg" xmlns:xlink="http://www.w3.org/1999/xlink">
<g id="graph0" class="graph" transform="scale(1 1) rotate(0) translate(4 1105)">
<title>users</title>
<polygon fill="#ffffff" stroke="transparent" points="-4,4 -4,-1105 725.5,-1105 725.5,4 -4,4"/>
<!-- users -->
<g id="node1" class="node">
<title>users</title>
<polygon fill="#efefef" stroke="transparent" points="283,-592.5 283,-627.5 468,-627.5 468,-592.5 283,-592.5"/>
<polygon fill="none" stroke="#000000" points="283,-592.5 283,-627.5 468,-627.5 468,-592.5 283,-592.5"/>
<text text-anchor="start" x="289.7137" y="-605.3" font-family="Arial Bold" font-size="18.00" fill="#000000">users</text>
<text text-anchor="start" x="333.7183" y="-605.3" font-family="Arial" font-size="14.00" fill="#000000">    </text>
<text text-anchor="start" x="367.9231" y="-605.3" font-family="Arial" font-size="14.00" fill="#666666">[BASE TABLE]</text>
<polygon fill="none" stroke="#000000" points="283,-562.5 283,-592.5 468,-592.5 468,-562.5 283,-562.5"/>
<text text-anchor="start" x="290" y="-573.9" font-family="Arial" font-size="14.00" fill="#000000">id </text>
<text text-anchor="start" x="304.7798" y="-573.9" font-family="Arial" font-size="14.00" fill="#666666">[int]</text>
<polygon fill="none" stroke="#000000" points="283,-532.5 283,-562.5 468,-562.5 468,-532.5 283,-532.5"/>
<text text-anchor="start" x="290" y="-543.9" font-family="Arial" font-size="14.00" fill="#000000">name </text>
<text text-anchor="start" x="328.899" y="-543.9" font-family="Arial" font-size="14.00" fill="#666666">[varchar(64)]</text>
<polygon fill="none" stroke="#000000" points="283,-502.5 283,-532.5 468,-532.5 468,-502.5 283,-502.5"/>
<text text-anchor="start" x="290" y="-513.9" font-family="Arial" font-size="14.00" fill="#000000">student_id </text>
<text text-anchor="start" x="358.474" y="-513.9" font-family="Arial" font-size="14.00" fill="#666666">[varchar(32)]</text>
<polygon fill="none" stroke="#000000" points="283,-472.5 283,-502.5 468,-502.5 468,-472.5 283,-472.5"/>
<text text-anchor="start" x="290" y="-483.9" font-family="Arial" font-size="14.00" fill="#000000">gender </text>
<text text-anchor="start" x="337.4642" y="-483.9" font-family="Arial" font-size="14.00" fill="#666666">[varchar(10)]</text>
<polygon fill="none" stroke="#000000" points="283,-442.5 283,-472.5 468,-472.5 468,-442.5 283,-442.5"/>
<text text-anchor="start" x="290" y="-453.9" font-family="Arial" font-size="14.00" fill="#000000">class </text>
<text text-anchor="start" x="325.7798" y="-453.9" font-family="Arial" font-size="14.00" fill="#666666">[int]</text>
<polygon fill="none" stroke="#000000" points="283,-412.5 283,-442.5 468,-442.5 468,-412.5 283,-412.5"/>
<text text-anchor="start" x="290" y="-423.9" font-family="Arial" font-size="14.00" fill="#000000">created_at </text>
<text text-anchor="start" x="360.028" y="-423.9" font-family="Arial" font-size="14.00" fill="#666666">[datetime(6)]</text>
<polygon fill="none" stroke="#000000" points="283,-382.5 283,-412.5 468,-412.5 468,-382.5 283,-382.5"/>
<text text-anchor="start" x="290" y="-393.9" font-family="Arial" font-size="14.00" fill="#000000">updated_at </text>
<text text-anchor="start" x="363.9326" y="-393.9" font-family="Arial" font-size="14.00" fill="#666666">[datetime(6)]</text>
<polygon fill="none" stroke="#000000" stroke-width="3" points="281,-381.5 281,-629.5 469,-629.5 469,-381.5 281,-381.5"/>
</g>
<!-- classes -->
<g id="node4" class="node">
<title>classes</title>
<polygon fill="#efefef" stroke="transparent" points="274,-222.5 274,-257.5 477,-257.5 477,-222.5 274,-222.5"/>
<polygon fill="none" stroke="#000000" points="274,-222.5 274,-257.5 477,-257.5 477,-222.5 274,-222.5"/>
<text text-anchor="start" x="281.7127" y="-235.3" font-family="Arial Bold" font-size="18.00" fill="#000000">classes</text>
<text text-anchor="start" x="341.7193" y="-235.3" font-family="Arial" font-size="14.00" fill="#000000">    </text>
<text text-anchor="start" x="375.9241" y="-235.3" font-family="Arial" font-size="14.00" fill="#666666">[BASE TABLE]</text>
<polygon fill="none" stroke="#000000" points="274,-192.5 274,-222.5 477,-222.5 477,-192.5 274,-192.5"/>
<text text-anchor="start" x="281" y="-203.9" font-family="Arial" font-size="14.00" fill="#000000">id    </text>
<text text-anchor="start" x="326.094" y="-203.9" font-family="Arial" font-size="14.00" fill="#666666">[int]</text>
<polygon fill="none" stroke="#000000" points="274,-162.5 274,-192.5 477,-192.5 477,-162.5 274,-162.5"/>
<text text-anchor="start" x="281" y="-173.9" font-family="Arial" font-size="14.00" fill="#000000">name    </text>
<text text-anchor="start" x="350.2132" y="-173.9" font-family="Arial" font-size="14.00" fill="#666666">[varchar(64)]</text>
<polygon fill="none" stroke="#000000" points="274,-132.5 274,-162.5 477,-162.5 477,-132.5 274,-132.5"/>
<text text-anchor="start" x="280.9993" y="-143.9" font-family="Arial" font-size="14.00" fill="#000000">description    </text>
<text text-anchor="start" x="382.8815" y="-143.9" font-family="Arial" font-size="14.00" fill="#666666">[varchar(128)]</text>
<polygon fill="none" stroke="#000000" points="274,-102.5 274,-132.5 477,-132.5 477,-102.5 274,-102.5"/>
<text text-anchor="start" x="281" y="-113.9" font-family="Arial" font-size="14.00" fill="#000000">group    </text>
<text text-anchor="start" x="350.9958" y="-113.9" font-family="Arial" font-size="14.00" fill="#666666">[int]</text>
<polygon fill="none" stroke="#000000" points="274,-72.5 274,-102.5 477,-102.5 477,-72.5 274,-72.5"/>
<text text-anchor="start" x="281" y="-83.9" font-family="Arial" font-size="14.00" fill="#000000">created_at    </text>
<text text-anchor="start" x="381.3422" y="-83.9" font-family="Arial" font-size="14.00" fill="#666666">[datetime(6)]</text>
<polygon fill="none" stroke="#000000" points="274,-42.5 274,-72.5 477,-72.5 477,-42.5 274,-42.5"/>
<text text-anchor="start" x="281" y="-53.9" font-family="Arial" font-size="14.00" fill="#000000">updated_at    </text>
<text text-anchor="start" x="385.2468" y="-53.9" font-family="Arial" font-size="14.00" fill="#666666">[datetime(6)]</text>
</g>
<!-- users&#45;&gt;classes -->
<g id="edge3" class="edge">
<title>users:class&#45;&gt;classes:id</title>
<path fill="none" stroke="#000000" d="M272.8765,-456.7828C171.3718,-442.1191 166.2914,-207.5 274,-207.5"/>
<polygon fill="#000000" stroke="#000000" points="273.025,-456.7933 282.682,-461.9888 278.0125,-457.1466 283,-457.5 283,-457.5 283,-457.5 278.0125,-457.1466 283.318,-453.0112 273.025,-456.7933 273.025,-456.7933"/>
<text text-anchor="start" x="51.503" y="-467.5" font-family="Arial" font-size="10.00" fill="#000000">FOREIGN KEY (class) REFERENCES classes (id)</text>
</g>
<!-- microsoft_accounts -->
<g id="node2" class="node">
<title>microsoft_accounts</title>
<polygon fill="#efefef" stroke="transparent" points="43,-1022.5 43,-1057.5 339,-1057.5 339,-1022.5 43,-1022.5"/>
<polygon fill="none" stroke="#000000" points="43,-1022.5 43,-1057.5 339,-1057.5 339,-1022.5 43,-1022.5"/>
<text text-anchor="start" x="49.7017" y="-1035.3" font-family="Arial Bold" font-size="18.00" fill="#000000">microsoft_accounts</text>
<text text-anchor="start" x="204.7303" y="-1035.3" font-family="Arial" font-size="14.00" fill="#000000">    </text>
<text text-anchor="start" x="238.9351" y="-1035.3" font-family="Arial" font-size="14.00" fill="#666666">[BASE TABLE]</text>
<polygon fill="none" stroke="#000000" points="43,-992.5 43,-1022.5 339,-1022.5 339,-992.5 43,-992.5"/>
<text text-anchor="start" x="50" y="-1003.9" font-family="Arial" font-size="14.00" fill="#000000">id    </text>
<text text-anchor="start" x="95.094" y="-1003.9" font-family="Arial" font-size="14.00" fill="#666666">[int]</text>
<polygon fill="none" stroke="#000000" points="43,-962.5 43,-992.5 339,-992.5 339,-962.5 43,-962.5"/>
<text text-anchor="start" x="50" y="-973.9" font-family="Arial" font-size="14.00" fill="#000000">email    </text>
<text text-anchor="start" x="117.6438" y="-973.9" font-family="Arial" font-size="14.00" fill="#666666">[varchar(320)]</text>
<polygon fill="none" stroke="#000000" points="43,-932.5 43,-962.5 339,-962.5 339,-932.5 43,-932.5"/>
<text text-anchor="start" x="50" y="-943.9" font-family="Arial" font-size="14.00" fill="#000000">name    </text>
<text text-anchor="start" x="119.2132" y="-943.9" font-family="Arial" font-size="14.00" fill="#666666">[varchar(128)]</text>
<polygon fill="none" stroke="#000000" points="43,-902.5 43,-932.5 339,-932.5 339,-902.5 43,-902.5"/>
<text text-anchor="start" x="50" y="-913.9" font-family="Arial" font-size="14.00" fill="#000000">mail_account_name    </text>
<text text-anchor="start" x="209.4558" y="-913.9" font-family="Arial" font-size="14.00" fill="#666666">[varchar(128)]</text>
<polygon fill="none" stroke="#000000" points="43,-872.5 43,-902.5 339,-902.5 339,-872.5 43,-872.5"/>
<text text-anchor="start" x="50" y="-883.9" font-family="Arial" font-size="14.00" fill="#000000">role    </text>
<text text-anchor="start" x="107.5372" y="-883.9" font-family="Arial" font-size="14.00" fill="#666666">[varchar(32)]</text>
<polygon fill="none" stroke="#000000" points="43,-842.5 43,-872.5 339,-872.5 339,-842.5 43,-842.5"/>
<text text-anchor="start" x="50" y="-853.9" font-family="Arial" font-size="14.00" fill="#000000">user    </text>
<text text-anchor="start" x="111.4306" y="-853.9" font-family="Arial" font-size="14.00" fill="#666666">[int]</text>
<polygon fill="none" stroke="#000000" points="43,-812.5 43,-842.5 339,-842.5 339,-812.5 43,-812.5"/>
<text text-anchor="start" x="50" y="-823.9" font-family="Arial" font-size="14.00" fill="#000000">link_later    </text>
<text text-anchor="start" x="140.2062" y="-823.9" font-family="Arial" font-size="14.00" fill="#666666">[tinyint(1)]</text>
<polygon fill="none" stroke="#000000" points="43,-782.5 43,-812.5 339,-812.5 339,-782.5 43,-782.5"/>
<text text-anchor="start" x="50" y="-793.9" font-family="Arial" font-size="14.00" fill="#000000">first_login    </text>
<text text-anchor="start" x="144.0968" y="-793.9" font-family="Arial" font-size="14.00" fill="#666666">[datetime(6)]</text>
<polygon fill="none" stroke="#000000" points="43,-752.5 43,-782.5 339,-782.5 339,-752.5 43,-752.5"/>
<text text-anchor="start" x="50" y="-763.9" font-family="Arial" font-size="14.00" fill="#000000">last_login    </text>
<text text-anchor="start" x="143.3282" y="-763.9" font-family="Arial" font-size="14.00" fill="#666666">[datetime(6)]</text>
</g>
<!-- microsoft_accounts&#45;&gt;users -->
<g id="edge1" class="edge">
<title>microsoft_accounts:user&#45;&gt;users:id</title>
<path fill="none" stroke="#000000" d="M349.1984,-856.6564C400.6966,-847.4131 368.6342,-764.2799 339,-710 324.8217,-684.0301 297.1783,-699.9699 283,-674 262.4482,-636.3559 240.1111,-577.5 283,-577.5"/>
<polygon fill="#000000" stroke="#000000" points="348.966,-856.6755 338.629,-853.0153 343.983,-857.0878 339,-857.5 339,-857.5 339,-857.5 343.983,-857.0878 339.371,-861.9847 348.966,-856.6755 348.966,-856.6755"/>
<text text-anchor="start" x="345.6135" y="-867.5" font-family="Arial" font-size="10.00" fill="#000000">FOREIGN KEY (user) REFERENCES users (id)</text>
</g>
<!-- team_users -->
<g id="node3" class="node">
<title>team_users</title>
<polygon fill="#efefef" stroke="transparent" points="444,-917.5 444,-952.5 679,-952.5 679,-917.5 444,-917.5"/>
<polygon fill="none" stroke="#000000" points="444,-917.5 444,-952.5 679,-952.5 679,-917.5 444,-917.5"/>
<text text-anchor="start" x="450.7072" y="-930.3" font-family="Arial Bold" font-size="18.00" fill="#000000">team_users</text>
<text text-anchor="start" x="544.7248" y="-930.3" font-family="Arial" font-size="14.00" fill="#000000">    </text>
<text text-anchor="start" x="578.9296" y="-930.3" font-family="Arial" font-size="14.00" fill="#666666">[BASE TABLE]</text>
<polygon fill="none" stroke="#000000" points="444,-887.5 444,-917.5 679,-917.5 679,-887.5 444,-887.5"/>
<text text-anchor="start" x="451" y="-898.9" font-family="Arial" font-size="14.00" fill="#000000">team    </text>
<text text-anchor="start" x="516.3212" y="-898.9" font-family="Arial" font-size="14.00" fill="#666666">[int]</text>
<polygon fill="none" stroke="#000000" points="444,-857.5 444,-887.5 679,-887.5 679,-857.5 444,-857.5"/>
<text text-anchor="start" x="451" y="-868.9" font-family="Arial" font-size="14.00" fill="#000000">user    </text>
<text text-anchor="start" x="512.4306" y="-868.9" font-family="Arial" font-size="14.00" fill="#666666">[int]</text>
</g>
<!-- team_users&#45;&gt;users -->
<g id="edge2" class="edge">
<title>team_users:user&#45;&gt;users:id</title>
<path fill="none" stroke="#000000" d="M433.8121,-871.8036C328.3808,-856.0276 595.8189,-577.5 468,-577.5"/>
<polygon fill="#000000" stroke="#000000" points="434.0233,-871.8179 443.6931,-876.9895 439.0116,-872.159 444,-872.5 444,-872.5 444,-872.5 439.0116,-872.159 444.3069,-868.0105 434.0233,-871.8179 434.0233,-871.8179"/>
<text text-anchor="start" x="450.6135" y="-882.5" font-family="Arial" font-size="10.00" fill="#000000">FOREIGN KEY (user) REFERENCES users (id)</text>
</g>
</g>
</svg>
