<?xml version="1.0" encoding="UTF-8" standalone="no"?>
<!DOCTYPE svg PUBLIC "-//W3C//DTD SVG 1.1//EN"
 "http://www.w3.org/Graphics/SVG/1.1/DTD/svg11.dtd">
<!-- Generated by graphviz version 2.40.1 (20161225.0304)
 -->
<!-- Title: users Pages: 1 -->
<svg width="907pt" height="1049pt"
 viewBox="0.00 0.00 907.00 1049.00" xmlns="http://www.w3.org/2000/svg" xmlns:xlink="http://www.w3.org/1999/xlink">
<g id="graph0" class="graph" transform="scale(1 1) rotate(0) translate(4 1045)">
<title>users</title>
<polygon fill="#ffffff" stroke="transparent" points="-4,4 -4,-1045 903,-1045 903,4 -4,4"/>
<!-- users -->
<g id="node1" class="node">
<title>users</title>
<polygon fill="#efefef" stroke="transparent" points="355.5,-652.5 355.5,-687.5 540.5,-687.5 540.5,-652.5 355.5,-652.5"/>
<polygon fill="none" stroke="#000000" points="355.5,-652.5 355.5,-687.5 540.5,-687.5 540.5,-652.5 355.5,-652.5"/>
<text text-anchor="start" x="362.2137" y="-665.3" font-family="Arial Bold" font-size="18.00" fill="#000000">users</text>
<text text-anchor="start" x="406.2183" y="-665.3" font-family="Arial" font-size="14.00" fill="#000000">    </text>
<text text-anchor="start" x="440.4231" y="-665.3" font-family="Arial" font-size="14.00" fill="#666666">[BASE TABLE]</text>
<polygon fill="none" stroke="#000000" points="355.5,-622.5 355.5,-652.5 540.5,-652.5 540.5,-622.5 355.5,-622.5"/>
<text text-anchor="start" x="362.5" y="-633.9" font-family="Arial" font-size="14.00" fill="#000000">id </text>
<text text-anchor="start" x="377.2798" y="-633.9" font-family="Arial" font-size="14.00" fill="#666666">[int]</text>
<polygon fill="none" stroke="#000000" points="355.5,-592.5 355.5,-622.5 540.5,-622.5 540.5,-592.5 355.5,-592.5"/>
<text text-anchor="start" x="362.5" y="-603.9" font-family="Arial" font-size="14.00" fill="#000000">name </text>
<text text-anchor="start" x="401.399" y="-603.9" font-family="Arial" font-size="14.00" fill="#666666">[varchar(128)]</text>
<polygon fill="none" stroke="#000000" points="355.5,-562.5 355.5,-592.5 540.5,-592.5 540.5,-562.5 355.5,-562.5"/>
<text text-anchor="start" x="362.5" y="-573.9" font-family="Arial" font-size="14.00" fill="#000000">email </text>
<text text-anchor="start" x="399.8296" y="-573.9" font-family="Arial" font-size="14.00" fill="#666666">[varchar(320)]</text>
<polygon fill="none" stroke="#000000" points="355.5,-532.5 355.5,-562.5 540.5,-562.5 540.5,-532.5 355.5,-532.5"/>
<text text-anchor="start" x="362.5" y="-543.9" font-family="Arial" font-size="14.00" fill="#000000">gender </text>
<text text-anchor="start" x="409.9642" y="-543.9" font-family="Arial" font-size="14.00" fill="#666666">[varchar(10)]</text>
<polygon fill="none" stroke="#000000" points="355.5,-502.5 355.5,-532.5 540.5,-532.5 540.5,-502.5 355.5,-502.5"/>
<text text-anchor="start" x="362.5" y="-513.9" font-family="Arial" font-size="14.00" fill="#000000">picture_id </text>
<text text-anchor="start" x="427.068" y="-513.9" font-family="Arial" font-size="14.00" fill="#666666">[int]</text>
<polygon fill="none" stroke="#000000" points="355.5,-472.5 355.5,-502.5 540.5,-502.5 540.5,-472.5 355.5,-472.5"/>
<text text-anchor="start" x="362.5" y="-483.9" font-family="Arial" font-size="14.00" fill="#000000">class_id </text>
<text text-anchor="start" x="416.9516" y="-483.9" font-family="Arial" font-size="14.00" fill="#666666">[int]</text>
<polygon fill="none" stroke="#000000" points="355.5,-442.5 355.5,-472.5 540.5,-472.5 540.5,-442.5 355.5,-442.5"/>
<text text-anchor="start" x="362.5" y="-453.9" font-family="Arial" font-size="14.00" fill="#000000">role_id </text>
<text text-anchor="start" x="408.3948" y="-453.9" font-family="Arial" font-size="14.00" fill="#666666">[int]</text>
<polygon fill="none" stroke="#000000" points="355.5,-412.5 355.5,-442.5 540.5,-442.5 540.5,-412.5 355.5,-412.5"/>
<text text-anchor="start" x="362.5" y="-423.9" font-family="Arial" font-size="14.00" fill="#000000">created_at </text>
<text text-anchor="start" x="432.528" y="-423.9" font-family="Arial" font-size="14.00" fill="#666666">[datetime(6)]</text>
<polygon fill="none" stroke="#000000" points="355.5,-382.5 355.5,-412.5 540.5,-412.5 540.5,-382.5 355.5,-382.5"/>
<text text-anchor="start" x="362.5" y="-393.9" font-family="Arial" font-size="14.00" fill="#000000">updated_at </text>
<text text-anchor="start" x="436.4326" y="-393.9" font-family="Arial" font-size="14.00" fill="#666666">[datetime(6)]</text>
<polygon fill="none" stroke="#000000" stroke-width="3" points="353.5,-381.5 353.5,-689.5 541.5,-689.5 541.5,-381.5 353.5,-381.5"/>
</g>
<!-- images -->
<g id="node4" class="node">
<title>images</title>
<polygon fill="#efefef" stroke="transparent" points="43.5,-177.5 43.5,-212.5 242.5,-212.5 242.5,-177.5 43.5,-177.5"/>
<polygon fill="none" stroke="#000000" points="43.5,-177.5 43.5,-212.5 242.5,-212.5 242.5,-177.5 43.5,-177.5"/>
<text text-anchor="start" x="50.2135" y="-190.3" font-family="Arial Bold" font-size="18.00" fill="#000000">images</text>
<text text-anchor="start" x="108.2185" y="-190.3" font-family="Arial" font-size="14.00" fill="#000000">    </text>
<text text-anchor="start" x="142.4233" y="-190.3" font-family="Arial" font-size="14.00" fill="#666666">[BASE TABLE]</text>
<polygon fill="none" stroke="#000000" points="43.5,-147.5 43.5,-177.5 242.5,-177.5 242.5,-147.5 43.5,-147.5"/>
<text text-anchor="start" x="50.5" y="-158.9" font-family="Arial" font-size="14.00" fill="#000000">id    </text>
<text text-anchor="start" x="95.594" y="-158.9" font-family="Arial" font-size="14.00" fill="#666666">[int]</text>
<polygon fill="none" stroke="#000000" points="43.5,-117.5 43.5,-147.5 242.5,-147.5 242.5,-117.5 43.5,-117.5"/>
<text text-anchor="start" x="50.5" y="-128.9" font-family="Arial" font-size="14.00" fill="#000000">data    </text>
<text text-anchor="start" x="111.9432" y="-128.9" font-family="Arial" font-size="14.00" fill="#666666">[text]</text>
<polygon fill="none" stroke="#000000" points="43.5,-87.5 43.5,-117.5 242.5,-117.5 242.5,-87.5 43.5,-87.5"/>
<text text-anchor="start" x="50.5" y="-98.9" font-family="Arial" font-size="14.00" fill="#000000">created_at    </text>
<text text-anchor="start" x="150.8422" y="-98.9" font-family="Arial" font-size="14.00" fill="#666666">[datetime(6)]</text>
</g>
<!-- users&#45;&gt;images -->
<g id="edge3" class="edge">
<title>users:picture_id&#45;&gt;images:id</title>
<path fill="none" stroke="#000000" d="M346.6926,-512.2062C309.6806,-468.0453 280.9031,-162.5 242.5,-162.5"/>
<polygon fill="#000000" stroke="#000000" points="346.9291,-512.3483 353.1817,-521.3569 351.2145,-514.9241 355.5,-517.5 355.5,-517.5 355.5,-517.5 351.2145,-514.9241 357.8183,-513.6431 346.9291,-512.3483 346.9291,-512.3483"/>
<text text-anchor="start" x="104.2775" y="-527.5" font-family="Arial" font-size="10.00" fill="#000000">FOREIGN KEY (picture_id) REFERENCES images (id)</text>
</g>
<!-- classes -->
<g id="node5" class="node">
<title>classes</title>
<polygon fill="#efefef" stroke="transparent" points="346.5,-207.5 346.5,-242.5 549.5,-242.5 549.5,-207.5 346.5,-207.5"/>
<polygon fill="none" stroke="#000000" points="346.5,-207.5 346.5,-242.5 549.5,-242.5 549.5,-207.5 346.5,-207.5"/>
<text text-anchor="start" x="354.2127" y="-220.3" font-family="Arial Bold" font-size="18.00" fill="#000000">classes</text>
<text text-anchor="start" x="414.2193" y="-220.3" font-family="Arial" font-size="14.00" fill="#000000">    </text>
<text text-anchor="start" x="448.4241" y="-220.3" font-family="Arial" font-size="14.00" fill="#666666">[BASE TABLE]</text>
<polygon fill="none" stroke="#000000" points="346.5,-177.5 346.5,-207.5 549.5,-207.5 549.5,-177.5 346.5,-177.5"/>
<text text-anchor="start" x="353.5" y="-188.9" font-family="Arial" font-size="14.00" fill="#000000">id    </text>
<text text-anchor="start" x="398.594" y="-188.9" font-family="Arial" font-size="14.00" fill="#666666">[int]</text>
<polygon fill="none" stroke="#000000" points="346.5,-147.5 346.5,-177.5 549.5,-177.5 549.5,-147.5 346.5,-147.5"/>
<text text-anchor="start" x="353.5" y="-158.9" font-family="Arial" font-size="14.00" fill="#000000">name    </text>
<text text-anchor="start" x="422.7132" y="-158.9" font-family="Arial" font-size="14.00" fill="#666666">[varchar(64)]</text>
<polygon fill="none" stroke="#000000" points="346.5,-117.5 346.5,-147.5 549.5,-147.5 549.5,-117.5 346.5,-117.5"/>
<text text-anchor="start" x="353.4993" y="-128.9" font-family="Arial" font-size="14.00" fill="#000000">description    </text>
<text text-anchor="start" x="455.3815" y="-128.9" font-family="Arial" font-size="14.00" fill="#666666">[varchar(128)]</text>
<polygon fill="none" stroke="#000000" points="346.5,-87.5 346.5,-117.5 549.5,-117.5 549.5,-87.5 346.5,-87.5"/>
<text text-anchor="start" x="353.5" y="-98.9" font-family="Arial" font-size="14.00" fill="#000000">created_at    </text>
<text text-anchor="start" x="453.8422" y="-98.9" font-family="Arial" font-size="14.00" fill="#666666">[datetime(6)]</text>
<polygon fill="none" stroke="#000000" points="346.5,-57.5 346.5,-87.5 549.5,-87.5 549.5,-57.5 346.5,-57.5"/>
<text text-anchor="start" x="353.5" y="-68.9" font-family="Arial" font-size="14.00" fill="#000000">updated_at    </text>
<text text-anchor="start" x="457.7468" y="-68.9" font-family="Arial" font-size="14.00" fill="#666666">[datetime(6)]</text>
</g>
<!-- users&#45;&gt;classes -->
<g id="edge4" class="edge">
<title>users:class_id&#45;&gt;classes:id</title>
<path fill="none" stroke="#000000" d="M345.5988,-485.1254C289.1721,-457.2071 284.3726,-192.5 346.5,-192.5"/>
<polygon fill="#000000" stroke="#000000" points="345.7757,-485.1678 354.4505,-491.8759 350.6379,-486.3339 355.5,-487.5 355.5,-487.5 355.5,-487.5 350.6379,-486.3339 356.5495,-483.1241 345.7757,-485.1678 345.7757,-485.1678"/>
<text text-anchor="start" x="110.3345" y="-497.5" font-family="Arial" font-size="10.00" fill="#000000">FOREIGN KEY (class_id) REFERENCES classes (id)</text>
</g>
<!-- roles -->
<g id="node6" class="node">
<title>roles</title>
<polygon fill="#efefef" stroke="transparent" points="653.5,-222.5 653.5,-257.5 856.5,-257.5 856.5,-222.5 653.5,-222.5"/>
<polygon fill="none" stroke="#000000" points="653.5,-222.5 653.5,-257.5 856.5,-257.5 856.5,-222.5 653.5,-222.5"/>
<text text-anchor="start" x="671.7166" y="-235.3" font-family="Arial Bold" font-size="18.00" fill="#000000">roles</text>
<text text-anchor="start" x="710.7154" y="-235.3" font-family="Arial" font-size="14.00" fill="#000000">    </text>
<text text-anchor="start" x="744.9202" y="-235.3" font-family="Arial" font-size="14.00" fill="#666666">[BASE TABLE]</text>
<polygon fill="none" stroke="#000000" points="653.5,-192.5 653.5,-222.5 856.5,-222.5 856.5,-192.5 653.5,-192.5"/>
<text text-anchor="start" x="660.5" y="-203.9" font-family="Arial" font-size="14.00" fill="#000000">id    </text>
<text text-anchor="start" x="705.594" y="-203.9" font-family="Arial" font-size="14.00" fill="#666666">[int]</text>
<polygon fill="none" stroke="#000000" points="653.5,-162.5 653.5,-192.5 856.5,-192.5 856.5,-162.5 653.5,-162.5"/>
<text text-anchor="start" x="660.5" y="-173.9" font-family="Arial" font-size="14.00" fill="#000000">name    </text>
<text text-anchor="start" x="729.7132" y="-173.9" font-family="Arial" font-size="14.00" fill="#666666">[varchar(64)]</text>
<polygon fill="none" stroke="#000000" points="653.5,-132.5 653.5,-162.5 856.5,-162.5 856.5,-132.5 653.5,-132.5"/>
<text text-anchor="start" x="660.4993" y="-143.9" font-family="Arial" font-size="14.00" fill="#000000">description    </text>
<text text-anchor="start" x="762.3815" y="-143.9" font-family="Arial" font-size="14.00" fill="#666666">[varchar(128)]</text>
<polygon fill="none" stroke="#000000" points="653.5,-102.5 653.5,-132.5 856.5,-132.5 856.5,-102.5 653.5,-102.5"/>
<text text-anchor="start" x="660.5" y="-113.9" font-family="Arial" font-size="14.00" fill="#000000">default    </text>
<text text-anchor="start" x="736.723" y="-113.9" font-family="Arial" font-size="14.00" fill="#666666">[tinyint(1)]</text>
<polygon fill="none" stroke="#000000" points="653.5,-72.5 653.5,-102.5 856.5,-102.5 856.5,-72.5 653.5,-72.5"/>
<text text-anchor="start" x="660.5" y="-83.9" font-family="Arial" font-size="14.00" fill="#000000">created_at    </text>
<text text-anchor="start" x="760.8422" y="-83.9" font-family="Arial" font-size="14.00" fill="#666666">[datetime(6)]</text>
<polygon fill="none" stroke="#000000" points="653.5,-42.5 653.5,-72.5 856.5,-72.5 856.5,-42.5 653.5,-42.5"/>
<text text-anchor="start" x="660.5" y="-53.9" font-family="Arial" font-size="14.00" fill="#000000">updated_at    </text>
<text text-anchor="start" x="764.7468" y="-53.9" font-family="Arial" font-size="14.00" fill="#666666">[datetime(6)]</text>
</g>
<!-- users&#45;&gt;roles -->
<g id="edge5" class="edge">
<title>users:role_id&#45;&gt;roles:id</title>
<path fill="none" stroke="#000000" d="M550.525,-455.0257C600.6601,-429.0614 596.1052,-207.5 653.5,-207.5"/>
<polygon fill="#000000" stroke="#000000" points="550.2087,-455.1037 539.4217,-453.1311 545.3543,-456.3018 540.5,-457.5 540.5,-457.5 540.5,-457.5 545.3543,-456.3018 541.5783,-461.8689 550.2087,-455.1037 550.2087,-455.1037"/>
<text text-anchor="start" x="547.226" y="-467.5" font-family="Arial" font-size="10.00" fill="#000000">FOREIGN KEY (role_id) REFERENCES roles (id)</text>
</g>
<!-- logs -->
<g id="node2" class="node">
<title>logs</title>
<polygon fill="#efefef" stroke="transparent" points="193.5,-962.5 193.5,-997.5 385.5,-997.5 385.5,-962.5 193.5,-962.5"/>
<polygon fill="none" stroke="#000000" points="193.5,-962.5 193.5,-997.5 385.5,-997.5 385.5,-962.5 193.5,-962.5"/>
<text text-anchor="start" x="209.2127" y="-975.3" font-family="Arial Bold" font-size="18.00" fill="#000000">logs</text>
<text text-anchor="start" x="242.2193" y="-975.3" font-family="Arial" font-size="14.00" fill="#000000">    </text>
<text text-anchor="start" x="276.4241" y="-975.3" font-family="Arial" font-size="14.00" fill="#666666">[BASE TABLE]</text>
<polygon fill="none" stroke="#000000" points="193.5,-932.5 193.5,-962.5 385.5,-962.5 385.5,-932.5 193.5,-932.5"/>
<text text-anchor="start" x="200.5" y="-943.9" font-family="Arial" font-size="14.00" fill="#000000">id    </text>
<text text-anchor="start" x="245.594" y="-943.9" font-family="Arial" font-size="14.00" fill="#666666">[int]</text>
<polygon fill="none" stroke="#000000" points="193.5,-902.5 193.5,-932.5 385.5,-932.5 385.5,-902.5 193.5,-902.5"/>
<text text-anchor="start" x="200.5" y="-913.9" font-family="Arial" font-size="14.00" fill="#000000">log_event    </text>
<text text-anchor="start" x="295.3976" y="-913.9" font-family="Arial" font-size="14.00" fill="#666666">[varchar(32)]</text>
<polygon fill="none" stroke="#000000" points="193.5,-872.5 193.5,-902.5 385.5,-902.5 385.5,-872.5 193.5,-872.5"/>
<text text-anchor="start" x="200.5" y="-883.9" font-family="Arial" font-size="14.00" fill="#000000">user_id    </text>
<text text-anchor="start" x="280.6024" y="-883.9" font-family="Arial" font-size="14.00" fill="#666666">[int]</text>
<polygon fill="none" stroke="#000000" points="193.5,-842.5 193.5,-872.5 385.5,-872.5 385.5,-842.5 193.5,-842.5"/>
<text text-anchor="start" x="200.5" y="-853.9" font-family="Arial" font-size="14.00" fill="#000000">message    </text>
<text text-anchor="start" x="291.4958" y="-853.9" font-family="Arial" font-size="14.00" fill="#666666">[text]</text>
<polygon fill="none" stroke="#000000" points="193.5,-812.5 193.5,-842.5 385.5,-842.5 385.5,-812.5 193.5,-812.5"/>
<text text-anchor="start" x="200.047" y="-823.9" font-family="Arial" font-size="14.00" fill="#000000">created_at    </text>
<text text-anchor="start" x="300.3892" y="-823.9" font-family="Arial" font-size="14.00" fill="#666666">[datetime(6)]</text>
</g>
<!-- logs&#45;&gt;users -->
<g id="edge1" class="edge">
<title>logs:user_id&#45;&gt;users:id</title>
<path fill="none" stroke="#000000" d="M395.7377,-886.4056C432.7012,-877.4536 401.9583,-815.4587 385.5,-770 378.4098,-750.4167 362.5902,-753.5833 355.5,-734 340.8995,-693.6728 312.6111,-637.5 355.5,-637.5"/>
<polygon fill="#000000" stroke="#000000" points="395.4433,-886.4369 385.0216,-883.0255 390.4717,-886.9685 385.5,-887.5 385.5,-887.5 385.5,-887.5 390.4717,-886.9685 385.9784,-891.9745 395.4433,-886.4369 395.4433,-886.4369"/>
<text text-anchor="start" x="392.445" y="-897.5" font-family="Arial" font-size="10.00" fill="#000000">FOREIGN KEY (user_id) REFERENCES users (id)</text>
</g>
<!-- team_users -->
<g id="node3" class="node">
<title>team_users</title>
<polygon fill="#efefef" stroke="transparent" points="490.5,-917.5 490.5,-952.5 725.5,-952.5 725.5,-917.5 490.5,-917.5"/>
<polygon fill="none" stroke="#000000" points="490.5,-917.5 490.5,-952.5 725.5,-952.5 725.5,-917.5 490.5,-917.5"/>
<text text-anchor="start" x="497.2072" y="-930.3" font-family="Arial Bold" font-size="18.00" fill="#000000">team_users</text>
<text text-anchor="start" x="591.2248" y="-930.3" font-family="Arial" font-size="14.00" fill="#000000">    </text>
<text text-anchor="start" x="625.4296" y="-930.3" font-family="Arial" font-size="14.00" fill="#666666">[BASE TABLE]</text>
<polygon fill="none" stroke="#000000" points="490.5,-887.5 490.5,-917.5 725.5,-917.5 725.5,-887.5 490.5,-887.5"/>
<text text-anchor="start" x="497.5" y="-898.9" font-family="Arial" font-size="14.00" fill="#000000">team    </text>
<text text-anchor="start" x="562.8212" y="-898.9" font-family="Arial" font-size="14.00" fill="#666666">[int]</text>
<polygon fill="none" stroke="#000000" points="490.5,-857.5 490.5,-887.5 725.5,-887.5 725.5,-857.5 490.5,-857.5"/>
<text text-anchor="start" x="497.5" y="-868.9" font-family="Arial" font-size="14.00" fill="#000000">user    </text>
<text text-anchor="start" x="558.9306" y="-868.9" font-family="Arial" font-size="14.00" fill="#666666">[int]</text>
</g>
<!-- team_users&#45;&gt;users -->
<g id="edge2" class="edge">
<title>team_users:user&#45;&gt;users:id</title>
<path fill="none" stroke="#000000" d="M480.6756,-869.551C471.2466,-860.9401 484.7768,-835.1672 490.5,-815 502.0499,-774.3008 528.9501,-774.6992 540.5,-734 552.2089,-692.7404 583.3889,-637.5 540.5,-637.5"/>
<polygon fill="#000000" stroke="#000000" points="480.9222,-869.625 489.2062,-876.81 485.7111,-871.0625 490.5,-872.5 490.5,-872.5 490.5,-872.5 485.7111,-871.0625 491.7938,-868.19 480.9222,-869.625 480.9222,-869.625"/>
<text text-anchor="start" x="440.6135" y="-856.5" font-family="Arial" font-size="10.00" fill="#000000">FOREIGN KEY (user) REFERENCES users (id)</text>
</g>
</g>
</svg>
