<?xml version="1.0" encoding="UTF-8" standalone="no"?>
<!DOCTYPE svg PUBLIC "-//W3C//DTD SVG 1.1//EN"
 "http://www.w3.org/Graphics/SVG/1.1/DTD/svg11.dtd">
<!-- Generated by graphviz version 2.40.1 (20161225.0304)
 -->
<!-- Title: users Pages: 1 -->
<svg width="703pt" height="989pt"
 viewBox="0.00 0.00 703.00 989.00" xmlns="http://www.w3.org/2000/svg" xmlns:xlink="http://www.w3.org/1999/xlink">
<g id="graph0" class="graph" transform="scale(1 1) rotate(0) translate(4 985)">
<title>users</title>
<polygon fill="#ffffff" stroke="transparent" points="-4,4 -4,-985 699,-985 699,4 -4,4"/>
<!-- users -->
<g id="node1" class="node">
<title>users</title>
<polygon fill="#efefef" stroke="transparent" points="258,-592.5 258,-627.5 443,-627.5 443,-592.5 258,-592.5"/>
<polygon fill="none" stroke="#000000" points="258,-592.5 258,-627.5 443,-627.5 443,-592.5 258,-592.5"/>
<text text-anchor="start" x="264.7137" y="-605.3" font-family="Arial Bold" font-size="18.00" fill="#000000">users</text>
<text text-anchor="start" x="308.7183" y="-605.3" font-family="Arial" font-size="14.00" fill="#000000">    </text>
<text text-anchor="start" x="342.9231" y="-605.3" font-family="Arial" font-size="14.00" fill="#666666">[BASE TABLE]</text>
<polygon fill="none" stroke="#000000" points="258,-562.5 258,-592.5 443,-592.5 443,-562.5 258,-562.5"/>
<text text-anchor="start" x="265" y="-573.9" font-family="Arial" font-size="14.00" fill="#000000">id </text>
<text text-anchor="start" x="279.7798" y="-573.9" font-family="Arial" font-size="14.00" fill="#666666">[int]</text>
<polygon fill="none" stroke="#000000" points="258,-532.5 258,-562.5 443,-562.5 443,-532.5 258,-532.5"/>
<text text-anchor="start" x="265" y="-543.9" font-family="Arial" font-size="14.00" fill="#000000">name </text>
<text text-anchor="start" x="303.899" y="-543.9" font-family="Arial" font-size="14.00" fill="#666666">[varchar(128)]</text>
<polygon fill="none" stroke="#000000" points="258,-502.5 258,-532.5 443,-532.5 443,-502.5 258,-502.5"/>
<text text-anchor="start" x="265" y="-513.9" font-family="Arial" font-size="14.00" fill="#000000">email </text>
<text text-anchor="start" x="302.3296" y="-513.9" font-family="Arial" font-size="14.00" fill="#666666">[varchar(320)]</text>
<polygon fill="none" stroke="#000000" points="258,-472.5 258,-502.5 443,-502.5 443,-472.5 258,-472.5"/>
<text text-anchor="start" x="265" y="-483.9" font-family="Arial" font-size="14.00" fill="#000000">gender </text>
<text text-anchor="start" x="312.4642" y="-483.9" font-family="Arial" font-size="14.00" fill="#666666">[varchar(10)]</text>
<polygon fill="none" stroke="#000000" points="258,-442.5 258,-472.5 443,-472.5 443,-442.5 258,-442.5"/>
<text text-anchor="start" x="265" y="-453.9" font-family="Arial" font-size="14.00" fill="#000000">picture_id </text>
<text text-anchor="start" x="329.568" y="-453.9" font-family="Arial" font-size="14.00" fill="#666666">[int]</text>
<polygon fill="none" stroke="#000000" points="258,-412.5 258,-442.5 443,-442.5 443,-412.5 258,-412.5"/>
<text text-anchor="start" x="265" y="-423.9" font-family="Arial" font-size="14.00" fill="#000000">class_id </text>
<text text-anchor="start" x="319.4516" y="-423.9" font-family="Arial" font-size="14.00" fill="#666666">[int]</text>
<polygon fill="none" stroke="#000000" points="258,-382.5 258,-412.5 443,-412.5 443,-382.5 258,-382.5"/>
<text text-anchor="start" x="265" y="-393.9" font-family="Arial" font-size="14.00" fill="#000000">created_at </text>
<text text-anchor="start" x="335.028" y="-393.9" font-family="Arial" font-size="14.00" fill="#666666">[datetime(6)]</text>
<polygon fill="none" stroke="#000000" points="258,-352.5 258,-382.5 443,-382.5 443,-352.5 258,-352.5"/>
<text text-anchor="start" x="265" y="-363.9" font-family="Arial" font-size="14.00" fill="#000000">updated_at </text>
<text text-anchor="start" x="338.9326" y="-363.9" font-family="Arial" font-size="14.00" fill="#666666">[datetime(6)]</text>
<polygon fill="none" stroke="#000000" stroke-width="3" points="256,-351.5 256,-629.5 444,-629.5 444,-351.5 256,-351.5"/>
</g>
<!-- images -->
<g id="node4" class="node">
<title>images</title>
<polygon fill="#efefef" stroke="transparent" points="99,-162.5 99,-197.5 298,-197.5 298,-162.5 99,-162.5"/>
<polygon fill="none" stroke="#000000" points="99,-162.5 99,-197.5 298,-197.5 298,-162.5 99,-162.5"/>
<text text-anchor="start" x="105.7135" y="-175.3" font-family="Arial Bold" font-size="18.00" fill="#000000">images</text>
<text text-anchor="start" x="163.7185" y="-175.3" font-family="Arial" font-size="14.00" fill="#000000">    </text>
<text text-anchor="start" x="197.9233" y="-175.3" font-family="Arial" font-size="14.00" fill="#666666">[BASE TABLE]</text>
<polygon fill="none" stroke="#000000" points="99,-132.5 99,-162.5 298,-162.5 298,-132.5 99,-132.5"/>
<text text-anchor="start" x="106" y="-143.9" font-family="Arial" font-size="14.00" fill="#000000">id    </text>
<text text-anchor="start" x="151.094" y="-143.9" font-family="Arial" font-size="14.00" fill="#666666">[int]</text>
<polygon fill="none" stroke="#000000" points="99,-102.5 99,-132.5 298,-132.5 298,-102.5 99,-102.5"/>
<text text-anchor="start" x="106" y="-113.9" font-family="Arial" font-size="14.00" fill="#000000">data    </text>
<text text-anchor="start" x="167.4432" y="-113.9" font-family="Arial" font-size="14.00" fill="#666666">[text]</text>
<polygon fill="none" stroke="#000000" points="99,-72.5 99,-102.5 298,-102.5 298,-72.5 99,-72.5"/>
<text text-anchor="start" x="106" y="-83.9" font-family="Arial" font-size="14.00" fill="#000000">created_at    </text>
<text text-anchor="start" x="206.3422" y="-83.9" font-family="Arial" font-size="14.00" fill="#666666">[datetime(6)]</text>
</g>
<!-- users&#45;&gt;images -->
<g id="edge3" class="edge">
<title>users:picture_id&#45;&gt;images:id</title>
<path fill="none" stroke="#000000" d="M247.7218,-456.6911C196.5504,-447.8185 241.0213,-367.7731 258,-307 267.2293,-273.965 288.7707,-274.035 298,-241 309.1815,-200.977 339.5556,-147.5 298,-147.5"/>
<polygon fill="#000000" stroke="#000000" points="248.0308,-456.7154 257.6469,-461.9861 253.0154,-457.1077 258,-457.5 258,-457.5 258,-457.5 253.0154,-457.1077 258.3531,-453.0139 248.0308,-456.7154 248.0308,-456.7154"/>
<text text-anchor="start" x="6.7775" y="-467.5" font-family="Arial" font-size="10.00" fill="#000000">FOREIGN KEY (picture_id) REFERENCES images (id)</text>
</g>
<!-- classes -->
<g id="node5" class="node">
<title>classes</title>
<polygon fill="#efefef" stroke="transparent" points="402,-192.5 402,-227.5 605,-227.5 605,-192.5 402,-192.5"/>
<polygon fill="none" stroke="#000000" points="402,-192.5 402,-227.5 605,-227.5 605,-192.5 402,-192.5"/>
<text text-anchor="start" x="409.7127" y="-205.3" font-family="Arial Bold" font-size="18.00" fill="#000000">classes</text>
<text text-anchor="start" x="469.7193" y="-205.3" font-family="Arial" font-size="14.00" fill="#000000">    </text>
<text text-anchor="start" x="503.9241" y="-205.3" font-family="Arial" font-size="14.00" fill="#666666">[BASE TABLE]</text>
<polygon fill="none" stroke="#000000" points="402,-162.5 402,-192.5 605,-192.5 605,-162.5 402,-162.5"/>
<text text-anchor="start" x="409" y="-173.9" font-family="Arial" font-size="14.00" fill="#000000">id    </text>
<text text-anchor="start" x="454.094" y="-173.9" font-family="Arial" font-size="14.00" fill="#666666">[int]</text>
<polygon fill="none" stroke="#000000" points="402,-132.5 402,-162.5 605,-162.5 605,-132.5 402,-132.5"/>
<text text-anchor="start" x="409" y="-143.9" font-family="Arial" font-size="14.00" fill="#000000">name    </text>
<text text-anchor="start" x="478.2132" y="-143.9" font-family="Arial" font-size="14.00" fill="#666666">[varchar(64)]</text>
<polygon fill="none" stroke="#000000" points="402,-102.5 402,-132.5 605,-132.5 605,-102.5 402,-102.5"/>
<text text-anchor="start" x="408.9993" y="-113.9" font-family="Arial" font-size="14.00" fill="#000000">description    </text>
<text text-anchor="start" x="510.8815" y="-113.9" font-family="Arial" font-size="14.00" fill="#666666">[varchar(128)]</text>
<polygon fill="none" stroke="#000000" points="402,-72.5 402,-102.5 605,-102.5 605,-72.5 402,-72.5"/>
<text text-anchor="start" x="409" y="-83.9" font-family="Arial" font-size="14.00" fill="#000000">created_at    </text>
<text text-anchor="start" x="509.3422" y="-83.9" font-family="Arial" font-size="14.00" fill="#666666">[datetime(6)]</text>
<polygon fill="none" stroke="#000000" points="402,-42.5 402,-72.5 605,-72.5 605,-42.5 402,-42.5"/>
<text text-anchor="start" x="409" y="-53.9" font-family="Arial" font-size="14.00" fill="#000000">updated_at    </text>
<text text-anchor="start" x="513.2468" y="-53.9" font-family="Arial" font-size="14.00" fill="#666666">[datetime(6)]</text>
</g>
<!-- users&#45;&gt;classes -->
<g id="edge4" class="edge">
<title>users:class_id&#45;&gt;classes:id</title>
<path fill="none" stroke="#000000" d="M453.0814,-427.3724C644.7441,-422.3597 402.1751,-271.3868 402,-271 384.8612,-233.1434 360.4444,-177.5 402,-177.5"/>
<polygon fill="#000000" stroke="#000000" points="452.9992,-427.3733 442.943,-423.0004 447.9996,-427.4366 443,-427.5 443,-427.5 443,-427.5 447.9996,-427.4366 443.057,-431.9996 452.9992,-427.3733 452.9992,-427.3733"/>
<text text-anchor="start" x="449.8345" y="-437.5" font-family="Arial" font-size="10.00" fill="#000000">FOREIGN KEY (class_id) REFERENCES classes (id)</text>
</g>
<!-- logs -->
<g id="node2" class="node">
<title>logs</title>
<polygon fill="#efefef" stroke="transparent" points="96,-902.5 96,-937.5 288,-937.5 288,-902.5 96,-902.5"/>
<polygon fill="none" stroke="#000000" points="96,-902.5 96,-937.5 288,-937.5 288,-902.5 96,-902.5"/>
<text text-anchor="start" x="111.7127" y="-915.3" font-family="Arial Bold" font-size="18.00" fill="#000000">logs</text>
<text text-anchor="start" x="144.7193" y="-915.3" font-family="Arial" font-size="14.00" fill="#000000">    </text>
<text text-anchor="start" x="178.9241" y="-915.3" font-family="Arial" font-size="14.00" fill="#666666">[BASE TABLE]</text>
<polygon fill="none" stroke="#000000" points="96,-872.5 96,-902.5 288,-902.5 288,-872.5 96,-872.5"/>
<text text-anchor="start" x="103" y="-883.9" font-family="Arial" font-size="14.00" fill="#000000">id    </text>
<text text-anchor="start" x="148.094" y="-883.9" font-family="Arial" font-size="14.00" fill="#666666">[int]</text>
<polygon fill="none" stroke="#000000" points="96,-842.5 96,-872.5 288,-872.5 288,-842.5 96,-842.5"/>
<text text-anchor="start" x="103" y="-853.9" font-family="Arial" font-size="14.00" fill="#000000">log_event    </text>
<text text-anchor="start" x="197.8976" y="-853.9" font-family="Arial" font-size="14.00" fill="#666666">[varchar(32)]</text>
<polygon fill="none" stroke="#000000" points="96,-812.5 96,-842.5 288,-842.5 288,-812.5 96,-812.5"/>
<text text-anchor="start" x="103" y="-823.9" font-family="Arial" font-size="14.00" fill="#000000">user_id    </text>
<text text-anchor="start" x="183.1024" y="-823.9" font-family="Arial" font-size="14.00" fill="#666666">[int]</text>
<polygon fill="none" stroke="#000000" points="96,-782.5 96,-812.5 288,-812.5 288,-782.5 96,-782.5"/>
<text text-anchor="start" x="103" y="-793.9" font-family="Arial" font-size="14.00" fill="#000000">message    </text>
<text text-anchor="start" x="193.9958" y="-793.9" font-family="Arial" font-size="14.00" fill="#666666">[text]</text>
<polygon fill="none" stroke="#000000" points="96,-752.5 96,-782.5 288,-782.5 288,-752.5 96,-752.5"/>
<text text-anchor="start" x="102.547" y="-763.9" font-family="Arial" font-size="14.00" fill="#000000">created_at    </text>
<text text-anchor="start" x="202.8892" y="-763.9" font-family="Arial" font-size="14.00" fill="#666666">[datetime(6)]</text>
</g>
<!-- logs&#45;&gt;users -->
<g id="edge1" class="edge">
<title>logs:user_id&#45;&gt;users:id</title>
<path fill="none" stroke="#000000" d="M298.2377,-826.4056C335.2012,-817.4536 304.4583,-755.4587 288,-710 280.9098,-690.4167 265.0902,-693.5833 258,-674 243.3995,-633.6728 215.1111,-577.5 258,-577.5"/>
<polygon fill="#000000" stroke="#000000" points="297.9433,-826.4369 287.5216,-823.0255 292.9717,-826.9685 288,-827.5 288,-827.5 288,-827.5 292.9717,-826.9685 288.4784,-831.9745 297.9433,-826.4369 297.9433,-826.4369"/>
<text text-anchor="start" x="294.945" y="-837.5" font-family="Arial" font-size="10.00" fill="#000000">FOREIGN KEY (user_id) REFERENCES users (id)</text>
</g>
<!-- team_users -->
<g id="node3" class="node">
<title>team_users</title>
<polygon fill="#efefef" stroke="transparent" points="393,-857.5 393,-892.5 628,-892.5 628,-857.5 393,-857.5"/>
<polygon fill="none" stroke="#000000" points="393,-857.5 393,-892.5 628,-892.5 628,-857.5 393,-857.5"/>
<text text-anchor="start" x="399.7072" y="-870.3" font-family="Arial Bold" font-size="18.00" fill="#000000">team_users</text>
<text text-anchor="start" x="493.7248" y="-870.3" font-family="Arial" font-size="14.00" fill="#000000">    </text>
<text text-anchor="start" x="527.9296" y="-870.3" font-family="Arial" font-size="14.00" fill="#666666">[BASE TABLE]</text>
<polygon fill="none" stroke="#000000" points="393,-827.5 393,-857.5 628,-857.5 628,-827.5 393,-827.5"/>
<text text-anchor="start" x="400" y="-838.9" font-family="Arial" font-size="14.00" fill="#000000">team    </text>
<text text-anchor="start" x="465.3212" y="-838.9" font-family="Arial" font-size="14.00" fill="#666666">[int]</text>
<polygon fill="none" stroke="#000000" points="393,-797.5 393,-827.5 628,-827.5 628,-797.5 393,-797.5"/>
<text text-anchor="start" x="400" y="-808.9" font-family="Arial" font-size="14.00" fill="#000000">user    </text>
<text text-anchor="start" x="461.4306" y="-808.9" font-family="Arial" font-size="14.00" fill="#666666">[int]</text>
</g>
<!-- team_users&#45;&gt;users -->
<g id="edge2" class="edge">
<title>team_users:user&#45;&gt;users:id</title>
<path fill="none" stroke="#000000" d="M383.1756,-809.551C373.7466,-800.9401 387.2768,-775.1672 393,-755 404.5499,-714.3008 431.4501,-714.6992 443,-674 454.7089,-632.7404 485.8889,-577.5 443,-577.5"/>
<polygon fill="#000000" stroke="#000000" points="383.4222,-809.625 391.7062,-816.81 388.2111,-811.0625 393,-812.5 393,-812.5 393,-812.5 388.2111,-811.0625 394.2938,-808.19 383.4222,-809.625 383.4222,-809.625"/>
<text text-anchor="start" x="343.1135" y="-796.5" font-family="Arial" font-size="10.00" fill="#000000">FOREIGN KEY (user) REFERENCES users (id)</text>
</g>
</g>
</svg>
