<?xml version="1.0" encoding="UTF-8" standalone="no"?>
<!DOCTYPE svg PUBLIC "-//W3C//DTD SVG 1.1//EN"
 "http://www.w3.org/Graphics/SVG/1.1/DTD/svg11.dtd">
<!-- Generated by graphviz version 2.40.1 (20161225.0304)
 -->
<!-- Title: users Pages: 1 -->
<svg width="673pt" height="1019pt"
 viewBox="0.00 0.00 672.50 1019.00" xmlns="http://www.w3.org/2000/svg" xmlns:xlink="http://www.w3.org/1999/xlink">
<g id="graph0" class="graph" transform="scale(1 1) rotate(0) translate(4 1015)">
<title>users</title>
<polygon fill="#ffffff" stroke="transparent" points="-4,4 -4,-1015 668.5,-1015 668.5,4 -4,4"/>
<!-- users -->
<g id="node1" class="node">
<title>users</title>
<polygon fill="#efefef" stroke="transparent" points="252,-622.5 252,-657.5 437,-657.5 437,-622.5 252,-622.5"/>
<polygon fill="none" stroke="#000000" points="252,-622.5 252,-657.5 437,-657.5 437,-622.5 252,-622.5"/>
<text text-anchor="start" x="258.7137" y="-635.3" font-family="Arial Bold" font-size="18.00" fill="#000000">users</text>
<text text-anchor="start" x="302.7183" y="-635.3" font-family="Arial" font-size="14.00" fill="#000000">    </text>
<text text-anchor="start" x="336.9231" y="-635.3" font-family="Arial" font-size="14.00" fill="#666666">[BASE TABLE]</text>
<polygon fill="none" stroke="#000000" points="252,-592.5 252,-622.5 437,-622.5 437,-592.5 252,-592.5"/>
<text text-anchor="start" x="259" y="-603.9" font-family="Arial" font-size="14.00" fill="#000000">id </text>
<text text-anchor="start" x="273.7798" y="-603.9" font-family="Arial" font-size="14.00" fill="#666666">[int]</text>
<polygon fill="none" stroke="#000000" points="252,-562.5 252,-592.5 437,-592.5 437,-562.5 252,-562.5"/>
<text text-anchor="start" x="259" y="-573.9" font-family="Arial" font-size="14.00" fill="#000000">name </text>
<text text-anchor="start" x="297.899" y="-573.9" font-family="Arial" font-size="14.00" fill="#666666">[varchar(128)]</text>
<polygon fill="none" stroke="#000000" points="252,-532.5 252,-562.5 437,-562.5 437,-532.5 252,-532.5"/>
<text text-anchor="start" x="259" y="-543.9" font-family="Arial" font-size="14.00" fill="#000000">email </text>
<text text-anchor="start" x="296.3296" y="-543.9" font-family="Arial" font-size="14.00" fill="#666666">[varchar(320)]</text>
<polygon fill="none" stroke="#000000" points="252,-502.5 252,-532.5 437,-532.5 437,-502.5 252,-502.5"/>
<text text-anchor="start" x="259" y="-513.9" font-family="Arial" font-size="14.00" fill="#000000">gender </text>
<text text-anchor="start" x="306.4642" y="-513.9" font-family="Arial" font-size="14.00" fill="#666666">[varchar(10)]</text>
<polygon fill="none" stroke="#000000" points="252,-472.5 252,-502.5 437,-502.5 437,-472.5 252,-472.5"/>
<text text-anchor="start" x="259" y="-483.9" font-family="Arial" font-size="14.00" fill="#000000">picture </text>
<text text-anchor="start" x="304.8962" y="-483.9" font-family="Arial" font-size="14.00" fill="#666666">[varchar(2048)]</text>
<polygon fill="none" stroke="#000000" points="252,-442.5 252,-472.5 437,-472.5 437,-442.5 252,-442.5"/>
<text text-anchor="start" x="259" y="-453.9" font-family="Arial" font-size="14.00" fill="#000000">class_id </text>
<text text-anchor="start" x="313.4516" y="-453.9" font-family="Arial" font-size="14.00" fill="#666666">[int]</text>
<polygon fill="none" stroke="#000000" points="252,-412.5 252,-442.5 437,-442.5 437,-412.5 252,-412.5"/>
<text text-anchor="start" x="259" y="-423.9" font-family="Arial" font-size="14.00" fill="#000000">created_at </text>
<text text-anchor="start" x="329.028" y="-423.9" font-family="Arial" font-size="14.00" fill="#666666">[datetime(6)]</text>
<polygon fill="none" stroke="#000000" points="252,-382.5 252,-412.5 437,-412.5 437,-382.5 252,-382.5"/>
<text text-anchor="start" x="259" y="-393.9" font-family="Arial" font-size="14.00" fill="#000000">updated_at </text>
<text text-anchor="start" x="332.9326" y="-393.9" font-family="Arial" font-size="14.00" fill="#666666">[datetime(6)]</text>
<polygon fill="none" stroke="#000000" stroke-width="3" points="250,-381.5 250,-659.5 438,-659.5 438,-381.5 250,-381.5"/>
</g>
<!-- classes -->
<g id="node4" class="node">
<title>classes</title>
<polygon fill="#efefef" stroke="transparent" points="243,-222.5 243,-257.5 446,-257.5 446,-222.5 243,-222.5"/>
<polygon fill="none" stroke="#000000" points="243,-222.5 243,-257.5 446,-257.5 446,-222.5 243,-222.5"/>
<text text-anchor="start" x="250.7127" y="-235.3" font-family="Arial Bold" font-size="18.00" fill="#000000">classes</text>
<text text-anchor="start" x="310.7193" y="-235.3" font-family="Arial" font-size="14.00" fill="#000000">    </text>
<text text-anchor="start" x="344.9241" y="-235.3" font-family="Arial" font-size="14.00" fill="#666666">[BASE TABLE]</text>
<polygon fill="none" stroke="#000000" points="243,-192.5 243,-222.5 446,-222.5 446,-192.5 243,-192.5"/>
<text text-anchor="start" x="250" y="-203.9" font-family="Arial" font-size="14.00" fill="#000000">id    </text>
<text text-anchor="start" x="295.094" y="-203.9" font-family="Arial" font-size="14.00" fill="#666666">[int]</text>
<polygon fill="none" stroke="#000000" points="243,-162.5 243,-192.5 446,-192.5 446,-162.5 243,-162.5"/>
<text text-anchor="start" x="250" y="-173.9" font-family="Arial" font-size="14.00" fill="#000000">name    </text>
<text text-anchor="start" x="319.2132" y="-173.9" font-family="Arial" font-size="14.00" fill="#666666">[varchar(64)]</text>
<polygon fill="none" stroke="#000000" points="243,-132.5 243,-162.5 446,-162.5 446,-132.5 243,-132.5"/>
<text text-anchor="start" x="249.9993" y="-143.9" font-family="Arial" font-size="14.00" fill="#000000">description    </text>
<text text-anchor="start" x="351.8815" y="-143.9" font-family="Arial" font-size="14.00" fill="#666666">[varchar(128)]</text>
<polygon fill="none" stroke="#000000" points="243,-102.5 243,-132.5 446,-132.5 446,-102.5 243,-102.5"/>
<text text-anchor="start" x="250" y="-113.9" font-family="Arial" font-size="14.00" fill="#000000">group    </text>
<text text-anchor="start" x="319.9958" y="-113.9" font-family="Arial" font-size="14.00" fill="#666666">[int]</text>
<polygon fill="none" stroke="#000000" points="243,-72.5 243,-102.5 446,-102.5 446,-72.5 243,-72.5"/>
<text text-anchor="start" x="250" y="-83.9" font-family="Arial" font-size="14.00" fill="#000000">created_at    </text>
<text text-anchor="start" x="350.3422" y="-83.9" font-family="Arial" font-size="14.00" fill="#666666">[datetime(6)]</text>
<polygon fill="none" stroke="#000000" points="243,-42.5 243,-72.5 446,-72.5 446,-42.5 243,-42.5"/>
<text text-anchor="start" x="250" y="-53.9" font-family="Arial" font-size="14.00" fill="#000000">updated_at    </text>
<text text-anchor="start" x="354.2468" y="-53.9" font-family="Arial" font-size="14.00" fill="#666666">[datetime(6)]</text>
</g>
<!-- users&#45;&gt;classes -->
<g id="edge3" class="edge">
<title>users:class_id&#45;&gt;classes:id</title>
<path fill="none" stroke="#000000" d="M241.8765,-456.7828C140.3718,-442.1191 135.2914,-207.5 243,-207.5"/>
<polygon fill="#000000" stroke="#000000" points="242.025,-456.7933 251.682,-461.9888 247.0125,-457.1466 252,-457.5 252,-457.5 252,-457.5 247.0125,-457.1466 252.318,-453.0112 242.025,-456.7933 242.025,-456.7933"/>
<text text-anchor="start" x="6.8345" y="-467.5" font-family="Arial" font-size="10.00" fill="#000000">FOREIGN KEY (class_id) REFERENCES classes (id)</text>
</g>
<!-- logs -->
<g id="node2" class="node">
<title>logs</title>
<polygon fill="#efefef" stroke="transparent" points="90,-932.5 90,-967.5 282,-967.5 282,-932.5 90,-932.5"/>
<polygon fill="none" stroke="#000000" points="90,-932.5 90,-967.5 282,-967.5 282,-932.5 90,-932.5"/>
<text text-anchor="start" x="105.7127" y="-945.3" font-family="Arial Bold" font-size="18.00" fill="#000000">logs</text>
<text text-anchor="start" x="138.7193" y="-945.3" font-family="Arial" font-size="14.00" fill="#000000">    </text>
<text text-anchor="start" x="172.9241" y="-945.3" font-family="Arial" font-size="14.00" fill="#666666">[BASE TABLE]</text>
<polygon fill="none" stroke="#000000" points="90,-902.5 90,-932.5 282,-932.5 282,-902.5 90,-902.5"/>
<text text-anchor="start" x="97" y="-913.9" font-family="Arial" font-size="14.00" fill="#000000">id    </text>
<text text-anchor="start" x="142.094" y="-913.9" font-family="Arial" font-size="14.00" fill="#666666">[int]</text>
<polygon fill="none" stroke="#000000" points="90,-872.5 90,-902.5 282,-902.5 282,-872.5 90,-872.5"/>
<text text-anchor="start" x="97" y="-883.9" font-family="Arial" font-size="14.00" fill="#000000">log_event    </text>
<text text-anchor="start" x="191.8976" y="-883.9" font-family="Arial" font-size="14.00" fill="#666666">[varchar(32)]</text>
<polygon fill="none" stroke="#000000" points="90,-842.5 90,-872.5 282,-872.5 282,-842.5 90,-842.5"/>
<text text-anchor="start" x="97" y="-853.9" font-family="Arial" font-size="14.00" fill="#000000">user_id    </text>
<text text-anchor="start" x="177.1024" y="-853.9" font-family="Arial" font-size="14.00" fill="#666666">[int]</text>
<polygon fill="none" stroke="#000000" points="90,-812.5 90,-842.5 282,-842.5 282,-812.5 90,-812.5"/>
<text text-anchor="start" x="97" y="-823.9" font-family="Arial" font-size="14.00" fill="#000000">message    </text>
<text text-anchor="start" x="187.9958" y="-823.9" font-family="Arial" font-size="14.00" fill="#666666">[text]</text>
<polygon fill="none" stroke="#000000" points="90,-782.5 90,-812.5 282,-812.5 282,-782.5 90,-782.5"/>
<text text-anchor="start" x="96.547" y="-793.9" font-family="Arial" font-size="14.00" fill="#000000">created_at    </text>
<text text-anchor="start" x="196.8892" y="-793.9" font-family="Arial" font-size="14.00" fill="#666666">[datetime(6)]</text>
</g>
<!-- logs&#45;&gt;users -->
<g id="edge1" class="edge">
<title>logs:user_id&#45;&gt;users:id</title>
<path fill="none" stroke="#000000" d="M292.2377,-856.4056C329.2012,-847.4536 298.4583,-785.4587 282,-740 274.9098,-720.4167 259.0902,-723.5833 252,-704 237.3995,-663.6728 209.1111,-607.5 252,-607.5"/>
<polygon fill="#000000" stroke="#000000" points="291.9433,-856.4369 281.5216,-853.0255 286.9717,-856.9685 282,-857.5 282,-857.5 282,-857.5 286.9717,-856.9685 282.4784,-861.9745 291.9433,-856.4369 291.9433,-856.4369"/>
<text text-anchor="start" x="288.945" y="-867.5" font-family="Arial" font-size="10.00" fill="#000000">FOREIGN KEY (user_id) REFERENCES users (id)</text>
</g>
<!-- team_users -->
<g id="node3" class="node">
<title>team_users</title>
<polygon fill="#efefef" stroke="transparent" points="387,-887.5 387,-922.5 622,-922.5 622,-887.5 387,-887.5"/>
<polygon fill="none" stroke="#000000" points="387,-887.5 387,-922.5 622,-922.5 622,-887.5 387,-887.5"/>
<text text-anchor="start" x="393.7072" y="-900.3" font-family="Arial Bold" font-size="18.00" fill="#000000">team_users</text>
<text text-anchor="start" x="487.7248" y="-900.3" font-family="Arial" font-size="14.00" fill="#000000">    </text>
<text text-anchor="start" x="521.9296" y="-900.3" font-family="Arial" font-size="14.00" fill="#666666">[BASE TABLE]</text>
<polygon fill="none" stroke="#000000" points="387,-857.5 387,-887.5 622,-887.5 622,-857.5 387,-857.5"/>
<text text-anchor="start" x="394" y="-868.9" font-family="Arial" font-size="14.00" fill="#000000">team    </text>
<text text-anchor="start" x="459.3212" y="-868.9" font-family="Arial" font-size="14.00" fill="#666666">[int]</text>
<polygon fill="none" stroke="#000000" points="387,-827.5 387,-857.5 622,-857.5 622,-827.5 387,-827.5"/>
<text text-anchor="start" x="394" y="-838.9" font-family="Arial" font-size="14.00" fill="#000000">user    </text>
<text text-anchor="start" x="455.4306" y="-838.9" font-family="Arial" font-size="14.00" fill="#666666">[int]</text>
</g>
<!-- team_users&#45;&gt;users -->
<g id="edge2" class="edge">
<title>team_users:user&#45;&gt;users:id</title>
<path fill="none" stroke="#000000" d="M377.1756,-839.551C367.7466,-830.9401 381.2768,-805.1672 387,-785 398.5499,-744.3008 425.4501,-744.6992 437,-704 448.7089,-662.7404 479.8889,-607.5 437,-607.5"/>
<polygon fill="#000000" stroke="#000000" points="377.4222,-839.625 385.7062,-846.81 382.2111,-841.0625 387,-842.5 387,-842.5 387,-842.5 382.2111,-841.0625 388.2938,-838.19 377.4222,-839.625 377.4222,-839.625"/>
<text text-anchor="start" x="337.1135" y="-826.5" font-family="Arial" font-size="10.00" fill="#000000">FOREIGN KEY (user) REFERENCES users (id)</text>
</g>
</g>
</svg>
